<svg width="406" height="86" viewBox="0 0 406 86" xmlns="http://www.w3.org/2000/svg" xmlns:xlink="http://www.w3.org/1999/xlink"><title>Brand/Logo/White</title><defs><path id="a" d="M0 .755h72.76V86H0z"/></defs><g fill="none" fill-rule="evenodd"><mask id="b" fill="#fff"><use xlink:href="#a"/></mask><path d="M0 43.378C0 66.88 19.12 86 42.623 86a42.737 42.737 0 0 0 19.734-4.835l2.522-1.32V41.705h-24.65v9.15h14.543c-.614 2.732-3.96 7.92-11.95 7.92-7.851 0-14.543-5.256-14.543-15.363 0-10.788 7.716-15.158 14.27-15.158 5.335 0 8.535 2.395 10.313 4.885l7.73-7.731c-3.614-4.054-9.372-7.26-18.042-7.26-13.656 0-25.197 10.038-25.197 25.264 0 15.296 11.063 25.197 24.514 25.197 6.897 0 11.472-2.867 13.589-5.94l.02 6.567v4.788c-4.056 1.709-8.367 2.574-12.853 2.574-18.317 0-33.22-14.903-33.22-33.22 0-18.316 14.903-33.218 33.22-33.218 8.873 0 17.215 3.455 23.489 9.73l6.649-6.65C64.71 5.189 54.008.755 42.623.755 19.12.755 0 19.875 0 43.378" fill="#FFF" mask="url(#b)"/><path d="M127.68 57.98h-4.44v6c-.763.32-1.596.57-2.498.75-.904.18-1.876.27-2.919.27-2.047 0-3.903-.36-5.568-1.079-1.665-.72-3.09-1.8-4.273-3.24-1.184-1.441-2.108-3.24-2.769-5.4-.662-2.16-.993-4.68-.993-7.561 0-3.199.371-5.9 1.113-8.099.743-2.2 1.726-3.981 2.951-5.34 1.223-1.36 2.627-2.34 4.213-2.94 1.584-.601 3.2-.9 4.846-.9 1.163 0 2.156.07 2.98.209.822.141 1.575.351 2.257.631v6.42h4.44V28.22h-.06a16.398 16.398 0 0 0-1.71-.959 9.946 9.946 0 0 0-2.01-.691c-.76-.18-1.641-.319-2.64-.42-1-.1-2.181-.15-3.54-.15-2.481 0-4.811.4-6.99 1.201-2.181.8-4.09 2.07-5.73 3.81-1.64 1.739-2.94 3.981-3.9 6.719-.96 2.74-1.44 6.07-1.44 9.99 0 3.76.429 7.012 1.29 9.75.86 2.74 2.07 4.99 3.63 6.75 1.56 1.762 3.409 3.071 5.55 3.93 2.14.859 4.47 1.291 6.99 1.291 2.64 0 4.879-.311 6.72-.93 1.839-.621 3.36-1.39 4.56-2.31l-.06-.121v-8.1zM153.758 62.451c-1.615 1.98-4.019 2.971-7.208 2.971-1.755 0-3.239-.34-4.456-1.022a8.54 8.54 0 0 1-2.96-2.699c-.758-1.119-1.307-2.379-1.646-3.779a17.802 17.802 0 0 1-.507-4.201c0-3.879.797-6.799 2.392-8.76 1.594-1.959 3.987-2.94 7.177-2.94 1.754 0 3.239.34 4.456 1.02a8.851 8.851 0 0 1 2.991 2.699 11.223 11.223 0 0 1 1.674 3.75 17.63 17.63 0 0 1 .509 4.231c0 3.839-.808 6.75-2.422 8.73m3.862-19.891c-1.2-1.398-2.71-2.509-4.53-3.33-1.82-.818-3.99-1.23-6.51-1.23-4.679 0-8.28 1.41-10.8 4.23-2.52 2.821-3.78 6.651-3.78 11.491 0 2.201.29 4.259.87 6.179.579 1.92 1.47 3.58 2.67 4.981 1.2 1.4 2.72 2.509 4.56 3.33 1.84.82 4 1.23 6.48 1.23 2.32 0 4.39-.371 6.21-1.111 1.82-.738 3.35-1.789 4.59-3.149 1.239-1.359 2.18-3.009 2.82-4.951.64-1.939.96-4.109.96-6.509 0-2.2-.291-4.26-.87-6.18-.58-1.92-1.47-3.58-2.67-4.981M187.56 58.141c-.519 2.52-1.476 4.41-2.87 5.67-1.396 1.26-3.309 1.891-5.741 1.891-1.674 0-3.09-.301-4.245-.901a7.355 7.355 0 0 1-2.781-2.461c-.697-1.039-1.196-2.269-1.495-3.689-.299-1.42-.448-2.949-.448-4.59 0-4 .917-6.93 2.751-8.791 1.834-1.859 4.345-2.789 7.534-2.789 1.794 0 3.238.14 4.335.42a9.217 9.217 0 0 1 2.96 1.32v13.92zm5.16 5.43c-.081-.58-.15-1.17-.21-1.77a66.14 66.14 0 0 1-.15-1.711c-.04-.539-.06-.99-.06-1.349V27h-9.78v4.02h5.04v8.521c-.598-.16-1.146-.31-1.646-.451a13.036 13.036 0 0 0-1.585-.33 23.054 23.054 0 0 0-1.826-.18 38.212 38.212 0 0 0-2.243-.06c-2.314 0-4.408.342-6.283 1.021-1.875.68-3.481 1.67-4.818 2.969-1.337 1.301-2.364 2.92-3.081 4.861-.719 1.94-1.078 4.17-1.078 6.69 0 5.359 1.067 9.31 3.202 11.85 2.133 2.541 5.455 3.81 9.964 3.81 2.275 0 4.279-.51 6.014-1.531 1.735-1.02 3.042-2.289 3.921-3.809h.239l.604 4.619h8.036v-3.9h-4.02c-.081-.439-.16-.949-.24-1.529zM204.16 50.301c.159-1.561.527-2.869 1.105-3.93.579-1.058 1.316-1.92 2.213-2.58.898-.66 1.934-1.129 3.111-1.41a16.144 16.144 0 0 1 3.738-.42c2.432 0 4.395.731 5.89 2.19 1.496 1.461 2.342 3.509 2.543 6.15h-18.6zm19.35-9.15c-1.26-1.219-2.71-2.049-4.35-2.491a19.192 19.192 0 0 0-4.98-.66c-2.321 0-4.42.352-6.3 1.051-1.881.701-3.481 1.711-4.8 3.029-1.32 1.321-2.331 2.961-3.03 4.92-.701 1.961-1.05 4.201-1.05 6.721 0 2.4.319 4.56.96 6.48.638 1.92 1.579 3.571 2.819 4.95 1.24 1.38 2.78 2.441 4.62 3.179 1.84.741 3.96 1.112 6.361 1.112 1.279 0 2.549-.112 3.809-.33a23.66 23.66 0 0 0 3.631-.93 18.891 18.891 0 0 0 3.21-1.442 15.063 15.063 0 0 0 2.55-1.798l-1.856-3.42c-.399.359-.967.759-1.705 1.199a15.95 15.95 0 0 1-2.544 1.201c-.958.359-1.965.67-3.022.93-1.058.26-2.124.388-3.201.388-3.232 0-5.815-.888-7.75-2.669-1.935-1.78-2.903-4.469-2.903-8.071h23.16c.201-3.398-.04-6.168-.719-8.308-.681-2.141-1.651-3.821-2.91-5.041zM253.207 52.693h9.111c-.234 6.738-4.804 10.313-11.279 10.313-8.877 0-12.656-6.709-12.656-14.942 0-7.676 3.779-14.56 12.539-14.56 5.273 0 9.609 2.519 11.514 8.144l6.591-2.754C265.687 31.16 259.125 27 250.98 27 237.299 27 231 37.019 231 48.357c0 11.367 6.416 21.299 20.039 21.299 5.508 0 10.02-2.52 12.246-6.416l.645 5.83h5.888V46.687h-16.611v6.006zM289.824 39c-3.281 0-6.592 1.992-7.852 5.537v-4.922H275v29.268h6.914V56.52c0-7.442 3.486-10.547 6.826-10.547 1.143 0 2.227.351 3.193.996l3.252-5.86c-1.406-1.435-3.427-2.109-5.361-2.109M313.629 56.812c-.439 3.457-3.164 6.621-7.559 6.621-3.193 0-4.746-1.377-4.746-3.31 0-1.846 1.494-3.545 4.746-3.545h7.559v.234zM307.447 39c-5.771 0-9.492 2.578-12.304 6.416l5.478 3.955c1.26-2.139 3.516-4.131 6.885-4.131 4.658 0 5.947 1.845 6.094 6.181h-7.94c-6.562 0-11.66 2.11-11.66 8.467 0 6.123 4.629 9.58 10.635 9.58 3.34 0 7.236-1.465 9.14-4.482l.44 3.896h5.889V51.128c0-7.148-4.688-12.128-12.657-12.128zM337.414 63.508c-4.922 0-7.148-3.838-7.148-8.76 0-4.863 2.226-8.76 7.148-8.76s7.09 3.838 7.09 8.76c0 4.981-2.168 8.76-7.09 8.76zm6.475-20.449c-2.022-2.52-5.274-3.545-8.321-3.545-8.115 0-12.568 7.148-12.568 15.234 0 8.174 4.453 15.235 12.685 15.235 3.223 0 6.475-1.114 8.497-3.897l.322 3.311h6.65V28h-7.265v15.059zM361.559 51.422c.674-3.662 2.52-6.416 6.738-6.416 3.106 0 5.625 1.553 6.358 4.57.175.586.234 1.201.234 1.846h-13.33zm20.361 2.344c0-6.533-3.31-14.766-13.564-14.766C358.454 39 354 46.735 354 54.352c0 7.881 4.746 15.117 14.825 15.117 4.922 0 8.818-1.729 12.011-5.274l-4.922-4.306c-2.05 2.285-4.394 3.105-7.031 3.105-4.599 0-6.709-2.578-7.324-6.416h20.098c.146-.41.263-1.611.263-2.812zM390.818 47.174c0-1.377 1.436-2.52 3.779-2.52 3.164 0 4.805 1.905 5.801 3.721l5.537-3.017C403.709 41.403 399.871 39 394.832 39c-5.655 0-10.869 2.93-10.869 9.111 0 10.342 14.707 7.032 14.707 11.954 0 1.552-1.436 3.486-4.747 3.486-3.896 0-5.449-2.695-6.24-4.805L382 61.266c1.435 4.512 6.123 8.203 12.275 8.203 5.537 0 11.426-2.988 11.426-9.756 0-10.752-14.883-8.115-14.883-12.539" fill="#FFF"/></g></svg>