<svg id="Layer_1" data-name="Layer 1" xmlns="http://www.w3.org/2000/svg" xmlns:xlink="http://www.w3.org/1999/xlink" viewBox="0 0 200 218"><defs><style>.cls-1,.cls-2,.cls-3{fill:none;}.cls-1{clip-rule:evenodd;}.cls-3{fill-rule:evenodd;}.cls-4{clip-path:url(#clip-path);}.cls-5{clip-path:url(#clip-path-2);}.cls-6{clip-path:url(#clip-path-3);}.cls-7{clip-path:url(#clip-path-4);}.cls-8{clip-path:url(#clip-path-5);}.cls-9{clip-path:url(#clip-path-6);}.cls-10{clip-path:url(#clip-path-7);}.cls-11{clip-path:url(#clip-path-8);}.cls-12{clip-path:url(#clip-path-9);}.cls-13{clip-path:url(#clip-path-10);}.cls-14{clip-path:url(#clip-path-11);}.cls-15{clip-path:url(#clip-path-12);}.cls-16{clip-path:url(#clip-path-13);}.cls-17{clip-path:url(#clip-path-14);}.cls-18{clip-path:url(#clip-path-15);}.cls-19{clip-path:url(#clip-path-16);}.cls-20{clip-path:url(#clip-path-17);}.cls-21{clip-path:url(#clip-path-18);}.cls-22{clip-path:url(#clip-path-19);}.cls-23{clip-path:url(#clip-path-20);}.cls-24{clip-path:url(#clip-path-21);}.cls-25{clip-path:url(#clip-path-22);}.cls-26{clip-path:url(#clip-path-23);}.cls-27{clip-path:url(#clip-path-24);}.cls-28{clip-path:url(#clip-path-25);}.cls-29{clip-path:url(#clip-path-26);}.cls-30{clip-path:url(#clip-path-27);}.cls-31{clip-path:url(#clip-path-28);}.cls-32{clip-path:url(#clip-path-29);}.cls-33{clip-path:url(#clip-path-30);}.cls-34{clip-path:url(#clip-path-31);}.cls-35{clip-path:url(#clip-path-32);}.cls-36{clip-path:url(#clip-path-33);}.cls-37{clip-path:url(#clip-path-34);}.cls-38{clip-path:url(#clip-path-35);}.cls-39{clip-path:url(#clip-path-36);}.cls-40{clip-path:url(#clip-path-37);}.cls-41{clip-path:url(#clip-path-38);}.cls-42{clip-path:url(#clip-path-39);}.cls-43{clip-path:url(#clip-path-40);}.cls-44{clip-path:url(#clip-path-41);}.cls-45{clip-path:url(#clip-path-42);}.cls-46{clip-path:url(#clip-path-43);}.cls-47{clip-path:url(#clip-path-44);}.cls-48{clip-path:url(#clip-path-45);}.cls-49{clip-path:url(#clip-path-46);}.cls-50{clip-path:url(#clip-path-47);}.cls-51{clip-path:url(#clip-path-48);}.cls-52{clip-path:url(#clip-path-49);}.cls-53{clip-path:url(#clip-path-50);}.cls-54{clip-path:url(#clip-path-51);}.cls-55{clip-path:url(#clip-path-52);}.cls-56{clip-path:url(#clip-path-53);}.cls-57{clip-path:url(#clip-path-54);}.cls-58{clip-path:url(#clip-path-55);}.cls-59{clip-path:url(#clip-path-56);}.cls-60{clip-path:url(#clip-path-57);}.cls-61{clip-path:url(#clip-path-58);}.cls-62{clip-path:url(#clip-path-59);}.cls-63{clip-path:url(#clip-path-60);}.cls-64{clip-path:url(#clip-path-61);}.cls-65{clip-path:url(#clip-path-62);}.cls-66{clip-path:url(#clip-path-63);}.cls-67{clip-path:url(#clip-path-64);}.cls-68{clip-path:url(#clip-path-65);}.cls-69{clip-path:url(#clip-path-66);}.cls-70{clip-path:url(#clip-path-67);}.cls-71{clip-path:url(#clip-path-68);}.cls-72{clip-path:url(#clip-path-69);}.cls-73{clip-path:url(#clip-path-70);}.cls-74{clip-path:url(#clip-path-71);}.cls-75{clip-path:url(#clip-path-72);}.cls-76{clip-path:url(#clip-path-73);}.cls-77{clip-path:url(#clip-path-74);}.cls-78{clip-path:url(#clip-path-75);}.cls-79{clip-path:url(#clip-path-76);}.cls-80{clip-path:url(#clip-path-77);}.cls-81{clip-path:url(#clip-path-78);}.cls-82{clip-path:url(#clip-path-79);}.cls-83{clip-path:url(#clip-path-80);}.cls-84{clip-path:url(#clip-path-81);}.cls-85{clip-path:url(#clip-path-82);}.cls-86{clip-path:url(#clip-path-83);}.cls-87{clip-path:url(#clip-path-84);}.cls-88{clip-path:url(#clip-path-85);}.cls-89{clip-path:url(#clip-path-86);}.cls-90{clip-path:url(#clip-path-87);}.cls-91{clip-path:url(#clip-path-88);}.cls-92{clip-path:url(#clip-path-89);}.cls-93{clip-path:url(#clip-path-90);}.cls-94{clip-path:url(#clip-path-91);}.cls-95{clip-path:url(#clip-path-92);}.cls-96{clip-path:url(#clip-path-93);}.cls-97{clip-path:url(#clip-path-94);}.cls-98{clip-path:url(#clip-path-95);}.cls-99{clip-path:url(#clip-path-96);}.cls-100{clip-path:url(#clip-path-97);}.cls-101{clip-path:url(#clip-path-98);}.cls-102{clip-path:url(#clip-path-99);}.cls-103{clip-path:url(#clip-path-100);}.cls-104{clip-path:url(#clip-path-101);}.cls-105{clip-path:url(#clip-path-102);}.cls-106{clip-path:url(#clip-path-103);}.cls-107{clip-path:url(#clip-path-104);}.cls-108{clip-path:url(#clip-path-105);}.cls-109{clip-path:url(#clip-path-106);}.cls-110{clip-path:url(#clip-path-107);}.cls-111{clip-path:url(#clip-path-108);}.cls-112{clip-path:url(#clip-path-109);}.cls-113{clip-path:url(#clip-path-110);}.cls-114{clip-path:url(#clip-path-111);}.cls-115{clip-path:url(#clip-path-112);}.cls-116{clip-path:url(#clip-path-113);}.cls-117{clip-path:url(#clip-path-114);}.cls-118{clip-path:url(#clip-path-115);}.cls-119{clip-path:url(#clip-path-116);}.cls-120{clip-path:url(#clip-path-117);}.cls-121{clip-path:url(#clip-path-118);}.cls-122{clip-path:url(#clip-path-119);}.cls-123{clip-path:url(#clip-path-120);}.cls-124{clip-path:url(#clip-path-121);}.cls-125{clip-path:url(#clip-path-122);}.cls-126{clip-path:url(#clip-path-123);}.cls-127{clip-path:url(#clip-path-124);}.cls-128{clip-path:url(#clip-path-125);}.cls-129{clip-path:url(#clip-path-126);}.cls-130{clip-path:url(#clip-path-127);}.cls-131{clip-path:url(#clip-path-128);}.cls-132{clip-path:url(#clip-path-129);}.cls-133{clip-path:url(#clip-path-130);}.cls-134{clip-path:url(#clip-path-131);}.cls-135{clip-path:url(#clip-path-132);}.cls-136{clip-path:url(#clip-path-133);}.cls-137{clip-path:url(#clip-path-134);}.cls-138{clip-path:url(#clip-path-135);}.cls-139{clip-path:url(#clip-path-136);}.cls-140{clip-path:url(#clip-path-137);}.cls-141{clip-path:url(#clip-path-138);}.cls-142{clip-path:url(#clip-path-139);}.cls-143{clip-path:url(#clip-path-140);}.cls-144{clip-path:url(#clip-path-141);}.cls-145{clip-path:url(#clip-path-142);}.cls-146{clip-path:url(#clip-path-143);}.cls-147{clip-path:url(#clip-path-144);}.cls-148{clip-path:url(#clip-path-145);}.cls-149{clip-path:url(#clip-path-146);}.cls-150{clip-path:url(#clip-path-147);}.cls-151{clip-path:url(#clip-path-148);}.cls-152{clip-path:url(#clip-path-149);}.cls-153{clip-path:url(#clip-path-150);}.cls-154{clip-path:url(#clip-path-151);}.cls-155{clip-path:url(#clip-path-152);}.cls-156{clip-path:url(#clip-path-153);}.cls-157{clip-path:url(#clip-path-154);}.cls-158{clip-path:url(#clip-path-155);}.cls-159{clip-path:url(#clip-path-156);}.cls-160{clip-path:url(#clip-path-157);}.cls-161{clip-path:url(#clip-path-158);}.cls-162{clip-path:url(#clip-path-159);}.cls-163{clip-path:url(#clip-path-160);}.cls-164{clip-path:url(#clip-path-161);}.cls-165{clip-path:url(#clip-path-162);}.cls-166{clip-path:url(#clip-path-163);}.cls-167{clip-path:url(#clip-path-164);}.cls-168{clip-path:url(#clip-path-165);}.cls-169{clip-path:url(#clip-path-166);}.cls-170{clip-path:url(#clip-path-167);}.cls-171{clip-path:url(#clip-path-168);}.cls-172{clip-path:url(#clip-path-169);}.cls-173{clip-path:url(#clip-path-170);}.cls-174{clip-path:url(#clip-path-171);}.cls-175{clip-path:url(#clip-path-172);}.cls-176{clip-path:url(#clip-path-173);}.cls-177{clip-path:url(#clip-path-174);}.cls-178{clip-path:url(#clip-path-175);}.cls-179{clip-path:url(#clip-path-176);}.cls-180{clip-path:url(#clip-path-177);}.cls-181{clip-path:url(#clip-path-178);}.cls-182{clip-path:url(#clip-path-179);}.cls-183{clip-path:url(#clip-path-180);}.cls-184{clip-path:url(#clip-path-181);}.cls-185{clip-path:url(#clip-path-183);}.cls-186{clip-path:url(#clip-path-184);}.cls-187{fill:#0d82f2;}.cls-188{clip-path:url(#clip-path-185);}.cls-189{isolation:isolate;}.cls-190{clip-path:url(#clip-path-187);}.cls-191{clip-path:url(#clip-path-188);}.cls-192{clip-path:url(#clip-path-189);}.cls-193{fill:#ead1ca;}.cls-194{clip-path:url(#clip-path-192);}.cls-195{clip-path:url(#clip-path-193);}.cls-196{fill:#238757;}.cls-197{clip-path:url(#clip-path-197);}.cls-198{clip-path:url(#clip-path-198);}.cls-199{fill:#9b611c;}.cls-200{clip-path:url(#clip-path-202);}.cls-201{clip-path:url(#clip-path-203);}.cls-202{clip-path:url(#clip-path-205);}.cls-203{clip-path:url(#clip-path-207);}.cls-204{clip-path:url(#clip-path-208);}.cls-205{fill:#2abf7e;}.cls-206{clip-path:url(#clip-path-212);}.cls-207{clip-path:url(#clip-path-213);}.cls-208{clip-path:url(#clip-path-217);}.cls-209{clip-path:url(#clip-path-218);}.cls-210{clip-path:url(#clip-path-222);}.cls-211{clip-path:url(#clip-path-223);}.cls-212{clip-path:url(#clip-path-227);}.cls-213{clip-path:url(#clip-path-228);}.cls-214{fill:#65676d;}.cls-215{clip-path:url(#clip-path-230);}.cls-216{clip-path:url(#clip-path-232);}.cls-217{clip-path:url(#clip-path-234);}.cls-218{clip-path:url(#clip-path-236);}.cls-219{clip-path:url(#clip-path-238);}.cls-220{fill:#665140;}.cls-221{clip-path:url(#clip-path-240);}.cls-222{fill:#3ddc97;}.cls-223{clip-path:url(#clip-path-242);}.cls-224{clip-path:url(#clip-path-244);}.cls-225{clip-path:url(#clip-path-246);}.cls-226{fill:#1b2431;}.cls-227{clip-path:url(#clip-path-248);}.cls-228{clip-path:url(#clip-path-250);}.cls-229{clip-path:url(#clip-path-252);}.cls-230{clip-path:url(#clip-path-254);}.cls-231{clip-path:url(#clip-path-256);}.cls-232{fill:#2b2b2b;}.cls-233{clip-path:url(#clip-path-258);}.cls-234{fill:#bf1616;}.cls-235{clip-path:url(#clip-path-260);}.cls-236{clip-path:url(#clip-path-262);}.cls-237{fill:#c92b2b;}.cls-238{clip-path:url(#clip-path-264);}.cls-239{clip-path:url(#clip-path-266);}.cls-240{clip-path:url(#clip-path-268);}.cls-241{fill:#2a343f;}.cls-242{clip-path:url(#clip-path-270);}.cls-243{clip-path:url(#clip-path-272);}.cls-244{clip-path:url(#clip-path-274);}.cls-245{clip-path:url(#clip-path-276);}.cls-246{clip-path:url(#clip-path-278);}.cls-247{fill:#aa1b1b;}.cls-248{clip-path:url(#clip-path-280);}.cls-249{clip-path:url(#clip-path-282);}.cls-250{clip-path:url(#clip-path-284);}.cls-251{clip-path:url(#clip-path-286);}.cls-252{clip-path:url(#clip-path-288);}.cls-253{clip-path:url(#clip-path-290);}.cls-254{fill:#fff;}.cls-255{clip-path:url(#clip-path-292);}.cls-256{clip-path:url(#clip-path-294);}.cls-257{clip-path:url(#clip-path-295);}.cls-258{clip-path:url(#clip-path-296);}</style><clipPath id="clip-path"><path class="cls-1" d="M657.68-818.3H581.52a15.1,15.1,0,0,1-15.07-15.05v-2.73a15.1,15.1,0,0,1,15.07-15h29.71a15.1,15.1,0,0,0,15.07-15,15.1,15.1,0,0,0-15.07-15.05H288.73a15.1,15.1,0,0,0-15.06,15.05,15.1,15.1,0,0,0,15.06,15H294a15.1,15.1,0,0,1,15.06,15v2.73A15.1,15.1,0,0,1,294-818.3H150.05a16.47,16.47,0,0,0-16.44,16.42,16.47,16.47,0,0,0,16.44,16.42h74.33a15.1,15.1,0,0,1,15.06,15.05v2.74a15.1,15.1,0,0,1-15.06,15H179.55a16.47,16.47,0,0,0-16.43,16.42,16.47,16.47,0,0,0,16.43,16.42h58.1c10.11,0,18.38,6.77,18.38,15V-702c0,8.27-8.27,15-18.38,15h-13a15.1,15.1,0,0,0-15.06,15.05,15.11,15.11,0,0,0,15.06,15H604.17a15.11,15.11,0,0,0,15.07-15,15.1,15.1,0,0,0-15.07-15.05H588.51c-10.11,0-18.38-6.78-18.38-15v-2.74c0-8.28,8.27-15,18.38-15h31.43a16.47,16.47,0,0,0,16.43-16.42,16.47,16.47,0,0,0-16.43-16.42H597.55a15.1,15.1,0,0,1-15.07-15v-2.74a15.1,15.1,0,0,1,15.07-15.05h60.13a16.47,16.47,0,0,0,16.43-16.42,16.47,16.47,0,0,0-16.43-16.42"/></clipPath><clipPath id="clip-path-2"><path class="cls-1" d="M1278.63-596.34h-76.16a15.1,15.1,0,0,1-15.06-15v-2.74a15.11,15.11,0,0,1,15.06-15h29.71a15.1,15.1,0,0,0,15.07-15.05,15.1,15.1,0,0,0-15.07-15H909.69a15.1,15.1,0,0,0-15.07,15,15.1,15.1,0,0,0,15.07,15.05h5.21a15.11,15.11,0,0,1,15.07,15v2.74a15.1,15.1,0,0,1-15.07,15H771a16.48,16.48,0,0,0-16.44,16.42A16.47,16.47,0,0,0,771-563.51h74.33a15.11,15.11,0,0,1,15.07,15v2.74a15.1,15.1,0,0,1-15.07,15.05H800.51a16.48,16.48,0,0,0-16.44,16.42,16.48,16.48,0,0,0,16.44,16.42h58.1c10.11,0,18.38,6.77,18.38,15.05V-480c0,8.28-8.27,15.05-18.38,15.05h-13a15.11,15.11,0,0,0-15.07,15.05,15.1,15.1,0,0,0,15.07,15.05h379.49a15.1,15.1,0,0,0,15.07-15.05A15.11,15.11,0,0,0,1225.13-465h-15.66c-10.11,0-18.39-6.77-18.39-15.05v-2.73c0-8.28,8.28-15.05,18.39-15.05h31.42a16.48,16.48,0,0,0,16.44-16.42,16.48,16.48,0,0,0-16.44-16.42h-22.38a15.1,15.1,0,0,1-15.07-15.05v-2.74a15.11,15.11,0,0,1,15.06-15h60.13a16.47,16.47,0,0,0,16.44-16.41,16.48,16.48,0,0,0-16.44-16.42"/></clipPath><clipPath id="clip-path-3"><path class="cls-1" d="M1184.63-861.2h-76.16a15.1,15.1,0,0,1-15.07-15V-879a15.11,15.11,0,0,1,15.07-15h29.71a15.1,15.1,0,0,0,15.07-15.05,15.11,15.11,0,0,0-15.07-15H815.69a15.11,15.11,0,0,0-15.07,15A15.1,15.1,0,0,0,815.69-894h5.21A15.11,15.11,0,0,1,836-879v2.74a15.1,15.1,0,0,1-15.07,15H677a16.48,16.48,0,0,0-16.44,16.42A16.48,16.48,0,0,0,677-828.36h74.33a15.1,15.1,0,0,1,15.07,15v2.74a15.1,15.1,0,0,1-15.07,15.05H706.51a16.47,16.47,0,0,0-16.44,16.42,16.47,16.47,0,0,0,16.44,16.42H764.6c10.11,0,18.39,6.77,18.39,15.05v2.73c0,8.28-8.28,15-18.39,15h-13a15.11,15.11,0,0,0-15.07,15.05,15.1,15.1,0,0,0,15.07,15h379.49a15.1,15.1,0,0,0,15.06-15,15.11,15.11,0,0,0-15.06-15.05h-15.67c-10.11,0-18.38-6.77-18.38-15v-2.73c0-8.28,8.27-15.05,18.38-15.05h31.43a16.48,16.48,0,0,0,16.44-16.42,16.48,16.48,0,0,0-16.44-16.42H1124.5a15.1,15.1,0,0,1-15.06-15.05v-2.74a15.1,15.1,0,0,1,15.06-15h60.13a16.48,16.48,0,0,0,16.44-16.42,16.48,16.48,0,0,0-16.44-16.42"/></clipPath><clipPath id="clip-path-4"><path class="cls-1" d="M16.44-624.24H92.6a15.1,15.1,0,0,0,15.06-15V-642A15.1,15.1,0,0,0,92.6-657.07H62.88a15.11,15.11,0,0,1-15.06-15,15.1,15.1,0,0,1,15.06-15h322.5a15.1,15.1,0,0,1,15.07,15,15.11,15.11,0,0,1-15.07,15h-5.21A15.1,15.1,0,0,0,365.1-642v2.73a15.1,15.1,0,0,0,15.07,15h143.9a16.48,16.48,0,0,1,16.44,16.42,16.48,16.48,0,0,1-16.44,16.42H449.74a15.1,15.1,0,0,0-15.07,15v2.73a15.1,15.1,0,0,0,15.07,15h44.82A16.48,16.48,0,0,1,511-542.15a16.48,16.48,0,0,1-16.44,16.42h-58.1c-10.11,0-18.38,6.77-18.38,15.05v2.74c0,8.27,8.27,15.05,18.38,15.05h13a15.1,15.1,0,0,1,15.07,15.05,15.11,15.11,0,0,1-15.07,15H69.94a15.11,15.11,0,0,1-15.07-15,15.1,15.1,0,0,1,15.07-15.05H85.6c10.11,0,18.39-6.78,18.39-15.05v-2.74c0-8.28-8.28-15.05-18.39-15.05H54.17a16.48,16.48,0,0,1-16.43-16.42,16.48,16.48,0,0,1,16.43-16.42H76.56a15.1,15.1,0,0,0,15.07-15v-2.73a15.1,15.1,0,0,0-15.06-15H16.44A16.48,16.48,0,0,1,0-607.82a16.48,16.48,0,0,1,16.44-16.42"/></clipPath><clipPath id="clip-path-5"><rect class="cls-2" x="762.4" y="-384.2" width="160.9" height="76.15"/></clipPath><clipPath id="clip-path-6"><path class="cls-1" d="M789.62-738.9c.2,7.9-.4,7.49-1,8.7s-8.3,17.87-8.3,17.87l13.56,39.41,9.51,5.87,37.84-37.24s7.5-31,7.29-38.86-1.62-18.82-1-26.31.4-20.64,2-26.11,3.64-34.2.4-51-17.14-63.87-78.19-54c-50.32,8.1-63.05,38-59.82,69.83.61,5.93,6.56,13.68,8.35,18.72,3.27,9.16,8.14,18,10.57,24.39,9.31,24.28,18.93,38.72,41.18,52.42,9.54,5.86,17.61-3.65,17.61-3.65"/></clipPath><clipPath id="clip-path-7"><path class="cls-1" d="M788.9-727.62c1.33,4.51-5.49,14.43-2.72,19.82s-4.27.12-4.27.12v-14.69Z"/></clipPath><clipPath id="clip-path-8"><path class="cls-1" d="M778.69-722s-39.05,15-46.94,24.76-19.43,100.81-20.24,119.83-3.22,99.78-3.22,99.78l15.56,49.94,58.28,89.31H898.69L903.55-550S925.41-698.34,923-706.58s-23.76-21.59-31.05-24.83S855.25-746,855.25-746l-34.87,42.7L801.08-664l-2.76-4Z"/></clipPath><clipPath id="clip-path-9"><path class="cls-1" d="M729-628.39c-4.15,34.81-2.73,33.64-.3,41.31s-4.86,112.71-4.86,112.71h3.65s6.67-98.65,6.67-104c0-2.47-3.62-4.62-5.16-25.76-1.78-24.47,0-24.29,0-24.29"/></clipPath><clipPath id="clip-path-10"><path class="cls-1" d="M847.35-764.15c-3.67,3.12-.87,18.52-1.32,20.34s-.58,6.53-6.38,10.63c-22.17,15.71-26.76,22.82-26.76,22.82l8.32,2.68L855-730.3s.61-23.52,0-24-7.63-9.87-7.63-9.87"/></clipPath><clipPath id="clip-path-11"><path class="cls-1" d="M789.44-737.36c-4.45,5.27-13,14.86-13.78,24.57S770-683,770-683l11.75-8.33s12.13,26.86,20.23,33.74c4.28-4,7.93-15.1,18.81-24.39,9.43-8,15.16-19.57,23.28-27.32,5.55-5.3,11.41-5.23,13.05-10.22,4.19-12.78,2.93-15.33,2.53-21s-1.72-16.85-12.29-23.58c-.4,10.79.35,19.38,1.16,21s-7.29,13.91-13.36,18.22-22.26,14.57-22.26,14.57-8.5,34.21-10.11,36.74-14.17-33.1-18.22-36.34,3.14-13.15,4-15.58.93-11.82.93-11.82"/></clipPath><clipPath id="clip-path-12"><polygon class="cls-1" points="811.25 -703.85 827.14 -688.46 828.73 -689.61 831.17 -687.98 812.89 -710.36 811.25 -703.85"/></clipPath><clipPath id="clip-path-13"><path class="cls-1" d="M899.62-650.15c-11.85,19.43-14.69,108.59-12.26,116.63s-1,92.24-1,92.24h25.24Z"/></clipPath><clipPath id="clip-path-14"><path class="cls-1" d="M851.65-734.24c-16.26,22.11-29.78,48.33-35,55.82s-3.81,10.07-3.81,10.07,40.79-21.77,45.83-36.42-7-29.47-7-29.47"/></clipPath><clipPath id="clip-path-15"><path class="cls-1" d="M907.16-722.37c11.51,8.54,35.24,27.73,36.46,41.93s-3.62,261.33-13,262.54-38.56,0-38.56,0v-102s1.59-81.41,0-108.49c-1.78-30.16,15.14-94,15.14-94"/></clipPath><clipPath id="clip-path-16"><path class="cls-1" d="M812.89-710.36l18.51,26.27s9.62-6.64,15.29-11,11.77-23.83,13.27-36.09-12.17-9.4-12.17-9.4l-4.34,16.85Z"/></clipPath><clipPath id="clip-path-17"><path class="cls-1" d="M850-773.69c-4,12.84-5.15-7.9-5.45-9.42s-4.32-18.53-4.32-18.53,7-3,6.71-9.11-1.76-34.91-13.76-31.27-6.14,15.49-6.14,15.49-2.47,4.65-3.82,4.85-4.37-2.43-5.48-4.25-6.28-15.18-8.4-17.61-9.11-5.16-10-6.68-3-4.25-6.68-3.33-34.6,11.84-46.14,11.84H718s-3.87,11.38-2,19a46.63,46.63,0,0,0,2.56,7.05s-20.65-11.92-25.2-17.17-8.5-11.33-8.8-16.8,8.46-11.53,19-18.62c4.45-3,4.14-1.65,4.31-2.39,1.51-6.53,7.09-16.19,12.25-18.15,7.22-2.73,11.58-5,34.61-12.45,28.54-9.22,56.43-6.62,74.68,9.11S872.21-844.73,850-773.69"/></clipPath><clipPath id="clip-path-18"><path class="cls-1" d="M758.22-757.88l-.37-1.15c.18-.06,18.74-6.09,32.94-12.27,5-2.19,6.62-4.8,7.47-6.2.39-.64.68-1.1,1.14-1.29l.46,1.12a3.76,3.76,0,0,0-.56.8c-.92,1.52-2.63,4.34-8,6.68-14.25,6.21-32.86,12.25-33,12.31"/></clipPath><clipPath id="clip-path-19"><path class="cls-1" d="M765.71-761.41s9.79,4.33,17.35,2.51S795-772.2,795-772.2Z"/></clipPath><clipPath id="clip-path-20"><path class="cls-1" d="M760.53-774.48c-2.75,0-4.59-8.92-7.64-28.7-.89-5.76-1.65-10.73-2.31-13.35l1.18-.29c.67,2.67,1.44,7.67,2.33,13.46,1.39,9,4.26,27.67,6.42,27.67h0c3.74-.29,9.06-3.8,9.12-3.83l.67,1c-.23.15-5.64,3.72-9.7,4h-.1"/></clipPath><clipPath id="clip-path-21"><path class="cls-1" d="M781.41-820.85c1.14,3.86.56,7.43-1.29,8s-4.29-2.13-5.43-6-.56-7.43,1.29-8,4.29,2.13,5.43,6"/></clipPath><clipPath id="clip-path-22"><path class="cls-1" d="M740.28-808.67c1,3.46.51,6.66-1.16,7.16s-3.84-1.92-4.87-5.38-.5-6.67,1.16-7.16,3.85,1.91,4.87,5.38"/></clipPath><clipPath id="clip-path-23"><path class="cls-1" d="M718-841.71c-9.94-.31-22.08-5.77-20,0s19.17,24.5,18.18,19.64a26.51,26.51,0,0,1-.05-12.24,55.29,55.29,0,0,1,1.83-7.4"/></clipPath><clipPath id="clip-path-24"><path class="cls-1" d="M924.4-495.34c15.21,6,16.84,26.09,25.52,6.18s10.25-104.64-18-135.25c-22.89-24.84-42.23-13.12-48.56-12.8-7.45.37-27.64-7.07-37.58,31.23-6.64,25.6,9.73,67.21,8,93.14-2.14,32.11,17.87,36.55,29.27,47,21.71,19.91,13.06-25,13.06-25Z"/></clipPath><clipPath id="clip-path-25"><path class="cls-1" d="M957.45-489.28c-12.25-5-23.83-5.34-25.28-11.49S928.91-525,928.91-525l-24.1,7.78,1.81,17-.73,8-28.73,7.77-10.85,13-6.16,38.19,55.73,7.78,34-34.38Z"/></clipPath><clipPath id="clip-path-26"><path class="cls-1" d="M927.08-522.26s-4.19,8-6.27,10.13a38.69,38.69,0,0,1-14.45,9.47l-1.44-10.24,20.91-13.32Z"/></clipPath><clipPath id="clip-path-27"><path class="cls-1" d="M933.62-550.12c-4.93,18.79-9.6,34.33-22.26,41.56s-29,3.19-38.62-7c-15.74-16.62-24.09-31.82-22.28-68.38s11.86-44.24,22-46,47.78,9.41,51.94,43.07a9.2,9.2,0,0,1,1.77-.45c11.77-1.75,17.25,23.26,9.62,26.51-3,1.3-6.53-2.59-5.43-.72a21.82,21.82,0,0,1,3.26,11.46"/></clipPath><clipPath id="clip-path-28"><rect class="cls-2" x="830.48" y="-498.35" width="170.81" height="190.3"/></clipPath><clipPath id="clip-path-29"><path class="cls-1" d="M982.19-476.49c12.53,23.78,16,72.37,11.5,103.84s-15.78,49.34-26.2,53.19c-11.13,4.12-25.55,6.17-32.79.92s-25.5-35.57-26.78-40,12.76,2.76,20.9-5.16c7-6.79,4.7-18.23,5.88-21.26s12.31,13,12.31,13,3.61-21.23,3.24-31.66c-1.19-33.54,16-82.48,18.4-81.65,3.73,1.29,9.74,1.53,13.54,8.74"/></clipPath><clipPath id="clip-path-30"><path class="cls-1" d="M898.52-568.53c.22,3.22,1.79,5.73,3.49,5.61s2.91-2.82,2.69-6-1.8-5.73-3.5-5.61-2.91,2.83-2.68,6"/></clipPath><clipPath id="clip-path-31"><path class="cls-1" d="M855.7-567.22c.18,2.65,1.47,4.72,2.88,4.62s2.39-2.33,2.21-5-1.48-4.71-2.88-4.61-2.4,2.32-2.21,5"/></clipPath><clipPath id="clip-path-32"><path class="cls-1" d="M887.63-517.5c8.33,0,15.1-3.11,21-9.56l-.8-.73c-6.94,7.62-15.18,10.4-25.92,8.75l-.17,1.07a38.51,38.51,0,0,0,5.92.47"/></clipPath><clipPath id="clip-path-33"><path class="cls-1" d="M924.4-586.92c-5,2.72,2.52,8-2.11,8.92-2,.4-4.9-1.22-8.38-3.61-1.45-1-4.62-11.54-3.65-14.66.49-1.55-3.64,9.45-5,8.5a64.58,64.58,0,0,0-7.26-4.39c-11-5.6-22.43-6-32.2-4.67-1.63.23-1.1-11.12-1.72-9.67-1.09,2.57-6.07,11.14-7.5,11.5-10.25,2.6-11,5-11.07,3.37-.09-3.54,17.84-40.79,17.84-40.79l41.36,2.25,27,27.15Z"/></clipPath><clipPath id="clip-path-34"><path class="cls-1" d="M930.39-562s-2.64,28-7.64,49.44c-3.69,15.81-3.06,24,.06,33,2.1,6,1.42,18.83,18.15,15.18s6.26-22.44,10.11-28.11-17.49-66.15-17.49-66.15Z"/></clipPath><clipPath id="clip-path-35"><path class="cls-1" d="M874.78-540h-.36a2.71,2.71,0,0,1-2.11-.95c-2-2.66.81-8.48,3.09-13.16.88-1.81,1.88-3.86,1.83-4.39-.23-2.62.76-19.09.81-19.79l1.21.07c0,.17-1,17.09-.81,19.61.08.83-.61,2.29-2,5-1.9,3.91-4.78,9.83-3.22,11.89a1.62,1.62,0,0,0,1.23.48c2.44.16,6.73-1.75,7.94-3l.86.85a15.5,15.5,0,0,1-8.52,3.35"/></clipPath><clipPath id="clip-path-36"><path class="cls-1" d="M850.31-594.19h0m0,0h0m0,0h0m0,0h0m0,0h0m0,0,.57-.08-.57.08m.57-.08h0m0,0h0m0,0,.08,0-.08,0m.08,0h0m9.4-27.14c-10.92,11.07-9.37,27.14-9.37,27.14.52-.07,2.84-12.45,4.82-15.8,10.88-18.41,22.55,4.57,22.55,4.57S911.61-586,923.8-587.13c.57-.73,4.13-2.16,7.69-.1,4.64,2.69-13-43.56-13-43.56l-32.86-.36s-.33,0-.92,0c-3.38,0-15.35.68-24.3,9.75"/></clipPath><clipPath id="clip-path-37"><path class="cls-1" d="M452.89-692.79c-17,6.68-33,2.83-42.7-19.43s6.88-108.1,47.37-136.43,65.82-19,70.56-13.77,8.19-6.18,20.13,36.44c12,42.91,19,106.47-5.26,128.74s-58.5,9.51-58.5,9.51Z"/></clipPath><clipPath id="clip-path-38"><path class="cls-1" d="M415.91-686c13.71-5.57,26.67-6,28.29-12.85S447.84-726,447.84-726l50.61,17.41-2,19,.81,8.9h8.5l12.14,14.58,6.89,42.71-62.35,8.7-38.06-38.46Z"/></clipPath><clipPath id="clip-path-39"><path class="cls-1" d="M451.85-721.13c1,6.84,1,2.65-.23,12,0,2.48-5.19,5.73-5.62,11.46,7.63-2.83,12.57-2.9,21.27,0,12.79,4.29,23.17,4.93,30,.41,11-7.33-45.39-23.89-45.39-23.89"/></clipPath><clipPath id="clip-path-40"><path class="cls-1" d="M442.58-754.06c-1.22,18.36,7.69,43.46,21.86,51.55s36,13.77,50.61-7.28,32.39-40.89,30.37-81.78-23.08-49.8-34.42-51.82-53.46,10.52-58.11,48.17c-14.51-5.26-15.58,19.84-12.74,29.15.73,2.4,7.3-2.9,6.07-.81a24.38,24.38,0,0,0-3.64,12.82"/></clipPath><clipPath id="clip-path-41"><rect class="cls-2" x="366.87" y="-689.55" width="191.1" height="380.51"/></clipPath><clipPath id="clip-path-42"><path class="cls-1" d="M476.59-669.31c-8.85,6.43-23.49,169.63-20.25,174.28s114.18,8.71,117.82,6.68,29.15-180.15,25.91-181-119-3.24-123.48,0"/></clipPath><clipPath id="clip-path-43"><path class="cls-1" d="M392.37-522.76c-.29,8.7-1.37,37.34-.81,47.37,4.47,79.73,7.18,179.51,44.31-16.13,1.75-9.2-5.33-49.35-5.24-87.86.07-26.36-8.62-38.91-8.62-38.91l-41.66,76.51s12.71-1,12,19"/></clipPath><clipPath id="clip-path-44"><path class="cls-1" d="M456.33-513.89c11.5-12.81,15-25,22.28-30.88,6.13-5,16-7.39,19.89-8.5,8.5-2.43,28.38-14.24,27.31-26.11s-15.16-8.2-15.16-8.2l-42.51,42.51Z"/></clipPath><clipPath id="clip-path-45"><path class="cls-1" d="M438.57-563.43c10.25-8.42,14.69-14.52,15.3-18.83.35-2.48.92-12.25,3.84-18.28,2.16-4.45,7-6.21,6.85-4.77-.17,2.34-.46,4-.46,4s-2.19,8.91,10.13,7c14.4-2.24,27.43-2.66,35.73-7.52s29.1,20.37,5.22,36.46-38.24,10-46.82,27.16-18.66,21.07-18.66,21.07L433.83-542.3Z"/></clipPath><clipPath id="clip-path-46"><path class="cls-1" d="M467.93-537.42l.43-.83a27,27,0,0,1,3.8-5.78l-.74,0c-28.61,1.06-27.94-23.68-27.94-23.68h0c-1.46,1.36-3.09,2.77-4.91,4.27l-.19.87v13.08l14.51,16.25s7.74-1.95,15-4.19"/></clipPath><clipPath id="clip-path-47"><path class="cls-1" d="M380.53-669c-14,26.59-10.18,78.27-5.16,113.48s17.66,55.18,29.31,59.49c12.45,4.61,28.59,6.9,36.68,1s28.53-39.78,30-44.73-14.27,3.09-23.38-5.77c-7.81-7.6-5.26-20.39-6.58-23.78s-13.76,14.57-13.76,14.57-4-23.74-3.63-35.41c1.33-37.52-17.91-92.25-20.59-91.33-4.17,1.44-18.6,4.38-22.85,12.45"/></clipPath><clipPath id="clip-path-48"><path class="cls-1" d="M481.85-774.65c-.25,3.6-2,6.41-3.92,6.27s-3.25-3.16-3-6.75,2-6.41,3.92-6.27,3.25,3.15,3,6.75"/></clipPath><clipPath id="clip-path-49"><path class="cls-1" d="M532.62-773.18c-.2,3-1.65,5.27-3.22,5.16s-2.68-2.6-2.47-5.56,1.65-5.28,3.22-5.17,2.68,2.6,2.47,5.57"/></clipPath><clipPath id="clip-path-50"><path class="cls-1" d="M499.79-733.86l-.58,0,.1-1.21a7.09,7.09,0,0,0,5.64-2.47,9.45,9.45,0,0,0,2.21-8.16c-1.21-6.88,1.89-51.68,2-53.59l1.21.09c0,.46-3.22,46.56-2,53.29a10.67,10.67,0,0,1-2.52,9.19,8.42,8.42,0,0,1-6,2.88"/></clipPath><clipPath id="clip-path-51"><path class="cls-1" d="M467.71-725.56l-.86-.86c3.86-3.86,4.73-6.22,4.74-6.25l1.15.4c0,.11-.93,2.61-5,6.71"/></clipPath><clipPath id="clip-path-52"><path class="cls-1" d="M492.73-717.57c-9.32,0-16.89-3.48-23.46-10.69l.9-.82c7.76,8.52,17,11.63,29,9.78l.18,1.2a42.72,42.72,0,0,1-6.62.53"/></clipPath><clipPath id="clip-path-53"><path class="cls-1" d="M444.8-802.5c11.14,6.07,14.79,12.75,37.66,1.41S528-827.5,528.12-831.45s1.66-22.87,1.66-22.87L475-843.6,444.8-813.23Z"/></clipPath><clipPath id="clip-path-54"><path class="cls-1" d="M518.49-836.31c4.25,6.28,21.42,25.95,24.68,27.75s4.88,0,4.88,0l-7.9-32.61Z"/></clipPath><clipPath id="clip-path-55"><path class="cls-1" d="M446.22-766.88s8.48,45.67,6.67,52.59-4.05,24.4-22.77,20.32-9-51.45-9-51.45Z"/></clipPath><clipPath id="clip-path-56"><path class="cls-1" d="M589.14-656a4.56,4.56,0,0,0-4.55-4.56A4.56,4.56,0,0,0,580-656a4.56,4.56,0,0,0,4.56,4.55,4.55,4.55,0,0,0,4.55-4.55"/></clipPath><clipPath id="clip-path-57"><path class="cls-1" d="M1079.41-472.42c-9.22-3.07-20.41-7.34-23-14.51s1-16.21,2-23.88,14.2-23.31,19.32-44.3,10.38-47.35-17.79-62.71-53.32-22-69.92-12.8-23.78,23-24.29,42.49-6.14,24.58-9.22,27.14-10.75,10.75,0,18.43,8.27,28.15,17,37.36,27.23,4.17,28.55,6.73,11.81,39.94,11.81,39.94-10.46,18-12.62,19.68-14.16,23.61-14.16,23.61,23,11.6,24.58,11.43,45.91-31.06,45.91-31.06Z"/></clipPath><clipPath id="clip-path-58"><rect class="cls-2" x="982.57" y="-481.77" width="156.92" height="172.72"/></clipPath><clipPath id="clip-path-59"><rect class="cls-2" x="1073.23" y="-385" width="41.8" height="75.96"/></clipPath><clipPath id="clip-path-60"><rect class="cls-2" x="986.38" y="-380.09" width="160.52" height="71.05"/></clipPath><clipPath id="clip-path-61"><path class="cls-1" d="M989.81-633.18c19.13-8.06,37.89-7.33,66,8s31.87,46.51,26.75,67.51c-4.62,18.92-18.69,36-23.26,44.31,0,0-.06,8.77-1.77,8.43s-5.82-4.64-7.35-5.66-3.16-2.56-5.21-2.64-2.48-2.56-2.48-2.56-6.65-12.63.86-20.48,4.78-21.85-2.56-25.6-11.47,11.45-11.47,11.45-2.65-.93-4.86-4.86c-1.11-2,1.31-9.92,1.71-13.1s1-6.46.45-8.85c-1-4.78-8.63-.86-8.63-.86s-.76-5-.76-6.82-5.38,3.44-19.3-5.89c-7.31-4.9-8.68,0-13.15-2.33-3.38-1.72-5.25,2.84-9.82,2.63-1.93-.08-7.61,1.42-9.13-.68C954.06-607.47,974.91-626.9,989.81-633.18Z"/></clipPath><clipPath id="clip-path-62"><path class="cls-1" d="M988.36-570.88c-.2,3,.94,5.58,2.55,5.68s3.08-2.27,3.28-5.3-1-5.58-2.56-5.68-3.08,2.27-3.27,5.3"/></clipPath><clipPath id="clip-path-63"><path class="cls-1" d="M971.47-520h-.2l.06-1.21c3.64.17,19.27-3.8,20.39-7.1l1.15.39c-1.44,4.21-17.8,7.93-21.4,7.93"/></clipPath><clipPath id="clip-path-64"><path class="cls-1" d="M1133.82-375.6c-5.73.71-8.59.46-20.75,2.48-18.54,3.09-21.51,4.18-23.32,4.73-.13-.91-1.18-2.36-1.27-3.21,28.67-8.19,44.06-8.49,44.06-8.49.39.71.94,3.75,1.28,4.49"/></clipPath><clipPath id="clip-path-65"><rect class="cls-2" x="789.85" y="-490.42" width="214.08" height="181.37"/></clipPath><clipPath id="clip-path-66"><rect class="cls-2" x="999.72" y="-320.17" width="129.31" height="11.13"/></clipPath><clipPath id="clip-path-67"><rect class="cls-2" x="483.07" y="-423.83" width="109.54" height="114.78"/></clipPath><clipPath id="clip-path-68"><rect class="cls-2" x="729.43" y="-430.44" width="99.61" height="121.39"/></clipPath><clipPath id="clip-path-69"><path class="cls-1" d="M606.15-465.07c-7.29-21.25-17.61-44.48-7.29-80.54s37.65-39.66,66.2-36,63.16,19.72,59.51,53.27S718.5-459,712.43-451.1s-106.28-14-106.28-14"/></clipPath><clipPath id="clip-path-70"><path class="cls-1" d="M651.93-466.87l-.88-.84c3.3-3.48,6.61-12.3,3.69-34.52l1.2-.16c2.4,18.22,1,30.17-4,35.52"/></clipPath><clipPath id="clip-path-71"><rect class="cls-2" x="529.22" y="-473.77" width="251.83" height="164.72"/></clipPath><clipPath id="clip-path-72"><rect class="cls-2" x="532.53" y="-319.13" width="234.79" height="10.08"/></clipPath><clipPath id="clip-path-73"><path class="cls-1" d="M596.34-541c-3.14-2-14.27-1.85-11.23,13s2.21,23.39,5.36,25.82,9.18,3.52,8,0,3.95-22.16,3.95-22.16Z"/></clipPath><clipPath id="clip-path-74"><path class="cls-1" d="M636.92-499.6c0,5.21-2.18,9.43-4.86,9.43s-4.86-4.22-4.86-9.43,2.18-9.43,4.86-9.43,4.86,4.22,4.86,9.43"/></clipPath><clipPath id="clip-path-75"><path class="cls-1" d="M689.75-499.6c0,5.21-2,9.43-4.45,9.43s-4.45-4.22-4.45-9.43,2-9.43,4.45-9.43,4.45,4.22,4.45,9.43"/></clipPath><clipPath id="clip-path-76"><path class="cls-1" d="M622.14-488.95A6.6,6.6,0,0,1,616.2-492a11.71,11.71,0,0,1-1.45-6.2c0-.1.43-9.34,2.78-9.74h0c23.73-3.12,28.05-.83,28.67-.34a2,2,0,0,1,.83,1.41c.44,3.91-.62,10.93-2.13,14.16-1.64,3.52-10.08,3.79-22.76,3.79m-3.71-16.69c-.71,1.85-2.25,8.68-.27,12.16a4.18,4.18,0,0,0,4,2.1c7.27,0,19.45,0,20.56-2.39,1.29-2.76,2.27-9.21,1.94-12.69-1.83-1.35-14.79-.64-26.21.82"/></clipPath><clipPath id="clip-path-77"><path class="cls-1" d="M694.1-488.95c-12.68,0-21.12-.27-22.76-3.79-1.51-3.23-2.57-10.25-2.13-14.16a2,2,0,0,1,.83-1.41c.62-.49,4.94-2.78,28.67.34h0c2.35.4,2.78,9.64,2.78,9.74a11.8,11.8,0,0,1-1.44,6.2,6.63,6.63,0,0,1-5.95,3.08m-22.5-17.51c-.33,3.48.65,9.93,1.94,12.69,1.11,2.39,13.29,2.39,20.56,2.39a4.18,4.18,0,0,0,4-2.1c2-3.48.45-10.31-.27-12.16-11.42-1.46-24.38-2.17-26.21-.82"/></clipPath><clipPath id="clip-path-78"><rect class="cls-2" x="691.61" y="-522.4" width="36.88" height="2.43" transform="translate(675.29 358.93) rotate(-51.46)"/></clipPath><clipPath id="clip-path-79"><path class="cls-1" d="M670.26-505.55a22.15,22.15,0,0,1-3.69-.55,45.81,45.81,0,0,0-8.45-1.07H658a52.35,52.35,0,0,0-11.86,1.58l-.63-2.35A54.68,54.68,0,0,1,658-509.6h.13a47.69,47.69,0,0,1,8.9,1.12,18.42,18.42,0,0,0,3.32.5l.13,2.43h-.22"/></clipPath><clipPath id="clip-path-80"><path class="cls-1" d="M617.43-505.58c-6.89-1.51-17.85-26.68-19.08-29.54l2.23-1C605-525.7,613.67-508.89,618-507.95Z"/></clipPath><clipPath id="clip-path-81"><path class="cls-1" d="M598-509a3.5,3.5,0,0,0,2.57,2.69c1.61.42-.61-14,.14-17.09,2.91-11.78,8.08-28.7,8.1-31l0-3.22a15.69,15.69,0,0,0,6.24,0c4.05-.63,24.5.59,34,3.22s28.14,13.22,38.47,13.49S701.9-543,701.9-543s-1.21-5.46-2-11.33,1.21-4.25,4.65,3.64c1.61,3.7,7.87,9.86,11.24,18.52,3.82,9.84,4.75,22.09,5.77,22.77,1.92,1.29,4.25-20.24,4.65-23.88s6.89-8.19,6.48-32.74-6.48-44-27.53-32c-14-19.63-47-38.86-58.51-39.06s-16-2-14.57,3.84a18.62,18.62,0,0,0,5.67,9.31s-18.22,5.27-28.14,5.67-28.14-7.08-29.56,2.84,9.11,32,9.52,35.42-3.85,4.49-6.48,6.9-1.13,32.71,3.92,38.88c7,8.48,9.92,20,11,25.3"/></clipPath><clipPath id="clip-path-82"><path class="cls-1" d="M723.06-539.76c3.13-2,14.27-1.84,11.23,13s-2.21,23.39-5.36,25.82-9.18,3.52-8,0,.61-17,.61-17l.81-8.9Z"/></clipPath><clipPath id="clip-path-83"><path class="cls-1" d="M666.27-388.65A16.34,16.34,0,0,0,649.93-405a16.34,16.34,0,0,0-16.35,16.34,16.35,16.35,0,0,0,16.35,16.34,16.35,16.35,0,0,0,16.34-16.34"/></clipPath><clipPath id="clip-path-84"><rect class="cls-2" x="79.21" y="-528.6" width="247.37" height="219.56"/></clipPath><clipPath id="clip-path-85"><path class="cls-1" d="M193.18-443.81c-6.38,18.52-15.18,61.64-34.31,68.62,23.38,7.59,50.91,19.51,57.39,24.29,0,0-25.14-15.45-29.66-29.15-5.52-16.72,6.58-63.76,6.58-63.76"/></clipPath><clipPath id="clip-path-86"><path class="cls-1" d="M277.9-476.2c-4-6.48-4-11.61-4-11.61s6-10.25,10.5-12.07,16.4,14,42.22,4.85,62.67-38.66,69.15-61.33,0-47.77-26.32-58.3-59.11-25.91-83.81,14.17-21.46,54.48-24.29,60-20.24,14.59-24.7,14.73-21,8.64-18.62,33.34,13.76,30.36,19,32,29.15,9.72,38.46,4.45,2.43-20.24,2.43-20.24"/></clipPath><clipPath id="clip-path-87"><path class="cls-1" d="M296.93-583.08c-3.24-2.43-15-4.78-19,6.32S284-561.49,284-561.49s-3.12,5.54-7,4.73-.25,7.28-2.28,14.57-.81,21.48-17.81,21.27c-2,13.75-10.12,31.76-31.58,25.89s-12.22-15.1-15.79-22.15-17.56-11.47-21.92-11.42-11.69-13.18-4.4-39.09,47-59.92,74.09-64.37c0,0-19.43-51.82,37.65-55.06s75.31,42.87,84.22,44.71,21.46-3.42,36.44,7.11,26.31,60.72-6.48,64.77c0,0,32.43,59.18-47.33,55.33,23.08-23.68,34.17-31.75,33.16-46.29-1.05-15.07-10.93,4.73-40.08,5.94s-49-8.1-52.23-14.17a100.63,100.63,0,0,1-5.67-13.36"/></clipPath><clipPath id="clip-path-88"><path class="cls-1" d="M311-494.08c-5-1.15-8.57-3.45-10.59-6.83A14.47,14.47,0,0,1,299-511.38l1.17.32a13.47,13.47,0,0,0,1.32,9.54c1.84,3.08,5.14,5.18,9.82,6.26Z"/></clipPath><clipPath id="clip-path-89"><path class="cls-1" d="M329.62-500.55c-3.29,0-8-1.69-12.49-6.61l.9-.81c4.84,5.35,10,6.63,12.86,6.09a2.81,2.81,0,0,0,2.22-1.35c.72-1.84,5.2-8.84,10.39-17,2.73-4.27,5.55-8.68,8-12.67l1,.65c-2.49,4-5.32,8.4-8.05,12.68-4.94,7.72-9.61,15-10.28,16.74a3.89,3.89,0,0,1-3.13,2.11,8.52,8.52,0,0,1-1.49.13"/></clipPath><clipPath id="clip-path-90"><path class="cls-1" d="M327.85-538.22c-1.75,2.41-2,5.2-.59,6.24s4-.08,5.75-2.49,2-5.2.59-6.23-4,.07-5.75,2.48"/></clipPath><clipPath id="clip-path-91"><path class="cls-1" d="M358.87-524.29c-1.75,2.4-2,5.19-.59,6.23s4-.08,5.75-2.49,2-5.2.59-6.23-4,.08-5.75,2.49"/></clipPath><clipPath id="clip-path-92"><path class="cls-1" d="M192.27-319.78c-31.28,3-92.43,7.81-102.75,4.39,12.41,3.37,9.6,2.87,16.36,3.13,7,.26,67.87,4.28,71.51,2.94s24.49,0,24.49,0l-5.06-8.94L195-320.84Z"/></clipPath><clipPath id="clip-path-93"><rect class="cls-2" x="277.9" y="-487.81" width="229.26" height="178.76"/></clipPath><clipPath id="clip-path-94"><rect class="cls-2" x="177.39" y="-316.5" width="103.64" height="7.46"/></clipPath><clipPath id="clip-path-95"><path class="cls-1" d="M186.65-350.9c9.11-6.68,16.55-5.87,32.14,0s44.13-5,47.77-1.87,12.55,27.78,12.76,30,1,6.25-3.85,6.25H238.22c-2.63,0-38.26,3-41.5,0s-1.92-5.85-9.16-8.68-7.69-9.11-5.82-16,4.91-9.72,4.91-9.72"/></clipPath><clipPath id="clip-path-96"><path class="cls-1" d="M186-325.91l.32.17-.32-.17"/></clipPath><clipPath id="clip-path-97"><path class="cls-1" d="M181.74-341.18c1.88-6.89,4.91-9.72,4.91-9.72,7.94-5.82,14.62-6,26.53-2-3.54-.2-19.28.76-22.89,5.54-3.48,4.62-9,18-5,21-5.05-3.18-5.22-8.78-3.57-14.86"/></clipPath><clipPath id="clip-path-98"><path class="cls-1" d="M818.7-764.75l-.79-.92c.08-.08,8.92-7.76,11.9-10.89,2.31-2.44.67-14-.16-18.26l1.19-.23c.32,1.63,3,16-.15,19.32s-11.62,10.66-12,11"/></clipPath><clipPath id="clip-path-99"><path class="cls-1" d="M1058.67-616.15c11,5.09,20.31,11.46,24.55,9.5s-10.5,9.71-17.06,8.06-7.49-17.56-7.49-17.56"/></clipPath><clipPath id="clip-path-100"><path class="cls-1" d="M1077.58-585c4.71-8,7.84-16.07,11.37-16.67s-10.85-1.57-14.28,2.33,2.91,14.34,2.91,14.34"/></clipPath><clipPath id="clip-path-101"><path class="cls-1" d="M1080-576.42c4.71-8,7.84-16.07,11.37-16.67s-10.85-1.57-14.28,2.33,2.91,14.34,2.91,14.34"/></clipPath><clipPath id="clip-path-102"><path class="cls-1" d="M71-309H1250.7a21.13,21.13,0,0,1,21.14,21.1v8.85A21.13,21.13,0,0,1,1250.7-258H71a21.12,21.12,0,0,1-21.13-21.1v-8.85A21.12,21.12,0,0,1,71-309"/></clipPath><clipPath id="clip-path-103"><path class="cls-1" d="M426.34-387.57a14.15,14.15,0,0,0-14.17-14.14A14.15,14.15,0,0,0,398-387.57a14.15,14.15,0,0,0,14.16,14.14,14.15,14.15,0,0,0,14.17-14.14"/></clipPath><clipPath id="clip-path-104"><path class="cls-1" d="M786.36-339.42H780.3a1.35,1.35,0,0,1-1.36-1.35v-4.16a1.36,1.36,0,0,1,1.36-1.36h6.06a1.35,1.35,0,0,1,1.35,1.36v4.16a1.34,1.34,0,0,1-1.35,1.35"/></clipPath><clipPath id="clip-path-105"><path class="cls-1" d="M785.22-328.12c-13.41,0-18.05-2.9-19.56-5.41a5.06,5.06,0,0,1,.12-5.27,9.49,9.49,0,0,1,7.59-4.66h7.38v1.21h-7.38a8.34,8.34,0,0,0-6.54,4.05,3.89,3.89,0,0,0-.13,4.05c1.17,1.95,5.44,5.16,21,4.78l0,1.22-2.51,0"/></clipPath><clipPath id="clip-path-106"><path class="cls-1" d="M954.62-278c-22.47,0-44.68-1.92-53.57-5.15-6.34-2.3-7.17-5.47-6.75-7.72a9.24,9.24,0,0,1,3-4.81c-6.17-3.7-12.28-8.14-18.53-12.68-17-12.35-34.6-25.13-56.61-25.13v-1.21c22.4,0,40.16,12.89,57.32,25.36,6.34,4.6,12.53,9.1,18.78,12.81,5.3-4.35,15.1-7.57,24.29-7.41,12.92.24,26.81,4.31,26.72,10.46-.07,4.72-8.79,7.41-23.36,7.27-9.71-.11-18.68-3.67-27.5-8.82a8.43,8.43,0,0,0-2.88,4.38c-.6,3.25,2.91,5.25,6,6.36,8.94,3.25,32.39,5.34,57,5.07,27.09-.29,47-3.16,53.35-7.69,10.89-7.81,18.54-17.92,17-22.53-.6-1.88-2.75-2.83-6.38-2.83v-1.22c4.22,0,6.75,1.24,7.54,3.68,1.86,5.76-7.44,16.67-17.5,23.89-7.76,5.56-33,7.92-57.88,7.92m-55.27-17.86c8.55,4.94,17.22,8.33,26.53,8.44,16.25.18,22.09-3.16,22.14-6.08.05-3.67-8.79-8.91-25.53-9.23-9.25-.17-18.2,3-23.14,6.87"/></clipPath><clipPath id="clip-path-107"><path class="cls-1" d="M811.13-427.11a1.55,1.55,0,0,1-1.55-1.55V-439.6a1.54,1.54,0,0,1,1.55-1.55,1.54,1.54,0,0,1,1.55,1.55v10.94a1.55,1.55,0,0,1-1.55,1.55"/></clipPath><clipPath id="clip-path-108"><path class="cls-1" d="M822.14-355.75,807-369.52a3.09,3.09,0,0,1-.21-4.37,3.11,3.11,0,0,1,4.39-.21l13.24,12,30.78-1.44a3.13,3.13,0,0,1,3.25,2.95,3.11,3.11,0,0,1-3,3.24Z"/></clipPath><clipPath id="clip-path-109"><path class="cls-1" d="M867.78-345a15,15,0,0,1-10.6-4.33A15,15,0,0,1,852.66-360,15,15,0,0,1,857-370.67a15,15,0,0,1,10.65-4.51h0a3.1,3.1,0,0,1,3.1,3.07A3.1,3.1,0,0,1,867.7-369a8.84,8.84,0,0,0-6.27,2.66,8.84,8.84,0,0,0-2.56,6.31,8.84,8.84,0,0,0,2.66,6.27,8.69,8.69,0,0,0,6.33,2.56,3.17,3.17,0,0,1,3.13,3.07,3.1,3.1,0,0,1-3.08,3.12Z"/></clipPath><clipPath id="clip-path-110"><path class="cls-1" d="M830-411.69c0,2.82-1,5.1-2.33,5.1s-2.33-2.28-2.33-5.1,1.05-5.1,2.33-5.1,2.33,2.29,2.33,5.1"/></clipPath><clipPath id="clip-path-111"><path class="cls-1" d="M832.65-318.89H791.82a5.83,5.83,0,0,1-5.83-5.82v-52.36a5.83,5.83,0,0,1,5.83-5.82h40.83a5.83,5.83,0,0,1,5.83,5.82v52.36a5.83,5.83,0,0,1-5.83,5.82"/></clipPath><clipPath id="clip-path-112"><path class="cls-1" d="M799.06-382.89h-7.24a5.83,5.83,0,0,0-5.83,5.82v52.36a5.41,5.41,0,0,0,.18,1.34l3.29,1.41v-45.19c0-8.88,3.82-11.41,9.6-15.74"/></clipPath><clipPath id="clip-path-113"><path class="cls-1" d="M817.93-380.18h-13.6a9.22,9.22,0,0,1-9.23-9.21v-30.06a9.22,9.22,0,0,1,9.23-9.21h13.6a9.22,9.22,0,0,1,9.23,9.21v30.06a9.22,9.22,0,0,1-9.23,9.21"/></clipPath><clipPath id="clip-path-114"><path class="cls-1" d="M842.54-291.47H779.72A13.57,13.57,0,0,1,766.14-305v-7.53a13.57,13.57,0,0,1,13.58-13.56h62.82a13.57,13.57,0,0,1,13.58,13.56V-305a13.57,13.57,0,0,1-13.58,13.56"/></clipPath><clipPath id="clip-path-115"><path class="cls-1" d="M842.38-295.63h-62.5a10.31,10.31,0,0,1-10.32-10.3v-5.73A10.31,10.31,0,0,1,779.88-322h62.5a10.31,10.31,0,0,1,10.32,10.3v5.73a10.31,10.31,0,0,1-10.32,10.3"/></clipPath><clipPath id="clip-path-116"><path class="cls-1" d="M791.49-308.8a6.65,6.65,0,0,0-6.66-6.64,6.65,6.65,0,0,0-6.66,6.64,6.65,6.65,0,0,0,6.66,6.65,6.65,6.65,0,0,0,6.66-6.65"/></clipPath><clipPath id="clip-path-117"><path class="cls-1" d="M817.79-308.8a6.65,6.65,0,0,0-6.66-6.64,6.65,6.65,0,0,0-6.66,6.64,6.65,6.65,0,0,0,6.66,6.65,6.65,6.65,0,0,0,6.66-6.65"/></clipPath><clipPath id="clip-path-118"><path class="cls-1" d="M843.6-308.8a6.65,6.65,0,0,0-6.66-6.64,6.65,6.65,0,0,0-6.66,6.64,6.65,6.65,0,0,0,6.66,6.65,6.65,6.65,0,0,0,6.66-6.65"/></clipPath><clipPath id="clip-path-119"><path class="cls-1" d="M833.89-359.83H813.41a3.1,3.1,0,0,1-3.1-3.1,3.1,3.1,0,0,1,3.1-3.1h17.91l21.79-21.75a3.11,3.11,0,0,1,4.39,0,3.1,3.1,0,0,1,0,4.38Z"/></clipPath><clipPath id="clip-path-120"><path class="cls-1" d="M864.72-378.64a15.1,15.1,0,0,1-11.1-4.83,15.1,15.1,0,0,1,.82-21.33,3.11,3.11,0,0,1,4.39.17,3.1,3.1,0,0,1-.17,4.38,8.9,8.9,0,0,0-.48,12.57,8.92,8.92,0,0,0,12.59.48,3.12,3.12,0,0,1,4.39.17,3.1,3.1,0,0,1-.17,4.38,15.06,15.06,0,0,1-10.27,4"/></clipPath><clipPath id="clip-path-121"><path class="cls-1" d="M814.43-440.76a3.3,3.3,0,0,0-3.3-3.3,3.3,3.3,0,0,0-3.3,3.3,3.3,3.3,0,0,0,3.3,3.29,3.3,3.3,0,0,0,3.3-3.29"/></clipPath><clipPath id="clip-path-122"><path class="cls-1" d="M820.8-362.85a8.12,8.12,0,0,0-8.12-8.11,8.11,8.11,0,0,0-8.11,8.11,8.11,8.11,0,0,0,8.11,8.1,8.12,8.12,0,0,0,8.12-8.1"/></clipPath><clipPath id="clip-path-123"><path class="cls-1" d="M817.93-428.66h-.85c4.57,10.77,9.85,29.61,10.08,38.06v-28.85a9.22,9.22,0,0,0-9.23-9.21"/></clipPath><clipPath id="clip-path-124"><path class="cls-1" d="M807.13-428.66h-2.8a9.22,9.22,0,0,0-9.23,9.21v30.06a9.16,9.16,0,0,0,2.77,6.57l1.19-.07S797.8-392,797.35-397s3.79-23.18,7.22-26.67a9.41,9.41,0,0,0,2.56-5"/></clipPath><clipPath id="clip-path-125"><rect class="cls-2" x="1017.78" y="-315.7" width="6.9" height="4.92"/></clipPath><clipPath id="clip-path-126"><path class="cls-1" d="M167.37-281.22a49.86,49.86,0,0,1-12.34-2c-2-.54-4.7-1.46-4.25-3.18,1-3.6,19-6.07,29-7.17a31.57,31.57,0,0,1,4.29-7c7.24-8.66,50.46-12.21,52.3-12.35l.1,1.2c-.45,0-44.56,3.65-51.46,11.93a28.33,28.33,0,0,0-3.81,6.06c2.32-.25,4-.4,4.72-.46,16.56-1.45,38.23-1.94,49.36,1,9.35,2.47,15.91-4.18,22.25-10.62,5.21-5.29,10.13-10.29,16.44-10.4,11.74-.22,11.74-.21,11.78.53,0,.27-.11.62-.79.68v-.08c-.36,0-2.18-.08-11,.08-5.81.1-10.57,4.93-15.6,10C251.8-296.26,245-289.35,235-292c-11.71-3.09-35.32-2.43-54.38-.41-.23.5-.44,1-.66,1.47-2.39,5.41-4.31,9.73-12.55,9.73m11.81-11c-14.89,1.65-26.67,4.1-27.22,6.18,0,0-.16.76,3.38,1.7,18.21,4.82,20.31.1,23.47-7.06.12-.27.25-.54.37-.82"/></clipPath><clipPath id="clip-path-127"><rect class="cls-2" x="232.69" y="-314.26" width="7.44" height="3.91"/></clipPath><clipPath id="clip-path-128"><rect class="cls-2" x="281.08" y="-333.27" width="100.57" height="37.15"/></clipPath><clipPath id="clip-path-129"><rect class="cls-2" x="288.06" y="-328.29" width="13.37" height="13.35"/></clipPath><clipPath id="clip-path-130"><rect class="cls-2" x="348.23" y="-328.29" width="19.28" height="27.29"/></clipPath><clipPath id="clip-path-131"><rect class="cls-2" x="306.12" y="-306.83" width="5.49" height="5.48"/></clipPath><clipPath id="clip-path-132"><rect class="cls-2" x="306.12" y="-313.6" width="5.49" height="5.48"/></clipPath><clipPath id="clip-path-133"><rect class="cls-2" x="312.9" y="-313.6" width="5.49" height="5.48"/></clipPath><clipPath id="clip-path-134"><rect class="cls-2" x="312.9" y="-306.83" width="5.49" height="5.48"/></clipPath><clipPath id="clip-path-135"><rect class="cls-2" x="319.54" y="-306.83" width="5.49" height="5.48"/></clipPath><clipPath id="clip-path-136"><rect class="cls-2" x="319.54" y="-313.6" width="5.49" height="5.48"/></clipPath><clipPath id="clip-path-137"><rect class="cls-2" x="326.32" y="-313.6" width="5.49" height="5.48"/></clipPath><clipPath id="clip-path-138"><rect class="cls-2" x="326.32" y="-306.83" width="5.49" height="5.48"/></clipPath><clipPath id="clip-path-139"><rect class="cls-2" x="333.31" y="-306.83" width="5.49" height="5.48"/></clipPath><clipPath id="clip-path-140"><rect class="cls-2" x="333.31" y="-313.6" width="5.49" height="5.48"/></clipPath><clipPath id="clip-path-141"><rect class="cls-2" x="340.09" y="-313.6" width="5.49" height="5.48"/></clipPath><clipPath id="clip-path-142"><rect class="cls-2" x="340.09" y="-306.83" width="5.49" height="5.48"/></clipPath><clipPath id="clip-path-143"><rect class="cls-2" x="288.06" y="-310.96" width="13.37" height="1.21"/></clipPath><clipPath id="clip-path-144"><rect class="cls-2" x="306.12" y="-322.22" width="22.44" height="1.21"/></clipPath><clipPath id="clip-path-145"><rect class="cls-2" x="288.06" y="-307.18" width="13.37" height="1.21"/></clipPath><clipPath id="clip-path-146"><rect class="cls-2" x="288.06" y="-303.39" width="13.37" height="1.21"/></clipPath><clipPath id="clip-path-147"><rect class="cls-2" x="331.81" y="-326.31" width="6.68" height="1.21"/></clipPath><clipPath id="clip-path-148"><rect class="cls-2" x="331.81" y="-322.53" width="6.68" height="1.21"/></clipPath><clipPath id="clip-path-149"><rect class="cls-2" x="331.81" y="-318.74" width="6.68" height="1.21"/></clipPath><clipPath id="clip-path-150"><rect class="cls-2" x="339.49" y="-326.31" width="6.68" height="1.21"/></clipPath><clipPath id="clip-path-151"><rect class="cls-2" x="339.49" y="-322.53" width="6.68" height="1.21"/></clipPath><clipPath id="clip-path-152"><rect class="cls-2" x="339.49" y="-318.74" width="6.68" height="1.21"/></clipPath><clipPath id="clip-path-153"><path class="cls-1" d="M323.25-318.43H310.94a2.42,2.42,0,0,1-2.43-2.42v-1.53a2.42,2.42,0,0,1,2.43-2.42h12.31a2.42,2.42,0,0,1,2.42,2.42v1.53a2.42,2.42,0,0,1-2.42,2.42"/></clipPath><clipPath id="clip-path-154"><rect class="cls-2" x="372.16" y="-324.8" width="1.21" height="22.41"/></clipPath><clipPath id="clip-path-155"><path class="cls-1" d="M376-319.5v12.29a2.42,2.42,0,0,1-2.43,2.42H372a2.42,2.42,0,0,1-2.43-2.42V-319.5a2.43,2.43,0,0,1,2.43-2.42h1.53A2.43,2.43,0,0,1,376-319.5"/></clipPath><clipPath id="clip-path-156"><rect class="cls-2" x="274.98" y="-298.96" width="112.91" height="9.7"/></clipPath><clipPath id="clip-path-157"><path class="cls-1" d="M737.46-285.73a81.15,81.15,0,0,1-19.5-2.95l.34-1.17c.21.06,21.19,6,30,.66a7.41,7.41,0,0,0,3.57-5,2.5,2.5,0,0,0-.67-2.19c-8-9.32-74.31-9.26-112.23-7.76-21.8.84-44.12-12-44.34-12.14l.61-1c.22.13,22.22,12.86,43.68,12,10.51-.42,103-3.73,113.2,8.18A3.69,3.69,0,0,1,753-294a8.57,8.57,0,0,1-4.13,5.84c-3,1.81-7.12,2.43-11.43,2.43"/></clipPath><clipPath id="clip-path-158"><path class="cls-1" d="M711.65-295.63c0,16.2-47.15,16.2-47.15,0S675.06-325,688.08-325s23.57,13.13,23.57,29.33"/></clipPath><clipPath id="clip-path-159"><path class="cls-1" d="M688.08-325a18.62,18.62,0,0,0-2.25.14,22.39,22.39,0,0,0-.89,6.29c0,11.53,8.56,20.88,19.12,20.88a17.7,17.7,0,0,0,7.4-1.62C710-313.75,700.11-325,688.08-325"/></clipPath><clipPath id="clip-path-160"><path class="cls-1" d="M694.15-307.11a6.06,6.06,0,0,1-6.07,6.06,6.06,6.06,0,0,1-6.07-6.06,6.06,6.06,0,0,1,6.07-6.06,6.06,6.06,0,0,1,6.07,6.06"/></clipPath><clipPath id="clip-path-161"><path class="cls-1" d="M688.08-294.31a2.85,2.85,0,0,1-2.84-2.83v-4.25a2.84,2.84,0,0,1,2.84-2.83,2.83,2.83,0,0,1,2.83,2.83v4.25a2.84,2.84,0,0,1-2.83,2.83"/></clipPath><clipPath id="clip-path-162"><path class="cls-1" d="M717.43-282.52H661.35a6.58,6.58,0,0,1-6.56-6.56,6.57,6.57,0,0,1,6.56-6.55h56.08a6.57,6.57,0,0,1,6.56,6.55,6.58,6.58,0,0,1-6.56,6.56"/></clipPath><clipPath id="clip-path-163"><path class="cls-1" d="M615.57-290.15c-4.51,1.62-12.28,1.92-12.28,1.92l-6,5.53s21-.41,25.58-5.28-7.26-2.17-7.26-2.17"/></clipPath><clipPath id="clip-path-164"><polygon class="cls-1" points="474.9 -329.74 483.24 -335.22 506.19 -334.5 493.92 -326.58 474.9 -329.74"/></clipPath><clipPath id="clip-path-165"><path class="cls-1" d="M587.57-275.46c.73-.32,12.08-7.53,12.08-7.53v-8.62L575-293.23Z"/></clipPath><clipPath id="clip-path-166"><path class="cls-1" d="M590.35-280.6H570.79c-10.49,0-22.46-6.46-28.46-6.46-5.67,0-16.71,6.46-26.77,6.46H494.32A19.46,19.46,0,0,1,474.9-300v-19.33a19.46,19.46,0,0,1,19.42-19.39h96a19.46,19.46,0,0,1,19.42,19.39V-300a19.46,19.46,0,0,1-19.42,19.39"/></clipPath><clipPath id="clip-path-167"><path class="cls-1" d="M580.23-274H560.68c-10.49,0-22.47-6.47-28.46-6.47-5.67,0-16.71,6.47-26.77,6.47H484.2a19.47,19.47,0,0,1-19.42-19.39v-19.34a19.47,19.47,0,0,1,19.42-19.39h96a19.47,19.47,0,0,1,19.42,19.39v19.34A19.47,19.47,0,0,1,580.23-274"/></clipPath><clipPath id="clip-path-168"><path class="cls-1" d="M495.13-329.41a17.69,17.69,0,0,0,17.65,17.63h39.76a17.69,17.69,0,0,0,17.64-17.63,17.51,17.51,0,0,0-.23-2.72H495.36a17.51,17.51,0,0,0-.23,2.72"/></clipPath><clipPath id="clip-path-169"><polygon class="cls-1" points="512.49 -325.19 509.85 -318.57 508.96 -318.57 506.3 -325.19 507.62 -325.19 509.41 -320.5 511.19 -325.19 512.49 -325.19"/></clipPath><clipPath id="clip-path-170"><path class="cls-1" d="M513.39-325.19h2.14a2.05,2.05,0,0,1,2.3,1.94,1.81,1.81,0,0,1-1.3,1.73l1.85,2.95H517l-1.63-2.83h-.8v2.83h-1.19Zm2.25,2.82c.64,0,1-.36,1-.86s-.43-.9-1.11-.9h-.95v1.76Z"/></clipPath><clipPath id="clip-path-171"><path class="cls-1" d="M521.65-325.19h2.08c1.35,0,2.34.7,2.34,1.95s-1,1.92-2.34,1.92h-.9v2.75h-1.18Zm2.08,2.76c.81,0,1.15-.28,1.15-.81s-.35-.84-1.15-.84h-.9v1.65Z"/></clipPath><clipPath id="clip-path-172"><polygon class="cls-1" points="528.6 -321.16 526.11 -325.19 527.55 -325.19 529.21 -322.3 530.87 -325.19 532.32 -325.19 529.84 -321.16 529.84 -318.57 528.6 -318.57 528.6 -321.16"/></clipPath><clipPath id="clip-path-173"><polygon class="cls-1" points="534.67 -324.13 532.59 -324.13 532.59 -325.19 537.93 -325.19 537.93 -324.13 535.86 -324.13 535.86 -318.57 534.67 -318.57 534.67 -324.13"/></clipPath><clipPath id="clip-path-174"><polygon class="cls-1" points="538.88 -325.19 540.07 -325.19 540.07 -322.43 542.98 -322.43 542.98 -325.19 544.17 -325.19 544.17 -318.57 542.98 -318.57 542.98 -321.34 540.07 -321.34 540.07 -318.57 538.88 -318.57 538.88 -325.19"/></clipPath><clipPath id="clip-path-175"><path class="cls-1" d="M545.4-321.89a3.09,3.09,0,0,1,3.19-3.4,3.1,3.1,0,0,1,3.21,3.4,3.1,3.1,0,0,1-3.21,3.41,3.09,3.09,0,0,1-3.19-3.41m5.14,0c0-1.24-.52-2.34-1.95-2.34s-1.94,1.1-1.94,2.34.52,2.35,1.94,2.35,1.95-1.1,1.95-2.35"/></clipPath><clipPath id="clip-path-176"><polygon class="cls-1" points="558.14 -325.19 558.14 -318.57 556.95 -318.57 554.17 -323.23 554.17 -318.57 553.02 -318.57 553.02 -325.19 554.21 -325.19 556.99 -320.57 556.99 -325.19 558.14 -325.19"/></clipPath><clipPath id="clip-path-177"><path class="cls-1" d="M603.29-313.17s22.46,11.55,21.25,22.13-19-7.49-19-7.49Z"/></clipPath><clipPath id="clip-path-178"><path class="cls-1" d="M200-120A100,100,0,0,1,100-20,100,100,0,0,1,0-120,100,100,0,0,1,100-220,100,100,0,0,1,200-120"/></clipPath><clipPath id="clip-path-179"><path class="cls-1" d="M0-238v118A100,100,0,0,0,100-20,100,100,0,0,0,200-120V-238"/></clipPath><clipPath id="clip-path-180"><path class="cls-1" d="M0-238v118A100,100,0,0,0,100-20,100,100,0,0,0,200-120V-238Z"/></clipPath><clipPath id="clip-path-181"><path class="cls-1" d="M23.61-137.69a3.19,3.19,0,0,0-3.18,3.18,3.19,3.19,0,0,0,3.18,3.18h25v-6.36Z"/></clipPath><clipPath id="clip-path-183"><path class="cls-1" d="M200,118A100,100,0,1,1,100,18,100,100,0,0,1,200,118"/></clipPath><clipPath id="clip-path-184"><rect class="cls-2" x="-613.77" y="-1189" width="1440" height="4099"/></clipPath><clipPath id="clip-path-185"><path class="cls-1" d="M0,0V118a100,100,0,0,0,200,0V0Z"/></clipPath><clipPath id="clip-path-187"><rect class="cls-2" x="78.23" y="86" width="22" height="77"/></clipPath><clipPath id="clip-path-188"><path class="cls-1" d="M98.33,87s1.76,35.85,0,40.77-10.06,34.48-10.06,34.48-9.75-28.6-9.75-29.72S80,94.34,80,94.34Z"/></clipPath><clipPath id="clip-path-189"><rect class="cls-2" x="-0.77" y="-1" width="201" height="219"/></clipPath><clipPath id="clip-path-192"><rect class="cls-2" x="25.23" y="132" width="86" height="194"/></clipPath><clipPath id="clip-path-193"><path class="cls-1" d="M26.12,155.37s-.8,89.63,0,96,4.63,74.13,4.63,74.13h79.89L89.71,157.61,78.52,132.52Z"/></clipPath><clipPath id="clip-path-197"><rect class="cls-2" x="47.23" y="19" width="38" height="39"/></clipPath><clipPath id="clip-path-198"><path class="cls-1" d="M84.92,19.66c-.4,10.66-2.24,38.06-5.58,37s-19.85-8.41-25.85-6.41-2.13-16.31-2.13-16.31Z"/></clipPath><clipPath id="clip-path-202"><rect class="cls-2" x="48.23" y="38" width="32" height="40"/></clipPath><clipPath id="clip-path-203"><path class="cls-1" d="M50.72,51.36s6.24-7.07,6.81-8.92c1.24-4.07,3.74-.67,4.38-.83s9.9,1,9.9,1,1,7.2,4.32,8.79S80,72.29,80,72.29L59.35,77.08,48.65,66.86Z"/></clipPath><clipPath id="clip-path-205"><path class="cls-1" d="M0,0V118a100,100,0,0,0,200,0V0"/></clipPath><clipPath id="clip-path-207"><rect class="cls-2" x="16.23" y="51" width="83" height="107"/></clipPath><clipPath id="clip-path-208"><path class="cls-1" d="M50.72,51.36s6.72,6.49,13.58,6.49c9.84,0,11.17,0,11.83-6.49,8.3,3.83,16.45,8.63,18.53,18S98.34,87,98.34,87,96.9,95.94,86,97.21c1,10.39,6.23,54.33,5.75,56.56s-44.89,3.52-51.12,2.56a115.9,115.9,0,0,0-14.54-1l1.12-34.83,12.78-19s-18.54.48-20.93-4.48S25.64,71.17,28.19,68s7-13,22.53-16.62"/></clipPath><clipPath id="clip-path-212"><rect class="cls-2" x="44.23" y="1" width="17" height="58"/></clipPath><clipPath id="clip-path-213"><path class="cls-1" d="M55.58,32.36c-.25,7.84,2.58,14.91.27,19S49.1,58,47,57.85,44.32,18.3,53.73,8.09C60.5.74,55.58,32.36,55.58,32.36"/></clipPath><clipPath id="clip-path-217"><rect class="cls-2" x="16.23" y="97" width="81" height="61"/></clipPath><clipPath id="clip-path-218"><path class="cls-1" d="M19.71,97.92s-2.7,11.44-2.86,18.31,1.28,22.37,16.78,25.08,38.82,5.59,42,7.19,12,9.11,14.06,9.11,6.71-8.31,6.07-10.87S87.31,142.27,80.6,142s-32.43-9.11-37.23-13.74-7-9.31-6.55-16a23.6,23.6,0,0,1,3.2-10.7s-2.94,0-11-.77c-6.34-.59-9.27-2.84-9.27-2.84"/></clipPath><clipPath id="clip-path-222"><rect class="cls-2" x="48.23" y="-1" width="37" height="47"/></clipPath><clipPath id="clip-path-223"><path class="cls-1" d="M69.52,45.82A14.87,14.87,0,0,0,80,38c2.24-4.58,4.79-20.74,4.16-23.11C83.28,11.8,80.29-.17,63,4.6c-10.81,3-13.8,13.46-12.67,24.07a21.15,21.15,0,0,0,8.84,15c2.56,1.6,10.33,2.13,10.33,2.13"/></clipPath><clipPath id="clip-path-227"><rect class="cls-2" x="-119.77" y="1" width="408" height="340"/></clipPath><clipPath id="clip-path-228"><rect class="cls-2" x="190.81" y="84.38" width="8.65" height="111.14"/></clipPath><clipPath id="clip-path-230"><rect class="cls-2" x="110.84" y="84.38" width="8.65" height="111.14"/></clipPath><clipPath id="clip-path-232"><polygon class="cls-1" points="115.17 93.43 190.81 97.69 190.81 93.61 115.17 89.35 115.17 93.43"/></clipPath><clipPath id="clip-path-234"><polygon class="cls-1" points="115.17 110.48 190.81 114.74 190.81 110.66 115.17 106.4 115.17 110.48"/></clipPath><clipPath id="clip-path-236"><polygon class="cls-1" points="115.17 131.79 190.81 136.05 190.81 131.97 115.17 127.71 115.17 131.79"/></clipPath><clipPath id="clip-path-238"><path class="cls-1" d="M151.42,98.74c-3.77-.95-11.24-8.87-11.64-9.67a7,7,0,0,0-2.21-1.81l-13.49,6.42s2.46,6.6-1.6,11.3,3.16,6.7,3.16,6.7l13.19,1.61s12.08-8.38,12.08-8.58.51-6,.51-6"/></clipPath><clipPath id="clip-path-240"><path class="cls-1" d="M149.83,98.23c1.69-5.89,23.8,1.07,32,13.85s14.21,49.51,15.44,53.28c3,9.33-2.05,21-6.66,23.85s-18.21,5.28-25.31,6a76.89,76.89,0,0,1-13.85,0l-43.86.32s-.71-54.66,0-65.32,2.84-22.38,8.88-23.8l6-1.42s7.82,8.52,13.5,6.39,11.72-5.68,13.85-13.14"/></clipPath><clipPath id="clip-path-242"><path class="cls-1" d="M165.46,131.88s6.1,21.16,9.77,29.35c2.86,6.4,4.79,16-11.06,16.79s-7.32,5.06-7.32,5.06v1.2l-12.12,4-4.27,1.34-15.85.55,2.33-11.83s20,1,24.13-.89,13-7.36,13.72-21.45c.55-10.29.67-24.11.67-24.11"/></clipPath><clipPath id="clip-path-244"><path class="cls-1" d="M156.85,183.08s2.75,10.52,1.51,12.12-12.17,2.53-13.63,2-4.67-4.53-4.27-7.59,2.4-6.26,6.4-6.53,10,0,10,0"/></clipPath><clipPath id="clip-path-246"><path class="cls-1" d="M62.88,195.52H191a.74.74,0,0,0,.74-.74V190a.74.74,0,0,0-.74-.74H62.88a.74.74,0,0,0-.74.74v4.83a.74.74,0,0,0,.74.74"/></clipPath><clipPath id="clip-path-248"><path class="cls-1" d="M45.25,133.53h75.83a3.72,3.72,0,0,1,3.37,2.14l25.1,53.54H65.5L41.88,138.83a3.72,3.72,0,0,1,3.37-5.3"/></clipPath><clipPath id="clip-path-250"><path class="cls-1" d="M144.24,76.39c-.28,3.36-1.16,10.12-4.27,14.2s-10.39,9.08-17,5.52-8.7-3.58-10.83-9.25-4.36-10.3-4.84-14.91,2.89-13.86,15-15.1,23.37,3.45,22,19.54"/></clipPath><clipPath id="clip-path-252"><rect class="cls-2" x="-119.77" y="195.5" width="407.77" height="144.62"/></clipPath><clipPath id="clip-path-254"><path class="cls-1" d="M50.62,16.14c.61,2.18-.8,4.11-1.06,6.07-.33,2.49.32,4.87-.32,6.22-1.16,2.4,2.87,11.12,2.87,11.12S53,24.1,54.52,19.66s4-7.72,7.46-7.72c1.68,0,5.1,5.79,9.9,8.74a30.79,30.79,0,0,0,9.4,3.41,3,3,0,0,0,3.59-2.75c.14-3.12.16-7.74-.66-10.59-1.33-4.62-8.22-9-15.66-8.94C51.22,1.9,50.62,16.14,50.62,16.14"/></clipPath><clipPath id="clip-path-256"><path class="cls-1" d="M134,77.55a2.79,2.79,0,0,0,2.67,2.87s-1.93-7.12.46-8.19,4,5.73,3.2,8.26.53,4.74,2.4,4.3c0,0,2.53-.9,2.8-7.8s-1.45-16.62-7.06-19.14a30.88,30.88,0,0,0-19.85-1.19c-5.19,1.6-8,5.71-16.25,4.38-7.26-1.17,1.33,13.33,7.19,13.5s9.53-1.42,15-1.42,6.47.78,7.81,1.71A4.44,4.44,0,0,1,134,77.55"/></clipPath><clipPath id="clip-path-258"><polyline class="cls-1" points="80.75 132.81 89.17 133.48 94.91 141.34 92.69 145.16 87.08 137.08 78.31 136.38"/></clipPath><clipPath id="clip-path-260"><polyline class="cls-1" points="74.83 143.31 79.53 150.22 89.2 151.31 91.42 147.5 81.62 146.62 76.77 139.49"/></clipPath><clipPath id="clip-path-262"><polygon class="cls-1" points="75.9 131.1 50.98 119.72 50.42 129.98 70.44 138.91 75.9 131.1"/></clipPath><clipPath id="clip-path-264"><polygon class="cls-1" points="37.5 126.7 25.77 139.75 42.28 147.98 47.65 133.15 37.5 126.7"/></clipPath><clipPath id="clip-path-266"><polygon class="cls-1" points="47.87 186.1 37.35 156.11 25.05 159.31 30.27 186.1 47.87 186.1"/></clipPath><clipPath id="clip-path-268"><rect class="cls-2" x="17.91" y="184.42" width="43.45" height="12.45"/></clipPath><clipPath id="clip-path-270"><rect class="cls-2" x="65.86" y="133" width="20.07" height="7.64" transform="translate(-80.54 134.14) rotate(-60)"/></clipPath><clipPath id="clip-path-272"><path class="cls-1" d="M42.77,151.41a12.5,12.5,0,1,1-12.5-12.5,12.5,12.5,0,0,1,12.5,12.5"/></clipPath><clipPath id="clip-path-274"><path class="cls-1" d="M38.56,149.57a8.5,8.5,0,1,1-10.14-6.45,8.49,8.49,0,0,1,10.14,6.45"/></clipPath><clipPath id="clip-path-276"><path class="cls-1" d="M54.1,123A8.5,8.5,0,1,1,44,116.55,8.51,8.51,0,0,1,54.1,123"/></clipPath><clipPath id="clip-path-278"><path class="cls-1" d="M34.77,151.41a4.5,4.5,0,1,1-4.5-4.5,4.5,4.5,0,0,1,4.5,4.5"/></clipPath><clipPath id="clip-path-280"><path class="cls-1" d="M51.15,123.66a5.48,5.48,0,1,1-6.54-4.16,5.48,5.48,0,0,1,6.54,4.16"/></clipPath><clipPath id="clip-path-282"><path class="cls-1" d="M154.74,68s-1,11.41-9.51,14.27C155.69,87,169,77.51,169,77.51Z"/></clipPath><clipPath id="clip-path-284"><path class="cls-1" d="M39.5,29s1,11.41,9.51,14.27C38.55,48,25.23,38.51,25.23,38.51Z"/></clipPath><clipPath id="clip-path-286"><path class="cls-1" d="M164.73,55h12a14.5,14.5,0,0,1,0,29h-12a14.5,14.5,0,0,1,0-29Z"/></clipPath><clipPath id="clip-path-288"><path class="cls-1" d="M18.73,16h12a14.5,14.5,0,0,1,0,29h-12a14.5,14.5,0,0,1,0-29Z"/></clipPath><clipPath id="clip-path-290"><path class="cls-1" d="M178.45,75.94v-2.2h2.22v2.2Zm.23-3.53V71.2c0-2.75,2.78-1.93,2.78-3.9,0-1.11-.79-1.61-1.93-1.61-1.34,0-1.91.72-1.91,2h-1.79A3.39,3.39,0,0,1,179.46,64c2,0,3.77,1.15,3.77,3.33,0,3-2.83,2.72-2.83,3.89v1.19Zm-8.53,3.53v-2.2h2.22v2.2Zm.23-3.53V71.2c0-2.75,2.78-1.93,2.78-3.9,0-1.11-.79-1.61-1.93-1.61-1.34,0-1.91.72-1.91,2h-1.79A3.39,3.39,0,0,1,171.16,64c2,0,3.77,1.15,3.77,3.33,0,3-2.83,2.72-2.83,3.89v1.19Zm-8.53,3.53v-2.2h2.23v2.2Zm.23-3.53V71.2c0-2.75,2.78-1.93,2.78-3.9,0-1.11-.78-1.61-1.93-1.61-1.34,0-1.91.72-1.91,2h-1.79A3.39,3.39,0,0,1,162.86,64c2,0,3.77,1.15,3.77,3.33,0,3-2.83,2.72-2.83,3.89v1.19Z"/></clipPath><clipPath id="clip-path-292"><path class="cls-1" d="M29.68,35.34,29,34.08l6.35-3.62L29,26.83l.73-1.25,8.55,4.88Zm-8.75,3.15L26.75,24h1.78L22.72,38.49Zm-1.15-3.15-8.55-4.88,8.55-4.88.73,1.25-6.35,3.63,6.35,3.62Z"/></clipPath><clipPath id="clip-path-294"><path class="cls-1" d="M200,353.89a100,100,0,1,1-100-100,100,100,0,0,1,100,100"/></clipPath><clipPath id="clip-path-295"><path class="cls-1" d="M18.83,238,0,354.89a100,100,0,0,0,198.65,16.5c.11-.68-15.22-62.48-13.87-67.06C194,273.12,181.62,238,181.62,238Z"/></clipPath><clipPath id="clip-path-296"><rect class="cls-2" x="-961" y="-954.11" width="1440" height="4099"/></clipPath></defs><title>RGB</title><g class="cls-185"><g class="cls-186"><rect class="cls-187" x="-5" y="13" width="210" height="210"/></g></g><g class="cls-188"><g class="cls-186"><g class="cls-189"><g class="cls-190"><g class="cls-191"><g class="cls-192"><rect class="cls-193" x="73.52" y="81.99" width="30.59" height="85.25"/></g></g></g></g></g></g><g class="cls-188"><g class="cls-186"><g class="cls-189"><g class="cls-194"><g class="cls-195"><g class="cls-192"><rect class="cls-196" x="20.76" y="127.52" width="94.88" height="203.01"/></g></g></g></g></g></g><g class="cls-188"><g class="cls-186"><g class="cls-189"><g class="cls-197"><g class="cls-198"><g class="cls-192"><rect class="cls-199" x="45.14" y="14.66" width="44.79" height="47.03"/></g></g></g></g></g></g><g class="cls-188"><g class="cls-186"><g class="cls-189"><g class="cls-200"><g class="cls-201"><g class="cls-192"><rect class="cls-193" x="43.65" y="35.43" width="41.32" height="46.65"/></g></g></g></g></g></g><g class="cls-202"><g class="cls-186"><g class="cls-189"><g class="cls-203"><g class="cls-204"><g class="cls-192"><rect class="cls-205" x="13.68" y="46.36" width="89.65" height="115.29"/></g></g></g></g></g></g><g class="cls-202"><g class="cls-186"><g class="cls-189"><g class="cls-206"><g class="cls-207"><g class="cls-192"><rect class="cls-199" x="40.68" y="1.98" width="21.63" height="60.87"/></g></g></g></g></g></g><g class="cls-202"><g class="cls-186"><g class="cls-189"><g class="cls-208"><g class="cls-209"><g class="cls-192"><rect class="cls-193" x="11.84" y="92.92" width="89" height="69.69"/></g></g></g></g></g></g><g class="cls-202"><g class="cls-186"><g class="cls-189"><g class="cls-210"><g class="cls-211"><g class="cls-192"><rect class="cls-193" x="45.13" y="-1.51" width="44.09" height="52.33"/></g></g></g></g></g></g><g class="cls-188"><g class="cls-186"><g class="cls-189"><g class="cls-212"><g class="cls-213"><g class="cls-192"><rect class="cls-214" x="185.81" y="79.38" width="18.65" height="121.14"/></g></g><g class="cls-215"><g class="cls-192"><rect class="cls-214" x="105.84" y="79.38" width="18.65" height="121.14"/></g></g><g class="cls-216"><g class="cls-192"><rect class="cls-214" x="110.17" y="84.35" width="85.64" height="18.34"/></g></g><g class="cls-217"><g class="cls-192"><rect class="cls-214" x="110.17" y="101.4" width="85.64" height="18.34"/></g></g><g class="cls-218"><g class="cls-192"><rect class="cls-214" x="110.17" y="122.71" width="85.64" height="18.34"/></g></g><g class="cls-219"><g class="cls-192"><rect class="cls-220" x="116.24" y="82.26" width="40.17" height="36.03"/></g></g><g class="cls-221"><g class="cls-192"><rect class="cls-222" x="102.25" y="91.11" width="100.9" height="109.41"/></g></g><g class="cls-223"><g class="cls-192"><rect class="cls-205" x="119.61" y="126.88" width="62.56" height="68.27"/></g></g><g class="cls-224"><g class="cls-192"><rect class="cls-220" x="135.43" y="177.96" width="28.25" height="24.39"/></g></g><g class="cls-225"><g class="cls-192"><rect class="cls-226" x="57.14" y="184.21" width="139.6" height="16.31"/></g></g><g class="cls-227"><g class="cls-192"><rect class="cls-226" x="36.53" y="128.53" width="118.03" height="65.68"/></g></g><g class="cls-228"><g class="cls-192"><rect class="cls-220" x="102.2" y="51.66" width="47.14" height="50.67"/></g></g><g class="cls-229"><g class="cls-192"><rect class="cls-214" x="-124.77" y="190.5" width="417.77" height="154.62"/></g></g><g class="cls-230"><g class="cls-192"><rect class="cls-199" x="44.03" y="-3.19" width="45.91" height="47.74"/></g></g><g class="cls-231"><g class="cls-192"><rect class="cls-232" x="94.6" y="50.56" width="55.96" height="39.28"/></g></g><g class="cls-233"><g class="cls-192"><rect class="cls-234" x="73.31" y="127.8" width="26.6" height="22.36"/></g></g><g class="cls-235"><g class="cls-192"><rect class="cls-234" x="69.83" y="134.49" width="26.6" height="21.83"/></g></g><g class="cls-236"><g class="cls-192"><rect class="cls-237" x="45.42" y="114.72" width="35.48" height="29.2"/></g></g><g class="cls-238"><g class="cls-192"><rect class="cls-237" x="20.77" y="121.7" width="31.88" height="31.28"/></g></g><g class="cls-239"><g class="cls-192"><rect class="cls-237" x="20.05" y="151.11" width="32.82" height="39.99"/></g></g><g class="cls-240"><g class="cls-192"><rect class="cls-241" x="12.91" y="179.42" width="53.45" height="22.45"/></g></g><g class="cls-242"><g class="cls-192"><rect class="cls-241" x="62.57" y="121.22" width="26.65" height="31.2"/></g></g><g class="cls-243"><g class="cls-192"><rect class="cls-241" x="12.77" y="133.91" width="35" height="35"/></g></g><g class="cls-244"><g class="cls-192"><rect class="cls-237" x="16.77" y="137.91" width="27" height="27"/></g></g><g class="cls-245"><g class="cls-192"><rect class="cls-241" x="32.3" y="111.35" width="27" height="27"/></g></g><g class="cls-246"><g class="cls-192"><rect class="cls-247" x="20.77" y="141.91" width="19" height="19"/></g></g><g class="cls-248"><g class="cls-192"><rect class="cls-237" x="35.32" y="114.37" width="20.96" height="20.96"/></g></g></g></g></g></g><g class="cls-249"><g class="cls-186"><rect class="cls-222" x="140.23" y="63" width="33.78" height="25.6"/></g></g><g class="cls-250"><g class="cls-186"><rect class="cls-205" x="20.23" y="24" width="33.78" height="25.6"/></g></g><g class="cls-251"><g class="cls-186"><rect class="cls-222" x="145.23" y="50" width="51" height="39"/></g></g><g class="cls-252"><g class="cls-186"><rect class="cls-205" x="-0.77" y="11" width="51" height="39"/></g></g><g class="cls-253"><g class="cls-186"><rect class="cls-254" x="154.23" y="59" width="34" height="21.94"/></g></g><g class="cls-255"><g class="cls-186"><rect class="cls-254" x="6.23" y="19" width="37" height="24.49"/></g></g></svg>