<svg id="Layer_1" data-name="Layer 1" xmlns="http://www.w3.org/2000/svg" xmlns:xlink="http://www.w3.org/1999/xlink" viewBox="0 0 1295.07 666.14"><defs><style>.cls-1,.cls-2,.cls-3{fill:none;}.cls-1{clip-rule:evenodd;}.cls-3{fill-rule:evenodd;}.cls-4{clip-path:url(#clip-path);}.cls-5{clip-path:url(#clip-path-2);}.cls-6{fill:#3477d5;}.cls-7{clip-path:url(#clip-path-3);}.cls-8{clip-path:url(#clip-path-5);}.cls-9{clip-path:url(#clip-path-7);}.cls-10{clip-path:url(#clip-path-9);}.cls-11{isolation:isolate;}.cls-12{clip-path:url(#clip-path-11);}.cls-13{clip-path:url(#clip-path-12);}.cls-14{clip-path:url(#clip-path-13);}.cls-15{fill:#3a3a3a;}.cls-16{clip-path:url(#clip-path-14);}.cls-17{fill:#ead4ca;}.cls-18{clip-path:url(#clip-path-16);}.cls-19{fill:#e0cec3;}.cls-20{clip-path:url(#clip-path-18);}.cls-21{fill:#6d4225;}.cls-22{clip-path:url(#clip-path-20);}.cls-23{fill:#663f24;}.cls-24{clip-path:url(#clip-path-22);}.cls-25{clip-path:url(#clip-path-24);}.cls-26{clip-path:url(#clip-path-26);}.cls-27{fill:#2e6ac1;}.cls-28{clip-path:url(#clip-path-28);}.cls-29{clip-path:url(#clip-path-30);}.cls-30{clip-path:url(#clip-path-32);}.cls-31{clip-path:url(#clip-path-34);}.cls-32{clip-path:url(#clip-path-36);}.cls-33{fill:#e3d060;}.cls-34{clip-path:url(#clip-path-38);}.cls-35{fill:#ceb7aa;}.cls-36{clip-path:url(#clip-path-40);}.cls-37{clip-path:url(#clip-path-42);}.cls-38{clip-path:url(#clip-path-44);}.cls-39{fill:#2c1a0f;}.cls-40{clip-path:url(#clip-path-46);}.cls-41{clip-path:url(#clip-path-48);}.cls-42{fill:#e0ca5f;}.cls-43{clip-path:url(#clip-path-50);}.cls-44{fill:#b76629;}.cls-45{clip-path:url(#clip-path-52);}.cls-46{clip-path:url(#clip-path-54);}.cls-47{clip-path:url(#clip-path-56);}.cls-48{clip-path:url(#clip-path-58);}.cls-49{clip-path:url(#clip-path-60);}.cls-50{clip-path:url(#clip-path-61);}.cls-51{clip-path:url(#clip-path-62);}.cls-52{fill:#c4c269;}.cls-53{clip-path:url(#clip-path-63);}.cls-54{clip-path:url(#clip-path-65);}.cls-55{fill:#4f3221;}.cls-56{clip-path:url(#clip-path-67);}.cls-57{clip-path:url(#clip-path-69);}.cls-58{clip-path:url(#clip-path-71);}.cls-59{clip-path:url(#clip-path-73);}.cls-60{clip-path:url(#clip-path-75);}.cls-61{clip-path:url(#clip-path-77);}.cls-62{clip-path:url(#clip-path-79);}.cls-63{clip-path:url(#clip-path-80);}.cls-64{clip-path:url(#clip-path-81);}.cls-65{clip-path:url(#clip-path-82);}.cls-66{fill:#2b2b2b;}.cls-67{clip-path:url(#clip-path-84);}.cls-68{fill:#665140;}.cls-69{clip-path:url(#clip-path-86);}.cls-70{fill:#5b4839;}.cls-71{clip-path:url(#clip-path-88);}.cls-72{clip-path:url(#clip-path-90);}.cls-73{clip-path:url(#clip-path-92);}.cls-74{clip-path:url(#clip-path-93);}.cls-75{clip-path:url(#clip-path-94);}.cls-76{fill:#66c58f;}.cls-77{clip-path:url(#clip-path-95);}.cls-78{fill:#262626;}.cls-79{clip-path:url(#clip-path-97);}.cls-80{fill:#5bb280;}.cls-81{clip-path:url(#clip-path-99);}.cls-82{fill:#161616;}.cls-83{clip-path:url(#clip-path-101);}.cls-84{clip-path:url(#clip-path-103);}.cls-85{clip-path:url(#clip-path-105);}.cls-86{clip-path:url(#clip-path-107);}.cls-87{clip-path:url(#clip-path-109);}.cls-88{clip-path:url(#clip-path-111);}.cls-89{fill:#56463a;}.cls-90{clip-path:url(#clip-path-113);}.cls-91{clip-path:url(#clip-path-115);}.cls-92{clip-path:url(#clip-path-117);}.cls-93{clip-path:url(#clip-path-119);}.cls-94{clip-path:url(#clip-path-121);}.cls-95{clip-path:url(#clip-path-123);}.cls-96{fill:#3d3d3d;}.cls-97{clip-path:url(#clip-path-125);}.cls-98{clip-path:url(#clip-path-127);}.cls-99{clip-path:url(#clip-path-129);}.cls-100{clip-path:url(#clip-path-130);}.cls-101{clip-path:url(#clip-path-131);}.cls-102{fill:#0e2440;}.cls-103{clip-path:url(#clip-path-132);}.cls-104{clip-path:url(#clip-path-134);}.cls-105{clip-path:url(#clip-path-135);}.cls-106{clip-path:url(#clip-path-136);}.cls-107{fill:#09182b;}.cls-108{clip-path:url(#clip-path-137);}.cls-109{clip-path:url(#clip-path-139);}.cls-110{clip-path:url(#clip-path-140);}.cls-111{clip-path:url(#clip-path-141);}.cls-112{clip-path:url(#clip-path-142);}.cls-113{clip-path:url(#clip-path-144);}.cls-114{clip-path:url(#clip-path-146);}.cls-115{clip-path:url(#clip-path-148);}.cls-116{fill:#56463b;}.cls-117{clip-path:url(#clip-path-150);}.cls-118{clip-path:url(#clip-path-152);}.cls-119{clip-path:url(#clip-path-153);}.cls-120{clip-path:url(#clip-path-154);}.cls-121{clip-path:url(#clip-path-155);}.cls-122{clip-path:url(#clip-path-157);}.cls-123{clip-path:url(#clip-path-158);}.cls-124{clip-path:url(#clip-path-159);}.cls-125{clip-path:url(#clip-path-160);}.cls-126{clip-path:url(#clip-path-162);}.cls-127{clip-path:url(#clip-path-163);}.cls-128{clip-path:url(#clip-path-164);}.cls-129{fill:#5c2420;}.cls-130{clip-path:url(#clip-path-165);}.cls-131{clip-path:url(#clip-path-167);}.cls-132{clip-path:url(#clip-path-168);}.cls-133{clip-path:url(#clip-path-169);}.cls-134{clip-path:url(#clip-path-170);}.cls-135{fill:#ead4c7;}.cls-136{clip-path:url(#clip-path-172);}.cls-137{clip-path:url(#clip-path-174);}.cls-138{clip-path:url(#clip-path-176);}.cls-139{clip-path:url(#clip-path-177);}.cls-140{clip-path:url(#clip-path-178);}.cls-141{clip-path:url(#clip-path-179);}.cls-142{clip-path:url(#clip-path-181);}.cls-143{clip-path:url(#clip-path-182);}.cls-144{clip-path:url(#clip-path-183);}.cls-145{clip-path:url(#clip-path-184);}.cls-146{clip-path:url(#clip-path-186);}.cls-147{fill:#2860ab;}.cls-148{clip-path:url(#clip-path-188);}.cls-149{clip-path:url(#clip-path-190);}.cls-150{fill:#141414;}.cls-151{clip-path:url(#clip-path-192);}.cls-152{clip-path:url(#clip-path-194);}.cls-153{clip-path:url(#clip-path-196);}.cls-154{clip-path:url(#clip-path-198);}.cls-155{clip-path:url(#clip-path-200);}.cls-156{fill:#bcbcbc;}.cls-157{clip-path:url(#clip-path-202);}.cls-158{clip-path:url(#clip-path-204);}.cls-159{clip-path:url(#clip-path-206);}.cls-160{clip-path:url(#clip-path-208);}.cls-161{clip-path:url(#clip-path-209);}.cls-162{clip-path:url(#clip-path-210);}.cls-163{fill:#953b32;}.cls-164{clip-path:url(#clip-path-211);}.cls-165{fill:#89322e;}.cls-166{clip-path:url(#clip-path-213);}.cls-167{clip-path:url(#clip-path-215);}.cls-168{fill:#9b611c;}.cls-169{clip-path:url(#clip-path-217);}.cls-170{clip-path:url(#clip-path-219);}.cls-171{clip-path:url(#clip-path-221);}.cls-172{clip-path:url(#clip-path-223);}.cls-173{clip-path:url(#clip-path-225);}.cls-174{clip-path:url(#clip-path-227);}.cls-175{clip-path:url(#clip-path-229);}.cls-176{clip-path:url(#clip-path-230);}.cls-177{clip-path:url(#clip-path-231);}.cls-178{fill:#282828;}.cls-179{clip-path:url(#clip-path-232);}.cls-180{clip-path:url(#clip-path-234);}.cls-181{clip-path:url(#clip-path-235);}.cls-182{clip-path:url(#clip-path-236);}.cls-183{fill:#444;}.cls-184{clip-path:url(#clip-path-237);}.cls-185{fill:#efded5;}.cls-186{clip-path:url(#clip-path-239);}.cls-187{clip-path:url(#clip-path-241);}.cls-188{clip-path:url(#clip-path-243);}.cls-189{clip-path:url(#clip-path-245);}.cls-190{clip-path:url(#clip-path-247);}.cls-191{clip-path:url(#clip-path-249);}.cls-192{clip-path:url(#clip-path-251);}.cls-193{fill:#65676d;}.cls-194{clip-path:url(#clip-path-253);}.cls-195{clip-path:url(#clip-path-255);}.cls-196{fill:#fff;}.cls-197{clip-path:url(#clip-path-257);}.cls-198{clip-path:url(#clip-path-259);}.cls-199{clip-path:url(#clip-path-261);}.cls-200{fill:#e2e2e2;}.cls-201{clip-path:url(#clip-path-263);}.cls-202{clip-path:url(#clip-path-265);}.cls-203{clip-path:url(#clip-path-267);}.cls-204{fill:#0d82f2;}.cls-205{clip-path:url(#clip-path-269);}.cls-206{clip-path:url(#clip-path-271);}.cls-207{clip-path:url(#clip-path-273);}.cls-208{clip-path:url(#clip-path-275);}.cls-209{clip-path:url(#clip-path-277);}.cls-210{clip-path:url(#clip-path-279);}.cls-211{clip-path:url(#clip-path-281);}.cls-212{clip-path:url(#clip-path-283);}.cls-213{clip-path:url(#clip-path-285);}.cls-214{clip-path:url(#clip-path-287);}.cls-215{clip-path:url(#clip-path-289);}.cls-216{clip-path:url(#clip-path-291);}.cls-217{clip-path:url(#clip-path-293);}.cls-218{fill:#6ecc94;}.cls-219{clip-path:url(#clip-path-295);}.cls-220{clip-path:url(#clip-path-297);}.cls-221{clip-path:url(#clip-path-299);}.cls-222{clip-path:url(#clip-path-301);}.cls-223{clip-path:url(#clip-path-303);}.cls-224{clip-path:url(#clip-path-305);}.cls-225{clip-path:url(#clip-path-307);}.cls-226{clip-path:url(#clip-path-309);}.cls-227{clip-path:url(#clip-path-311);}.cls-228{clip-path:url(#clip-path-313);}.cls-229{clip-path:url(#clip-path-315);}.cls-230{clip-path:url(#clip-path-317);}.cls-231{clip-path:url(#clip-path-319);}.cls-232{clip-path:url(#clip-path-321);}.cls-233{clip-path:url(#clip-path-323);}.cls-234{clip-path:url(#clip-path-325);}.cls-235{clip-path:url(#clip-path-327);}.cls-236{clip-path:url(#clip-path-329);}.cls-237{clip-path:url(#clip-path-331);}.cls-238{clip-path:url(#clip-path-333);}.cls-239{clip-path:url(#clip-path-335);}.cls-240{clip-path:url(#clip-path-337);}.cls-241{clip-path:url(#clip-path-339);}.cls-242{clip-path:url(#clip-path-341);}.cls-243{clip-path:url(#clip-path-343);}.cls-244{clip-path:url(#clip-path-345);}.cls-245{clip-path:url(#clip-path-347);}.cls-246{clip-path:url(#clip-path-349);}.cls-247{clip-path:url(#clip-path-351);}.cls-248{clip-path:url(#clip-path-353);}.cls-249{clip-path:url(#clip-path-355);}.cls-250{clip-path:url(#clip-path-357);}.cls-251{clip-path:url(#clip-path-359);}.cls-252{clip-path:url(#clip-path-361);}.cls-253{clip-path:url(#clip-path-363);}.cls-254{clip-path:url(#clip-path-365);}.cls-255{fill:#a53f3a;}.cls-256{clip-path:url(#clip-path-367);}.cls-257{fill:#bc4242;}.cls-258{clip-path:url(#clip-path-369);}.cls-259{clip-path:url(#clip-path-371);}.cls-260{clip-path:url(#clip-path-373);}.cls-261{clip-path:url(#clip-path-375);}.cls-262{clip-path:url(#clip-path-377);}.cls-263{clip-path:url(#clip-path-379);}.cls-264{clip-path:url(#clip-path-381);}.cls-265{clip-path:url(#clip-path-383);}.cls-266{clip-path:url(#clip-path-385);}.cls-267{clip-path:url(#clip-path-387);}.cls-268{clip-path:url(#clip-path-389);}.cls-269{clip-path:url(#clip-path-391);}.cls-270{clip-path:url(#clip-path-393);}.cls-271{clip-path:url(#clip-path-395);}.cls-272{clip-path:url(#clip-path-397);}.cls-273{clip-path:url(#clip-path-399);}.cls-274{clip-path:url(#clip-path-401);}.cls-275{clip-path:url(#clip-path-403);}.cls-276{clip-path:url(#clip-path-404);}.cls-277{clip-path:url(#clip-path-405);}.cls-278{clip-path:url(#clip-path-406);}.cls-279{clip-path:url(#clip-path-408);}.cls-280{clip-path:url(#clip-path-409);}.cls-281{clip-path:url(#clip-path-413);}.cls-282{clip-path:url(#clip-path-418);}.cls-283{clip-path:url(#clip-path-419);}.cls-284{clip-path:url(#clip-path-420);}.cls-285{clip-path:url(#clip-path-421);}.cls-286{clip-path:url(#clip-path-422);}.cls-287{clip-path:url(#clip-path-423);}.cls-288{clip-path:url(#clip-path-424);}.cls-289{clip-path:url(#clip-path-425);}</style><clipPath id="clip-path"><path class="cls-1" d="M657.68,105.84H581.52a15.1,15.1,0,0,1-15.07-15V88.05a15.1,15.1,0,0,1,15.07-15h29.71a15.06,15.06,0,1,0,0-30.11H288.73a15.06,15.06,0,1,0,0,30.11H294a15.1,15.1,0,0,1,15.06,15v2.74a15.1,15.1,0,0,1-15.06,15H150.05a16.42,16.42,0,1,0,0,32.84h74.33a15.1,15.1,0,0,1,15.06,15v2.73a15.1,15.1,0,0,1-15.06,15H179.55a16.42,16.42,0,1,0,0,32.84h58.1c10.11,0,18.38,6.77,18.38,15.05v2.73c0,8.28-8.27,15.05-18.38,15.05h-13a15.06,15.06,0,1,0,0,30.11H604.17a15.06,15.06,0,1,0,0-30.11H588.51c-10.11,0-18.38-6.77-18.38-15.05V219.4c0-8.28,8.27-15.05,18.38-15.05h31.43a16.42,16.42,0,1,0,0-32.84H597.55a15.1,15.1,0,0,1-15.07-15v-2.73a15.1,15.1,0,0,1,15.07-15h60.13a16.42,16.42,0,1,0,0-32.84"/></clipPath><clipPath id="clip-path-2"><rect class="cls-2" x="-100.61" y="-212.11" width="1440" height="4099"/></clipPath><clipPath id="clip-path-3"><path class="cls-1" d="M1278.63,327.8h-76.16a15.11,15.11,0,0,1-15.06-15.05V310A15.1,15.1,0,0,1,1202.47,295h29.71a15.05,15.05,0,1,0,0-30.1H909.69a15.05,15.05,0,1,0,0,30.1h5.21A15.1,15.1,0,0,1,930,310v2.74A15.11,15.11,0,0,1,914.9,327.8H771a16.42,16.42,0,1,0,0,32.83h74.33a15.1,15.1,0,0,1,15.07,15.05v2.74a15.1,15.1,0,0,1-15.07,15.05H800.51a16.42,16.42,0,1,0,0,32.83h58.1c10.11,0,18.38,6.78,18.38,15.05v2.74c0,8.28-8.27,15.05-18.38,15.05h-13a15.05,15.05,0,1,0,0,30.1h379.49a15.05,15.05,0,1,0,0-30.1h-15.66c-10.11,0-18.39-6.77-18.39-15.05v-2.74c0-8.27,8.28-15.05,18.39-15.05h31.42a16.42,16.42,0,1,0,0-32.83h-22.38a15.1,15.1,0,0,1-15.07-15.05v-2.74a15.1,15.1,0,0,1,15.06-15.05h60.13a16.42,16.42,0,1,0,0-32.83"/></clipPath><clipPath id="clip-path-5"><path class="cls-1" d="M1184.63,62.94h-76.16a15.11,15.11,0,0,1-15.07-15V45.15a15.1,15.1,0,0,1,15.07-15h29.71a15.05,15.05,0,1,0,0-30.1H815.69a15.05,15.05,0,1,0,0,30.1h5.21a15.1,15.1,0,0,1,15.07,15v2.74a15.11,15.11,0,0,1-15.07,15H677a16.42,16.42,0,1,0,0,32.83h74.33a15.1,15.1,0,0,1,15.07,15v2.74a15.1,15.1,0,0,1-15.07,15.05H706.51a16.42,16.42,0,1,0,0,32.83H764.6c10.11,0,18.39,6.78,18.39,15.05v2.74c0,8.28-8.28,15.05-18.39,15.05h-13a15.05,15.05,0,1,0,0,30.1h379.49a15.05,15.05,0,1,0,0-30.1h-15.67c-10.11,0-18.38-6.77-18.38-15.05v-2.74c0-8.27,8.27-15.05,18.38-15.05h31.43a16.42,16.42,0,1,0,0-32.83H1124.5a15.1,15.1,0,0,1-15.06-15.05v-2.74a15.1,15.1,0,0,1,15.06-15h60.13a16.42,16.42,0,1,0,0-32.83"/></clipPath><clipPath id="clip-path-7"><path class="cls-1" d="M16.44,299.9H92.6a15.1,15.1,0,0,0,15.06-15v-2.74a15.1,15.1,0,0,0-15.06-15H62.88a15.06,15.06,0,1,1,0-30.11h322.5a15.06,15.06,0,1,1,0,30.11h-5.21a15.1,15.1,0,0,0-15.07,15v2.74a15.1,15.1,0,0,0,15.07,15h143.9a16.42,16.42,0,1,1,0,32.84H449.74a15.1,15.1,0,0,0-15.07,15v2.74a15.1,15.1,0,0,0,15.07,15.05h44.82a16.42,16.42,0,1,1,0,32.84h-58.1c-10.11,0-18.38,6.77-18.38,15v2.73c0,8.28,8.27,15.05,18.38,15.05h13a15.05,15.05,0,1,1,0,30.1H69.94a15.05,15.05,0,1,1,0-30.1H85.6c10.11,0,18.39-6.77,18.39-15.05v-2.73c0-8.28-8.28-15-18.39-15H54.17a16.42,16.42,0,1,1,0-32.84H76.56a15.1,15.1,0,0,0,15.07-15.05v-2.74a15.1,15.1,0,0,0-15.06-15H16.44a16.42,16.42,0,1,1,0-32.84"/></clipPath><clipPath id="clip-path-9"><rect class="cls-2" x="762.4" y="539.94" width="160.9" height="76.15"/></clipPath><clipPath id="clip-path-11"><rect class="cls-2" x="762.39" y="539.89" width="161" height="84"/></clipPath><clipPath id="clip-path-12"><polygon class="cls-1" points="762.4 551.78 762.4 623.42 923.3 623.42 921.76 539.94 762.4 551.78"/></clipPath><clipPath id="clip-path-13"><rect class="cls-2" x="762.39" y="539.89" width="161" height="77"/></clipPath><clipPath id="clip-path-14"><path class="cls-1" d="M789.62,185.24c.2,7.89-.4,7.49-1,8.7s-8.3,17.87-8.3,17.87l13.56,39.41,9.51,5.87,37.84-37.24s7.5-31,7.29-38.86-1.62-18.82-1-26.31.4-20.65,2-26.11,3.64-34.21.4-51-17.14-63.87-78.19-54c-50.32,8.1-63.05,37.95-59.82,69.82.61,5.93,6.56,13.69,8.35,18.72,3.27,9.16,8.14,18.05,10.57,24.39,9.31,24.29,18.93,38.73,41.18,52.42,9.54,5.87,17.61-3.64,17.61-3.64"/></clipPath><clipPath id="clip-path-16"><path class="cls-1" d="M788.9,196.52c1.33,4.51-5.49,14.42-2.72,19.81s-4.27.13-4.27.13V201.77Z"/></clipPath><clipPath id="clip-path-18"><path class="cls-1" d="M778.69,202.15s-39.05,15-46.94,24.76-19.43,100.82-20.24,119.84-3.22,99.78-3.22,99.78l15.56,49.94,58.28,89.31H898.69l4.86-211.61S925.41,225.79,923,217.56,899.22,196,891.93,192.73s-36.68-14.57-36.68-14.57l-34.87,42.7-19.3,39.22-2.76-4Z"/></clipPath><clipPath id="clip-path-20"><path class="cls-1" d="M729,295.75c-4.15,34.81-2.73,33.64-.3,41.31s-4.86,112.71-4.86,112.71h3.65s6.67-98.66,6.67-104c0-2.47-3.62-4.62-5.16-25.76-1.78-24.47,0-24.29,0-24.29"/></clipPath><clipPath id="clip-path-22"><path class="cls-1" d="M847.35,160c-3.67,3.12-.87,18.53-1.32,20.35s-.58,6.52-6.38,10.63c-22.17,15.71-26.76,22.82-26.76,22.82l8.32,2.68L855,193.84s.61-23.53,0-24-7.63-9.88-7.63-9.88"/></clipPath><clipPath id="clip-path-24"><path class="cls-1" d="M789.44,186.78c-4.45,5.26-13,14.85-13.78,24.57S770,241.09,770,241.09l11.75-8.34S793.87,259.62,802,266.5c4.28-3.95,7.93-15.1,18.81-24.39,9.43-8,15.16-19.57,23.28-27.32,5.55-5.3,11.41-5.23,13.05-10.22,4.19-12.79,2.93-15.34,2.53-21s-1.72-16.85-12.29-23.59c-.4,10.79.35,19.39,1.16,21s-7.29,13.91-13.36,18.22-22.26,14.57-22.26,14.57-8.5,34.2-10.11,36.73-14.17-33.09-18.22-36.33,3.14-13.15,4-15.58.93-11.82.93-11.82"/></clipPath><clipPath id="clip-path-26"><polygon class="cls-1" points="811.25 220.28 827.14 235.68 828.73 234.52 831.17 236.15 812.89 213.78 811.25 220.28"/></clipPath><clipPath id="clip-path-28"><path class="cls-1" d="M899.62,274c-11.85,19.43-14.69,108.58-12.26,116.63s-1,92.24-1,92.24h25.24Z"/></clipPath><clipPath id="clip-path-30"><path class="cls-1" d="M851.65,189.89c-16.26,22.12-29.78,48.34-35,55.82-5.34,7.64-3.81,10.08-3.81,10.08s40.79-21.77,45.83-36.42-7-29.48-7-29.48"/></clipPath><clipPath id="clip-path-32"><path class="cls-1" d="M907.16,201.77c11.51,8.54,35.24,27.73,36.46,41.93S940,505,930.58,506.24s-38.56,0-38.56,0v-102s1.59-81.42,0-108.49c-1.78-30.16,15.14-94,15.14-94"/></clipPath><clipPath id="clip-path-34"><path class="cls-1" d="M812.89,213.78l18.51,26.27s9.62-6.64,15.29-11S858.46,205.23,860,193s-12.17-9.41-12.17-9.41l-4.34,16.86Z"/></clipPath><clipPath id="clip-path-36"><path class="cls-1" d="M850,150.45c-4,12.84-5.15-7.9-5.45-9.42s-4.32-18.53-4.32-18.53,7-3,6.71-9.11-1.76-34.91-13.76-31.27-6.14,15.48-6.14,15.48-2.47,4.66-3.82,4.86-4.37-2.43-5.48-4.25S811.5,83,809.38,80.6s-9.11-5.16-10-6.68-3-4.25-6.68-3.34-34.6,11.84-46.14,11.84H718s-3.87,11.39-2,19a46.63,46.63,0,0,0,2.56,7S698,96.58,693.42,91.32s-8.5-11.33-8.8-16.79,8.46-11.54,19-18.62c4.45-3,4.14-1.66,4.31-2.4C709.46,47,715,37.33,720.2,35.37c7.22-2.74,11.58-5,34.61-12.45,28.54-9.23,56.43-6.62,74.68,9.11S872.21,79.41,850,150.45"/></clipPath><clipPath id="clip-path-38"><path class="cls-1" d="M758.22,166.26l-.37-1.16c.18-.06,18.74-6.08,32.94-12.26,5-2.2,6.62-4.8,7.47-6.2.39-.64.68-1.1,1.14-1.3l.46,1.13a3.76,3.76,0,0,0-.56.8c-.92,1.52-2.63,4.33-8,6.68-14.25,6.21-32.86,12.25-33,12.31"/></clipPath><clipPath id="clip-path-40"><path class="cls-1" d="M765.71,162.73s9.79,4.33,17.35,2.5S795,151.94,795,151.94Z"/></clipPath><clipPath id="clip-path-42"><path class="cls-1" d="M760.53,149.66c-2.75,0-4.59-8.92-7.64-28.7-.89-5.76-1.65-10.73-2.31-13.35l1.18-.3c.67,2.68,1.44,7.68,2.33,13.46,1.39,9,4.26,27.68,6.42,27.68h0c3.74-.29,9.06-3.8,9.12-3.84l.67,1c-.23.15-5.64,3.71-9.7,4h-.1"/></clipPath><clipPath id="clip-path-44"><path class="cls-1" d="M781.41,103.29c1.14,3.86.56,7.43-1.29,8s-4.29-2.14-5.43-6-.56-7.43,1.29-8,4.29,2.13,5.43,6"/></clipPath><clipPath id="clip-path-46"><path class="cls-1" d="M740.28,115.46c1,3.46.51,6.67-1.16,7.16s-3.84-1.91-4.87-5.37-.5-6.67,1.16-7.16,3.85,1.91,4.87,5.37"/></clipPath><clipPath id="clip-path-48"><path class="cls-1" d="M718,82.42c-9.94-.3-22.08-5.76-20,0s19.17,24.51,18.18,19.65a26.51,26.51,0,0,1-.05-12.24A55.8,55.8,0,0,1,718,82.42"/></clipPath><clipPath id="clip-path-50"><path class="cls-1" d="M924.4,428.79c15.21,6,16.84,26.1,25.52,6.19s10.25-104.64-18-135.25c-22.89-24.84-42.23-13.12-48.56-12.81-7.45.37-27.64-7.06-37.58,31.24-6.64,25.6,9.73,67.21,8,93.14-2.14,32.11,17.87,36.54,29.27,47,21.71,19.91,13.06-25,13.06-25Z"/></clipPath><clipPath id="clip-path-52"><path class="cls-1" d="M957.45,434.86c-12.25-5-23.83-5.34-25.28-11.5s-3.26-24.25-3.26-24.25l-24.1,7.79,1.81,17-.73,8-28.73,7.77-10.85,13-6.16,38.19,55.73,7.78,34-34.39Z"/></clipPath><clipPath id="clip-path-54"><path class="cls-1" d="M927.08,401.87s-4.19,8-6.27,10.13a38.64,38.64,0,0,1-14.45,9.48l-1.44-10.25,20.91-13.31Z"/></clipPath><clipPath id="clip-path-56"><path class="cls-1" d="M933.62,374c-4.93,18.79-9.6,34.32-22.26,41.56s-29,3.19-38.62-7C857,392,848.65,376.76,850.46,340.2s11.86-44.24,22-46.05,47.78,9.41,51.94,43.07a8.52,8.52,0,0,1,1.77-.45c11.77-1.76,17.25,23.26,9.62,26.51-3,1.3-6.53-2.6-5.43-.72A21.82,21.82,0,0,1,933.62,374"/></clipPath><clipPath id="clip-path-58"><rect class="cls-2" x="830.48" y="425.79" width="170.81" height="190.3"/></clipPath><clipPath id="clip-path-60"><rect class="cls-2" x="830.39" y="424.89" width="171" height="355"/></clipPath><clipPath id="clip-path-61"><path class="cls-1" d="M982.19,458.27c-1.27,18.79-5,135.16-3.7,151.45s13.21,18.5,13.21,18.5l9.59,151.29-170.81-1.08s9-123.06,17-155.27S845,522.24,846.4,500.67s15.92-50.52,25.33-59.93,34.79-14.95,34.79-14.95l-.63,6.09s-6.94,7.11-2,8.27c9.7,2.29,8.58,1.71,15.86,1.25,14.37-.89,15.62-2.06,15.26-14,9.77.34,33.09,11.29,38.63,13.26,13.38,4.76,8.58,17.62,8.58,17.62"/></clipPath><clipPath id="clip-path-62"><rect class="cls-2" x="830.39" y="424.89" width="171" height="192"/></clipPath><clipPath id="clip-path-63"><path class="cls-1" d="M982.19,447.65c12.53,23.78,16,72.36,11.5,103.84s-15.78,49.33-26.2,53.19c-11.13,4.12-25.55,6.17-32.79.92s-25.5-35.57-26.78-40,12.76,2.76,20.9-5.16c7-6.8,4.7-18.23,5.88-21.27s12.31,13,12.31,13,3.61-21.22,3.24-31.66c-1.19-33.54,16-82.47,18.4-81.64,3.73,1.28,9.74,1.53,13.54,8.74"/></clipPath><clipPath id="clip-path-65"><path class="cls-1" d="M898.52,355.61c.22,3.22,1.79,5.73,3.49,5.61s2.91-2.83,2.69-6-1.8-5.73-3.5-5.61-2.91,2.82-2.68,6"/></clipPath><clipPath id="clip-path-67"><path class="cls-1" d="M855.7,356.92c.18,2.65,1.47,4.72,2.88,4.62s2.39-2.33,2.21-5-1.48-4.71-2.88-4.61-2.4,2.32-2.21,5"/></clipPath><clipPath id="clip-path-69"><path class="cls-1" d="M887.63,406.64c8.33,0,15.1-3.11,21-9.56l-.8-.73c-6.94,7.62-15.18,10.39-25.92,8.74l-.17,1.08a39.8,39.8,0,0,0,5.92.47"/></clipPath><clipPath id="clip-path-71"><path class="cls-1" d="M924.4,337.22c-5,2.72,2.52,8-2.11,8.92-2,.4-4.9-1.22-8.38-3.61-1.45-1-4.62-11.54-3.65-14.67.49-1.54-3.64,9.46-5,8.5A67.68,67.68,0,0,0,898,332c-11-5.59-22.43-6-32.2-4.66-1.63.23-1.1-11.12-1.72-9.68-1.09,2.58-6.07,11.14-7.5,11.51-10.25,2.6-11,5.05-11.07,3.36-.09-3.53,17.84-40.79,17.84-40.79L904.67,294l27,27.14Z"/></clipPath><clipPath id="clip-path-73"><path class="cls-1" d="M930.39,362.11s-2.64,28.05-7.64,49.44c-3.69,15.82-3.06,24,.06,33,2.1,6,1.42,18.83,18.15,15.18s6.26-22.44,10.11-28.12-17.49-66.14-17.49-66.14Z"/></clipPath><clipPath id="clip-path-75"><path class="cls-1" d="M874.78,384.17h-.36a2.71,2.71,0,0,1-2.11-1c-2-2.65.81-8.48,3.09-13.16.88-1.8,1.88-3.85,1.83-4.38-.23-2.62.76-19.1.81-19.8l1.21.08c0,.17-1,17.08-.81,19.61.08.83-.61,2.29-2,5-1.9,3.91-4.78,9.82-3.22,11.89a1.59,1.59,0,0,0,1.23.47c2.44.17,6.73-1.74,7.94-3l.86.84a15.5,15.5,0,0,1-8.52,3.36"/></clipPath><clipPath id="clip-path-77"><path class="cls-1" d="M850.31,330h0m0,0h0m0,0h0m0,0h0m0,0h0m0,0,.57-.08-.57.08m.57-.08h0m0,0h0m0,0h0m.08,0h0m9.4-27.14c-10.92,11.07-9.37,27.14-9.37,27.14.52-.07,2.84-12.45,4.82-15.8,10.88-18.41,22.55,4.57,22.55,4.57S911.61,338.14,923.8,337c.57-.73,4.13-2.16,7.69-.1,4.64,2.69-13-43.56-13-43.56L885.65,293s-.33,0-.92,0c-3.38,0-15.35.68-24.3,9.75"/></clipPath><clipPath id="clip-path-79"><rect class="cls-2" x="846.39" y="291.89" width="86" height="48"/></clipPath><clipPath id="clip-path-80"><path class="cls-1" d="M931,339.47l-6.08-.51c.53-6.19-6.67-36.19-34-39.38-12.21-1.42-22.15,1-28.75,7-5.81,5.3-8.73,13.36-8.44,23.31l-6.1.18c-.35-11.76,3.25-21.43,10.42-28,7.94-7.24,19.56-10.19,33.59-8.56,31.69,3.69,40.12,37.58,39.41,45.91"/></clipPath><clipPath id="clip-path-81"><rect class="cls-2" x="849.39" y="292.89" width="87" height="47"/></clipPath><clipPath id="clip-path-82"><path class="cls-1" d="M452.89,231.35c-17,6.68-33,2.83-42.7-19.44s6.88-108.09,47.37-136.43,65.82-19,70.56-13.76,8.19-6.19,20.13,36.43c12,42.92,19,106.48-5.26,128.74s-58.5,9.52-58.5,9.52Z"/></clipPath><clipPath id="clip-path-84"><path class="cls-1" d="M415.91,238.13c13.71-5.57,26.67-6,28.29-12.86s3.64-27.12,3.64-27.12l50.61,17.41-2,19,.81,8.9h8.5l12.14,14.58,6.89,42.71-62.35,8.7L424.36,271Z"/></clipPath><clipPath id="clip-path-86"><path class="cls-1" d="M451.85,203c1,6.84,1,2.65-.23,12,0,2.48-5.19,5.73-5.62,11.46,7.63-2.84,12.57-2.9,21.27,0,12.79,4.28,23.17,4.92,30,.4,11-7.32-45.39-23.88-45.39-23.88"/></clipPath><clipPath id="clip-path-88"><path class="cls-1" d="M442.58,170.08c-1.22,18.35,7.69,43.45,21.86,51.55s36,13.76,50.61-7.29,32.39-40.89,30.37-81.77S522.34,82.77,511,80.75s-53.46,10.52-58.11,48.17c-14.51-5.26-15.58,19.84-12.74,29.15.73,2.4,7.3-2.9,6.07-.81a24.36,24.36,0,0,0-3.64,12.82"/></clipPath><clipPath id="clip-path-90"><rect class="cls-2" x="366.87" y="234.58" width="191.1" height="380.51"/></clipPath><clipPath id="clip-path-92"><rect class="cls-2" x="366.39" y="233.89" width="192" height="390"/></clipPath><clipPath id="clip-path-93"><path class="cls-1" d="M380,261.72c1.42,21,13.76,153.78,12.34,172s-14.78,20.7-14.78,20.7L366.87,623.64,558,622.43s-10.12-137.65-19-173.68,2.83-112.88,1.21-137-17.81-56.51-28.34-67-15.38-10.12-15.38-10.12l.81,8.9s15,4.86,15.79,14.58-4,42.1-42.52,36.43-45.34-46.56-44.94-59.92c-7.27,2.73-21.54,7.83-27.74,10-15,5.32-17.8,17.11-17.8,17.11"/></clipPath><clipPath id="clip-path-94"><rect class="cls-2" x="366.39" y="233.89" width="192" height="382"/></clipPath><clipPath id="clip-path-95"><path class="cls-1" d="M476.59,254.83c-8.85,6.43-23.49,169.62-20.25,174.28s114.18,8.71,117.82,6.68,29.15-180.15,25.91-181-119-3.24-123.48,0"/></clipPath><clipPath id="clip-path-97"><path class="cls-1" d="M392.37,401.38c-.29,8.7-1.37,37.34-.81,47.37,4.47,79.73,7.18,179.5,44.31-16.13,1.75-9.2-5.33-49.35-5.24-87.86.07-26.36-8.62-38.91-8.62-38.91l-41.66,76.5s12.71-1,12,19"/></clipPath><clipPath id="clip-path-99"><path class="cls-1" d="M456.33,410.25c11.5-12.82,15-25,22.28-30.88,6.13-5,16-7.39,19.89-8.5,8.5-2.43,28.38-14.24,27.31-26.11s-15.16-8.2-15.16-8.2l-42.51,42.5Z"/></clipPath><clipPath id="clip-path-101"><path class="cls-1" d="M438.57,360.71c10.25-8.43,14.69-14.53,15.3-18.83.35-2.48.92-12.26,3.84-18.28,2.16-4.45,7-6.21,6.85-4.77-.17,2.34-.46,4-.46,4s-2.19,8.91,10.13,7c14.4-2.24,27.43-2.66,35.73-7.53s29.1,20.37,5.22,36.47-38.24,10-46.82,27.15S449.7,407,449.7,407l-15.87-25.13Z"/></clipPath><clipPath id="clip-path-103"><path class="cls-1" d="M467.93,386.72l.43-.83a27.13,27.13,0,0,1,3.8-5.79l-.74,0c-28.61,1.06-27.94-23.69-27.94-23.69h0c-1.46,1.35-3.09,2.77-4.91,4.26l-.19.88v13.08l14.51,16.25s7.74-2,15-4.19"/></clipPath><clipPath id="clip-path-105"><path class="cls-1" d="M380.53,255.11c-14,26.59-10.18,78.27-5.16,113.48s17.66,55.18,29.31,59.49c12.45,4.61,28.59,6.9,36.68,1s28.53-39.78,30-44.73-14.27,3.08-23.38-5.77c-7.81-7.6-5.26-20.4-6.58-23.79S427.6,369.4,427.6,369.4s-4-23.74-3.63-35.41c1.33-37.52-17.91-92.26-20.59-91.33-4.17,1.44-18.6,4.38-22.85,12.45"/></clipPath><clipPath id="clip-path-107"><path class="cls-1" d="M481.85,149.49c-.25,3.6-2,6.4-3.92,6.27s-3.25-3.16-3-6.75,2-6.41,3.92-6.28,3.25,3.16,3,6.76"/></clipPath><clipPath id="clip-path-109"><path class="cls-1" d="M532.62,151c-.2,3-1.65,5.28-3.22,5.17s-2.68-2.6-2.47-5.57,1.65-5.27,3.22-5.16,2.68,2.6,2.47,5.56"/></clipPath><clipPath id="clip-path-111"><path class="cls-1" d="M499.79,190.28a5.49,5.49,0,0,1-.58,0l.1-1.21a7,7,0,0,0,5.64-2.47,9.43,9.43,0,0,0,2.21-8.15c-1.21-6.88,1.89-51.68,2-53.59l1.21.09c0,.46-3.22,46.56-2,53.29a10.67,10.67,0,0,1-2.52,9.19,8.42,8.42,0,0,1-6,2.88"/></clipPath><clipPath id="clip-path-113"><path class="cls-1" d="M467.71,198.58l-.86-.86c3.86-3.87,4.73-6.22,4.74-6.25l1.15.4c0,.11-.93,2.61-5,6.71"/></clipPath><clipPath id="clip-path-115"><path class="cls-1" d="M492.73,206.57c-9.32,0-16.89-3.48-23.46-10.7l.9-.81c7.76,8.52,17,11.63,29,9.78l.18,1.2a44,44,0,0,1-6.62.53"/></clipPath><clipPath id="clip-path-117"><path class="cls-1" d="M444.8,121.64c11.14,6.07,14.79,12.75,37.66,1.41S528,96.64,528.12,92.69s1.66-22.88,1.66-22.88L475,80.54,444.8,110.91Z"/></clipPath><clipPath id="clip-path-119"><path class="cls-1" d="M518.49,87.83c4.25,6.28,21.42,25.94,24.68,27.75s4.88,0,4.88,0L540.15,83Z"/></clipPath><clipPath id="clip-path-121"><path class="cls-1" d="M446.22,157.26s8.48,45.67,6.67,52.59-4.05,24.4-22.77,20.31-9-51.44-9-51.44Z"/></clipPath><clipPath id="clip-path-123"><path class="cls-1" d="M589.14,268.09a4.56,4.56,0,1,0-4.55,4.55,4.56,4.56,0,0,0,4.55-4.55"/></clipPath><clipPath id="clip-path-125"><path class="cls-1" d="M1079.41,451.72c-9.22-3.07-20.41-7.34-23-14.51s1-16.21,2-23.89,14.2-23.3,19.32-44.29,10.38-47.35-17.79-62.71-53.32-22-69.92-12.8-23.78,23-24.29,42.49-6.14,24.58-9.22,27.14-10.75,10.75,0,18.43,8.27,28.15,17,37.36,27.23,4.17,28.55,6.73,11.81,39.94,11.81,39.94-10.46,18-12.62,19.67-14.16,23.61-14.16,23.61,23,11.61,24.58,11.44,45.91-31.06,45.91-31.06Z"/></clipPath><clipPath id="clip-path-127"><rect class="cls-2" x="982.57" y="442.37" width="156.92" height="172.72"/></clipPath><clipPath id="clip-path-129"><rect class="cls-2" x="977.39" y="439.89" width="163" height="210"/></clipPath><clipPath id="clip-path-130"><path class="cls-1" d="M1071.57,448.09c11.69,3.29,34.14,29.38,49.5,58.05s18.42,38,18.42,38l-6.83-.17-35.9,105.88-94-3.64s-50.32-182,7.88-191.87c6,17.92,8.54,20.92,16.22,15.8,6.38-4.25,31-19.41,34-27.34.82-2.16,8.69,4.72,10.73,5.3"/></clipPath><clipPath id="clip-path-131"><rect class="cls-2" x="982.39" y="441.89" width="158" height="174"/></clipPath><clipPath id="clip-path-132"><rect class="cls-2" x="1073.23" y="539.14" width="41.8" height="75.96"/></clipPath><clipPath id="clip-path-134"><rect class="cls-2" x="1069.39" y="533.89" width="46" height="86"/></clipPath><clipPath id="clip-path-135"><path class="cls-1" d="M1080.89,556.51s-3.21-8.21-7-16.75,8,72.7,29.5,78.17a11.06,11.06,0,0,0,11.6-3.76l-26.54-61.63Z"/></clipPath><clipPath id="clip-path-136"><rect class="cls-2" x="1072.39" y="538.89" width="43" height="77"/></clipPath><clipPath id="clip-path-137"><rect class="cls-2" x="986.38" y="544.04" width="160.52" height="71.05"/></clipPath><clipPath id="clip-path-139"><rect class="cls-2" x="981.39" y="543.89" width="168" height="117"/></clipPath><clipPath id="clip-path-140"><path class="cls-1" d="M1132.31,544c7.57,22.38,10.93,51.7,12.94,79.7,1.3,18,3.62,24.85-1.54,28.15-12.8,8.19-150.38,4.09-154,2.56s-8.19-44.54,9.21-46.59,39.83,12.32,49.67,12.8c10.39.5,40.45,1.87,54.79-8.88,0-5.95-6.86-41.3-14.94-59.24,28.67-8.19,43.83-8.5,43.83-8.5"/></clipPath><clipPath id="clip-path-141"><rect class="cls-2" x="985.39" y="543.89" width="162" height="72"/></clipPath><clipPath id="clip-path-142"><path class="cls-1" d="M989.81,291c19.13-8.06,37.89-7.33,66,8s31.87,46.51,26.75,67.5c-4.62,18.92-18.69,36-23.26,44.32,0,0-.06,8.77-1.77,8.43s-5.82-4.64-7.35-5.66-3.16-2.56-5.21-2.65-2.48-2.56-2.48-2.56-6.65-12.63.86-20.48,4.78-21.84-2.56-25.6-11.47,11.46-11.47,11.46-2.65-.93-4.86-4.86c-1.11-2,1.31-9.92,1.71-13.1s1-6.47.45-8.86c-1-4.77-8.63-.85-8.63-.85s-.76-4.95-.76-6.82-5.38,3.44-19.3-5.89c-7.31-4.9-8.68,0-13.15-2.33-3.38-1.73-5.25,2.83-9.82,2.63-1.93-.09-7.61,1.42-9.13-.69C954.06,316.67,974.91,297.23,989.81,291Z"/></clipPath><clipPath id="clip-path-144"><path class="cls-1" d="M988.36,353.26c-.2,3,.94,5.58,2.55,5.68s3.08-2.27,3.28-5.3-1-5.58-2.56-5.69-3.08,2.27-3.27,5.31"/></clipPath><clipPath id="clip-path-146"><path class="cls-1" d="M971.47,404.09h-.2l.06-1.21c3.64.17,19.27-3.81,20.39-7.1l1.15.39c-1.44,4.21-17.8,7.92-21.4,7.92"/></clipPath><clipPath id="clip-path-148"><path class="cls-1" d="M1133.82,548.54c-5.73.71-8.59.46-20.75,2.48-18.54,3.09-21.51,4.18-23.32,4.73-.13-.91-1.18-2.36-1.27-3.21,28.67-8.19,44.06-8.5,44.06-8.5.39.71.94,3.76,1.28,4.5"/></clipPath><clipPath id="clip-path-150"><rect class="cls-2" x="789.85" y="433.72" width="214.08" height="181.37"/></clipPath><clipPath id="clip-path-152"><rect class="cls-2" x="789.39" y="432.89" width="215" height="190"/></clipPath><clipPath id="clip-path-153"><polygon class="cls-1" points="960.92 433.72 1003.93 622.42 836.31 622.42 789.85 458.46 960.92 433.72"/></clipPath><clipPath id="clip-path-154"><rect class="cls-2" x="789.39" y="432.89" width="215" height="183"/></clipPath><clipPath id="clip-path-155"><rect class="cls-2" x="999.72" y="603.96" width="129.31" height="11.13"/></clipPath><clipPath id="clip-path-157"><rect class="cls-2" x="999.39" y="603.89" width="130" height="23"/></clipPath><clipPath id="clip-path-158"><polygon class="cls-1" points="999.72 603.96 1129.04 609.07 1124.18 626.07 1003.93 622.42 999.72 603.96"/></clipPath><clipPath id="clip-path-159"><rect class="cls-2" x="999.39" y="603.89" width="130" height="12"/></clipPath><clipPath id="clip-path-160"><rect class="cls-2" x="483.07" y="500.31" width="109.54" height="114.78"/></clipPath><clipPath id="clip-path-162"><rect class="cls-2" x="477.39" y="499.89" width="116" height="127"/></clipPath><clipPath id="clip-path-163"><path class="cls-1" d="M538.43,500.31c-7,6.07-67.69,68-53.11,97.16s53.44,25.71,53.44,25.71l53.85-61.37Z"/></clipPath><clipPath id="clip-path-164"><rect class="cls-2" x="482.39" y="499.89" width="111" height="116"/></clipPath><clipPath id="clip-path-165"><rect class="cls-2" x="729.43" y="493.7" width="99.61" height="121.39"/></clipPath><clipPath id="clip-path-167"><rect class="cls-2" x="729.39" y="492.89" width="101" height="129"/></clipPath><clipPath id="clip-path-168"><path class="cls-1" d="M771.94,493.7c12.15,7.27,57.7,82,57.09,99.58s-57.09,28.29-68.62,26.59-31-73.35-31-73.35Z"/></clipPath><clipPath id="clip-path-169"><rect class="cls-2" x="729.39" y="492.89" width="100" height="123"/></clipPath><clipPath id="clip-path-170"><path class="cls-1" d="M606.15,459.07c-7.29-21.25-17.61-44.48-7.29-80.54s37.65-39.66,66.2-36,63.16,19.72,59.51,53.27S718.5,465.14,712.43,473s-106.28-14-106.28-14"/></clipPath><clipPath id="clip-path-172"><path class="cls-1" d="M651.93,457.26l-.88-.83c3.3-3.49,6.61-12.3,3.69-34.52l1.2-.16c2.4,18.22,1,30.17-4,35.51"/></clipPath><clipPath id="clip-path-174"><rect class="cls-2" x="529.22" y="450.37" width="251.83" height="164.72"/></clipPath><clipPath id="clip-path-176"><rect class="cls-2" x="528.39" y="449.89" width="253" height="171"/></clipPath><clipPath id="clip-path-177"><polygon class="cls-1" points="529.22 450.37 532.87 620.6 766.48 620.6 781.05 450.37 529.22 450.37"/></clipPath><clipPath id="clip-path-178"><rect class="cls-2" x="528.39" y="449.89" width="253" height="166"/></clipPath><clipPath id="clip-path-179"><rect class="cls-2" x="532.53" y="605.01" width="234.79" height="10.08"/></clipPath><clipPath id="clip-path-181"><rect class="cls-2" x="532.39" y="604.89" width="235" height="19"/></clipPath><clipPath id="clip-path-182"><polygon class="cls-1" points="532.53 605.01 532.53 623.24 766.27 623.24 767.33 610.72 532.53 605.01"/></clipPath><clipPath id="clip-path-183"><rect class="cls-2" x="532.39" y="604.89" width="235" height="11"/></clipPath><clipPath id="clip-path-184"><path class="cls-1" d="M596.34,383.16c-3.14-2-14.27-1.84-11.23,13s2.21,23.39,5.36,25.82,9.18,3.52,8,0,3.95-22.17,3.95-22.17Z"/></clipPath><clipPath id="clip-path-186"><path class="cls-1" d="M636.92,424.54c0,5.21-2.18,9.43-4.86,9.43s-4.86-4.22-4.86-9.43,2.18-9.43,4.86-9.43,4.86,4.22,4.86,9.43"/></clipPath><clipPath id="clip-path-188"><path class="cls-1" d="M689.75,424.54c0,5.21-2,9.43-4.45,9.43s-4.45-4.22-4.45-9.43,2-9.43,4.45-9.43,4.45,4.22,4.45,9.43"/></clipPath><clipPath id="clip-path-190"><path class="cls-1" d="M622.14,435.18a6.58,6.58,0,0,1-5.94-3.08,11.67,11.67,0,0,1-1.45-6.19c0-.1.43-9.34,2.78-9.74h0c23.73-3.12,28.05-.83,28.67-.34a2,2,0,0,1,.83,1.41c.44,3.91-.62,10.92-2.13,14.16-1.64,3.52-10.08,3.78-22.76,3.78m-3.71-16.68c-.71,1.85-2.25,8.68-.27,12.16a4.17,4.17,0,0,0,4,2.09c7.27,0,19.45,0,20.56-2.38,1.29-2.77,2.27-9.21,1.94-12.69-1.83-1.35-14.79-.65-26.21.82"/></clipPath><clipPath id="clip-path-192"><path class="cls-1" d="M694.1,435.18c-12.68,0-21.12-.26-22.76-3.78-1.51-3.23-2.57-10.25-2.13-14.16a2,2,0,0,1,.83-1.41c.62-.5,4.94-2.78,28.67.34h0c2.35.4,2.78,9.64,2.78,9.74a11.83,11.83,0,0,1-1.44,6.2,6.62,6.62,0,0,1-5.95,3.07m-22.5-17.5c-.33,3.48.65,9.92,1.94,12.69,1.11,2.38,13.29,2.38,20.56,2.38a4.17,4.17,0,0,0,4-2.09c2-3.48.45-10.31-.27-12.16-11.42-1.47-24.38-2.17-26.21-.82"/></clipPath><clipPath id="clip-path-194"><rect class="cls-2" x="691.61" y="401.74" width="36.88" height="2.43" transform="translate(-47.54 707.27) rotate(-51.46)"/></clipPath><clipPath id="clip-path-196"><path class="cls-1" d="M670.26,418.59a22.15,22.15,0,0,1-3.69-.55,45.81,45.81,0,0,0-8.45-1.07H658a52.35,52.35,0,0,0-11.86,1.58l-.63-2.35A54.06,54.06,0,0,1,658,414.54h.13a48.61,48.61,0,0,1,8.9,1.11,17.77,17.77,0,0,0,3.32.51l.13,2.43h-.22"/></clipPath><clipPath id="clip-path-198"><path class="cls-1" d="M617.43,418.56c-6.89-1.51-17.85-26.68-19.08-29.54l2.23-1c4.45,10.38,13.09,27.19,17.37,28.13Z"/></clipPath><clipPath id="clip-path-200"><path class="cls-1" d="M598,415.18a3.5,3.5,0,0,0,2.57,2.69c1.61.42-.61-14.05.14-17.1,2.91-11.77,8.08-28.69,8.1-31l0-3.21a15.93,15.93,0,0,0,6.24,0c4.05-.63,24.5.58,34,3.21S677.2,383,687.53,383.3s14.37-2.16,14.37-2.16-1.21-5.47-2-11.34,1.21-4.25,4.65,3.65c1.61,3.69,7.87,9.85,11.24,18.52,3.82,9.84,4.75,22.09,5.77,22.77,1.92,1.29,4.25-20.24,4.65-23.88s6.89-8.19,6.48-32.74-6.48-44-27.53-32c-14-19.63-47-38.86-58.51-39.07s-16-2-14.57,3.85a18.62,18.62,0,0,0,5.67,9.31s-18.22,5.26-28.14,5.67-28.14-7.09-29.56,2.83,9.11,32,9.52,35.43-3.85,4.48-6.48,6.89-1.13,32.72,3.92,38.89c7,8.47,9.92,20,11,25.3"/></clipPath><clipPath id="clip-path-202"><path class="cls-1" d="M723.06,384.38c3.13-2,14.27-1.84,11.23,13s-2.21,23.39-5.36,25.82-9.18,3.53-8,0,.61-17,.61-17l.81-8.91Z"/></clipPath><clipPath id="clip-path-204"><path class="cls-1" d="M666.27,535.49a16.35,16.35,0,1,0-16.34,16.34,16.35,16.35,0,0,0,16.34-16.34"/></clipPath><clipPath id="clip-path-206"><rect class="cls-2" x="79.21" y="395.54" width="247.37" height="219.56"/></clipPath><clipPath id="clip-path-208"><rect class="cls-2" x="77.39" y="392.89" width="255" height="229"/></clipPath><clipPath id="clip-path-209"><path class="cls-1" d="M277.9,419.68c14.27,10.55,38.87,22.39,47.07,78.26s-17.62,123.27-17.62,123.27S103.3,620,100.26,620c-2.06,0-2.54-4-1.48-9.68-9.64-.49-21.39-4.4-19.34-13.67,6.38-28.84,15.66-88.28,33.07-125,8.74-18.45,34.21-63.25,49.7-69.63s20.95-8.69,37.35-3.89,78.34,21.58,78.34,21.58"/></clipPath><clipPath id="clip-path-210"><rect class="cls-2" x="78.39" y="394.89" width="249" height="221"/></clipPath><clipPath id="clip-path-211"><path class="cls-1" d="M193.18,480.33C186.8,498.85,178,542,158.87,549c23.38,7.59,50.91,19.51,57.39,24.29,0,0-25.14-15.45-29.66-29.15-5.52-16.72,6.58-63.76,6.58-63.76"/></clipPath><clipPath id="clip-path-213"><path class="cls-1" d="M277.9,447.94c-4-6.48-4-11.61-4-11.61s6-10.26,10.5-12.08,16.4,14,42.22,4.86,62.67-38.66,69.15-61.33,0-47.77-26.32-58.3-59.11-25.91-83.81,14.17-21.46,54.48-24.29,60-20.24,14.59-24.7,14.73-21,8.64-18.62,33.33,13.76,30.37,19,32,29.15,9.71,38.46,4.45,2.43-20.24,2.43-20.24"/></clipPath><clipPath id="clip-path-215"><path class="cls-1" d="M296.93,341.06c-3.24-2.43-15-4.78-19,6.31S284,362.65,284,362.65s-3.12,5.53-7,4.72-.25,7.29-2.28,14.58-.81,21.47-17.81,21.26c-2,13.76-10.12,31.77-31.58,25.9S213.05,414,209.48,407s-17.56-11.48-21.92-11.42-11.69-13.19-4.4-39.1,47-59.91,74.09-64.37c0,0-19.43-51.82,37.65-55s75.31,42.87,84.22,44.71,21.46-3.42,36.44,7.1,26.31,60.73-6.48,64.78c0,0,32.43,59.17-47.33,55.33,23.08-23.69,34.17-31.75,33.16-46.29-1.05-15.07-10.93,4.72-40.08,5.94s-49-8.1-52.23-14.17a100.63,100.63,0,0,1-5.67-13.36"/></clipPath><clipPath id="clip-path-217"><path class="cls-1" d="M311,430.06c-5-1.15-8.57-3.45-10.59-6.83A14.47,14.47,0,0,1,299,412.76l1.17.32a13.47,13.47,0,0,0,1.32,9.54c1.84,3.08,5.14,5.18,9.82,6.25Z"/></clipPath><clipPath id="clip-path-219"><path class="cls-1" d="M329.62,423.58c-3.29,0-8-1.68-12.49-6.6l.9-.81c4.84,5.35,10,6.63,12.86,6.09a2.81,2.81,0,0,0,2.22-1.35c.72-1.84,5.2-8.85,10.39-17,2.73-4.27,5.55-8.68,8-12.67l1,.64c-2.49,4-5.32,8.41-8.05,12.68-4.94,7.73-9.61,15-10.28,16.75a3.91,3.91,0,0,1-3.13,2.11,8.57,8.57,0,0,1-1.49.12"/></clipPath><clipPath id="clip-path-221"><path class="cls-1" d="M327.85,385.92c-1.75,2.41-2,5.2-.59,6.23s4-.08,5.75-2.48,2-5.2.59-6.24-4,.08-5.75,2.49"/></clipPath><clipPath id="clip-path-223"><path class="cls-1" d="M358.87,399.84c-1.75,2.41-2,5.2-.59,6.24s4-.08,5.75-2.49,2-5.2.59-6.23-4,.08-5.75,2.48"/></clipPath><clipPath id="clip-path-225"><path class="cls-1" d="M192.27,604.36c-31.28,3-92.43,7.81-102.75,4.38,12.41,3.38,9.6,2.88,16.36,3.13,7,.26,67.87,4.29,71.51,3s24.49,0,24.49,0l-5.06-8.94L195,603.3Z"/></clipPath><clipPath id="clip-path-227"><rect class="cls-2" x="277.9" y="436.33" width="229.26" height="178.76"/></clipPath><clipPath id="clip-path-229"><rect class="cls-2" x="277.39" y="435.89" width="230" height="187"/></clipPath><clipPath id="clip-path-230"><polygon class="cls-1" points="507.16 469.9 467.08 622 277.9 622 318.29 436.33 507.16 469.9"/></clipPath><clipPath id="clip-path-231"><rect class="cls-2" x="277.39" y="435.89" width="230" height="180"/></clipPath><clipPath id="clip-path-232"><rect class="cls-2" x="177.39" y="607.63" width="103.64" height="7.46"/></clipPath><clipPath id="clip-path-234"><rect class="cls-2" x="176.39" y="606.89" width="105" height="16"/></clipPath><clipPath id="clip-path-235"><polygon class="cls-1" points="281.02 607.63 181.94 607.63 177.39 621.21 277.9 622 281.02 607.63"/></clipPath><clipPath id="clip-path-236"><rect class="cls-2" x="176.39" y="606.89" width="105" height="9"/></clipPath><clipPath id="clip-path-237"><path class="cls-1" d="M186.65,573.24c9.11-6.68,16.55-5.87,32.14,0s44.13-5,47.77-1.88,12.55,27.79,12.76,30,1,6.26-3.85,6.26H238.22c-2.63,0-38.26,3-41.5,0s-1.92-5.85-9.16-8.69-7.69-9.1-5.82-16,4.91-9.71,4.91-9.71"/></clipPath><clipPath id="clip-path-239"><path class="cls-1" d="M186,598.23l.32.17-.32-.17"/></clipPath><clipPath id="clip-path-241"><path class="cls-1" d="M181.74,583c1.88-6.88,4.91-9.71,4.91-9.71,7.94-5.83,14.62-6,26.53-2-3.54-.2-19.28.76-22.89,5.54-3.48,4.62-9,18-5,21-5.05-3.17-5.22-8.78-3.57-14.86"/></clipPath><clipPath id="clip-path-243"><path class="cls-1" d="M818.7,159.38l-.79-.92c.08-.07,8.92-7.75,11.9-10.89,2.31-2.43.67-14-.16-18.25l1.19-.24c.32,1.63,3,16-.15,19.33s-11.62,10.66-12,11"/></clipPath><clipPath id="clip-path-245"><path class="cls-1" d="M1058.67,308c11,5.08,20.31,11.46,24.55,9.49s-10.5,9.71-17.06,8.07-7.49-17.56-7.49-17.56"/></clipPath><clipPath id="clip-path-247"><path class="cls-1" d="M1077.58,339.1c4.71-8,7.84-16.07,11.37-16.67s-10.85-1.57-14.28,2.33,2.91,14.34,2.91,14.34"/></clipPath><clipPath id="clip-path-249"><path class="cls-1" d="M1080,347.72c4.71-8,7.84-16.07,11.37-16.68s-10.85-1.56-14.28,2.33,2.91,14.35,2.91,14.35"/></clipPath><clipPath id="clip-path-251"><path class="cls-1" d="M71,615.09H1250.7a21.13,21.13,0,0,1,21.14,21.1V645a21.13,21.13,0,0,1-21.14,21.11H71A21.12,21.12,0,0,1,49.91,645v-8.84A21.12,21.12,0,0,1,71,615.09"/></clipPath><clipPath id="clip-path-253"><path class="cls-1" d="M426.34,536.57a14.17,14.17,0,1,0-14.17,14.14,14.15,14.15,0,0,0,14.17-14.14"/></clipPath><clipPath id="clip-path-255"><path class="cls-1" d="M786.36,584.72H780.3a1.36,1.36,0,0,1-1.36-1.35V579.2a1.36,1.36,0,0,1,1.36-1.35h6.06a1.35,1.35,0,0,1,1.35,1.35v4.17a1.35,1.35,0,0,1-1.35,1.35"/></clipPath><clipPath id="clip-path-257"><path class="cls-1" d="M785.22,596c-13.41,0-18.05-2.9-19.56-5.41a5.06,5.06,0,0,1,.12-5.27,9.49,9.49,0,0,1,7.59-4.66h7.38v1.21h-7.38a8.34,8.34,0,0,0-6.54,4.05,3.89,3.89,0,0,0-.13,4c1.17,2,5.44,5.16,21,4.78l0,1.21c-.87,0-1.7,0-2.51,0"/></clipPath><clipPath id="clip-path-259"><path class="cls-1" d="M954.62,646.12c-22.47,0-44.68-1.92-53.57-5.15-6.34-2.3-7.17-5.47-6.75-7.72a9.31,9.31,0,0,1,3-4.82c-6.17-3.69-12.28-8.13-18.53-12.67-17-12.36-34.6-25.13-56.61-25.13v-1.21c22.4,0,40.16,12.89,57.32,25.36,6.34,4.6,12.53,9.1,18.78,12.81,5.3-4.36,15.1-7.57,24.29-7.42,12.92.25,26.81,4.32,26.72,10.46-.07,4.72-8.79,7.42-23.36,7.28-9.71-.12-18.68-3.68-27.5-8.82a8.43,8.43,0,0,0-2.88,4.38c-.6,3.25,2.91,5.25,6,6.36,8.94,3.25,32.39,5.34,57,5.07,27.09-.29,47-3.16,53.35-7.69,10.89-7.81,18.54-17.92,17-22.53-.6-1.88-2.75-2.84-6.38-2.84v-1.21c4.22,0,6.75,1.24,7.54,3.68,1.86,5.76-7.44,16.67-17.5,23.88-7.76,5.57-33,7.93-57.88,7.93m-55.27-17.86c8.55,4.93,17.22,8.33,26.53,8.43,16.25.18,22.09-3.15,22.14-6.08.05-3.66-8.79-8.9-25.53-9.22-9.25-.18-18.2,3-23.14,6.87"/></clipPath><clipPath id="clip-path-261"><path class="cls-1" d="M811.13,497a1.54,1.54,0,0,1-1.55-1.55V484.53a1.55,1.55,0,0,1,3.1,0v10.94a1.54,1.54,0,0,1-1.55,1.55"/></clipPath><clipPath id="clip-path-263"><path class="cls-1" d="M822.14,568.39,807,554.62a3.1,3.1,0,1,1,4.18-4.58l13.24,12,30.78-1.44a3.1,3.1,0,1,1,.29,6.19Z"/></clipPath><clipPath id="clip-path-265"><path class="cls-1" d="M867.78,579.14a15.1,15.1,0,0,1-.13-30.19h0a3.1,3.1,0,0,1,0,6.2,8.9,8.9,0,0,0-6.17,15.24,8.64,8.64,0,0,0,6.33,2.55A3.18,3.18,0,0,1,871,576a3.12,3.12,0,0,1-3.08,3.13Z"/></clipPath><clipPath id="clip-path-267"><path class="cls-1" d="M830,512.45c0,2.81-1,5.1-2.33,5.1s-2.33-2.29-2.33-5.1,1.05-5.1,2.33-5.1,2.33,2.28,2.33,5.1"/></clipPath><clipPath id="clip-path-269"><path class="cls-1" d="M832.65,605.25H791.82a5.83,5.83,0,0,1-5.83-5.83V547.07a5.82,5.82,0,0,1,5.83-5.82h40.83a5.82,5.82,0,0,1,5.83,5.82v52.35a5.83,5.83,0,0,1-5.83,5.83"/></clipPath><clipPath id="clip-path-271"><path class="cls-1" d="M799.06,541.25h-7.24a5.82,5.82,0,0,0-5.83,5.82v52.35a5.43,5.43,0,0,0,.18,1.35l3.29,1.41V557c0-8.89,3.82-11.42,9.6-15.74"/></clipPath><clipPath id="clip-path-273"><path class="cls-1" d="M817.93,544h-13.6a9.22,9.22,0,0,1-9.23-9.22V504.69a9.22,9.22,0,0,1,9.23-9.22h13.6a9.22,9.22,0,0,1,9.23,9.22v30.05a9.22,9.22,0,0,1-9.23,9.22"/></clipPath><clipPath id="clip-path-275"><path class="cls-1" d="M842.54,632.67H779.72a13.57,13.57,0,0,1-13.58-13.56v-7.53A13.57,13.57,0,0,1,779.72,598h62.82a13.57,13.57,0,0,1,13.58,13.56v7.53a13.57,13.57,0,0,1-13.58,13.56"/></clipPath><clipPath id="clip-path-277"><path class="cls-1" d="M842.38,628.51h-62.5a10.32,10.32,0,0,1-10.32-10.31v-5.72a10.31,10.31,0,0,1,10.32-10.3h62.5a10.31,10.31,0,0,1,10.32,10.3v5.72a10.32,10.32,0,0,1-10.32,10.31"/></clipPath><clipPath id="clip-path-279"><path class="cls-1" d="M791.49,615.34a6.66,6.66,0,1,0-6.66,6.65,6.66,6.66,0,0,0,6.66-6.65"/></clipPath><clipPath id="clip-path-281"><path class="cls-1" d="M817.79,615.34a6.66,6.66,0,1,0-6.66,6.65,6.66,6.66,0,0,0,6.66-6.65"/></clipPath><clipPath id="clip-path-283"><path class="cls-1" d="M843.6,615.34a6.66,6.66,0,1,0-6.66,6.65,6.66,6.66,0,0,0,6.66-6.65"/></clipPath><clipPath id="clip-path-285"><path class="cls-1" d="M833.89,564.3H813.41a3.1,3.1,0,1,1,0-6.19h17.91l21.79-21.76a3.1,3.1,0,0,1,4.39,4.39Z"/></clipPath><clipPath id="clip-path-287"><path class="cls-1" d="M864.72,545.5a15.09,15.09,0,0,1-10.28-26.16,3.1,3.1,0,1,1,4.22,4.54,8.91,8.91,0,1,0,12.11,13.06,3.1,3.1,0,1,1,4.22,4.55,15.11,15.11,0,0,1-10.27,4"/></clipPath><clipPath id="clip-path-289"><path class="cls-1" d="M814.43,483.37a3.3,3.3,0,1,0-3.3,3.29,3.29,3.29,0,0,0,3.3-3.29"/></clipPath><clipPath id="clip-path-291"><path class="cls-1" d="M820.8,561.28a8.12,8.12,0,1,0-8.12,8.11,8.12,8.12,0,0,0,8.12-8.11"/></clipPath><clipPath id="clip-path-293"><path class="cls-1" d="M817.93,495.47h-.85c4.57,10.78,9.85,29.62,10.08,38.07V504.69a9.22,9.22,0,0,0-9.23-9.22"/></clipPath><clipPath id="clip-path-295"><path class="cls-1" d="M807.13,495.47h-2.8a9.22,9.22,0,0,0-9.23,9.22v30.05a9.17,9.17,0,0,0,2.77,6.58l1.19-.07s-1.26-9.11-1.71-14.11,3.79-23.18,7.22-26.67a9.4,9.4,0,0,0,2.56-5"/></clipPath><clipPath id="clip-path-297"><rect class="cls-2" x="1017.78" y="608.43" width="6.9" height="4.92"/></clipPath><clipPath id="clip-path-299"><path class="cls-1" d="M167.37,642.92a49.86,49.86,0,0,1-12.34-2c-2-.55-4.7-1.47-4.25-3.18,1-3.6,19-6.08,29-7.17a31.57,31.57,0,0,1,4.29-7c7.24-8.67,50.46-12.21,52.3-12.36l.1,1.21c-.45,0-44.56,3.65-51.46,11.92a28.64,28.64,0,0,0-3.81,6.07c2.32-.25,4-.4,4.72-.46,16.56-1.45,38.23-1.94,49.36,1,9.35,2.47,15.91-4.18,22.25-10.62,5.21-5.29,10.13-10.29,16.44-10.41,11.74-.21,11.74-.21,11.78.53,0,.28-.11.62-.79.68v-.07c-.36,0-2.18-.08-11,.08-5.81.1-10.57,4.93-15.6,10C251.8,627.87,245,634.78,235,632.13c-11.71-3.1-35.32-2.43-54.38-.41-.23.49-.44,1-.66,1.46-2.39,5.42-4.31,9.74-12.55,9.74m11.81-11c-14.89,1.64-26.67,4.1-27.22,6.18,0,0-.16.75,3.38,1.69,18.21,4.83,20.31.11,23.47-7,.12-.27.25-.54.37-.82"/></clipPath><clipPath id="clip-path-301"><rect class="cls-2" x="232.69" y="609.87" width="7.44" height="3.91"/></clipPath><clipPath id="clip-path-303"><rect class="cls-2" x="281.08" y="590.87" width="100.57" height="37.15"/></clipPath><clipPath id="clip-path-305"><rect class="cls-2" x="288.06" y="595.85" width="13.37" height="13.35"/></clipPath><clipPath id="clip-path-307"><rect class="cls-2" x="348.23" y="595.85" width="19.28" height="27.29"/></clipPath><clipPath id="clip-path-309"><rect class="cls-2" x="306.12" y="617.31" width="5.49" height="5.48"/></clipPath><clipPath id="clip-path-311"><rect class="cls-2" x="306.12" y="610.54" width="5.49" height="5.48"/></clipPath><clipPath id="clip-path-313"><rect class="cls-2" x="312.9" y="610.54" width="5.49" height="5.48"/></clipPath><clipPath id="clip-path-315"><rect class="cls-2" x="312.9" y="617.31" width="5.49" height="5.48"/></clipPath><clipPath id="clip-path-317"><rect class="cls-2" x="319.54" y="617.31" width="5.49" height="5.48"/></clipPath><clipPath id="clip-path-319"><rect class="cls-2" x="319.54" y="610.54" width="5.49" height="5.48"/></clipPath><clipPath id="clip-path-321"><rect class="cls-2" x="326.32" y="610.54" width="5.49" height="5.48"/></clipPath><clipPath id="clip-path-323"><rect class="cls-2" x="326.32" y="617.31" width="5.49" height="5.48"/></clipPath><clipPath id="clip-path-325"><rect class="cls-2" x="333.31" y="617.31" width="5.49" height="5.48"/></clipPath><clipPath id="clip-path-327"><rect class="cls-2" x="333.31" y="610.54" width="5.49" height="5.48"/></clipPath><clipPath id="clip-path-329"><rect class="cls-2" x="340.09" y="610.54" width="5.49" height="5.48"/></clipPath><clipPath id="clip-path-331"><rect class="cls-2" x="340.09" y="617.31" width="5.49" height="5.48"/></clipPath><clipPath id="clip-path-333"><rect class="cls-2" x="288.06" y="613.17" width="13.37" height="1.21"/></clipPath><clipPath id="clip-path-335"><rect class="cls-2" x="306.12" y="601.92" width="22.44" height="1.21"/></clipPath><clipPath id="clip-path-337"><rect class="cls-2" x="288.06" y="616.96" width="13.37" height="1.21"/></clipPath><clipPath id="clip-path-339"><rect class="cls-2" x="288.06" y="620.74" width="13.37" height="1.21"/></clipPath><clipPath id="clip-path-341"><rect class="cls-2" x="331.81" y="597.83" width="6.68" height="1.21"/></clipPath><clipPath id="clip-path-343"><rect class="cls-2" x="331.81" y="601.61" width="6.68" height="1.21"/></clipPath><clipPath id="clip-path-345"><rect class="cls-2" x="331.81" y="605.4" width="6.68" height="1.21"/></clipPath><clipPath id="clip-path-347"><rect class="cls-2" x="339.49" y="597.83" width="6.68" height="1.21"/></clipPath><clipPath id="clip-path-349"><rect class="cls-2" x="339.49" y="601.61" width="6.68" height="1.21"/></clipPath><clipPath id="clip-path-351"><rect class="cls-2" x="339.49" y="605.4" width="6.68" height="1.21"/></clipPath><clipPath id="clip-path-353"><path class="cls-1" d="M323.25,605.71H310.94a2.42,2.42,0,0,1-2.43-2.42v-1.53a2.42,2.42,0,0,1,2.43-2.42h12.31a2.42,2.42,0,0,1,2.42,2.42v1.53a2.42,2.42,0,0,1-2.42,2.42"/></clipPath><clipPath id="clip-path-355"><rect class="cls-2" x="372.16" y="599.34" width="1.21" height="22.41"/></clipPath><clipPath id="clip-path-357"><path class="cls-1" d="M376,604.64v12.29a2.42,2.42,0,0,1-2.43,2.42H372a2.42,2.42,0,0,1-2.43-2.42V604.64a2.42,2.42,0,0,1,2.43-2.42h1.53a2.42,2.42,0,0,1,2.43,2.42"/></clipPath><clipPath id="clip-path-359"><rect class="cls-2" x="274.98" y="625.18" width="112.91" height="9.7"/></clipPath><clipPath id="clip-path-361"><path class="cls-1" d="M737.46,638.4a81.37,81.37,0,0,1-19.5-2.94l.34-1.17c.21.06,21.19,6,30,.65a7.37,7.37,0,0,0,3.57-5,2.5,2.5,0,0,0-.67-2.19c-8-9.32-74.31-9.26-112.23-7.76-21.8.83-44.12-12-44.34-12.14l.61-1.05c.22.13,22.22,12.87,43.68,12,10.51-.42,103-3.73,113.2,8.18a3.69,3.69,0,0,1,.94,3.21,8.57,8.57,0,0,1-4.13,5.84c-3,1.8-7.12,2.42-11.43,2.42"/></clipPath><clipPath id="clip-path-363"><path class="cls-1" d="M711.65,628.51c0,16.19-47.15,16.19-47.15,0s10.56-29.33,23.58-29.33,23.57,13.13,23.57,29.33"/></clipPath><clipPath id="clip-path-365"><path class="cls-1" d="M688.08,599.18a18.62,18.62,0,0,0-2.25.14,22.34,22.34,0,0,0-.89,6.29c0,11.53,8.56,20.88,19.12,20.88a17.7,17.7,0,0,0,7.4-1.62c-1.44-14.48-11.35-25.69-23.38-25.69"/></clipPath><clipPath id="clip-path-367"><path class="cls-1" d="M694.15,617a6.07,6.07,0,1,1-6.07-6.06,6.06,6.06,0,0,1,6.07,6.06"/></clipPath><clipPath id="clip-path-369"><path class="cls-1" d="M688.08,629.82a2.84,2.84,0,0,1-2.84-2.82v-4.25a2.84,2.84,0,0,1,5.67,0V627a2.83,2.83,0,0,1-2.83,2.82"/></clipPath><clipPath id="clip-path-371"><path class="cls-1" d="M717.43,641.61H661.35a6.55,6.55,0,1,1,0-13.1h56.08a6.55,6.55,0,1,1,0,13.1"/></clipPath><clipPath id="clip-path-373"><path class="cls-1" d="M615.57,634c-4.51,1.62-12.28,1.92-12.28,1.92l-6,5.53s21-.41,25.58-5.28-7.26-2.17-7.26-2.17"/></clipPath><clipPath id="clip-path-375"><polygon class="cls-1" points="474.9 594.4 483.24 588.91 506.19 589.63 493.92 597.55 474.9 594.4"/></clipPath><clipPath id="clip-path-377"><path class="cls-1" d="M587.57,648.68c.73-.33,12.08-7.53,12.08-7.53v-8.63L575,630.91Z"/></clipPath><clipPath id="clip-path-379"><path class="cls-1" d="M590.35,643.54H570.79c-10.49,0-22.46-6.46-28.46-6.46-5.67,0-16.71,6.46-26.77,6.46H494.32a19.47,19.47,0,0,1-19.42-19.39V604.82a19.46,19.46,0,0,1,19.42-19.39h96a19.46,19.46,0,0,1,19.42,19.39v19.33a19.47,19.47,0,0,1-19.42,19.39"/></clipPath><clipPath id="clip-path-381"><path class="cls-1" d="M580.23,650.12H560.68c-10.49,0-22.47-6.46-28.46-6.46-5.67,0-16.71,6.46-26.77,6.46H484.2a19.46,19.46,0,0,1-19.42-19.39V611.4A19.47,19.47,0,0,1,484.2,592h96a19.47,19.47,0,0,1,19.42,19.39v19.33a19.46,19.46,0,0,1-19.42,19.39"/></clipPath><clipPath id="clip-path-383"><path class="cls-1" d="M495.13,594.73a17.69,17.69,0,0,0,17.65,17.62h39.76a17.68,17.68,0,0,0,17.64-17.62A17.41,17.41,0,0,0,570,592H495.36a17.41,17.41,0,0,0-.23,2.72"/></clipPath><clipPath id="clip-path-385"><polygon class="cls-1" points="512.49 598.94 509.85 605.56 508.96 605.56 506.3 598.94 507.62 598.94 509.41 603.63 511.19 598.94 512.49 598.94"/></clipPath><clipPath id="clip-path-387"><path class="cls-1" d="M513.39,598.94h2.14a2.06,2.06,0,0,1,2.3,1.95,1.81,1.81,0,0,1-1.3,1.73l1.85,2.94H517l-1.63-2.83h-.8v2.83h-1.19Zm2.25,2.82c.64,0,1-.35,1-.85s-.43-.9-1.11-.9h-.95v1.75Z"/></clipPath><clipPath id="clip-path-389"><path class="cls-1" d="M521.65,598.94h2.08c1.35,0,2.34.71,2.34,2s-1,1.92-2.34,1.92h-.9v2.74h-1.18Zm2.08,2.77c.81,0,1.15-.28,1.15-.81s-.35-.85-1.15-.85h-.9v1.66Z"/></clipPath><clipPath id="clip-path-391"><polygon class="cls-1" points="528.6 602.98 526.11 598.94 527.55 598.94 529.21 601.84 530.87 598.94 532.32 598.94 529.84 602.98 529.84 605.56 528.6 605.56 528.6 602.98"/></clipPath><clipPath id="clip-path-393"><polygon class="cls-1" points="534.67 600.01 532.59 600.01 532.59 598.94 537.93 598.94 537.93 600.01 535.86 600.01 535.86 605.56 534.67 605.56 534.67 600.01"/></clipPath><clipPath id="clip-path-395"><polygon class="cls-1" points="538.88 598.94 540.07 598.94 540.07 601.71 542.98 601.71 542.98 598.94 544.17 598.94 544.17 605.56 542.98 605.56 542.98 602.8 540.07 602.8 540.07 605.56 538.88 605.56 538.88 598.94"/></clipPath><clipPath id="clip-path-397"><path class="cls-1" d="M545.4,602.25a3.21,3.21,0,1,1,3.19,3.41,3.1,3.1,0,0,1-3.19-3.41m5.14,0c0-1.25-.52-2.35-1.95-2.35s-1.94,1.1-1.94,2.35.52,2.35,1.94,2.35,1.95-1.1,1.95-2.35"/></clipPath><clipPath id="clip-path-399"><polygon class="cls-1" points="558.14 598.94 558.14 605.56 556.95 605.56 554.17 600.91 554.17 605.56 553.02 605.56 553.02 598.94 554.21 598.94 556.99 603.57 556.99 598.94 558.14 598.94"/></clipPath><clipPath id="clip-path-401"><path class="cls-1" d="M603.29,611s22.46,11.55,21.25,22.13-19-7.49-19-7.49Z"/></clipPath><clipPath id="clip-path-403"><path class="cls-1" d="M200,804.14a100,100,0,1,1-100-100,100,100,0,0,1,100,100"/></clipPath><clipPath id="clip-path-404"><path class="cls-1" d="M0,686.14v118a100,100,0,0,0,200,0v-118"/></clipPath><clipPath id="clip-path-405"><path class="cls-1" d="M0,686.14v118a100,100,0,0,0,200,0v-118Z"/></clipPath><clipPath id="clip-path-406"><path class="cls-1" d="M23.61,786.45a3.18,3.18,0,0,0,0,6.36h25v-6.36Z"/></clipPath><clipPath id="clip-path-408"><path class="cls-1" d="M200,1042.14a100,100,0,1,1-100-100,100,100,0,0,1,100,100"/></clipPath><clipPath id="clip-path-409"><path class="cls-1" d="M0,924.14v118a100,100,0,0,0,200,0v-118Z"/></clipPath><clipPath id="clip-path-413"><path class="cls-1" d="M0,924.14v118a100,100,0,0,0,200,0v-118"/></clipPath><clipPath id="clip-path-418"><path class="cls-1" d="M154.74,992.14s-1,11.41-9.51,14.26c10.46,4.76,23.78-4.75,23.78-4.75Z"/></clipPath><clipPath id="clip-path-419"><path class="cls-1" d="M39.5,953.14s1,11.41,9.51,14.26c-10.46,4.76-23.78-4.75-23.78-4.75Z"/></clipPath><clipPath id="clip-path-420"><path class="cls-1" d="M164.73,979.14h12a14.5,14.5,0,0,1,0,29h-12a14.5,14.5,0,1,1,0-29Z"/></clipPath><clipPath id="clip-path-421"><path class="cls-1" d="M18.73,940.14h12a14.5,14.5,0,1,1,0,29h-12a14.5,14.5,0,0,1,0-29Z"/></clipPath><clipPath id="clip-path-422"><path class="cls-1" d="M178.45,1000.08v-2.2h2.22v2.2Zm.23-3.53v-1.21c0-2.75,2.78-1.93,2.78-3.91,0-1.1-.79-1.6-1.93-1.6-1.34,0-1.91.71-1.91,2h-1.79a3.39,3.39,0,0,1,3.63-3.69c2,0,3.77,1.15,3.77,3.33,0,3-2.83,2.72-2.83,3.88v1.2Zm-8.53,3.53v-2.2h2.22v2.2Zm.23-3.53v-1.21c0-2.75,2.78-1.93,2.78-3.91,0-1.1-.79-1.6-1.93-1.6-1.34,0-1.91.71-1.91,2h-1.79a3.39,3.39,0,0,1,3.63-3.69c2,0,3.77,1.15,3.77,3.33,0,3-2.83,2.72-2.83,3.88v1.2Zm-8.53,3.53v-2.2h2.23v2.2Zm.23-3.53v-1.21c0-2.75,2.78-1.93,2.78-3.91,0-1.1-.78-1.6-1.93-1.6-1.34,0-1.91.71-1.91,2h-1.79a3.39,3.39,0,0,1,3.63-3.69c2,0,3.77,1.15,3.77,3.33,0,3-2.83,2.72-2.83,3.88v1.2Z"/></clipPath><clipPath id="clip-path-423"><path class="cls-1" d="M29.68,959.48,29,958.22l6.35-3.63L29,951l.73-1.25,8.55,4.87Zm-8.75,3.15,5.82-14.49h1.78l-5.81,14.49Zm-1.15-3.15-8.55-4.89,8.55-4.87.73,1.25-6.35,3.62,6.35,3.63Z"/></clipPath><clipPath id="clip-path-424"><path class="cls-1" d="M200,1278a100,100,0,1,1-100-100,100,100,0,0,1,100,100"/></clipPath><clipPath id="clip-path-425"><path class="cls-1" d="M18.83,1162.14,0,1279a100,100,0,0,0,198.65,16.5c.11-.68-15.22-62.48-13.87-67.06,9.25-31.22-3.16-66.33-3.16-66.33Z"/></clipPath></defs><title>RGB</title><g class="cls-4"><g class="cls-5"><rect class="cls-6" x="128.61" y="37.9" width="550.51" height="234.38"/></g></g><g class="cls-7"><g class="cls-5"><rect class="cls-6" x="749.56" y="259.86" width="550.51" height="234.38"/></g></g><g class="cls-8"><g class="cls-5"><rect class="cls-6" x="655.56" y="-5" width="550.51" height="234.38"/></g></g><g class="cls-9"><g class="cls-5"><rect class="cls-6" x="-5" y="231.96" width="550.51" height="234.38"/></g></g><g class="cls-10"><g class="cls-5"><g class="cls-11"><g class="cls-12"><g class="cls-13"><g class="cls-14"><rect class="cls-15" x="757.4" y="534.94" width="170.9" height="93.49"/></g></g></g></g></g></g><g class="cls-16"><g class="cls-5"><rect class="cls-17" x="706.44" y="17.19" width="150.21" height="244.9"/></g></g><g class="cls-18"><g class="cls-5"><rect class="cls-19" x="776.91" y="191.52" width="17.16" height="32.24"/></g></g><g class="cls-20"><g class="cls-5"><rect class="cls-21" x="703.29" y="173.16" width="224.88" height="417.62"/></g></g><g class="cls-22"><g class="cls-5"><rect class="cls-23" x="718.85" y="290.75" width="20.32" height="164.02"/></g></g><g class="cls-24"><g class="cls-5"><rect class="cls-19" x="807.89" y="154.98" width="52.36" height="66.48"/></g></g><g class="cls-25"><g class="cls-5"><rect class="cls-6" x="764.99" y="154.98" width="100.14" height="116.52"/></g></g><g class="cls-26"><g class="cls-5"><rect class="cls-27" x="806.25" y="208.78" width="29.92" height="32.38"/></g></g><g class="cls-28"><g class="cls-5"><rect class="cls-23" x="881.4" y="268.99" width="35.25" height="218.87"/></g></g><g class="cls-29"><g class="cls-5"><rect class="cls-21" x="807.62" y="184.89" width="57.27" height="75.9"/></g></g><g class="cls-30"><g class="cls-5"><rect class="cls-21" x="886.89" y="196.77" width="61.92" height="315.01"/></g></g><g class="cls-31"><g class="cls-5"><rect class="cls-6" x="807.89" y="178.28" width="57.19" height="66.77"/></g></g><g class="cls-32"><g class="cls-5"><rect class="cls-33" x="679.61" y="12.6" width="184.24" height="147.02"/></g></g><g class="cls-34"><g class="cls-5"><rect class="cls-35" x="752.85" y="140.34" width="52.02" height="30.92"/></g></g><g class="cls-36"><g class="cls-5"><rect class="cls-35" x="760.71" y="146.94" width="39.27" height="23.74"/></g></g><g class="cls-37"><g class="cls-5"><rect class="cls-35" x="745.58" y="102.31" width="29.74" height="52.35"/></g></g><g class="cls-38"><g class="cls-5"><rect class="cls-39" x="769.1" y="92.22" width="17.89" height="24.12"/></g></g><g class="cls-40"><g class="cls-5"><rect class="cls-39" x="728.73" y="105.02" width="17.08" height="22.66"/></g></g><g class="cls-41"><g class="cls-5"><rect class="cls-42" x="692.81" y="74.79" width="30.2" height="33.07"/></g></g><g class="cls-43"><g class="cls-5"><rect class="cls-44" x="839.23" y="278.89" width="121.27" height="189.5"/></g></g><g class="cls-45"><g class="cls-5"><rect class="cls-17" x="855.15" y="394.11" width="107.3" height="109.53"/></g></g><g class="cls-46"><g class="cls-5"><rect class="cls-19" x="899.92" y="392.92" width="32.16" height="33.56"/></g></g><g class="cls-47"><g class="cls-5"><rect class="cls-17" x="845.22" y="288.97" width="99.09" height="135.29"/></g></g><g class="cls-48"><g class="cls-5"><g class="cls-11"><g class="cls-49"><g class="cls-50"><g class="cls-51"><rect class="cls-52" x="825.48" y="420.79" width="180.81" height="363.73"/></g></g></g></g></g></g><g class="cls-53"><g class="cls-5"><rect class="cls-52" x="902.84" y="433.9" width="97.72" height="179.84"/></g></g><g class="cls-54"><g class="cls-5"><rect class="cls-55" x="893.49" y="344.57" width="16.23" height="21.66"/></g></g><g class="cls-56"><g class="cls-5"><rect class="cls-55" x="850.68" y="346.94" width="15.13" height="19.6"/></g></g><g class="cls-57"><g class="cls-5"><rect class="cls-35" x="876.71" y="391.35" width="36.89" height="20.29"/></g></g><g class="cls-58"><g class="cls-5"><rect class="cls-44" x="840.47" y="286.71" width="96.16" height="64.48"/></g></g><g class="cls-59"><g class="cls-5"><rect class="cls-44" x="915.22" y="357.11" width="41.31" height="108.24"/></g></g><g class="cls-60"><g class="cls-5"><rect class="cls-35" x="866.62" y="340.86" width="21.69" height="48.3"/></g></g><g class="cls-61"><g class="cls-5"><g class="cls-11"><g class="cls-62"><g class="cls-63"><g class="cls-64"><rect class="cls-55" x="842.53" y="288.12" width="93.48" height="56.35"/></g></g></g></g></g></g><g class="cls-65"><g class="cls-5"><rect class="cls-66" x="402.48" y="50.94" width="161.76" height="194.1"/></g></g><g class="cls-67"><g class="cls-5"><rect class="cls-68" x="410.91" y="193.15" width="118.86" height="121.33"/></g></g><g class="cls-69"><g class="cls-5"><rect class="cls-70" x="441" y="198.01" width="62.67" height="37"/></g></g><g class="cls-71"><g class="cls-5"><rect class="cls-68" x="433.89" y="75.54" width="116.68" height="158.39"/></g></g><g class="cls-72"><g class="cls-5"><g class="cls-11"><g class="cls-73"><g class="cls-74"><g class="cls-75"><rect class="cls-76" x="361.87" y="229.58" width="201.1" height="399.06"/></g></g></g></g></g></g><g class="cls-77"><g class="cls-5"><rect class="cls-78" x="450.88" y="248.19" width="154.47" height="193.14"/></g></g><g class="cls-79"><g class="cls-5"><rect class="cls-80" x="375.35" y="300.85" width="65.8" height="250.36"/></g></g><g class="cls-81"><g class="cls-5"><rect class="cls-82" x="451.33" y="331.02" width="79.52" height="84.23"/></g></g><g class="cls-83"><g class="cls-5"><rect class="cls-68" x="428.83" y="313.34" width="102.46" height="98.63"/></g></g><g class="cls-84"><g class="cls-5"><rect class="cls-70" x="433.38" y="351.44" width="43.78" height="44.46"/></g></g><g class="cls-85"><g class="cls-5"><rect class="cls-76" x="365.8" y="237.65" width="110.61" height="199.97"/></g></g><g class="cls-86"><g class="cls-5"><rect class="cls-39" x="469.9" y="137.73" width="16.97" height="23.04"/></g></g><g class="cls-87"><g class="cls-5"><rect class="cls-39" x="521.91" y="140.39" width="15.74" height="20.74"/></g></g><g class="cls-88"><g class="cls-5"><rect class="cls-89" x="494.21" y="119.83" width="21.19" height="75.45"/></g></g><g class="cls-90"><g class="cls-5"><rect class="cls-89" x="461.85" y="186.47" width="15.89" height="17.11"/></g></g><g class="cls-91"><g class="cls-5"><rect class="cls-89" x="464.27" y="190.06" width="40.08" height="21.51"/></g></g><g class="cls-92"><g class="cls-5"><rect class="cls-66" x="439.8" y="64.81" width="94.97" height="69.38"/></g></g><g class="cls-93"><g class="cls-5"><rect class="cls-66" x="513.49" y="77.97" width="39.56" height="43.41"/></g></g><g class="cls-94"><g class="cls-5"><rect class="cls-66" x="413.59" y="152.26" width="44.55" height="83.51"/></g></g><g class="cls-95"><g class="cls-5"><rect class="cls-96" x="575.03" y="258.53" width="19.11" height="19.11"/></g></g><g class="cls-97"><g class="cls-5"><rect class="cls-68" x="945.99" y="284.31" width="140.82" height="241.02"/></g></g><g class="cls-98"><g class="cls-5"><g class="cls-11"><g class="cls-99"><g class="cls-100"><g class="cls-101"><rect class="cls-102" x="977.57" y="437.37" width="166.92" height="217.47"/></g></g></g></g></g></g><g class="cls-103"><g class="cls-5"><g class="cls-11"><g class="cls-104"><g class="cls-105"><g class="cls-106"><rect class="cls-107" x="1068.23" y="534.14" width="51.8" height="89.19"/></g></g></g></g></g></g><g class="cls-108"><g class="cls-5"><g class="cls-11"><g class="cls-109"><g class="cls-110"><g class="cls-111"><rect class="cls-68" x="981.38" y="539.04" width="170.52" height="122.79"/></g></g></g></g></g></g><g class="cls-112"><g class="cls-5"><rect class="cls-66" x="957.39" y="280.88" width="132.16" height="143.37"/></g></g><g class="cls-113"><g class="cls-5"><rect class="cls-39" x="983.33" y="342.95" width="15.88" height="20.99"/></g></g><g class="cls-114"><g class="cls-5"><rect class="cls-89" x="966.27" y="390.78" width="31.6" height="18.32"/></g></g><g class="cls-115"><g class="cls-5"><rect class="cls-116" x="1083.48" y="539.04" width="55.35" height="21.7"/></g></g><g class="cls-117"><g class="cls-5"><g class="cls-11"><g class="cls-118"><g class="cls-119"><g class="cls-120"><rect class="cls-66" x="784.85" y="428.72" width="224.08" height="198.71"/></g></g></g></g></g></g><g class="cls-121"><g class="cls-5"><g class="cls-11"><g class="cls-122"><g class="cls-123"><g class="cls-124"><rect class="cls-15" x="994.72" y="598.96" width="139.31" height="32.11"/></g></g></g></g></g></g><g class="cls-125"><g class="cls-5"><g class="cls-11"><g class="cls-126"><g class="cls-127"><g class="cls-128"><rect class="cls-129" x="478.07" y="495.31" width="119.54" height="133"/></g></g></g></g></g></g><g class="cls-130"><g class="cls-5"><g class="cls-11"><g class="cls-131"><g class="cls-132"><g class="cls-133"><rect class="cls-129" x="724.43" y="488.7" width="109.61" height="136.35"/></g></g></g></g></g></g><g class="cls-134"><g class="cls-5"><rect class="cls-135" x="589.5" y="336.38" width="140.34" height="143.37"/></g></g><g class="cls-136"><g class="cls-5"><rect class="cls-35" x="646.05" y="416.75" width="16.04" height="45.52"/></g></g><g class="cls-137"><g class="cls-5"><g class="cls-11"><g class="cls-138"><g class="cls-139"><g class="cls-140"><rect class="cls-66" x="524.22" y="445.37" width="261.83" height="180.24"/></g></g></g></g></g></g><g class="cls-141"><g class="cls-5"><g class="cls-11"><g class="cls-142"><g class="cls-143"><g class="cls-144"><rect class="cls-15" x="527.53" y="600.01" width="244.79" height="28.22"/></g></g></g></g></g></g><g class="cls-145"><g class="cls-5"><rect class="cls-135" x="579.59" y="377.25" width="27.83" height="52.03"/></g></g><g class="cls-146"><g class="cls-5"><rect class="cls-147" x="622.2" y="410.11" width="19.72" height="28.86"/></g></g><g class="cls-148"><g class="cls-5"><rect class="cls-147" x="675.85" y="410.11" width="18.91" height="28.86"/></g></g><g class="cls-149"><g class="cls-5"><rect class="cls-150" x="609.75" y="409.56" width="42.38" height="30.62"/></g></g><g class="cls-151"><g class="cls-5"><rect class="cls-150" x="664.11" y="409.56" width="42.38" height="30.63"/></g></g><g class="cls-152"><g class="cls-5"><rect class="cls-150" x="692.6" y="382.78" width="34.89" height="40.35"/></g></g><g class="cls-153"><g class="cls-5"><rect class="cls-150" x="640.51" y="409.54" width="34.97" height="14.05"/></g></g><g class="cls-154"><g class="cls-5"><rect class="cls-150" x="593.35" y="383.06" width="29.6" height="40.5"/></g></g><g class="cls-155"><g class="cls-5"><rect class="cls-156" x="574.9" y="281.59" width="162.79" height="141.29"/></g></g><g class="cls-157"><g class="cls-5"><rect class="cls-135" x="715.78" y="378.47" width="24.03" height="52.03"/></g></g><g class="cls-158"><g class="cls-5"><rect class="cls-96" x="628.58" y="514.14" width="42.69" height="42.68"/></g></g><g class="cls-159"><g class="cls-5"><g class="cls-11"><g class="cls-160"><g class="cls-161"><g class="cls-162"><rect class="cls-163" x="74.21" y="390.54" width="257.37" height="235.68"/></g></g></g></g></g></g><g class="cls-164"><g class="cls-5"><rect class="cls-165" x="153.87" y="475.33" width="67.39" height="102.91"/></g></g><g class="cls-166"><g class="cls-5"><rect class="cls-17" x="212.74" y="292.59" width="190.31" height="182.35"/></g></g><g class="cls-167"><g class="cls-5"><rect class="cls-168" x="175.07" y="231.85" width="260.21" height="203.4"/></g></g><g class="cls-169"><g class="cls-5"><rect class="cls-35" x="293.58" y="407.76" width="22.71" height="27.3"/></g></g><g class="cls-170"><g class="cls-5"><rect class="cls-35" x="312.13" y="386.28" width="45.43" height="42.3"/></g></g><g class="cls-171"><g class="cls-5"><rect class="cls-147" x="321.35" y="378.05" width="18.17" height="19.49"/></g></g><g class="cls-172"><g class="cls-5"><rect class="cls-147" x="352.37" y="391.97" width="18.17" height="19.49"/></g></g><g class="cls-173"><g class="cls-5"><rect class="cls-165" x="84.52" y="598.3" width="122.37" height="21.79"/></g></g><g class="cls-174"><g class="cls-5"><g class="cls-11"><g class="cls-175"><g class="cls-176"><g class="cls-177"><rect class="cls-178" x="272.9" y="431.33" width="239.26" height="195.67"/></g></g></g></g></g></g><g class="cls-179"><g class="cls-5"><g class="cls-11"><g class="cls-180"><g class="cls-181"><g class="cls-182"><rect class="cls-183" x="172.39" y="602.63" width="113.64" height="24.37"/></g></g></g></g></g></g><g class="cls-184"><g class="cls-5"><rect class="cls-185" x="175.8" y="563.53" width="108.69" height="50.45"/></g></g><g class="cls-186"><g class="cls-5"><rect class="cls-19" x="181.03" y="593.23" width="10.32" height="10.17"/></g></g><g class="cls-187"><g class="cls-5"><rect class="cls-19" x="175.81" y="563.53" width="42.37" height="39.29"/></g></g><g class="cls-188"><g class="cls-5"><rect class="cls-35" x="812.91" y="124.08" width="24.3" height="40.3"/></g></g><g class="cls-189"><g class="cls-5"><rect class="cls-66" x="1053.67" y="302.99" width="35.3" height="27.72"/></g></g><g class="cls-190"><g class="cls-5"><rect class="cls-66" x="1068.66" y="316.86" width="25.85" height="27.23"/></g></g><g class="cls-191"><g class="cls-5"><rect class="cls-66" x="1071.05" y="325.48" width="25.85" height="27.23"/></g></g><g class="cls-192"><g class="cls-5"><rect class="cls-193" x="44.91" y="610.09" width="1231.93" height="61.05"/></g></g><g class="cls-194"><g class="cls-5"><rect class="cls-96" x="393.01" y="517.43" width="38.33" height="38.29"/></g></g><g class="cls-195"><g class="cls-5"><rect class="cls-196" x="773.94" y="572.85" width="18.77" height="16.87"/></g></g><g class="cls-197"><g class="cls-5"><rect class="cls-196" x="759.97" y="575.68" width="32.75" height="25.34"/></g></g><g class="cls-198"><g class="cls-5"><rect class="cls-196" x="817.12" y="584.42" width="218.12" height="66.7"/></g></g><g class="cls-199"><g class="cls-5"><rect class="cls-200" x="804.58" y="477.99" width="13.1" height="24.04"/></g></g><g class="cls-201"><g class="cls-5"><rect class="cls-200" x="800.98" y="544.23" width="62.46" height="29.16"/></g></g><g class="cls-202"><g class="cls-5"><rect class="cls-200" x="847.66" y="543.95" width="28.32" height="40.19"/></g></g><g class="cls-203"><g class="cls-5"><rect class="cls-204" x="820.29" y="502.35" width="14.65" height="20.2"/></g></g><g class="cls-205"><g class="cls-5"><rect class="cls-76" x="780.99" y="536.25" width="62.49" height="74"/></g></g><g class="cls-206"><g class="cls-5"><rect class="cls-80" x="780.99" y="536.25" width="23.07" height="70.93"/></g></g><g class="cls-207"><g class="cls-5"><rect class="cls-76" x="790.1" y="490.47" width="42.06" height="58.48"/></g></g><g class="cls-208"><g class="cls-5"><rect class="cls-178" x="761.14" y="593.02" width="99.98" height="44.65"/></g></g><g class="cls-209"><g class="cls-5"><rect class="cls-183" x="764.56" y="597.18" width="93.14" height="36.33"/></g></g><g class="cls-210"><g class="cls-5"><rect class="cls-178" x="773.17" y="603.69" width="23.32" height="23.3"/></g></g><g class="cls-211"><g class="cls-5"><rect class="cls-178" x="799.47" y="603.69" width="23.32" height="23.3"/></g></g><g class="cls-212"><g class="cls-5"><rect class="cls-178" x="825.28" y="603.69" width="23.32" height="23.3"/></g></g><g class="cls-213"><g class="cls-5"><rect class="cls-200" x="805.31" y="530.45" width="58.1" height="38.86"/></g></g><g class="cls-214"><g class="cls-5"><rect class="cls-200" x="844.61" y="513.51" width="36.38" height="36.99"/></g></g><g class="cls-215"><g class="cls-5"><rect class="cls-163" x="802.83" y="475.08" width="16.59" height="16.58"/></g></g><g class="cls-216"><g class="cls-5"><rect class="cls-80" x="799.57" y="548.18" width="26.23" height="26.21"/></g></g><g class="cls-217"><g class="cls-5"><rect class="cls-218" x="812.08" y="490.47" width="20.09" height="48.06"/></g></g><g class="cls-219"><g class="cls-5"><rect class="cls-80" x="790.1" y="490.47" width="22.03" height="55.85"/></g></g><g class="cls-220"><g class="cls-5"><rect class="cls-196" x="1012.78" y="603.43" width="16.9" height="14.92"/></g></g><g class="cls-221"><g class="cls-5"><rect class="cls-196" x="145.73" y="604.81" width="145.01" height="43.11"/></g></g><g class="cls-222"><g class="cls-5"><rect class="cls-196" x="227.69" y="604.87" width="17.44" height="13.91"/></g></g><g class="cls-223"><g class="cls-5"><rect class="cls-80" x="276.08" y="585.87" width="110.57" height="47.15"/></g></g><g class="cls-224"><g class="cls-5"><rect class="cls-178" x="283.06" y="590.85" width="23.37" height="23.35"/></g></g><g class="cls-225"><g class="cls-5"><rect class="cls-178" x="343.23" y="590.85" width="29.28" height="37.29"/></g></g><g class="cls-226"><g class="cls-5"><rect class="cls-178" x="301.12" y="612.31" width="15.49" height="15.48"/></g></g><g class="cls-227"><g class="cls-5"><rect class="cls-178" x="301.12" y="605.54" width="15.49" height="15.48"/></g></g><g class="cls-228"><g class="cls-5"><rect class="cls-178" x="307.9" y="605.54" width="15.49" height="15.48"/></g></g><g class="cls-229"><g class="cls-5"><rect class="cls-178" x="307.9" y="612.31" width="15.49" height="15.48"/></g></g><g class="cls-230"><g class="cls-5"><rect class="cls-178" x="314.54" y="612.31" width="15.49" height="15.48"/></g></g><g class="cls-231"><g class="cls-5"><rect class="cls-178" x="314.54" y="605.54" width="15.49" height="15.48"/></g></g><g class="cls-232"><g class="cls-5"><rect class="cls-178" x="321.32" y="605.54" width="15.49" height="15.48"/></g></g><g class="cls-233"><g class="cls-5"><rect class="cls-178" x="321.32" y="612.31" width="15.49" height="15.48"/></g></g><g class="cls-234"><g class="cls-5"><rect class="cls-178" x="328.31" y="612.31" width="15.49" height="15.48"/></g></g><g class="cls-235"><g class="cls-5"><rect class="cls-178" x="328.31" y="605.54" width="15.49" height="15.48"/></g></g><g class="cls-236"><g class="cls-5"><rect class="cls-178" x="335.09" y="605.54" width="15.49" height="15.48"/></g></g><g class="cls-237"><g class="cls-5"><rect class="cls-178" x="335.09" y="612.31" width="15.49" height="15.48"/></g></g><g class="cls-238"><g class="cls-5"><rect class="cls-178" x="283.06" y="608.17" width="23.37" height="11.21"/></g></g><g class="cls-239"><g class="cls-5"><rect class="cls-178" x="301.12" y="596.92" width="32.44" height="11.21"/></g></g><g class="cls-240"><g class="cls-5"><rect class="cls-178" x="283.06" y="611.96" width="23.37" height="11.21"/></g></g><g class="cls-241"><g class="cls-5"><rect class="cls-178" x="283.06" y="615.74" width="23.37" height="11.21"/></g></g><g class="cls-242"><g class="cls-5"><rect class="cls-178" x="326.81" y="592.83" width="16.68" height="11.21"/></g></g><g class="cls-243"><g class="cls-5"><rect class="cls-178" x="326.81" y="596.61" width="16.68" height="11.21"/></g></g><g class="cls-244"><g class="cls-5"><rect class="cls-178" x="326.81" y="600.4" width="16.68" height="11.21"/></g></g><g class="cls-245"><g class="cls-5"><rect class="cls-178" x="334.49" y="592.83" width="16.68" height="11.21"/></g></g><g class="cls-246"><g class="cls-5"><rect class="cls-178" x="334.49" y="596.61" width="16.68" height="11.21"/></g></g><g class="cls-247"><g class="cls-5"><rect class="cls-178" x="334.49" y="600.4" width="16.68" height="11.21"/></g></g><g class="cls-248"><g class="cls-5"><rect class="cls-178" x="303.51" y="594.34" width="27.16" height="16.38"/></g></g><g class="cls-249"><g class="cls-5"><rect class="cls-178" x="367.16" y="594.34" width="11.21" height="32.41"/></g></g><g class="cls-250"><g class="cls-5"><rect class="cls-178" x="364.57" y="597.22" width="16.38" height="27.13"/></g></g><g class="cls-251"><g class="cls-5"><rect class="cls-82" x="269.98" y="620.18" width="122.91" height="19.7"/></g></g><g class="cls-252"><g class="cls-5"><rect class="cls-196" x="589.59" y="601.77" width="168.5" height="41.63"/></g></g><g class="cls-253"><g class="cls-5"><rect class="cls-163" x="659.5" y="594.18" width="57.15" height="51.47"/></g></g><g class="cls-254"><g class="cls-5"><rect class="cls-255" x="679.94" y="594.18" width="36.52" height="37.31"/></g></g><g class="cls-256"><g class="cls-5"><rect class="cls-257" x="677.01" y="605.97" width="22.14" height="22.12"/></g></g><g class="cls-258"><g class="cls-5"><rect class="cls-257" x="680.24" y="614.92" width="15.67" height="19.9"/></g></g><g class="cls-259"><g class="cls-5"><rect class="cls-178" x="649.79" y="623.51" width="79.2" height="23.11"/></g></g><g class="cls-260"><g class="cls-5"><rect class="cls-178" x="592.25" y="628.24" width="36.62" height="18.2"/></g></g><g class="cls-261"><g class="cls-5"><rect class="cls-96" x="469.9" y="583.91" width="41.29" height="18.64"/></g></g><g class="cls-262"><g class="cls-5"><rect class="cls-96" x="569.97" y="625.91" width="34.68" height="27.77"/></g></g><g class="cls-263"><g class="cls-5"><rect class="cls-96" x="469.9" y="580.43" width="144.87" height="68.11"/></g></g><g class="cls-264"><g class="cls-5"><rect class="cls-82" x="459.78" y="587.01" width="144.87" height="68.11"/></g></g><g class="cls-265"><g class="cls-5"><rect class="cls-76" x="490.13" y="587.01" width="85.05" height="30.34"/></g></g><g class="cls-266"><g class="cls-5"><rect class="cls-196" x="501.3" y="593.94" width="16.19" height="16.62"/></g></g><g class="cls-267"><g class="cls-5"><rect class="cls-196" x="508.39" y="593.94" width="14.99" height="16.62"/></g></g><g class="cls-268"><g class="cls-5"><rect class="cls-196" x="516.65" y="593.94" width="14.42" height="16.62"/></g></g><g class="cls-269"><g class="cls-5"><rect class="cls-196" x="521.11" y="593.94" width="16.21" height="16.62"/></g></g><g class="cls-270"><g class="cls-5"><rect class="cls-196" x="527.59" y="593.94" width="15.34" height="16.62"/></g></g><g class="cls-271"><g class="cls-5"><rect class="cls-196" x="533.88" y="593.94" width="15.29" height="16.62"/></g></g><g class="cls-272"><g class="cls-5"><rect class="cls-196" x="540.4" y="593.84" width="16.4" height="16.81"/></g></g><g class="cls-273"><g class="cls-5"><rect class="cls-196" x="548.02" y="593.94" width="15.11" height="16.62"/></g></g><g class="cls-274"><g class="cls-5"><rect class="cls-178" x="598.29" y="605.97" width="31.29" height="35.45"/></g></g></svg>