<svg id="Layer_1" data-name="Layer 1" xmlns="http://www.w3.org/2000/svg" xmlns:xlink="http://www.w3.org/1999/xlink" viewBox="0 0 200 218"><defs><style>.cls-1,.cls-2,.cls-3{fill:none;}.cls-1{clip-rule:evenodd;}.cls-3{fill-rule:evenodd;}.cls-4{clip-path:url(#clip-path);}.cls-5{clip-path:url(#clip-path-2);}.cls-6{clip-path:url(#clip-path-3);}.cls-7{clip-path:url(#clip-path-4);}.cls-8{clip-path:url(#clip-path-5);}.cls-9{clip-path:url(#clip-path-6);}.cls-10{clip-path:url(#clip-path-7);}.cls-11{clip-path:url(#clip-path-8);}.cls-12{clip-path:url(#clip-path-9);}.cls-13{clip-path:url(#clip-path-10);}.cls-14{clip-path:url(#clip-path-11);}.cls-15{clip-path:url(#clip-path-12);}.cls-16{clip-path:url(#clip-path-13);}.cls-17{clip-path:url(#clip-path-14);}.cls-18{clip-path:url(#clip-path-15);}.cls-19{clip-path:url(#clip-path-16);}.cls-20{clip-path:url(#clip-path-17);}.cls-21{clip-path:url(#clip-path-18);}.cls-22{clip-path:url(#clip-path-19);}.cls-23{clip-path:url(#clip-path-20);}.cls-24{clip-path:url(#clip-path-21);}.cls-25{clip-path:url(#clip-path-22);}.cls-26{clip-path:url(#clip-path-23);}.cls-27{clip-path:url(#clip-path-24);}.cls-28{clip-path:url(#clip-path-25);}.cls-29{clip-path:url(#clip-path-26);}.cls-30{clip-path:url(#clip-path-27);}.cls-31{clip-path:url(#clip-path-28);}.cls-32{clip-path:url(#clip-path-29);}.cls-33{clip-path:url(#clip-path-30);}.cls-34{clip-path:url(#clip-path-31);}.cls-35{clip-path:url(#clip-path-32);}.cls-36{clip-path:url(#clip-path-33);}.cls-37{clip-path:url(#clip-path-34);}.cls-38{clip-path:url(#clip-path-35);}.cls-39{clip-path:url(#clip-path-36);}.cls-40{clip-path:url(#clip-path-37);}.cls-41{clip-path:url(#clip-path-38);}.cls-42{clip-path:url(#clip-path-39);}.cls-43{clip-path:url(#clip-path-40);}.cls-44{clip-path:url(#clip-path-41);}.cls-45{clip-path:url(#clip-path-42);}.cls-46{clip-path:url(#clip-path-43);}.cls-47{clip-path:url(#clip-path-44);}.cls-48{clip-path:url(#clip-path-45);}.cls-49{clip-path:url(#clip-path-46);}.cls-50{clip-path:url(#clip-path-47);}.cls-51{clip-path:url(#clip-path-48);}.cls-52{clip-path:url(#clip-path-49);}.cls-53{clip-path:url(#clip-path-50);}.cls-54{clip-path:url(#clip-path-51);}.cls-55{clip-path:url(#clip-path-52);}.cls-56{clip-path:url(#clip-path-53);}.cls-57{clip-path:url(#clip-path-54);}.cls-58{clip-path:url(#clip-path-55);}.cls-59{clip-path:url(#clip-path-56);}.cls-60{clip-path:url(#clip-path-57);}.cls-61{clip-path:url(#clip-path-58);}.cls-62{clip-path:url(#clip-path-59);}.cls-63{clip-path:url(#clip-path-60);}.cls-64{clip-path:url(#clip-path-61);}.cls-65{clip-path:url(#clip-path-62);}.cls-66{clip-path:url(#clip-path-63);}.cls-67{clip-path:url(#clip-path-64);}.cls-68{clip-path:url(#clip-path-65);}.cls-69{clip-path:url(#clip-path-66);}.cls-70{clip-path:url(#clip-path-67);}.cls-71{clip-path:url(#clip-path-68);}.cls-72{clip-path:url(#clip-path-69);}.cls-73{clip-path:url(#clip-path-70);}.cls-74{clip-path:url(#clip-path-71);}.cls-75{clip-path:url(#clip-path-72);}.cls-76{clip-path:url(#clip-path-73);}.cls-77{clip-path:url(#clip-path-74);}.cls-78{clip-path:url(#clip-path-75);}.cls-79{clip-path:url(#clip-path-76);}.cls-80{clip-path:url(#clip-path-77);}.cls-81{clip-path:url(#clip-path-78);}.cls-82{clip-path:url(#clip-path-79);}.cls-83{clip-path:url(#clip-path-80);}.cls-84{clip-path:url(#clip-path-81);}.cls-85{clip-path:url(#clip-path-82);}.cls-86{clip-path:url(#clip-path-83);}.cls-87{clip-path:url(#clip-path-84);}.cls-88{clip-path:url(#clip-path-85);}.cls-89{clip-path:url(#clip-path-86);}.cls-90{clip-path:url(#clip-path-87);}.cls-91{clip-path:url(#clip-path-88);}.cls-92{clip-path:url(#clip-path-89);}.cls-93{clip-path:url(#clip-path-90);}.cls-94{clip-path:url(#clip-path-91);}.cls-95{clip-path:url(#clip-path-92);}.cls-96{clip-path:url(#clip-path-93);}.cls-97{clip-path:url(#clip-path-94);}.cls-98{clip-path:url(#clip-path-95);}.cls-99{clip-path:url(#clip-path-96);}.cls-100{clip-path:url(#clip-path-97);}.cls-101{clip-path:url(#clip-path-98);}.cls-102{clip-path:url(#clip-path-99);}.cls-103{clip-path:url(#clip-path-100);}.cls-104{clip-path:url(#clip-path-101);}.cls-105{clip-path:url(#clip-path-102);}.cls-106{clip-path:url(#clip-path-103);}.cls-107{clip-path:url(#clip-path-104);}.cls-108{clip-path:url(#clip-path-105);}.cls-109{clip-path:url(#clip-path-106);}.cls-110{clip-path:url(#clip-path-107);}.cls-111{clip-path:url(#clip-path-108);}.cls-112{clip-path:url(#clip-path-109);}.cls-113{clip-path:url(#clip-path-110);}.cls-114{clip-path:url(#clip-path-111);}.cls-115{clip-path:url(#clip-path-112);}.cls-116{clip-path:url(#clip-path-113);}.cls-117{clip-path:url(#clip-path-114);}.cls-118{clip-path:url(#clip-path-115);}.cls-119{clip-path:url(#clip-path-116);}.cls-120{clip-path:url(#clip-path-117);}.cls-121{clip-path:url(#clip-path-118);}.cls-122{clip-path:url(#clip-path-119);}.cls-123{clip-path:url(#clip-path-120);}.cls-124{clip-path:url(#clip-path-121);}.cls-125{clip-path:url(#clip-path-122);}.cls-126{clip-path:url(#clip-path-123);}.cls-127{clip-path:url(#clip-path-124);}.cls-128{clip-path:url(#clip-path-125);}.cls-129{clip-path:url(#clip-path-126);}.cls-130{clip-path:url(#clip-path-127);}.cls-131{clip-path:url(#clip-path-128);}.cls-132{clip-path:url(#clip-path-129);}.cls-133{clip-path:url(#clip-path-130);}.cls-134{clip-path:url(#clip-path-131);}.cls-135{clip-path:url(#clip-path-132);}.cls-136{clip-path:url(#clip-path-133);}.cls-137{clip-path:url(#clip-path-134);}.cls-138{clip-path:url(#clip-path-135);}.cls-139{clip-path:url(#clip-path-136);}.cls-140{clip-path:url(#clip-path-137);}.cls-141{clip-path:url(#clip-path-138);}.cls-142{clip-path:url(#clip-path-139);}.cls-143{clip-path:url(#clip-path-140);}.cls-144{clip-path:url(#clip-path-141);}.cls-145{clip-path:url(#clip-path-142);}.cls-146{clip-path:url(#clip-path-143);}.cls-147{clip-path:url(#clip-path-144);}.cls-148{clip-path:url(#clip-path-145);}.cls-149{clip-path:url(#clip-path-146);}.cls-150{clip-path:url(#clip-path-147);}.cls-151{clip-path:url(#clip-path-148);}.cls-152{clip-path:url(#clip-path-149);}.cls-153{clip-path:url(#clip-path-150);}.cls-154{clip-path:url(#clip-path-151);}.cls-155{clip-path:url(#clip-path-152);}.cls-156{clip-path:url(#clip-path-153);}.cls-157{clip-path:url(#clip-path-154);}.cls-158{clip-path:url(#clip-path-155);}.cls-159{clip-path:url(#clip-path-156);}.cls-160{clip-path:url(#clip-path-157);}.cls-161{clip-path:url(#clip-path-158);}.cls-162{clip-path:url(#clip-path-159);}.cls-163{clip-path:url(#clip-path-160);}.cls-164{clip-path:url(#clip-path-161);}.cls-165{clip-path:url(#clip-path-162);}.cls-166{clip-path:url(#clip-path-163);}.cls-167{clip-path:url(#clip-path-164);}.cls-168{clip-path:url(#clip-path-165);}.cls-169{clip-path:url(#clip-path-166);}.cls-170{clip-path:url(#clip-path-167);}.cls-171{clip-path:url(#clip-path-168);}.cls-172{clip-path:url(#clip-path-169);}.cls-173{clip-path:url(#clip-path-170);}.cls-174{clip-path:url(#clip-path-171);}.cls-175{clip-path:url(#clip-path-172);}.cls-176{clip-path:url(#clip-path-173);}.cls-177{clip-path:url(#clip-path-174);}.cls-178{clip-path:url(#clip-path-175);}.cls-179{clip-path:url(#clip-path-176);}.cls-180{clip-path:url(#clip-path-177);}.cls-181{clip-path:url(#clip-path-178);}.cls-182{clip-path:url(#clip-path-179);}.cls-183{fill:#0d82f2;}.cls-184{clip-path:url(#clip-path-180);}.cls-185{isolation:isolate;}.cls-186{clip-path:url(#clip-path-182);}.cls-187{clip-path:url(#clip-path-183);}.cls-188{clip-path:url(#clip-path-184);}.cls-189{fill:#1e1e1e;}.cls-190{clip-path:url(#clip-path-185);}.cls-191{clip-path:url(#clip-path-187);}.cls-192{clip-path:url(#clip-path-188);}.cls-193{fill:#f2f2f2;}.cls-194{clip-path:url(#clip-path-190);}.cls-195{fill:#2abf7e;}.cls-196{clip-path:url(#clip-path-192);}.cls-197{fill:#fff;}.cls-198{clip-path:url(#clip-path-194);}.cls-199{clip-path:url(#clip-path-196);}.cls-200{clip-path:url(#clip-path-198);}.cls-201{clip-path:url(#clip-path-200);}.cls-202{clip-path:url(#clip-path-202);}.cls-203{clip-path:url(#clip-path-204);}.cls-204{clip-path:url(#clip-path-206);}.cls-205{clip-path:url(#clip-path-208);}.cls-206{clip-path:url(#clip-path-210);}.cls-207{clip-path:url(#clip-path-211);}.cls-208{clip-path:url(#clip-path-212);}.cls-209{clip-path:url(#clip-path-215);}.cls-210{clip-path:url(#clip-path-216);}.cls-211{clip-path:url(#clip-path-218);}.cls-212{clip-path:url(#clip-path-220);}.cls-213{clip-path:url(#clip-path-222);}.cls-214{clip-path:url(#clip-path-224);}.cls-215{clip-path:url(#clip-path-226);}.cls-216{clip-path:url(#clip-path-228);}.cls-217{clip-path:url(#clip-path-230);}.cls-218{clip-path:url(#clip-path-232);}.cls-219{clip-path:url(#clip-path-234);}.cls-220{clip-path:url(#clip-path-236);}.cls-221{clip-path:url(#clip-path-238);}.cls-222{clip-path:url(#clip-path-240);}.cls-223{clip-path:url(#clip-path-242);}.cls-224{clip-path:url(#clip-path-244);}.cls-225{clip-path:url(#clip-path-246);}.cls-226{fill:#686868;}.cls-227{clip-path:url(#clip-path-248);}.cls-228{clip-path:url(#clip-path-250);}.cls-229{clip-path:url(#clip-path-252);}.cls-230{clip-path:url(#clip-path-254);}.cls-231{clip-path:url(#clip-path-256);}.cls-232{clip-path:url(#clip-path-258);}.cls-233{clip-path:url(#clip-path-260);}.cls-234{clip-path:url(#clip-path-261);}.cls-235{clip-path:url(#clip-path-265);}.cls-236{clip-path:url(#clip-path-270);}.cls-237{clip-path:url(#clip-path-271);}.cls-238{clip-path:url(#clip-path-272);}.cls-239{clip-path:url(#clip-path-273);}.cls-240{clip-path:url(#clip-path-274);}.cls-241{clip-path:url(#clip-path-275);}.cls-242{clip-path:url(#clip-path-276);}.cls-243{clip-path:url(#clip-path-277);}</style><clipPath id="clip-path"><path class="cls-1" d="M657.68-580.3H581.52a15.1,15.1,0,0,1-15.07-15.05v-2.73a15.1,15.1,0,0,1,15.07-15h29.71a15.1,15.1,0,0,0,15.07-15,15.1,15.1,0,0,0-15.07-15.05H288.73a15.1,15.1,0,0,0-15.06,15.05,15.1,15.1,0,0,0,15.06,15H294a15.1,15.1,0,0,1,15.06,15v2.73A15.1,15.1,0,0,1,294-580.3H150.05a16.47,16.47,0,0,0-16.44,16.42,16.47,16.47,0,0,0,16.44,16.42h74.33a15.1,15.1,0,0,1,15.06,15.05v2.74a15.1,15.1,0,0,1-15.06,15H179.55a16.47,16.47,0,0,0-16.43,16.42,16.47,16.47,0,0,0,16.43,16.42h58.1c10.11,0,18.38,6.77,18.38,15.05V-464c0,8.27-8.27,15.05-18.38,15.05h-13a15.1,15.1,0,0,0-15.06,15.05,15.11,15.11,0,0,0,15.06,15H604.17a15.11,15.11,0,0,0,15.07-15,15.1,15.1,0,0,0-15.07-15.05H588.51c-10.11,0-18.38-6.78-18.38-15.05v-2.74c0-8.28,8.27-15.05,18.38-15.05h31.43a16.47,16.47,0,0,0,16.43-16.42,16.47,16.47,0,0,0-16.43-16.42H597.55a15.1,15.1,0,0,1-15.07-15v-2.74a15.1,15.1,0,0,1,15.07-15.05h60.13a16.47,16.47,0,0,0,16.43-16.42,16.47,16.47,0,0,0-16.43-16.42"/></clipPath><clipPath id="clip-path-2"><path class="cls-1" d="M1278.63-358.34h-76.16a15.1,15.1,0,0,1-15.06-15.05v-2.74a15.11,15.11,0,0,1,15.06-15.05h29.71a15.1,15.1,0,0,0,15.07-15.05,15.1,15.1,0,0,0-15.07-15H909.69a15.1,15.1,0,0,0-15.07,15,15.1,15.1,0,0,0,15.07,15.05h5.21A15.11,15.11,0,0,1,930-376.13v2.74a15.1,15.1,0,0,1-15.07,15.05H771a16.48,16.48,0,0,0-16.44,16.42A16.47,16.47,0,0,0,771-325.51h74.33a15.11,15.11,0,0,1,15.07,15.05v2.74a15.1,15.1,0,0,1-15.07,15.05H800.51a16.48,16.48,0,0,0-16.44,16.42,16.48,16.48,0,0,0,16.44,16.42h58.1c10.11,0,18.38,6.77,18.38,15V-242c0,8.28-8.27,15.05-18.38,15.05h-13a15.11,15.11,0,0,0-15.07,15.05,15.1,15.1,0,0,0,15.07,15h379.49a15.1,15.1,0,0,0,15.07-15A15.11,15.11,0,0,0,1225.13-227h-15.66c-10.11,0-18.39-6.77-18.39-15.05v-2.73c0-8.28,8.28-15,18.39-15h31.42a16.48,16.48,0,0,0,16.44-16.42,16.48,16.48,0,0,0-16.44-16.42h-22.38a15.1,15.1,0,0,1-15.07-15.05v-2.74a15.11,15.11,0,0,1,15.06-15.05h60.13a16.47,16.47,0,0,0,16.44-16.41,16.48,16.48,0,0,0-16.44-16.42"/></clipPath><clipPath id="clip-path-3"><path class="cls-1" d="M1184.63-623.2h-76.16a15.1,15.1,0,0,1-15.07-15V-641a15.11,15.11,0,0,1,15.07-15h29.71a15.1,15.1,0,0,0,15.07-15.05,15.11,15.11,0,0,0-15.07-15H815.69a15.11,15.11,0,0,0-15.07,15A15.1,15.1,0,0,0,815.69-656h5.21A15.11,15.11,0,0,1,836-641v2.74a15.1,15.1,0,0,1-15.07,15H677a16.48,16.48,0,0,0-16.44,16.42A16.48,16.48,0,0,0,677-590.36h74.33a15.1,15.1,0,0,1,15.07,15v2.74a15.1,15.1,0,0,1-15.07,15.05H706.51a16.47,16.47,0,0,0-16.44,16.42,16.47,16.47,0,0,0,16.44,16.42H764.6c10.11,0,18.39,6.77,18.39,15.05v2.73c0,8.28-8.28,15.05-18.39,15.05h-13a15.11,15.11,0,0,0-15.07,15.05,15.1,15.1,0,0,0,15.07,15.05h379.49a15.1,15.1,0,0,0,15.06-15.05,15.11,15.11,0,0,0-15.06-15.05h-15.67c-10.11,0-18.38-6.77-18.38-15.05v-2.73c0-8.28,8.27-15.05,18.38-15.05h31.43a16.48,16.48,0,0,0,16.44-16.42,16.48,16.48,0,0,0-16.44-16.42H1124.5a15.1,15.1,0,0,1-15.06-15.05v-2.74a15.1,15.1,0,0,1,15.06-15h60.13a16.48,16.48,0,0,0,16.44-16.42,16.48,16.48,0,0,0-16.44-16.42"/></clipPath><clipPath id="clip-path-4"><path class="cls-1" d="M16.44-386.24H92.6a15.1,15.1,0,0,0,15.06-15.05V-404A15.1,15.1,0,0,0,92.6-419.07H62.88a15.11,15.11,0,0,1-15.06-15.05,15.1,15.1,0,0,1,15.06-15.05h322.5a15.1,15.1,0,0,1,15.07,15.05,15.11,15.11,0,0,1-15.07,15.05h-5.21A15.1,15.1,0,0,0,365.1-404v2.73a15.1,15.1,0,0,0,15.07,15.05h143.9a16.48,16.48,0,0,1,16.44,16.42,16.48,16.48,0,0,1-16.44,16.42H449.74a15.1,15.1,0,0,0-15.07,15v2.73a15.1,15.1,0,0,0,15.07,15.05h44.82A16.48,16.48,0,0,1,511-304.15a16.48,16.48,0,0,1-16.44,16.42h-58.1c-10.11,0-18.38,6.77-18.38,15.05v2.74c0,8.27,8.27,15.05,18.38,15.05h13a15.1,15.1,0,0,1,15.07,15,15.11,15.11,0,0,1-15.07,15.05H69.94a15.11,15.11,0,0,1-15.07-15.05,15.1,15.1,0,0,1,15.07-15H85.6c10.11,0,18.39-6.78,18.39-15.05v-2.74c0-8.28-8.28-15.05-18.39-15.05H54.17a16.48,16.48,0,0,1-16.43-16.42,16.48,16.48,0,0,1,16.43-16.42H76.56a15.1,15.1,0,0,0,15.07-15.05v-2.73a15.1,15.1,0,0,0-15.06-15H16.44A16.48,16.48,0,0,1,0-369.82a16.48,16.48,0,0,1,16.44-16.42"/></clipPath><clipPath id="clip-path-5"><rect class="cls-2" x="762.4" y="-146.2" width="160.9" height="76.15"/></clipPath><clipPath id="clip-path-6"><path class="cls-1" d="M789.62-500.9c.2,7.9-.4,7.49-1,8.7s-8.3,17.87-8.3,17.87l13.56,39.41,9.51,5.87,37.84-37.24s7.5-31,7.29-38.86-1.62-18.82-1-26.31.4-20.64,2-26.11,3.64-34.2.4-51-17.14-63.87-78.19-54c-50.32,8.1-63.05,38-59.82,69.83.61,5.93,6.56,13.68,8.35,18.72,3.27,9.16,8.14,18,10.57,24.39,9.31,24.28,18.93,38.72,41.18,52.42,9.54,5.86,17.61-3.65,17.61-3.65"/></clipPath><clipPath id="clip-path-7"><path class="cls-1" d="M788.9-489.62c1.33,4.51-5.49,14.43-2.72,19.82s-4.27.12-4.27.12v-14.69Z"/></clipPath><clipPath id="clip-path-8"><path class="cls-1" d="M778.69-484s-39.05,15-46.94,24.76-19.43,100.81-20.24,119.83-3.22,99.78-3.22,99.78l15.56,49.94,58.28,89.31H898.69L903.55-312S925.41-460.34,923-468.58s-23.76-21.59-31.05-24.83S855.25-508,855.25-508l-34.87,42.7L801.08-426l-2.76-4Z"/></clipPath><clipPath id="clip-path-9"><path class="cls-1" d="M729-390.39c-4.15,34.81-2.73,33.64-.3,41.31s-4.86,112.71-4.86,112.71h3.65s6.67-98.65,6.67-104c0-2.47-3.62-4.62-5.16-25.76-1.78-24.47,0-24.29,0-24.29"/></clipPath><clipPath id="clip-path-10"><path class="cls-1" d="M847.35-526.15c-3.67,3.12-.87,18.52-1.32,20.34s-.58,6.53-6.38,10.63c-22.17,15.71-26.76,22.82-26.76,22.82l8.32,2.68L855-492.3s.61-23.52,0-24-7.63-9.87-7.63-9.87"/></clipPath><clipPath id="clip-path-11"><path class="cls-1" d="M789.44-499.36c-4.45,5.27-13,14.86-13.78,24.57S770-445,770-445l11.75-8.33s12.13,26.86,20.23,33.74c4.28-3.95,7.93-15.1,18.81-24.39,9.43-8,15.16-19.57,23.28-27.32,5.55-5.3,11.41-5.23,13.05-10.22,4.19-12.78,2.93-15.33,2.53-21s-1.72-16.85-12.29-23.58c-.4,10.79.35,19.38,1.16,21s-7.29,13.91-13.36,18.22-22.26,14.57-22.26,14.57-8.5,34.21-10.11,36.74-14.17-33.1-18.22-36.34,3.14-13.15,4-15.58.93-11.82.93-11.82"/></clipPath><clipPath id="clip-path-12"><polygon class="cls-1" points="811.25 -465.85 827.14 -450.46 828.73 -451.61 831.17 -449.98 812.89 -472.36 811.25 -465.85"/></clipPath><clipPath id="clip-path-13"><path class="cls-1" d="M899.62-412.15c-11.85,19.43-14.69,108.59-12.26,116.63s-1,92.24-1,92.24h25.24Z"/></clipPath><clipPath id="clip-path-14"><path class="cls-1" d="M851.65-496.24c-16.26,22.11-29.78,48.33-35,55.82s-3.81,10.07-3.81,10.07,40.79-21.77,45.83-36.42-7-29.47-7-29.47"/></clipPath><clipPath id="clip-path-15"><path class="cls-1" d="M907.16-484.37c11.51,8.54,35.24,27.73,36.46,41.93s-3.62,261.33-13,262.54-38.56,0-38.56,0v-102s1.59-81.41,0-108.49c-1.78-30.16,15.14-94,15.14-94"/></clipPath><clipPath id="clip-path-16"><path class="cls-1" d="M812.89-472.36l18.51,26.27s9.62-6.64,15.29-11,11.77-23.83,13.27-36.09-12.17-9.4-12.17-9.4l-4.34,16.85Z"/></clipPath><clipPath id="clip-path-17"><path class="cls-1" d="M850-535.69c-4,12.84-5.15-7.9-5.45-9.42s-4.32-18.53-4.32-18.53,7-3,6.71-9.11-1.76-34.91-13.76-31.27-6.14,15.49-6.14,15.49-2.47,4.65-3.82,4.85-4.37-2.43-5.48-4.25-6.28-15.18-8.4-17.61-9.11-5.16-10-6.68-3-4.25-6.68-3.33-34.6,11.84-46.14,11.84H718s-3.87,11.38-2,19a46.63,46.63,0,0,0,2.56,7.05s-20.65-11.92-25.2-17.17-8.5-11.33-8.8-16.8,8.46-11.53,19-18.62c4.45-3,4.14-1.65,4.31-2.39,1.51-6.53,7.09-16.19,12.25-18.15,7.22-2.73,11.58-5,34.61-12.45,28.54-9.22,56.43-6.62,74.68,9.11S872.21-606.73,850-535.69"/></clipPath><clipPath id="clip-path-18"><path class="cls-1" d="M758.22-519.88l-.37-1.15c.18-.06,18.74-6.09,32.94-12.27,5-2.19,6.62-4.8,7.47-6.2.39-.64.68-1.1,1.14-1.29l.46,1.12a3.76,3.76,0,0,0-.56.8c-.92,1.52-2.63,4.34-8,6.68-14.25,6.21-32.86,12.25-33,12.31"/></clipPath><clipPath id="clip-path-19"><path class="cls-1" d="M765.71-523.41s9.79,4.33,17.35,2.51S795-534.2,795-534.2Z"/></clipPath><clipPath id="clip-path-20"><path class="cls-1" d="M760.53-536.48c-2.75,0-4.59-8.92-7.64-28.7-.89-5.76-1.65-10.73-2.31-13.35l1.18-.29c.67,2.67,1.44,7.67,2.33,13.46,1.39,9,4.26,27.67,6.42,27.67h0c3.74-.29,9.06-3.8,9.12-3.83l.67,1c-.23.15-5.64,3.72-9.7,4h-.1"/></clipPath><clipPath id="clip-path-21"><path class="cls-1" d="M781.41-582.85c1.14,3.86.56,7.43-1.29,8s-4.29-2.13-5.43-6-.56-7.43,1.29-8,4.29,2.13,5.43,6"/></clipPath><clipPath id="clip-path-22"><path class="cls-1" d="M740.28-570.67c1,3.46.51,6.66-1.16,7.16s-3.84-1.92-4.87-5.38-.5-6.67,1.16-7.16,3.85,1.91,4.87,5.38"/></clipPath><clipPath id="clip-path-23"><path class="cls-1" d="M718-603.71c-9.94-.31-22.08-5.77-20,0s19.17,24.5,18.18,19.64a26.51,26.51,0,0,1-.05-12.24,55.29,55.29,0,0,1,1.83-7.4"/></clipPath><clipPath id="clip-path-24"><path class="cls-1" d="M924.4-257.34c15.21,6,16.84,26.09,25.52,6.18s10.25-104.64-18-135.25c-22.89-24.84-42.23-13.12-48.56-12.8-7.45.37-27.64-7.07-37.58,31.23-6.64,25.6,9.73,67.21,8,93.14-2.14,32.11,17.87,36.55,29.27,47,21.71,19.91,13.06-25,13.06-25Z"/></clipPath><clipPath id="clip-path-25"><path class="cls-1" d="M957.45-251.28c-12.25-5-23.83-5.34-25.28-11.49S928.91-287,928.91-287l-24.1,7.78,1.81,17-.73,8-28.73,7.77-10.85,13-6.16,38.19,55.73,7.78,34-34.38Z"/></clipPath><clipPath id="clip-path-26"><path class="cls-1" d="M927.08-284.26s-4.19,7.95-6.27,10.13a38.69,38.69,0,0,1-14.45,9.47l-1.44-10.24,20.91-13.32Z"/></clipPath><clipPath id="clip-path-27"><path class="cls-1" d="M933.62-312.12c-4.93,18.79-9.6,34.33-22.26,41.56s-29,3.19-38.62-7c-15.74-16.62-24.09-31.82-22.28-68.38s11.86-44.24,22-46.05,47.78,9.41,51.94,43.07a9.2,9.2,0,0,1,1.77-.45c11.77-1.75,17.25,23.26,9.62,26.51-3,1.3-6.53-2.59-5.43-.72a21.82,21.82,0,0,1,3.26,11.46"/></clipPath><clipPath id="clip-path-28"><rect class="cls-2" x="830.48" y="-260.35" width="170.81" height="190.3"/></clipPath><clipPath id="clip-path-29"><path class="cls-1" d="M982.19-238.49c12.53,23.78,16,72.37,11.5,103.84s-15.78,49.34-26.2,53.19c-11.13,4.12-25.55,6.17-32.79.92s-25.5-35.57-26.78-40,12.76,2.76,20.9-5.16c7-6.79,4.7-18.23,5.88-21.26s12.31,13,12.31,13,3.61-21.23,3.24-31.66c-1.19-33.54,16-82.48,18.4-81.65,3.73,1.29,9.74,1.53,13.54,8.74"/></clipPath><clipPath id="clip-path-30"><path class="cls-1" d="M898.52-330.53c.22,3.22,1.79,5.73,3.49,5.61s2.91-2.82,2.69-6-1.8-5.73-3.5-5.61-2.91,2.83-2.68,6"/></clipPath><clipPath id="clip-path-31"><path class="cls-1" d="M855.7-329.22c.18,2.65,1.47,4.72,2.88,4.62s2.39-2.33,2.21-5-1.48-4.71-2.88-4.61-2.4,2.32-2.21,5"/></clipPath><clipPath id="clip-path-32"><path class="cls-1" d="M887.63-279.5c8.33,0,15.1-3.11,21-9.56l-.8-.73c-6.94,7.62-15.18,10.4-25.92,8.75l-.17,1.07a38.51,38.51,0,0,0,5.92.47"/></clipPath><clipPath id="clip-path-33"><path class="cls-1" d="M924.4-348.92c-5,2.72,2.52,8-2.11,8.92-2,.4-4.9-1.22-8.38-3.61-1.45-1-4.62-11.54-3.65-14.66.49-1.55-3.64,9.45-5,8.5a64.58,64.58,0,0,0-7.26-4.39c-11-5.6-22.43-6-32.2-4.67-1.63.23-1.1-11.12-1.72-9.67-1.09,2.57-6.07,11.14-7.5,11.5-10.25,2.6-11,5.05-11.07,3.37-.09-3.54,17.84-40.79,17.84-40.79l41.36,2.25,27,27.15Z"/></clipPath><clipPath id="clip-path-34"><path class="cls-1" d="M930.39-324s-2.64,28-7.64,49.44c-3.69,15.81-3.06,24,.06,33,2.1,6,1.42,18.83,18.15,15.18s6.26-22.44,10.11-28.11-17.49-66.15-17.49-66.15Z"/></clipPath><clipPath id="clip-path-35"><path class="cls-1" d="M874.78-302h-.36a2.71,2.71,0,0,1-2.11-.95c-2-2.66.81-8.48,3.09-13.16.88-1.81,1.88-3.86,1.83-4.39-.23-2.62.76-19.09.81-19.79l1.21.07c0,.17-1,17.09-.81,19.61.08.83-.61,2.29-2,5-1.9,3.91-4.78,9.83-3.22,11.89a1.62,1.62,0,0,0,1.23.48c2.44.16,6.73-1.75,7.94-3l.86.85a15.5,15.5,0,0,1-8.52,3.35"/></clipPath><clipPath id="clip-path-36"><path class="cls-1" d="M850.31-356.19h0m0,0h0m0,0h0m0,0h0m0,0h0m0,0,.57-.08-.57.08m.57-.08h0m0,0h0m0,0,.08,0-.08,0m.08,0h0m9.4-27.14c-10.92,11.07-9.37,27.14-9.37,27.14.52-.07,2.84-12.45,4.82-15.8,10.88-18.41,22.55,4.57,22.55,4.57S911.61-348,923.8-349.13c.57-.73,4.13-2.16,7.69-.1,4.64,2.69-13-43.56-13-43.56l-32.86-.36s-.33,0-.92,0c-3.38,0-15.35.68-24.3,9.75"/></clipPath><clipPath id="clip-path-37"><path class="cls-1" d="M452.89-454.79c-17,6.68-33,2.83-42.7-19.43s6.88-108.1,47.37-136.43,65.82-19,70.56-13.77,8.19-6.18,20.13,36.44c12,42.91,19,106.47-5.26,128.74s-58.5,9.51-58.5,9.51Z"/></clipPath><clipPath id="clip-path-38"><path class="cls-1" d="M415.91-448c13.71-5.57,26.67-6,28.29-12.85S447.84-488,447.84-488l50.61,17.41-2,19,.81,8.9h8.5l12.14,14.58,6.89,42.71-62.35,8.7-38.06-38.46Z"/></clipPath><clipPath id="clip-path-39"><path class="cls-1" d="M451.85-483.13c1,6.84,1,2.65-.23,12,0,2.48-5.19,5.73-5.62,11.46,7.63-2.83,12.57-2.9,21.27,0,12.79,4.29,23.17,4.93,30,.41,11-7.33-45.39-23.89-45.39-23.89"/></clipPath><clipPath id="clip-path-40"><path class="cls-1" d="M442.58-516.06c-1.22,18.36,7.69,43.46,21.86,51.55s36,13.77,50.61-7.28,32.39-40.89,30.37-81.78-23.08-49.8-34.42-51.82-53.46,10.52-58.11,48.17c-14.51-5.26-15.58,19.84-12.74,29.15.73,2.4,7.3-2.9,6.07-.81a24.38,24.38,0,0,0-3.64,12.82"/></clipPath><clipPath id="clip-path-41"><rect class="cls-2" x="366.87" y="-451.55" width="191.1" height="380.51"/></clipPath><clipPath id="clip-path-42"><path class="cls-1" d="M476.59-431.31c-8.85,6.43-23.49,169.63-20.25,174.28s114.18,8.71,117.82,6.68,29.15-180.15,25.91-181-119-3.24-123.48,0"/></clipPath><clipPath id="clip-path-43"><path class="cls-1" d="M392.37-284.76c-.29,8.7-1.37,37.34-.81,47.37,4.47,79.73,7.18,179.51,44.31-16.13,1.75-9.2-5.33-49.35-5.24-87.86.07-26.36-8.62-38.91-8.62-38.91l-41.66,76.51s12.71-1,12,19"/></clipPath><clipPath id="clip-path-44"><path class="cls-1" d="M456.33-275.89c11.5-12.81,15-25,22.28-30.88,6.13-5,16-7.39,19.89-8.5,8.5-2.43,28.38-14.24,27.31-26.11s-15.16-8.2-15.16-8.2l-42.51,42.51Z"/></clipPath><clipPath id="clip-path-45"><path class="cls-1" d="M438.57-325.43c10.25-8.42,14.69-14.52,15.3-18.83.35-2.48.92-12.25,3.84-18.28,2.16-4.45,7-6.21,6.85-4.77-.17,2.34-.46,4-.46,4s-2.19,8.91,10.13,7c14.4-2.24,27.43-2.66,35.73-7.52s29.1,20.37,5.22,36.46-38.24,10-46.82,27.16-18.66,21.07-18.66,21.07L433.83-304.3Z"/></clipPath><clipPath id="clip-path-46"><path class="cls-1" d="M467.93-299.42l.43-.83a27,27,0,0,1,3.8-5.78l-.74,0c-28.61,1.06-27.94-23.68-27.94-23.68h0c-1.46,1.36-3.09,2.77-4.91,4.27l-.19.87v13.08l14.51,16.25s7.74-1.95,15-4.19"/></clipPath><clipPath id="clip-path-47"><path class="cls-1" d="M380.53-431c-14,26.59-10.18,78.27-5.16,113.48s17.66,55.18,29.31,59.49c12.45,4.61,28.59,6.9,36.68,1s28.53-39.78,30-44.73-14.27,3.09-23.38-5.77c-7.81-7.6-5.26-20.39-6.58-23.78s-13.76,14.57-13.76,14.57-4-23.74-3.63-35.41c1.33-37.52-17.91-92.25-20.59-91.33-4.17,1.44-18.6,4.38-22.85,12.45"/></clipPath><clipPath id="clip-path-48"><path class="cls-1" d="M481.85-536.65c-.25,3.6-2,6.41-3.92,6.27s-3.25-3.16-3-6.75,2-6.41,3.92-6.27,3.25,3.15,3,6.75"/></clipPath><clipPath id="clip-path-49"><path class="cls-1" d="M532.62-535.18c-.2,3-1.65,5.27-3.22,5.16s-2.68-2.6-2.47-5.56,1.65-5.28,3.22-5.17,2.68,2.6,2.47,5.57"/></clipPath><clipPath id="clip-path-50"><path class="cls-1" d="M499.79-495.86l-.58,0,.1-1.21a7.09,7.09,0,0,0,5.64-2.47,9.45,9.45,0,0,0,2.21-8.16c-1.21-6.88,1.89-51.68,2-53.59l1.21.09c0,.46-3.22,46.56-2,53.29a10.67,10.67,0,0,1-2.52,9.19,8.42,8.42,0,0,1-6,2.88"/></clipPath><clipPath id="clip-path-51"><path class="cls-1" d="M467.71-487.56l-.86-.86c3.86-3.86,4.73-6.22,4.74-6.25l1.15.4c0,.11-.93,2.61-5,6.71"/></clipPath><clipPath id="clip-path-52"><path class="cls-1" d="M492.73-479.57c-9.32,0-16.89-3.48-23.46-10.69l.9-.82c7.76,8.52,17,11.63,29,9.78l.18,1.2a42.72,42.72,0,0,1-6.62.53"/></clipPath><clipPath id="clip-path-53"><path class="cls-1" d="M444.8-564.5c11.14,6.07,14.79,12.75,37.66,1.41S528-589.5,528.12-593.45s1.66-22.87,1.66-22.87L475-605.6,444.8-575.23Z"/></clipPath><clipPath id="clip-path-54"><path class="cls-1" d="M518.49-598.31c4.25,6.28,21.42,25.95,24.68,27.75s4.88,0,4.88,0l-7.9-32.61Z"/></clipPath><clipPath id="clip-path-55"><path class="cls-1" d="M446.22-528.88s8.48,45.67,6.67,52.59-4.05,24.4-22.77,20.32-9-51.45-9-51.45Z"/></clipPath><clipPath id="clip-path-56"><path class="cls-1" d="M589.14-418a4.56,4.56,0,0,0-4.55-4.56A4.56,4.56,0,0,0,580-418a4.56,4.56,0,0,0,4.56,4.55,4.55,4.55,0,0,0,4.55-4.55"/></clipPath><clipPath id="clip-path-57"><path class="cls-1" d="M1079.41-234.42c-9.22-3.07-20.41-7.34-23-14.51s1-16.21,2-23.88,14.2-23.31,19.32-44.3,10.38-47.35-17.79-62.71-53.32-22-69.92-12.8-23.78,23-24.29,42.49-6.14,24.58-9.22,27.14-10.75,10.75,0,18.43,8.27,28.15,17,37.36,27.23,4.17,28.55,6.73,11.81,39.94,11.81,39.94-10.46,18-12.62,19.68-14.16,23.61-14.16,23.61,23,11.6,24.58,11.43,45.91-31.06,45.91-31.06Z"/></clipPath><clipPath id="clip-path-58"><rect class="cls-2" x="982.57" y="-243.77" width="156.92" height="172.72"/></clipPath><clipPath id="clip-path-59"><rect class="cls-2" x="1073.23" y="-147" width="41.8" height="75.96"/></clipPath><clipPath id="clip-path-60"><rect class="cls-2" x="986.38" y="-142.09" width="160.52" height="71.05"/></clipPath><clipPath id="clip-path-61"><path class="cls-1" d="M989.81-395.18c19.13-8.06,37.89-7.33,66,8s31.87,46.51,26.75,67.51c-4.62,18.92-18.69,36-23.26,44.31,0,0-.06,8.77-1.77,8.43s-5.82-4.64-7.35-5.66-3.16-2.56-5.21-2.64-2.48-2.56-2.48-2.56-6.65-12.63.86-20.48,4.78-21.85-2.56-25.6-11.47,11.45-11.47,11.45-2.65-.93-4.86-4.86c-1.11-2,1.31-9.92,1.71-13.1s1-6.46.45-8.85c-1-4.78-8.63-.86-8.63-.86s-.76-4.95-.76-6.82-5.38,3.44-19.3-5.89c-7.31-4.9-8.68,0-13.15-2.33-3.38-1.72-5.25,2.84-9.82,2.63-1.93-.08-7.61,1.42-9.13-.68C954.06-369.47,974.91-388.9,989.81-395.18Z"/></clipPath><clipPath id="clip-path-62"><path class="cls-1" d="M988.36-332.88c-.2,3,.94,5.58,2.55,5.68s3.08-2.27,3.28-5.3-1-5.58-2.56-5.68-3.08,2.27-3.27,5.3"/></clipPath><clipPath id="clip-path-63"><path class="cls-1" d="M971.47-282h-.2l.06-1.21c3.64.17,19.27-3.8,20.39-7.1l1.15.39c-1.44,4.21-17.8,7.93-21.4,7.93"/></clipPath><clipPath id="clip-path-64"><path class="cls-1" d="M1133.82-137.6c-5.73.71-8.59.46-20.75,2.48-18.54,3.09-21.51,4.18-23.32,4.73-.13-.91-1.18-2.36-1.27-3.21,28.67-8.19,44.06-8.49,44.06-8.49.39.71.94,3.75,1.28,4.49"/></clipPath><clipPath id="clip-path-65"><rect class="cls-2" x="789.85" y="-252.42" width="214.08" height="181.37"/></clipPath><clipPath id="clip-path-66"><rect class="cls-2" x="999.72" y="-82.17" width="129.31" height="11.13"/></clipPath><clipPath id="clip-path-67"><rect class="cls-2" x="483.07" y="-185.83" width="109.54" height="114.78"/></clipPath><clipPath id="clip-path-68"><rect class="cls-2" x="729.43" y="-192.44" width="99.61" height="121.39"/></clipPath><clipPath id="clip-path-69"><path class="cls-1" d="M606.15-227.07c-7.29-21.25-17.61-44.48-7.29-80.54s37.65-39.66,66.2-36,63.16,19.72,59.51,53.27S718.5-221,712.43-213.1s-106.28-14-106.28-14"/></clipPath><clipPath id="clip-path-70"><path class="cls-1" d="M651.93-228.87l-.88-.84c3.3-3.48,6.61-12.3,3.69-34.52l1.2-.16c2.4,18.22,1,30.17-4,35.52"/></clipPath><clipPath id="clip-path-71"><rect class="cls-2" x="529.22" y="-235.77" width="251.83" height="164.72"/></clipPath><clipPath id="clip-path-72"><rect class="cls-2" x="532.53" y="-81.13" width="234.79" height="10.08"/></clipPath><clipPath id="clip-path-73"><path class="cls-1" d="M596.34-303c-3.14-2-14.27-1.85-11.23,13s2.21,23.39,5.36,25.82,9.18,3.52,8,0,3.95-22.16,3.95-22.16Z"/></clipPath><clipPath id="clip-path-74"><path class="cls-1" d="M636.92-261.6c0,5.21-2.18,9.43-4.86,9.43s-4.86-4.22-4.86-9.43,2.18-9.43,4.86-9.43,4.86,4.22,4.86,9.43"/></clipPath><clipPath id="clip-path-75"><path class="cls-1" d="M689.75-261.6c0,5.21-2,9.43-4.45,9.43s-4.45-4.22-4.45-9.43,2-9.43,4.45-9.43,4.45,4.22,4.45,9.43"/></clipPath><clipPath id="clip-path-76"><path class="cls-1" d="M622.14-250.95A6.6,6.6,0,0,1,616.2-254a11.71,11.71,0,0,1-1.45-6.2c0-.1.43-9.34,2.78-9.74h0c23.73-3.12,28.05-.83,28.67-.34a2,2,0,0,1,.83,1.41c.44,3.91-.62,10.93-2.13,14.16-1.64,3.52-10.08,3.79-22.76,3.79m-3.71-16.69c-.71,1.85-2.25,8.68-.27,12.16a4.18,4.18,0,0,0,4,2.1c7.27,0,19.45,0,20.56-2.39,1.29-2.76,2.27-9.21,1.94-12.69-1.83-1.35-14.79-.64-26.21.82"/></clipPath><clipPath id="clip-path-77"><path class="cls-1" d="M694.1-250.95c-12.68,0-21.12-.27-22.76-3.79-1.51-3.23-2.57-10.25-2.13-14.16a2,2,0,0,1,.83-1.41c.62-.49,4.94-2.78,28.67.34h0c2.35.4,2.78,9.64,2.78,9.74a11.8,11.8,0,0,1-1.44,6.2,6.63,6.63,0,0,1-5.95,3.08m-22.5-17.51c-.33,3.48.65,9.93,1.94,12.69,1.11,2.39,13.29,2.39,20.56,2.39a4.18,4.18,0,0,0,4-2.1c2-3.48.45-10.31-.27-12.16-11.42-1.46-24.38-2.17-26.21-.82"/></clipPath><clipPath id="clip-path-78"><rect class="cls-2" x="691.61" y="-284.4" width="36.88" height="2.43" transform="translate(489.14 448.64) rotate(-51.46)"/></clipPath><clipPath id="clip-path-79"><path class="cls-1" d="M670.26-267.55a22.15,22.15,0,0,1-3.69-.55,45.81,45.81,0,0,0-8.45-1.07H658a52.35,52.35,0,0,0-11.86,1.58l-.63-2.35A54.68,54.68,0,0,1,658-271.6h.13a47.69,47.69,0,0,1,8.9,1.12,18.42,18.42,0,0,0,3.32.5l.13,2.43h-.22"/></clipPath><clipPath id="clip-path-80"><path class="cls-1" d="M617.43-267.58c-6.89-1.51-17.85-26.68-19.08-29.54l2.23-1C605-287.7,613.67-270.89,618-269.95Z"/></clipPath><clipPath id="clip-path-81"><path class="cls-1" d="M598-271a3.5,3.5,0,0,0,2.57,2.69c1.61.42-.61-14,.14-17.09,2.91-11.78,8.08-28.7,8.1-31l0-3.22a15.69,15.69,0,0,0,6.24,0c4.05-.63,24.5.59,34,3.22s28.14,13.22,38.47,13.49S701.9-305,701.9-305s-1.21-5.46-2-11.33,1.21-4.25,4.65,3.64c1.61,3.7,7.87,9.86,11.24,18.52,3.82,9.84,4.75,22.09,5.77,22.77,1.92,1.29,4.25-20.24,4.65-23.88s6.89-8.19,6.48-32.74-6.48-44-27.53-32c-14-19.63-47-38.86-58.51-39.06s-16-2-14.57,3.84a18.62,18.62,0,0,0,5.67,9.31s-18.22,5.27-28.14,5.67-28.14-7.08-29.56,2.84,9.11,32,9.52,35.42-3.85,4.49-6.48,6.9-1.13,32.71,3.92,38.88c7,8.48,9.92,20.05,11,25.3"/></clipPath><clipPath id="clip-path-82"><path class="cls-1" d="M723.06-301.76c3.13-2,14.27-1.84,11.23,13.05s-2.21,23.39-5.36,25.82-9.18,3.52-8,0,.61-17,.61-17l.81-8.9Z"/></clipPath><clipPath id="clip-path-83"><path class="cls-1" d="M666.27-150.65A16.34,16.34,0,0,0,649.93-167a16.34,16.34,0,0,0-16.35,16.34,16.35,16.35,0,0,0,16.35,16.34,16.35,16.35,0,0,0,16.34-16.34"/></clipPath><clipPath id="clip-path-84"><rect class="cls-2" x="79.21" y="-290.6" width="247.37" height="219.56"/></clipPath><clipPath id="clip-path-85"><path class="cls-1" d="M193.18-205.81c-6.38,18.52-15.18,61.64-34.31,68.62,23.38,7.59,50.91,19.51,57.39,24.29,0,0-25.14-15.45-29.66-29.15-5.52-16.72,6.58-63.76,6.58-63.76"/></clipPath><clipPath id="clip-path-86"><path class="cls-1" d="M277.9-238.2c-4-6.48-4-11.61-4-11.61s6-10.25,10.5-12.07,16.4,14,42.22,4.85,62.67-38.66,69.15-61.33,0-47.77-26.32-58.3-59.11-25.91-83.81,14.17-21.46,54.48-24.29,60-20.24,14.59-24.7,14.73-21,8.64-18.62,33.34,13.76,30.36,19,32,29.15,9.72,38.46,4.45,2.43-20.24,2.43-20.24"/></clipPath><clipPath id="clip-path-87"><path class="cls-1" d="M296.93-345.08c-3.24-2.43-15-4.78-19,6.32S284-323.49,284-323.49s-3.12,5.54-7,4.73-.25,7.28-2.28,14.57-.81,21.48-17.81,21.27c-2,13.75-10.12,31.76-31.58,25.89s-12.22-15.1-15.79-22.15-17.56-11.47-21.92-11.42-11.69-13.18-4.4-39.09,47-59.92,74.09-64.37c0,0-19.43-51.82,37.65-55.06s75.31,42.87,84.22,44.71,21.46-3.42,36.44,7.11,26.31,60.72-6.48,64.77c0,0,32.43,59.18-47.33,55.33,23.08-23.68,34.17-31.75,33.16-46.29-1.05-15.07-10.93,4.73-40.08,5.94s-49-8.1-52.23-14.17a100.63,100.63,0,0,1-5.67-13.36"/></clipPath><clipPath id="clip-path-88"><path class="cls-1" d="M311-256.08c-5-1.15-8.57-3.45-10.59-6.83A14.47,14.47,0,0,1,299-273.38l1.17.32a13.47,13.47,0,0,0,1.32,9.54c1.84,3.08,5.14,5.18,9.82,6.26Z"/></clipPath><clipPath id="clip-path-89"><path class="cls-1" d="M329.62-262.55c-3.29,0-8-1.69-12.49-6.61l.9-.81c4.84,5.35,10,6.63,12.86,6.09a2.81,2.81,0,0,0,2.22-1.35c.72-1.84,5.2-8.84,10.39-17,2.73-4.27,5.55-8.68,8-12.67l1,.65c-2.49,4-5.32,8.4-8.05,12.68-4.94,7.72-9.61,15-10.28,16.74a3.89,3.89,0,0,1-3.13,2.11,8.52,8.52,0,0,1-1.49.13"/></clipPath><clipPath id="clip-path-90"><path class="cls-1" d="M327.85-300.22c-1.75,2.41-2,5.2-.59,6.24s4-.08,5.75-2.49,2-5.2.59-6.23-4,.07-5.75,2.48"/></clipPath><clipPath id="clip-path-91"><path class="cls-1" d="M358.87-286.29c-1.75,2.4-2,5.19-.59,6.23s4-.08,5.75-2.49,2-5.2.59-6.23-4,.08-5.75,2.49"/></clipPath><clipPath id="clip-path-92"><path class="cls-1" d="M192.27-81.78C161-78.74,99.84-74,89.52-77.39c12.41,3.37,9.6,2.87,16.36,3.13,7,.26,67.87,4.28,71.51,2.94s24.49,0,24.49,0l-5.06-8.94L195-82.84Z"/></clipPath><clipPath id="clip-path-93"><rect class="cls-2" x="277.9" y="-249.81" width="229.26" height="178.76"/></clipPath><clipPath id="clip-path-94"><rect class="cls-2" x="177.39" y="-78.5" width="103.64" height="7.46"/></clipPath><clipPath id="clip-path-95"><path class="cls-1" d="M186.65-112.9c9.11-6.68,16.55-5.87,32.14,0s44.13-5,47.77-1.87,12.55,27.78,12.76,30,1,6.25-3.85,6.25H238.22c-2.63,0-38.26,3-41.5,0s-1.92-5.85-9.16-8.68-7.69-9.11-5.82-16,4.91-9.72,4.91-9.72"/></clipPath><clipPath id="clip-path-96"><path class="cls-1" d="M186-87.91l.32.17-.32-.17"/></clipPath><clipPath id="clip-path-97"><path class="cls-1" d="M181.74-103.18c1.88-6.89,4.91-9.72,4.91-9.72,7.94-5.82,14.62-5.95,26.53-2-3.54-.2-19.28.76-22.89,5.54-3.48,4.62-9,18-5,21-5.05-3.18-5.22-8.78-3.57-14.86"/></clipPath><clipPath id="clip-path-98"><path class="cls-1" d="M818.7-526.75l-.79-.92c.08-.08,8.92-7.76,11.9-10.89,2.31-2.44.67-14-.16-18.26l1.19-.23c.32,1.63,3,16-.15,19.32s-11.62,10.66-12,11"/></clipPath><clipPath id="clip-path-99"><path class="cls-1" d="M1058.67-378.15c11,5.09,20.31,11.46,24.55,9.5s-10.5,9.71-17.06,8.06-7.49-17.56-7.49-17.56"/></clipPath><clipPath id="clip-path-100"><path class="cls-1" d="M1077.58-347c4.71-8,7.84-16.07,11.37-16.67s-10.85-1.57-14.28,2.33,2.91,14.34,2.91,14.34"/></clipPath><clipPath id="clip-path-101"><path class="cls-1" d="M1080-338.42c4.71-8,7.84-16.07,11.37-16.67s-10.85-1.57-14.28,2.33,2.91,14.34,2.91,14.34"/></clipPath><clipPath id="clip-path-102"><path class="cls-1" d="M71-71H1250.7a21.13,21.13,0,0,1,21.14,21.1v8.85A21.13,21.13,0,0,1,1250.7-20H71A21.12,21.12,0,0,1,49.91-41.1v-8.85A21.12,21.12,0,0,1,71-71"/></clipPath><clipPath id="clip-path-103"><path class="cls-1" d="M426.34-149.57a14.15,14.15,0,0,0-14.17-14.14A14.15,14.15,0,0,0,398-149.57a14.15,14.15,0,0,0,14.16,14.14,14.15,14.15,0,0,0,14.17-14.14"/></clipPath><clipPath id="clip-path-104"><path class="cls-1" d="M786.36-101.42H780.3a1.35,1.35,0,0,1-1.36-1.35v-4.16a1.36,1.36,0,0,1,1.36-1.36h6.06a1.35,1.35,0,0,1,1.35,1.36v4.16a1.34,1.34,0,0,1-1.35,1.35"/></clipPath><clipPath id="clip-path-105"><path class="cls-1" d="M785.22-90.12c-13.41,0-18.05-2.9-19.56-5.41a5.06,5.06,0,0,1,.12-5.27,9.49,9.49,0,0,1,7.59-4.66h7.38v1.21h-7.38a8.34,8.34,0,0,0-6.54,4,3.89,3.89,0,0,0-.13,4c1.17,2,5.44,5.16,21,4.78l0,1.22-2.51,0"/></clipPath><clipPath id="clip-path-106"><path class="cls-1" d="M954.62-40c-22.47,0-44.68-1.92-53.57-5.15-6.34-2.3-7.17-5.47-6.75-7.72a9.24,9.24,0,0,1,3-4.81c-6.17-3.7-12.28-8.14-18.53-12.68-17-12.35-34.6-25.13-56.61-25.13v-1.21c22.4,0,40.16,12.89,57.32,25.36,6.34,4.6,12.53,9.1,18.78,12.81,5.3-4.35,15.1-7.57,24.29-7.41,12.92.24,26.81,4.31,26.72,10.46-.07,4.72-8.79,7.41-23.36,7.27-9.71-.11-18.68-3.67-27.5-8.82a8.43,8.43,0,0,0-2.88,4.38c-.6,3.25,2.91,5.25,6,6.36,8.94,3.25,32.39,5.34,57,5.07,27.09-.29,47-3.16,53.35-7.69,10.89-7.81,18.54-17.92,17-22.53-.6-1.88-2.75-2.83-6.38-2.83v-1.22c4.22,0,6.75,1.24,7.54,3.68,1.86,5.76-7.44,16.67-17.5,23.89-7.76,5.56-33,7.92-57.88,7.92M899.35-57.88c8.55,4.94,17.22,8.33,26.53,8.44,16.25.18,22.09-3.16,22.14-6.08.05-3.67-8.79-8.91-25.53-9.23-9.25-.17-18.2,3-23.14,6.87"/></clipPath><clipPath id="clip-path-107"><path class="cls-1" d="M811.13-189.11a1.55,1.55,0,0,1-1.55-1.55V-201.6a1.54,1.54,0,0,1,1.55-1.55,1.54,1.54,0,0,1,1.55,1.55v10.94a1.55,1.55,0,0,1-1.55,1.55"/></clipPath><clipPath id="clip-path-108"><path class="cls-1" d="M822.14-117.75,807-131.52a3.09,3.09,0,0,1-.21-4.37,3.11,3.11,0,0,1,4.39-.21l13.24,12,30.78-1.44a3.13,3.13,0,0,1,3.25,3,3.11,3.11,0,0,1-3,3.24Z"/></clipPath><clipPath id="clip-path-109"><path class="cls-1" d="M867.78-107a15,15,0,0,1-10.6-4.33A15,15,0,0,1,852.66-122,15,15,0,0,1,857-132.67a15,15,0,0,1,10.65-4.51h0a3.1,3.1,0,0,1,3.1,3.07A3.1,3.1,0,0,1,867.7-131a8.84,8.84,0,0,0-6.27,2.66,8.84,8.84,0,0,0-2.56,6.31,8.84,8.84,0,0,0,2.66,6.27,8.69,8.69,0,0,0,6.33,2.56,3.17,3.17,0,0,1,3.13,3.07,3.1,3.1,0,0,1-3.08,3.12Z"/></clipPath><clipPath id="clip-path-110"><path class="cls-1" d="M830-173.69c0,2.82-1,5.1-2.33,5.1s-2.33-2.28-2.33-5.1,1.05-5.1,2.33-5.1,2.33,2.29,2.33,5.1"/></clipPath><clipPath id="clip-path-111"><path class="cls-1" d="M832.65-80.89H791.82A5.83,5.83,0,0,1,786-86.71v-52.36a5.83,5.83,0,0,1,5.83-5.82h40.83a5.83,5.83,0,0,1,5.83,5.82v52.36a5.83,5.83,0,0,1-5.83,5.82"/></clipPath><clipPath id="clip-path-112"><path class="cls-1" d="M799.06-144.89h-7.24a5.83,5.83,0,0,0-5.83,5.82v52.36a5.41,5.41,0,0,0,.18,1.34L789.46-84v-45.19c0-8.88,3.82-11.41,9.6-15.74"/></clipPath><clipPath id="clip-path-113"><path class="cls-1" d="M817.93-142.18h-13.6a9.22,9.22,0,0,1-9.23-9.21v-30.06a9.22,9.22,0,0,1,9.23-9.21h13.6a9.22,9.22,0,0,1,9.23,9.21v30.06a9.22,9.22,0,0,1-9.23,9.21"/></clipPath><clipPath id="clip-path-114"><path class="cls-1" d="M842.54-53.47H779.72A13.57,13.57,0,0,1,766.14-67v-7.53a13.57,13.57,0,0,1,13.58-13.56h62.82a13.57,13.57,0,0,1,13.58,13.56V-67a13.57,13.57,0,0,1-13.58,13.56"/></clipPath><clipPath id="clip-path-115"><path class="cls-1" d="M842.38-57.63h-62.5a10.31,10.31,0,0,1-10.32-10.3v-5.73A10.31,10.31,0,0,1,779.88-84h62.5a10.31,10.31,0,0,1,10.32,10.3v5.73a10.31,10.31,0,0,1-10.32,10.3"/></clipPath><clipPath id="clip-path-116"><path class="cls-1" d="M791.49-70.8a6.65,6.65,0,0,0-6.66-6.64,6.65,6.65,0,0,0-6.66,6.64,6.65,6.65,0,0,0,6.66,6.65,6.65,6.65,0,0,0,6.66-6.65"/></clipPath><clipPath id="clip-path-117"><path class="cls-1" d="M817.79-70.8a6.65,6.65,0,0,0-6.66-6.64,6.65,6.65,0,0,0-6.66,6.64,6.65,6.65,0,0,0,6.66,6.65,6.65,6.65,0,0,0,6.66-6.65"/></clipPath><clipPath id="clip-path-118"><path class="cls-1" d="M843.6-70.8a6.65,6.65,0,0,0-6.66-6.64,6.65,6.65,0,0,0-6.66,6.64,6.65,6.65,0,0,0,6.66,6.65,6.65,6.65,0,0,0,6.66-6.65"/></clipPath><clipPath id="clip-path-119"><path class="cls-1" d="M833.89-121.83H813.41a3.1,3.1,0,0,1-3.1-3.1,3.1,3.1,0,0,1,3.1-3.1h17.91l21.79-21.75a3.11,3.11,0,0,1,4.39,0,3.1,3.1,0,0,1,0,4.38Z"/></clipPath><clipPath id="clip-path-120"><path class="cls-1" d="M864.72-140.64a15.1,15.1,0,0,1-11.1-4.83,15.1,15.1,0,0,1,.82-21.33,3.11,3.11,0,0,1,4.39.17,3.1,3.1,0,0,1-.17,4.38,8.9,8.9,0,0,0-.48,12.57,8.92,8.92,0,0,0,12.59.48,3.12,3.12,0,0,1,4.39.17,3.1,3.1,0,0,1-.17,4.38,15.06,15.06,0,0,1-10.27,4"/></clipPath><clipPath id="clip-path-121"><path class="cls-1" d="M814.43-202.76a3.3,3.3,0,0,0-3.3-3.3,3.3,3.3,0,0,0-3.3,3.3,3.3,3.3,0,0,0,3.3,3.29,3.3,3.3,0,0,0,3.3-3.29"/></clipPath><clipPath id="clip-path-122"><path class="cls-1" d="M820.8-124.85a8.12,8.12,0,0,0-8.12-8.11,8.11,8.11,0,0,0-8.11,8.11,8.11,8.11,0,0,0,8.11,8.1,8.12,8.12,0,0,0,8.12-8.1"/></clipPath><clipPath id="clip-path-123"><path class="cls-1" d="M817.93-190.66h-.85c4.57,10.77,9.85,29.61,10.08,38.06v-28.85a9.22,9.22,0,0,0-9.23-9.21"/></clipPath><clipPath id="clip-path-124"><path class="cls-1" d="M807.13-190.66h-2.8a9.22,9.22,0,0,0-9.23,9.21v30.06a9.16,9.16,0,0,0,2.77,6.57l1.19-.07S797.8-154,797.35-159s3.79-23.18,7.22-26.67a9.41,9.41,0,0,0,2.56-5"/></clipPath><clipPath id="clip-path-125"><rect class="cls-2" x="1017.78" y="-77.7" width="6.9" height="4.92"/></clipPath><clipPath id="clip-path-126"><path class="cls-1" d="M167.37-43.22a49.86,49.86,0,0,1-12.34-2c-2-.54-4.7-1.46-4.25-3.18,1-3.6,19-6.07,29-7.17a31.57,31.57,0,0,1,4.29-7c7.24-8.66,50.46-12.21,52.3-12.35l.1,1.2c-.45,0-44.56,3.65-51.46,11.93a28.33,28.33,0,0,0-3.81,6.06c2.32-.25,4-.4,4.72-.46,16.56-1.45,38.23-1.94,49.36,1,9.35,2.47,15.91-4.18,22.25-10.62,5.21-5.29,10.13-10.29,16.44-10.4,11.74-.22,11.74-.21,11.78.53,0,.27-.11.62-.79.68v-.08c-.36,0-2.18-.08-11,.08-5.81.1-10.57,4.93-15.6,10C251.8-58.26,245-51.35,235-54c-11.71-3.09-35.32-2.43-54.38-.41-.23.5-.44,1-.66,1.47-2.39,5.41-4.31,9.73-12.55,9.73m11.81-11.05c-14.89,1.65-26.67,4.1-27.22,6.18,0,0-.16.76,3.38,1.7,18.21,4.82,20.31.1,23.47-7.06.12-.27.25-.54.37-.82"/></clipPath><clipPath id="clip-path-127"><rect class="cls-2" x="232.69" y="-76.26" width="7.44" height="3.91"/></clipPath><clipPath id="clip-path-128"><rect class="cls-2" x="281.08" y="-95.27" width="100.57" height="37.15"/></clipPath><clipPath id="clip-path-129"><rect class="cls-2" x="288.06" y="-90.29" width="13.37" height="13.35"/></clipPath><clipPath id="clip-path-130"><rect class="cls-2" x="348.23" y="-90.29" width="19.28" height="27.29"/></clipPath><clipPath id="clip-path-131"><rect class="cls-2" x="306.12" y="-68.83" width="5.49" height="5.48"/></clipPath><clipPath id="clip-path-132"><rect class="cls-2" x="306.12" y="-75.6" width="5.49" height="5.48"/></clipPath><clipPath id="clip-path-133"><rect class="cls-2" x="312.9" y="-75.6" width="5.49" height="5.48"/></clipPath><clipPath id="clip-path-134"><rect class="cls-2" x="312.9" y="-68.83" width="5.49" height="5.48"/></clipPath><clipPath id="clip-path-135"><rect class="cls-2" x="319.54" y="-68.83" width="5.49" height="5.48"/></clipPath><clipPath id="clip-path-136"><rect class="cls-2" x="319.54" y="-75.6" width="5.49" height="5.48"/></clipPath><clipPath id="clip-path-137"><rect class="cls-2" x="326.32" y="-75.6" width="5.49" height="5.48"/></clipPath><clipPath id="clip-path-138"><rect class="cls-2" x="326.32" y="-68.83" width="5.49" height="5.48"/></clipPath><clipPath id="clip-path-139"><rect class="cls-2" x="333.31" y="-68.83" width="5.49" height="5.48"/></clipPath><clipPath id="clip-path-140"><rect class="cls-2" x="333.31" y="-75.6" width="5.49" height="5.48"/></clipPath><clipPath id="clip-path-141"><rect class="cls-2" x="340.09" y="-75.6" width="5.49" height="5.48"/></clipPath><clipPath id="clip-path-142"><rect class="cls-2" x="340.09" y="-68.83" width="5.49" height="5.48"/></clipPath><clipPath id="clip-path-143"><rect class="cls-2" x="288.06" y="-72.96" width="13.37" height="1.21"/></clipPath><clipPath id="clip-path-144"><rect class="cls-2" x="306.12" y="-84.22" width="22.44" height="1.21"/></clipPath><clipPath id="clip-path-145"><rect class="cls-2" x="288.06" y="-69.18" width="13.37" height="1.21"/></clipPath><clipPath id="clip-path-146"><rect class="cls-2" x="288.06" y="-65.39" width="13.37" height="1.21"/></clipPath><clipPath id="clip-path-147"><rect class="cls-2" x="331.81" y="-88.31" width="6.68" height="1.21"/></clipPath><clipPath id="clip-path-148"><rect class="cls-2" x="331.81" y="-84.53" width="6.68" height="1.21"/></clipPath><clipPath id="clip-path-149"><rect class="cls-2" x="331.81" y="-80.74" width="6.68" height="1.21"/></clipPath><clipPath id="clip-path-150"><rect class="cls-2" x="339.49" y="-88.31" width="6.68" height="1.21"/></clipPath><clipPath id="clip-path-151"><rect class="cls-2" x="339.49" y="-84.53" width="6.68" height="1.21"/></clipPath><clipPath id="clip-path-152"><rect class="cls-2" x="339.49" y="-80.74" width="6.68" height="1.21"/></clipPath><clipPath id="clip-path-153"><path class="cls-1" d="M323.25-80.43H310.94a2.42,2.42,0,0,1-2.43-2.42v-1.53a2.42,2.42,0,0,1,2.43-2.42h12.31a2.42,2.42,0,0,1,2.42,2.42v1.53a2.42,2.42,0,0,1-2.42,2.42"/></clipPath><clipPath id="clip-path-154"><rect class="cls-2" x="372.16" y="-86.8" width="1.21" height="22.41"/></clipPath><clipPath id="clip-path-155"><path class="cls-1" d="M376-81.5v12.29a2.42,2.42,0,0,1-2.43,2.42H372a2.42,2.42,0,0,1-2.43-2.42V-81.5A2.43,2.43,0,0,1,372-83.92h1.53A2.43,2.43,0,0,1,376-81.5"/></clipPath><clipPath id="clip-path-156"><rect class="cls-2" x="274.98" y="-60.96" width="112.91" height="9.7"/></clipPath><clipPath id="clip-path-157"><path class="cls-1" d="M737.46-47.73a81.15,81.15,0,0,1-19.5-3l.34-1.17c.21.06,21.19,6,30,.66a7.41,7.41,0,0,0,3.57-5,2.5,2.5,0,0,0-.67-2.19c-8-9.32-74.31-9.26-112.23-7.76-21.8.84-44.12-12-44.34-12.14l.61-1c.22.13,22.22,12.86,43.68,12,10.51-.42,103-3.73,113.2,8.18A3.69,3.69,0,0,1,753-56a8.57,8.57,0,0,1-4.13,5.84c-3,1.81-7.12,2.43-11.43,2.43"/></clipPath><clipPath id="clip-path-158"><path class="cls-1" d="M711.65-57.63c0,16.2-47.15,16.2-47.15,0S675.06-87,688.08-87s23.57,13.13,23.57,29.33"/></clipPath><clipPath id="clip-path-159"><path class="cls-1" d="M688.08-87a18.62,18.62,0,0,0-2.25.14,22.39,22.39,0,0,0-.89,6.29c0,11.53,8.56,20.88,19.12,20.88a17.7,17.7,0,0,0,7.4-1.62C710-75.75,700.11-87,688.08-87"/></clipPath><clipPath id="clip-path-160"><path class="cls-1" d="M694.15-69.11A6.06,6.06,0,0,1,688.08-63,6.06,6.06,0,0,1,682-69.11a6.06,6.06,0,0,1,6.07-6.06,6.06,6.06,0,0,1,6.07,6.06"/></clipPath><clipPath id="clip-path-161"><path class="cls-1" d="M688.08-56.31a2.85,2.85,0,0,1-2.84-2.83v-4.25a2.84,2.84,0,0,1,2.84-2.83,2.83,2.83,0,0,1,2.83,2.83v4.25a2.84,2.84,0,0,1-2.83,2.83"/></clipPath><clipPath id="clip-path-162"><path class="cls-1" d="M717.43-44.52H661.35a6.58,6.58,0,0,1-6.56-6.56,6.57,6.57,0,0,1,6.56-6.55h56.08A6.57,6.57,0,0,1,724-51.08a6.58,6.58,0,0,1-6.56,6.56"/></clipPath><clipPath id="clip-path-163"><path class="cls-1" d="M615.57-52.15c-4.51,1.62-12.28,1.92-12.28,1.92l-6,5.53s21-.41,25.58-5.28-7.26-2.17-7.26-2.17"/></clipPath><clipPath id="clip-path-164"><polygon class="cls-1" points="474.9 -91.74 483.24 -97.22 506.19 -96.5 493.92 -88.58 474.9 -91.74"/></clipPath><clipPath id="clip-path-165"><path class="cls-1" d="M587.57-37.46c.73-.32,12.08-7.53,12.08-7.53v-8.62L575-55.23Z"/></clipPath><clipPath id="clip-path-166"><path class="cls-1" d="M590.35-42.6H570.79c-10.49,0-22.46-6.46-28.46-6.46-5.67,0-16.71,6.46-26.77,6.46H494.32A19.46,19.46,0,0,1,474.9-62V-81.32a19.46,19.46,0,0,1,19.42-19.39h96a19.46,19.46,0,0,1,19.42,19.39V-62A19.46,19.46,0,0,1,590.35-42.6"/></clipPath><clipPath id="clip-path-167"><path class="cls-1" d="M580.23-36H560.68c-10.49,0-22.47-6.47-28.46-6.47-5.67,0-16.71,6.47-26.77,6.47H484.2A19.47,19.47,0,0,1,464.78-55.4V-74.74A19.47,19.47,0,0,1,484.2-94.13h96a19.47,19.47,0,0,1,19.42,19.39V-55.4A19.47,19.47,0,0,1,580.23-36"/></clipPath><clipPath id="clip-path-168"><path class="cls-1" d="M495.13-91.41a17.69,17.69,0,0,0,17.65,17.63h39.76a17.69,17.69,0,0,0,17.64-17.63,17.51,17.51,0,0,0-.23-2.72H495.36a17.51,17.51,0,0,0-.23,2.72"/></clipPath><clipPath id="clip-path-169"><polygon class="cls-1" points="512.49 -87.19 509.85 -80.58 508.96 -80.58 506.3 -87.19 507.62 -87.19 509.41 -82.5 511.19 -87.19 512.49 -87.19"/></clipPath><clipPath id="clip-path-170"><path class="cls-1" d="M513.39-87.19h2.14a2.05,2.05,0,0,1,2.3,1.94,1.81,1.81,0,0,1-1.3,1.73l1.85,3H517l-1.63-2.83h-.8v2.83h-1.19Zm2.25,2.82c.64,0,1-.36,1-.86s-.43-.9-1.11-.9h-.95v1.76Z"/></clipPath><clipPath id="clip-path-171"><path class="cls-1" d="M521.65-87.19h2.08c1.35,0,2.34.7,2.34,2s-1,1.92-2.34,1.92h-.9v2.75h-1.18Zm2.08,2.76c.81,0,1.15-.28,1.15-.81s-.35-.84-1.15-.84h-.9v1.65Z"/></clipPath><clipPath id="clip-path-172"><polygon class="cls-1" points="528.6 -83.16 526.11 -87.19 527.55 -87.19 529.21 -84.3 530.87 -87.19 532.32 -87.19 529.84 -83.16 529.84 -80.58 528.6 -80.58 528.6 -83.16"/></clipPath><clipPath id="clip-path-173"><polygon class="cls-1" points="534.67 -86.13 532.59 -86.13 532.59 -87.19 537.93 -87.19 537.93 -86.13 535.86 -86.13 535.86 -80.58 534.67 -80.58 534.67 -86.13"/></clipPath><clipPath id="clip-path-174"><polygon class="cls-1" points="538.88 -87.19 540.07 -87.19 540.07 -84.43 542.98 -84.43 542.98 -87.19 544.17 -87.19 544.17 -80.58 542.98 -80.58 542.98 -83.34 540.07 -83.34 540.07 -80.58 538.88 -80.58 538.88 -87.19"/></clipPath><clipPath id="clip-path-175"><path class="cls-1" d="M545.4-83.89a3.09,3.09,0,0,1,3.19-3.4,3.1,3.1,0,0,1,3.21,3.4,3.1,3.1,0,0,1-3.21,3.41,3.09,3.09,0,0,1-3.19-3.41m5.14,0c0-1.24-.52-2.34-1.95-2.34s-1.94,1.1-1.94,2.34.52,2.35,1.94,2.35,1.95-1.1,1.95-2.35"/></clipPath><clipPath id="clip-path-176"><polygon class="cls-1" points="558.14 -87.19 558.14 -80.58 556.95 -80.58 554.17 -85.23 554.17 -80.58 553.02 -80.58 553.02 -87.19 554.21 -87.19 556.99 -82.57 556.99 -87.19 558.14 -87.19"/></clipPath><clipPath id="clip-path-177"><path class="cls-1" d="M603.29-75.17S625.75-63.62,624.54-53s-19-7.49-19-7.49Z"/></clipPath><clipPath id="clip-path-178"><path class="cls-1" d="M200,118A100,100,0,1,1,100,18,100,100,0,0,1,200,118"/></clipPath><clipPath id="clip-path-179"><rect class="cls-2" x="-269" y="-1189" width="1440" height="4099"/></clipPath><clipPath id="clip-path-180"><path class="cls-1" d="M0,0V118a100,100,0,0,0,200,0V0"/></clipPath><clipPath id="clip-path-182"><rect class="cls-2" y="54" width="200" height="142"/></clipPath><clipPath id="clip-path-183"><path class="cls-1" d="M187.44,195.67H12.35A12.35,12.35,0,0,1,0,183.32v-117A12.35,12.35,0,0,1,12.35,54H187.44a12.35,12.35,0,0,1,12.35,12.35v117a12.35,12.35,0,0,1-12.35,12.35"/></clipPath><clipPath id="clip-path-184"><rect class="cls-2" width="200" height="218"/></clipPath><clipPath id="clip-path-185"><path class="cls-1" d="M0,0V118a100,100,0,0,0,200,0V0Z"/></clipPath><clipPath id="clip-path-187"><rect class="cls-2" x="9" y="64" width="182" height="121"/></clipPath><clipPath id="clip-path-188"><rect class="cls-2" x="9.08" y="64.9" width="181.62" height="119.87"/></clipPath><clipPath id="clip-path-190"><rect class="cls-2" x="9.08" y="64.9" width="181.62" height="29.06"/></clipPath><clipPath id="clip-path-192"><path class="cls-1" d="M75.71,80.78c0,.65,2.18.26,2.18,1.84a1.5,1.5,0,0,1-1.67,1.43,1.84,1.84,0,0,1-1.8-1.2l.83-.37a1,1,0,0,0,.92.7c.48,0,.69-.28.69-.51,0-.72-2.15-.24-2.15-1.75,0-.91.76-1.34,1.59-1.34a1.81,1.81,0,0,1,1.63.93l-.81.45a.93.93,0,0,0-.85-.55C75.92,80.41,75.71,80.58,75.71,80.78Zm-4.28.62h1.95a.84.84,0,0,0,0-.27.88.88,0,0,0-.93-.67C71.8,80.46,71.52,80.87,71.43,81.4Zm3,.35a1.78,1.78,0,0,1,0,.41H71.43a1,1,0,0,0,1.07.94,1.29,1.29,0,0,0,1-.46l.72.63a2.25,2.25,0,0,1-1.76.78,2.24,2.24,0,0,1-.07-4.47A2,2,0,0,1,74.41,81.75Zm-6.52,1.42c.72,0,1-.55,1-1.28s-.32-1.28-1-1.28-1,.57-1,1.28S67.17,83.17,67.89,83.17Zm1-3V78H69.9V84h-1l-.05-.49a1.49,1.49,0,0,1-1.25.57c-1.2,0-1.85-1-1.85-2.23s.65-2.23,1.84-2.23A1.56,1.56,0,0,1,68.84,80.18Zm-4.44,2v0H63.3c-.48,0-.7.25-.7.52s.23.48.7.48A1.08,1.08,0,0,0,64.4,82.19Zm-.9-2.61a1.7,1.7,0,0,1,1.85,1.78V84h-.86l-.07-.57a1.62,1.62,0,0,1-1.34.66,1.4,1.4,0,0,1-1.55-1.41c0-.93.74-1.24,1.71-1.24H64.4c0-.63-.21-.9-.89-.9a1.15,1.15,0,0,0-1,.6l-.81-.58A2.12,2.12,0,0,1,63.5,79.58Zm-2.59,0a1.11,1.11,0,0,1,.79.31l-.48.86a.87.87,0,0,0-.46-.15c-.49,0-1,.46-1,1.55V84h-1V79.67h1v.72A1.22,1.22,0,0,1,60.91,79.58Zm-5.36,2v-.88H58V84h-.86L57,83.14a2,2,0,0,1-1.8.94,3.14,3.14,0,0,1,0-6.26,2.76,2.76,0,0,1,2.65,1.75l-1,.4a1.67,1.67,0,0,0-1.69-1.19c-1.28,0-1.83,1-1.83,2.13s.55,2.19,1.85,2.19a1.49,1.49,0,0,0,1.65-1.51Zm-7.19-.35h2.73a1.38,1.38,0,0,0-.37-.9,1.17,1.17,0,0,0-.87-.32,2.51,2.51,0,0,0-.55.06,1.17,1.17,0,0,0-.45.21,1.19,1.19,0,0,0-.33.37A1.81,1.81,0,0,0,48.36,81.24ZM51.2,79.9a1.76,1.76,0,0,1,.42.74,3.37,3.37,0,0,1,.11,1.21H48.34A1.55,1.55,0,0,0,48.76,83a1.61,1.61,0,0,0,1.14.39,2,2,0,0,0,.47-.06,3.22,3.22,0,0,0,.44-.14,2.56,2.56,0,0,0,.37-.17,1.48,1.48,0,0,0,.25-.18l.27.5a1.77,1.77,0,0,1-.37.27,2.9,2.9,0,0,1-.47.21,4.58,4.58,0,0,1-.53.14,3.52,3.52,0,0,1-.56,0,2.45,2.45,0,0,1-.93-.16,1.73,1.73,0,0,1-.68-.47,2,2,0,0,1-.41-.72,2.83,2.83,0,0,1-.14-1,2.93,2.93,0,0,1,.15-1,1.8,1.8,0,0,1,1.15-1.17,2.65,2.65,0,0,1,.92-.15,3,3,0,0,1,.73.09A1.54,1.54,0,0,1,51.2,79.9Zm-5.27,2.49v-2a1.54,1.54,0,0,0-.43-.2,2.78,2.78,0,0,0-.64-.06,1.48,1.48,0,0,0-1.1.41,1.77,1.77,0,0,0-.41,1.29,3.53,3.53,0,0,0,.07.67,1.46,1.46,0,0,0,.22.54,1,1,0,0,0,.41.36,1.29,1.29,0,0,0,.62.14,1.25,1.25,0,0,0,.84-.28A1.56,1.56,0,0,0,45.93,82.39Zm.76.79c0,.09,0,.16,0,.23h.59V84H46.13L46,83.3h0a1.56,1.56,0,0,1-.58.56,1.67,1.67,0,0,1-.88.22,1.82,1.82,0,0,1-1.46-.55,2.7,2.7,0,0,1-.47-1.74,2.92,2.92,0,0,1,.16-1,2.05,2.05,0,0,1,.45-.71,2,2,0,0,1,.71-.44,2.65,2.65,0,0,1,.92-.15h.33l.27,0,.23,0,.24.06V78.41h-.74v-.59h1.43v4.66s0,.11,0,.19a2.11,2.11,0,0,1,0,.25A2,2,0,0,0,46.69,83.18ZM41,83a2,2,0,0,0,.35-1.28,2.56,2.56,0,0,0-.07-.62,1.53,1.53,0,0,0-.25-.55,1.18,1.18,0,0,0-.44-.39,1.28,1.28,0,0,0-.65-.15,1.26,1.26,0,0,0-1.05.43,1.94,1.94,0,0,0-.35,1.28,2.62,2.62,0,0,0,.07.62,1.7,1.7,0,0,0,.24.55,1.31,1.31,0,0,0,.44.4,1.42,1.42,0,0,0,.65.14A1.29,1.29,0,0,0,41,83Zm.56-2.92a1.91,1.91,0,0,1,.39.73,3,3,0,0,1,.13.91,3.11,3.11,0,0,1-.14,1,1.93,1.93,0,0,1-.41.73,1.82,1.82,0,0,1-.68.46,2.33,2.33,0,0,1-.9.16,2.27,2.27,0,0,1-1-.18,1.86,1.86,0,0,1-.67-.48,1.91,1.91,0,0,1-.39-.73,3,3,0,0,1-.13-.91,2.41,2.41,0,0,1,.55-1.68,2,2,0,0,1,1.59-.62,2.33,2.33,0,0,1,1,.18A1.82,1.82,0,0,1,41.54,80.1Zm-4.38,2.26v1.21a2.26,2.26,0,0,1-.66.34,3.17,3.17,0,0,1-1,.13,2.61,2.61,0,0,1-1-.19,2,2,0,0,1-.82-.57,2.91,2.91,0,0,1-.53-1A5,5,0,0,1,33,80.86a4.46,4.46,0,0,1,.21-1.46,2.68,2.68,0,0,1,.58-1,2.3,2.3,0,0,1,.83-.56,3.18,3.18,0,0,1,1-.17l.52,0a3.38,3.38,0,0,1,.38.06,1.75,1.75,0,0,1,.3.1l.25.14h0v1.39h-.65v-.94a1.59,1.59,0,0,0-.33-.09,2.76,2.76,0,0,0-.44,0,1.94,1.94,0,0,0-.71.13,1.62,1.62,0,0,0-.62.43,2.23,2.23,0,0,0-.43.78,3.77,3.77,0,0,0-.16,1.19A4.1,4.1,0,0,0,33.86,82a2.36,2.36,0,0,0,.41.79,1.54,1.54,0,0,0,.63.47,1.92,1.92,0,0,0,.81.16,2,2,0,0,0,.43,0,1.37,1.37,0,0,0,.36-.11v-.88ZM18.45,80.22a6.24,6.24,0,0,1,10.66-4.41l-1,1a4.82,4.82,0,0,0-3.44-1.42,4.87,4.87,0,1,0,1.89,9.36V83.05a2.35,2.35,0,0,1-2,.87A3.53,3.53,0,0,1,21,80.23a3.6,3.6,0,0,1,3.69-3.7,3.37,3.37,0,0,1,2.64,1.06l-1.13,1.13A1.77,1.77,0,0,0,24.68,78a2.24,2.24,0,0,0,0,4.47,1.68,1.68,0,0,0,1.75-1.16H24.34V80H28v5.59l-.37.19a6.24,6.24,0,0,1-9.13-5.54Z"/></clipPath><clipPath id="clip-path-194"><path class="cls-1" d="M129,79.63v6.89h-1.82l-.2-1.79a4.22,4.22,0,0,1-3.77,2c-4.19,0-6.17-3.06-6.17-6.56s1.94-6.57,6.16-6.57a5.79,5.79,0,0,1,5.55,3.66l-2,.85a3.48,3.48,0,0,0-3.54-2.51c-2.7,0-3.86,2.12-3.86,4.48,0,2.54,1.16,4.6,3.89,4.6a3.15,3.15,0,0,0,3.48-3.17h-2.81V79.63Z"/></clipPath><clipPath id="clip-path-196"><path class="cls-1" d="M131.44,77.51h2.15V79a2.55,2.55,0,0,1,2.41-1.7,2.31,2.31,0,0,1,1.65.65l-1,1.8a1.74,1.74,0,0,0-1-.3c-1,0-2.1,1-2.1,3.24v3.81h-2.13Z"/></clipPath><clipPath id="clip-path-198"><path class="cls-1" d="M146.13,81.05v5.47h-1.81l-.14-1.2a3.38,3.38,0,0,1-2.81,1.38c-1.85,0-3.28-1.06-3.28-3s1.57-2.61,3.59-2.61h2.45c0-1.33-.45-1.9-1.88-1.9a2.42,2.42,0,0,0-2.12,1.27l-1.69-1.21a4.4,4.4,0,0,1,3.79-2,3.56,3.56,0,0,1,3.9,3.73m-2,1.75v-.07h-2.33c-1,0-1.46.53-1.46,1.09s.47,1,1.46,1a2.29,2.29,0,0,0,2.33-2"/></clipPath><clipPath id="clip-path-200"><path class="cls-1" d="M147.71,82c0-2.49,1.37-4.69,3.87-4.69a3.28,3.28,0,0,1,2.56,1.09V73.77h2.23V86.52h-2l-.1-1a3.15,3.15,0,0,1-2.62,1.2c-2.53,0-3.9-2.17-3.9-4.69m6.62,0c0-1.52-.67-2.7-2.19-2.7s-2.2,1.2-2.2,2.7.69,2.7,2.2,2.7,2.19-1.17,2.19-2.7"/></clipPath><clipPath id="clip-path-202"><path class="cls-1" d="M158.22,82.05c0-2.35,1.37-4.73,4.42-4.73s4.18,2.53,4.18,4.55a3.78,3.78,0,0,1-.08.86h-6.19a2.09,2.09,0,0,0,2.25,2,2.73,2.73,0,0,0,2.17-1l1.51,1.33a4.7,4.7,0,0,1-3.69,1.62A4.35,4.35,0,0,1,158.22,82.05Zm6.43-.91a2.1,2.1,0,0,0-.07-.56,1.87,1.87,0,0,0-2-1.41c-1.3,0-1.86.85-2.07,2Z"/></clipPath><clipPath id="clip-path-204"><path class="cls-1" d="M179.13,73.77V86.52h-2.25v-9h-3V75.77h1.7c.87,0,1.37-.37,1.37-1.22v-.78Z"/></clipPath><clipPath id="clip-path-206"><path class="cls-1" d="M176.18,106.67H23.61a3.18,3.18,0,0,1,0-6.36H176.18a3.18,3.18,0,0,1,0,6.36"/></clipPath><clipPath id="clip-path-208"><path class="cls-1" d="M23.61,100.31a3.18,3.18,0,0,0,0,6.36h25v-6.36Z"/></clipPath><clipPath id="clip-path-210"><rect class="cls-2" x="16" y="98" width="34" height="11"/></clipPath><clipPath id="clip-path-211"><rect class="cls-2" x="16.09" y="98.28" width="33.2" height="10.43"/></clipPath><clipPath id="clip-path-212"><rect class="cls-2" x="20" y="100" width="29" height="7"/></clipPath><clipPath id="clip-path-215"><rect class="cls-2" x="25" y="116" width="149" height="109"/></clipPath><clipPath id="clip-path-216"><path class="cls-1" d="M25.6,175h32V164.85h-32ZM27,173.63H56.23v-7.37H27Z"/></clipPath><clipPath id="clip-path-218"><path class="cls-1" d="M67.08,139l-5.89-3.4L67.29,125l5.89,3.4Zm-4-3.92,3.44,2,4.69-8.12-3.44-2Z"/></clipPath><clipPath id="clip-path-220"><path class="cls-1" d="M35,151.81a9.52,9.52,0,1,1,9.52-9.52A9.53,9.53,0,0,1,35,151.81m0-17.63a8.11,8.11,0,1,0,8.11,8.11A8.12,8.12,0,0,0,35,134.18"/></clipPath><clipPath id="clip-path-222"><path class="cls-1" d="M35,149a6.72,6.72,0,0,1-6.54-5.24,6.72,6.72,0,0,1,5.08-8,6.72,6.72,0,0,1,8,5.08A6.7,6.7,0,0,1,35,149m0-12a5,5,0,0,0-1.15.13,5.29,5.29,0,1,0,6.31,4A5.3,5.3,0,0,0,35,137"/></clipPath><clipPath id="clip-path-224"><path class="cls-1" d="M46,130.26A6.69,6.69,0,0,1,39.43,125,6.71,6.71,0,1,1,46,130.26m0-12a5.65,5.65,0,0,0-1.16.13,5.22,5.22,0,1,0,1.16-.13"/></clipPath><clipPath id="clip-path-226"><path class="cls-1" d="M35,146.17a3.88,3.88,0,1,1,3.88-3.88A3.88,3.88,0,0,1,35,146.17m0-6.35a2.47,2.47,0,1,0,2.47,2.47A2.48,2.48,0,0,0,35,139.82"/></clipPath><clipPath id="clip-path-228"><rect class="cls-2" x="32.56" y="150.38" width="1.41" height="15.19" transform="translate(-28.9 8.99) rotate(-10.76)"/></clipPath><clipPath id="clip-path-230"><rect class="cls-2" x="43.35" y="147.87" width="1.41" height="18.09" transform="translate(-50.16 23.92) rotate(-19.63)"/></clipPath><clipPath id="clip-path-232"><rect class="cls-2" x="29.8" y="128.76" width="12.37" height="1.41" transform="translate(-84.36 69.68) rotate(-48.05)"/></clipPath><clipPath id="clip-path-234"><rect class="cls-2" x="39.82" y="133.94" width="11.12" height="1.41" transform="translate(-96.67 131.58) rotate(-70.14)"/></clipPath><clipPath id="clip-path-236"><path class="cls-1" d="M46,128.13a4.57,4.57,0,1,1,1-.11,4.17,4.17,0,0,1-1,.11m0-7.73a3.25,3.25,0,0,0-.69.08,3.17,3.17,0,0,0-2,1.39,3.12,3.12,0,0,0-.41,2.38A3.16,3.16,0,1,0,46,120.4"/></clipPath><clipPath id="clip-path-238"><rect class="cls-2" x="57.9" y="115.46" width="1.41" height="17.17" transform="translate(-78.55 121.03) rotate(-63.45)"/></clipPath><clipPath id="clip-path-240"><rect class="cls-2" x="56.23" y="123.38" width="1.41" height="14.16" transform="translate(-85.35 126.34) rotate(-64.77)"/></clipPath><clipPath id="clip-path-242"><polygon class="cls-1" points="79.08 139.19 74.68 132.86 70.27 132.51 70.38 131.1 75.46 131.51 78.97 136.57 79.75 135.23 76.16 130.32 71.75 129.97 71.86 128.56 76.92 128.97 81.43 135.15 79.08 139.19"/></clipPath><clipPath id="clip-path-244"><polygon class="cls-1" points="76.95 142.97 69.34 142.11 66.49 137.91 67.65 137.12 70.15 140.78 76.19 141.47 76.97 140.13 70.83 139.58 67.97 135.37 69.13 134.58 71.62 138.24 79.3 138.93 76.95 142.97"/></clipPath><clipPath id="clip-path-246"><rect class="cls-2" x="101.32" y="125.01" width="72.62" height="1.82"/></clipPath><clipPath id="clip-path-248"><rect class="cls-2" x="101.32" y="133.11" width="60.06" height="1.82"/></clipPath><clipPath id="clip-path-250"><rect class="cls-2" x="101.32" y="141.21" width="67.43" height="1.82"/></clipPath><clipPath id="clip-path-252"><rect class="cls-2" x="101.32" y="149.31" width="56" height="1.82"/></clipPath><clipPath id="clip-path-254"><rect class="cls-2" x="101.32" y="157.41" width="64.86" height="1.82"/></clipPath><clipPath id="clip-path-256"><rect class="cls-2" x="101.32" y="165.51" width="41.87" height="1.82"/></clipPath><clipPath id="clip-path-258"><polygon class="cls-1" points="81 193 72 225 126 225 116 193 81 193"/></clipPath><clipPath id="clip-path-260"><path class="cls-1" d="M200,356A100,100,0,1,1,100,256,100,100,0,0,1,200,356"/></clipPath><clipPath id="clip-path-261"><path class="cls-1" d="M0,238V356a100,100,0,0,0,200,0V238Z"/></clipPath><clipPath id="clip-path-265"><path class="cls-1" d="M0,238V356a100,100,0,0,0,200,0V238"/></clipPath><clipPath id="clip-path-270"><path class="cls-1" d="M154.74,306s-1,11.41-9.51,14.27C155.69,325,169,315.51,169,315.51Z"/></clipPath><clipPath id="clip-path-271"><path class="cls-1" d="M39.5,267s1,11.41,9.51,14.27c-10.46,4.75-23.78-4.76-23.78-4.76Z"/></clipPath><clipPath id="clip-path-272"><path class="cls-1" d="M164.73,293h12a14.5,14.5,0,1,1,0,29h-12a14.5,14.5,0,0,1,0-29Z"/></clipPath><clipPath id="clip-path-273"><path class="cls-1" d="M18.73,254h12a14.5,14.5,0,0,1,0,29h-12a14.5,14.5,0,0,1,0-29Z"/></clipPath><clipPath id="clip-path-274"><path class="cls-1" d="M178.45,313.94v-2.2h2.22v2.2Zm.23-3.53V309.2c0-2.75,2.78-1.93,2.78-3.9,0-1.11-.79-1.61-1.93-1.61-1.34,0-1.91.72-1.91,2h-1.79a3.39,3.39,0,0,1,3.63-3.69c2,0,3.77,1.15,3.77,3.33,0,3.05-2.83,2.72-2.83,3.89v1.19Zm-8.53,3.53v-2.2h2.22v2.2Zm.23-3.53V309.2c0-2.75,2.78-1.93,2.78-3.9,0-1.11-.79-1.61-1.93-1.61-1.34,0-1.91.72-1.91,2h-1.79a3.39,3.39,0,0,1,3.63-3.69c2,0,3.77,1.15,3.77,3.33,0,3.05-2.83,2.72-2.83,3.89v1.19Zm-8.53,3.53v-2.2h2.23v2.2Zm.23-3.53V309.2c0-2.75,2.78-1.93,2.78-3.9,0-1.11-.78-1.61-1.93-1.61-1.34,0-1.91.72-1.91,2h-1.79a3.39,3.39,0,0,1,3.63-3.69c2,0,3.77,1.15,3.77,3.33,0,3.05-2.83,2.72-2.83,3.89v1.19Z"/></clipPath><clipPath id="clip-path-275"><path class="cls-1" d="M29.68,273.34,29,272.08l6.35-3.62L29,264.83l.73-1.25,8.55,4.88Zm-8.75,3.15L26.75,262h1.78l-5.81,14.49Zm-1.15-3.15-8.55-4.88,8.55-4.88.73,1.25-6.35,3.63,6.35,3.62Z"/></clipPath><clipPath id="clip-path-276"><path class="cls-1" d="M200,591.89a100,100,0,1,1-100-100,100,100,0,0,1,100,100"/></clipPath><clipPath id="clip-path-277"><path class="cls-1" d="M18.83,476,0,592.89a100,100,0,0,0,198.65,16.5c.11-.68-15.22-62.48-13.87-67.06C194,511.12,181.62,476,181.62,476Z"/></clipPath></defs><title>RGB</title><g class="cls-181"><g class="cls-182"><rect class="cls-183" x="-5" y="13" width="210" height="210"/></g></g><g class="cls-184"><g class="cls-182"><g class="cls-185"><g class="cls-186"><g class="cls-187"><g class="cls-188"><rect class="cls-189" x="-5" y="49" width="209.79" height="151.67"/></g></g></g></g></g></g><g class="cls-190"><g class="cls-182"><g class="cls-185"><g class="cls-191"><g class="cls-192"><g class="cls-188"><rect class="cls-193" x="4.08" y="59.9" width="191.62" height="129.87"/></g></g><g class="cls-194"><g class="cls-188"><rect class="cls-195" x="4.08" y="59.9" width="191.62" height="39.06"/></g></g><g class="cls-196"><g class="cls-188"><rect class="cls-197" x="13.45" y="68.98" width="69.48" height="22.49"/></g></g><g class="cls-198"><g class="cls-188"><rect class="cls-197" x="112.02" y="68.57" width="21.95" height="23.13"/></g></g><g class="cls-199"><g class="cls-188"><rect class="cls-197" x="126.44" y="72.32" width="16.22" height="19.2"/></g></g><g class="cls-200"><g class="cls-188"><rect class="cls-197" x="133.09" y="72.32" width="18.04" height="19.38"/></g></g><g class="cls-201"><g class="cls-188"><rect class="cls-197" x="142.71" y="68.77" width="18.67" height="22.93"/></g></g><g class="cls-202"><g class="cls-188"><rect class="cls-197" x="153.22" y="72.32" width="18.6" height="19.38"/></g></g><g class="cls-203"><g class="cls-188"><rect class="cls-197" x="168.9" y="68.77" width="15.23" height="22.75"/></g></g><g class="cls-204"><g class="cls-188"><rect class="cls-197" x="15.43" y="95.31" width="168.92" height="16.36"/></g></g></g></g></g></g><g class="cls-205"><g class="cls-182"><g class="cls-185"><g class="cls-206"><g class="cls-207"><g class="cls-208"><rect class="cls-183" x="11.09" y="93.28" width="43.2" height="20.43"/></g></g></g></g></g></g><g class="cls-190"><g class="cls-182"><g class="cls-185"><g class="cls-209"><g class="cls-210"><g class="cls-188"><rect class="cls-195" x="20.6" y="159.85" width="42.04" height="20.19"/></g></g><g class="cls-211"><g class="cls-188"><rect class="cls-195" x="56.19" y="120.02" width="21.99" height="23.97"/></g></g><g class="cls-212"><g class="cls-188"><rect class="cls-195" x="20.5" y="127.77" width="29.03" height="29.03"/></g></g><g class="cls-213"><g class="cls-188"><rect class="cls-195" x="23.32" y="130.59" width="23.4" height="23.39"/></g></g><g class="cls-214"><g class="cls-188"><rect class="cls-195" x="34.27" y="111.86" width="23.4" height="23.4"/></g></g><g class="cls-215"><g class="cls-188"><rect class="cls-195" x="26.14" y="133.41" width="17.75" height="17.75"/></g></g><g class="cls-216"><g class="cls-188"><rect class="cls-195" x="26.16" y="145.38" width="14.22" height="25.19"/></g></g><g class="cls-217"><g class="cls-188"><rect class="cls-195" x="35.35" y="143.16" width="17.41" height="27.52"/></g></g><g class="cls-218"><g class="cls-188"><rect class="cls-195" x="26.32" y="119.4" width="19.32" height="20.15"/></g></g><g class="cls-219"><g class="cls-188"><rect class="cls-195" x="37.83" y="124.17" width="15.11" height="20.94"/></g></g><g class="cls-220"><g class="cls-188"><rect class="cls-195" x="36.4" y="113.99" width="19.14" height="19.14"/></g></g><g class="cls-221"><g class="cls-188"><rect class="cls-195" x="45.61" y="114.57" width="25.99" height="18.93"/></g></g><g class="cls-222"><g class="cls-188"><rect class="cls-195" x="45.23" y="121.8" width="23.41" height="17.31"/></g></g><g class="cls-223"><g class="cls-188"><rect class="cls-195" x="65.27" y="123.56" width="21.16" height="20.63"/></g></g><g class="cls-224"><g class="cls-188"><rect class="cls-195" x="61.49" y="129.58" width="22.81" height="18.39"/></g></g><g class="cls-225"><g class="cls-188"><rect class="cls-226" x="96.32" y="120.01" width="82.62" height="11.82"/></g></g><g class="cls-227"><g class="cls-188"><rect class="cls-226" x="96.32" y="128.11" width="70.06" height="11.82"/></g></g><g class="cls-228"><g class="cls-188"><rect class="cls-226" x="96.32" y="136.21" width="77.43" height="11.82"/></g></g><g class="cls-229"><g class="cls-188"><rect class="cls-226" x="96.32" y="144.31" width="66" height="11.82"/></g></g><g class="cls-230"><g class="cls-188"><rect class="cls-226" x="96.32" y="152.41" width="74.86" height="11.82"/></g></g><g class="cls-231"><g class="cls-188"><rect class="cls-226" x="96.32" y="160.51" width="51.87" height="11.82"/></g></g><g class="cls-232"><g class="cls-188"><rect class="cls-189" x="67" y="188" width="64" height="42"/></g></g></g></g></g></g></svg>