<svg id="Layer_1" data-name="Layer 1" xmlns="http://www.w3.org/2000/svg" viewBox="0 0 1097.33 230.47"><defs><style>.cls-1{fill:#0d82f2;}.cls-2{fill:#3ddc97;}</style></defs><title>RGB</title><path class="cls-1" d="M115.24,230.47A115.24,115.24,0,1,1,196.72,33.75l-18,18a89.81,89.81,0,1,0-63.5,153.32,88.89,88.89,0,0,0,34.75-7V123h25.42v90.83l-6.82,3.57A115.58,115.58,0,0,1,115.24,230.47Z"/><path class="cls-2" d="M108.76,135.45h39.33c-1.67,7.39-10.71,21.42-32.31,21.42-21.23,0-39.32-14.22-39.32-41.54,0-29.17,20.86-41,38.58-41,14.42,0,23.07,6.48,27.88,13.21l20.9-20.9C154.05,55.69,138.48,47,115,47c-36.92,0-68.12,27.14-68.12,68.31,0,41.35,29.91,68.12,66.27,68.12,18.65,0,31-7.75,36.74-16.06l.13,13.29h25.35v-70H108.76Z"/><path class="cls-1" d="M331,82.23a28.71,28.71,0,0,0-6.11-1.71,49.87,49.87,0,0,0-8.05-.56,36.74,36.74,0,0,0-13.1,2.43,29,29,0,0,0-11.4,8,40.79,40.79,0,0,0-8,14.43q-3,8.92-3,21.91A69.93,69.93,0,0,0,284,147.11a42.15,42.15,0,0,0,7.49,14.6,30.41,30.41,0,0,0,11.55,8.77,37.65,37.65,0,0,0,15.05,2.91,40.26,40.26,0,0,0,7.9-.73,35.26,35.26,0,0,0,6.75-2V154.41h12v21.9l.17.33a42.32,42.32,0,0,1-12.33,6.24,57.23,57.23,0,0,1-18.17,2.52,50.36,50.36,0,0,1-18.9-3.49,39.31,39.31,0,0,1-15-10.62A49.53,49.53,0,0,1,270.73,153q-3.5-11.11-3.49-26.36,0-15.9,3.9-27A50.26,50.26,0,0,1,281.68,81.5a40,40,0,0,1,15.49-10.31A54.5,54.5,0,0,1,316.07,68q5.52,0,9.57.41a56.49,56.49,0,0,1,7.14,1.13,27,27,0,0,1,5.44,1.87A46.16,46.16,0,0,1,342.84,74H343V99.58H331Z"/><path class="cls-1" d="M355.47,142.9q0-19.64,10.22-31.07t29.2-11.44a42.71,42.71,0,0,1,17.6,3.33,34.61,34.61,0,0,1,12.25,9A36.73,36.73,0,0,1,432,126.19a57.78,57.78,0,0,1,2.35,16.71,56.06,56.06,0,0,1-2.59,17.6,36.72,36.72,0,0,1-7.63,13.38,33.64,33.64,0,0,1-12.41,8.52,44.29,44.29,0,0,1-16.79,3,42.72,42.72,0,0,1-17.52-3.33,34.33,34.33,0,0,1-12.33-9,36.83,36.83,0,0,1-7.22-13.46A57.83,57.83,0,0,1,355.47,142.9Zm13.47,0a47.87,47.87,0,0,0,1.37,11.35,31.07,31.07,0,0,0,4.45,10.22,23.12,23.12,0,0,0,8,7.3,24.37,24.37,0,0,0,12.05,2.76q12.93,0,19.49-8t6.55-23.6a47.57,47.57,0,0,0-1.38-11.44A30.6,30.6,0,0,0,415,121.32a24.06,24.06,0,0,0-8.09-7.3,24.37,24.37,0,0,0-12.05-2.76q-12.94,0-19.4,7.95T368.94,142.9Z"/><path class="cls-1" d="M493.62,69.9h26.44v85.81c0,1,.05,2.19.16,3.65s.24,3,.41,4.63.35,3.21.57,4.78.43,2.95.65,4.14h10.86v10.54H511L509.35,171h-.64a28.69,28.69,0,0,1-10.6,10.3,31.48,31.48,0,0,1-16.26,4.14q-18.3,0-26.94-10.3t-8.66-32A52,52,0,0,1,449.16,125a35,35,0,0,1,8.33-13.14,36.18,36.18,0,0,1,13-8,49.51,49.51,0,0,1,17-2.76q3.39,0,6.06.17c1.78.11,3.43.27,4.94.48a33.83,33.83,0,0,1,4.29.9c1.35.38,2.83.78,4.44,1.21v-23H493.62ZM484,174.53q9.87,0,15.52-5.11t7.76-15.33V116.45a24.79,24.79,0,0,0-8-3.56,48.73,48.73,0,0,0-11.72-1.14q-12.93,0-20.37,7.54t-7.44,23.77a60.11,60.11,0,0,0,1.22,12.41,28,28,0,0,0,4,10,19.86,19.86,0,0,0,7.52,6.65A24.69,24.69,0,0,0,484,174.53Z"/><path class="cls-1" d="M613,173.23a41.38,41.38,0,0,1-6.9,4.87,51,51,0,0,1-8.68,3.89,64.36,64.36,0,0,1-9.81,2.52,60.28,60.28,0,0,1-10.3.89,45.88,45.88,0,0,1-17.2-3,33.14,33.14,0,0,1-12.49-8.6A37.33,37.33,0,0,1,540,160.42a55.32,55.32,0,0,1-2.6-17.52,53.9,53.9,0,0,1,2.84-18.17,35.12,35.12,0,0,1,8.19-13.3,35.82,35.82,0,0,1,13-8.2,48.55,48.55,0,0,1,17-2.84,51.82,51.82,0,0,1,13.47,1.79,26.61,26.61,0,0,1,11.76,6.73q5.1,4.95,7.87,13.63T613.43,145H550.82q0,14.61,7.84,21.82t21,7.22a36.24,36.24,0,0,0,8.65-1,72.22,72.22,0,0,0,8.17-2.51,43.67,43.67,0,0,0,6.88-3.25,30.48,30.48,0,0,0,4.61-3.24ZM578.79,111.1a43.38,43.38,0,0,0-10.11,1.14,23,23,0,0,0-8.4,3.81,21,21,0,0,0-6,7,28.11,28.11,0,0,0-3,10.63h50.29q-.81-10.71-6.87-16.63T578.79,111.1Z"/><path class="cls-2" d="M729.48,122.94v60.51H713.56l-1.74-15.76c-6,10.53-18.22,17.35-33.11,17.35-36.83,0-54.18-26.86-54.18-57.59s17-57.74,54-57.74c22,0,39.77,11.25,48.8,32.16l-17.83,7.44c-5.15-15.21-16.87-22-31.13-22-23.68,0-33.9,18.62-33.9,39.37,0,22.26,10.22,40.4,34.22,40.4,17.51,0,29.86-9.67,30.5-27.89H684.57V122.94Z"/><path class="cls-2" d="M744.56,104.32h18.85v13.31a22.54,22.54,0,0,1,21.23-15,20.32,20.32,0,0,1,14.49,5.7l-8.79,15.84a15.44,15.44,0,0,0-8.63-2.69c-9,0-18.46,8.4-18.46,28.52v33.42H744.56Z"/><path class="cls-2" d="M865.21,135.45v48H849.29l-1.19-10.53C843,181.08,832.42,185,823.39,185c-16.24,0-28.75-9.35-28.75-25.9,0-17.19,13.78-22.9,31.52-22.9h21.47c-.4-11.72-3.88-16.71-16.48-16.71-9.11,0-15.21,5.39-18.61,11.17L797.73,120c7.6-10.38,17.66-17.35,33.26-17.35C852.54,102.66,865.21,116.12,865.21,135.45Zm-17.5,15.37v-.64H827.27c-8.79,0-12.83,4.6-12.83,9.59,0,5.23,4.2,8.95,12.83,8.95C839.15,168.72,846.52,160.16,847.71,150.82Z"/><path class="cls-2" d="M872.63,143.85c0-21.86,12-41.19,34-41.19,8.23,0,17,2.77,22.49,9.58V71.53h19.65V183.45h-18l-.87-8.95c-5.46,7.53-14.25,10.54-23,10.54C884.67,185,872.63,166,872.63,143.85Zm58.13,0c0-13.31-5.86-23.69-19.16-23.69s-19.33,10.54-19.33,23.69c0,13.31,6,23.68,19.33,23.68S930.76,157.31,930.76,143.85Z"/><path class="cls-2" d="M957.39,144.16c0-20.59,12-41.5,38.82-41.5,27.72,0,36.67,22.26,36.67,39.92a31.72,31.72,0,0,1-.71,7.6H977.83c1.66,10.38,7.37,17.35,19.8,17.35a24,24,0,0,0,19-8.39L1030,170.78c-8.63,9.58-19.17,14.26-32.48,14.26C970.23,185,957.39,165.47,957.39,144.16Zm56.48-7.92a17.47,17.47,0,0,0-.63-5c-2-8.15-8.8-12.35-17.19-12.35-11.41,0-16.4,7.44-18.22,17.34Z"/><path class="cls-2" d="M1032.62,162.86l15.37-6.81c2.13,5.7,6.33,13,16.87,13,9,0,12.83-5.23,12.83-9.43,0-13.31-39.76-4.36-39.76-32.32,0-16.71,14.1-24.63,29.38-24.63,13.63,0,24,6.49,30,17.19l-15,8.16c-2.69-4.91-7.13-10.06-15.68-10.06-6.34,0-10.22,3.09-10.22,6.81,0,12,40.24,4.83,40.24,33.9,0,18.3-15.92,26.38-30.89,26.38C1049.17,185,1036.5,175.06,1032.62,162.86Z"/></svg>