<svg id="Layer_1" data-name="Layer 1" xmlns="http://www.w3.org/2000/svg" xmlns:xlink="http://www.w3.org/1999/xlink" viewBox="0 0 64 64"><defs><style>.cls-1,.cls-2{fill:none;}.cls-1{clip-rule:evenodd;}.cls-3{clip-path:url(#clip-path);}.cls-4{clip-path:url(#clip-path-2);}.cls-5{clip-path:url(#clip-path-3);}.cls-6{clip-path:url(#clip-path-4);}.cls-7{clip-path:url(#clip-path-5);}.cls-8{clip-path:url(#clip-path-6);}.cls-9{clip-path:url(#clip-path-7);}.cls-10{clip-path:url(#clip-path-8);}.cls-11{fill:#3ddc97;}.cls-12{clip-path:url(#clip-path-9);}.cls-13{isolation:isolate;}.cls-14{clip-path:url(#clip-path-11);}.cls-15{clip-path:url(#clip-path-12);}.cls-16{clip-path:url(#clip-path-13);}.cls-17{clip-path:url(#clip-path-14);}.cls-18{clip-path:url(#clip-path-16);}.cls-19{clip-path:url(#clip-path-18);}.cls-20{clip-path:url(#clip-path-20);}.cls-21{clip-path:url(#clip-path-22);}.cls-22{clip-path:url(#clip-path-24);}.cls-23{clip-path:url(#clip-path-26);}.cls-24{clip-path:url(#clip-path-27);}.cls-25{clip-path:url(#clip-path-28);}.cls-26{clip-path:url(#clip-path-29);}.cls-27{clip-path:url(#clip-path-31);}.cls-28{clip-path:url(#clip-path-33);}.cls-29{clip-path:url(#clip-path-35);}.cls-30{clip-path:url(#clip-path-37);}.cls-31{clip-path:url(#clip-path-39);}.cls-32{clip-path:url(#clip-path-40);}.cls-33{clip-path:url(#clip-path-41);}.cls-34{clip-path:url(#clip-path-42);}.cls-35{clip-path:url(#clip-path-43);}.cls-36{clip-path:url(#clip-path-44);}.cls-37{clip-path:url(#clip-path-45);}.cls-38{clip-path:url(#clip-path-46);}.cls-39{clip-path:url(#clip-path-47);}.cls-40{clip-path:url(#clip-path-48);}.cls-41{clip-path:url(#clip-path-49);}.cls-42{clip-path:url(#clip-path-50);}.cls-43{clip-path:url(#clip-path-51);}.cls-44{clip-path:url(#clip-path-52);}</style><clipPath id="clip-path"><path class="cls-1" d="M137.37,43a4.27,4.27,0,0,1,2.53,2.12l0,0a4.25,4.25,0,0,1-2.06,5.76l-15.08,6.72A23.26,23.26,0,0,1,109.15,59L92.6,56A1.17,1.17,0,0,1,93,53.7l16.55,3a21,21,0,0,0,12.29-1.13l15.08-6.72a1.87,1.87,0,0,0,.93-2.56,1.81,1.81,0,0,0-1.12-1,2.41,2.41,0,0,0-1.35.07l-6.78,2.4a1.16,1.16,0,0,1-1.16-.2,1.19,1.19,0,0,1-.39-1.12,1.16,1.16,0,0,1,.78-.88l6.8-2.41h0a4.62,4.62,0,0,1,2.72-.09Z"/></clipPath><clipPath id="clip-path-2"><path class="cls-1" d="M100.37,37.65a11.31,11.31,0,0,1,7,1.42l6.23,3.56h7.43a4.27,4.27,0,0,1,4.25,4.22l0,.82v0a4.2,4.2,0,0,1-4.18,4.24H109.38a1.17,1.17,0,0,1-1-.58,1.16,1.16,0,0,1,1-1.75h11.78A1.84,1.84,0,0,0,123,47.72l0-.82v0A1.92,1.92,0,0,0,121.07,45h-7.74a1.16,1.16,0,0,1-.57-.15l-6.49-3.72A9.07,9.07,0,0,0,100.66,40l-7.42.93a1.15,1.15,0,0,1-1.08-.44A1.17,1.17,0,0,1,92,39.28a1.18,1.18,0,0,1,.94-.7Z"/></clipPath><clipPath id="clip-path-3"><path class="cls-1" d="M107,26.8h0l-.05,0Zm7.41-19.93a15,15,0,0,1,6.92,1.3,1.16,1.16,0,0,0,.82,0c5.39-1.81,8.79-1.8,13.53.72V26.48c-4.86-2-8.85-2.31-13.91-.31a16.71,16.71,0,0,0-13.91.3V8.71a21.94,21.94,0,0,1,6.55-1.84Zm-.12-2.25a24.44,24.44,0,0,0-7.71,2.1,1.53,1.53,0,0,0-1.06,1.57V27.36a1.78,1.78,0,0,0,.77,1.48,1.81,1.81,0,0,0,1.66.08l.05,0c4.81-2.38,8.24-2.52,13.33-.44a1.17,1.17,0,0,0,.9,0c5.16-2.16,8.19-1.81,13.36.46a1.67,1.67,0,0,0,2.43-1.56V8.53a1.5,1.5,0,0,0-.89-1.5c-5.24-2.88-9.7-2.95-15.34-1.13a17.18,17.18,0,0,0-7.5-1.28Z"/></clipPath><clipPath id="clip-path-4"><path class="cls-1" d="M121.79,6.9a1.16,1.16,0,0,0-1.14,1.18v4.67a1.14,1.14,0,0,0,.58,1,1.17,1.17,0,0,0,1.17,0,1.15,1.15,0,0,0,.57-1V8.08a1.18,1.18,0,0,0-.34-.84A1.14,1.14,0,0,0,121.79,6.9Z"/></clipPath><clipPath id="clip-path-5"><ellipse class="cls-2" cx="121.81" cy="16.83" rx="1.16" ry="1.17"/></clipPath><clipPath id="clip-path-6"><path class="cls-1" d="M121.79,19.73a1.16,1.16,0,0,0-1.14,1.18v5.84a1.14,1.14,0,0,0,.58,1,1.17,1.17,0,0,0,1.17,0,1.15,1.15,0,0,0,.57-1V20.91a1.2,1.2,0,0,0-.34-.84A1.18,1.18,0,0,0,121.79,19.73Z"/></clipPath><clipPath id="clip-path-7"><path class="cls-1" d="M28.11,13.17a7,7,0,0,0-5.05,2.26c-1.46,1.7-1.66,4-1.68,5.9a11.34,11.34,0,0,0,1.6,6.3,9.79,9.79,0,0,0,5.39,4.25,5.2,5.2,0,0,0,2.56-.12A11,11,0,0,0,32,31.47a11,11,0,0,0,1.07.29,5.21,5.21,0,0,0,2.56.12A9.79,9.79,0,0,0,41,27.63a11.43,11.43,0,0,0,1.6-6.3,1,1,0,0,0-1.93,0v0a9.66,9.66,0,0,1-1.29,5.23A8.1,8.1,0,0,1,35.13,30a5.78,5.78,0,0,1-1.64-.14,11,11,0,0,1-1.18-.32.94.94,0,0,0-.62,0,11.88,11.88,0,0,1-1.18.32,5.42,5.42,0,0,1-1.64.14,8.06,8.06,0,0,1-4.27-3.44,9.66,9.66,0,0,1-1.29-5.23c0-1.75.29-3.59,1.22-4.66a5.3,5.3,0,0,1,3.63-1.59,6.49,6.49,0,0,1,2,.62c.74.35,1.32.69,1.32.69a1,1,0,0,0,1,0s.58-.34,1.32-.69a6.94,6.94,0,0,1,2-.62,5.31,5.31,0,0,1,3.64,1.59,1,1,0,0,0,1.47-1.26,7,7,0,0,0-5.06-2.26A6.5,6.5,0,0,0,33,14a10.28,10.28,0,0,0-1,.52c-.26-.14-.45-.26-1-.52a6.63,6.63,0,0,0-2.89-.8Z"/></clipPath><clipPath id="clip-path-8"><rect class="cls-2" x="-565.59" y="-1858.48" width="1440" height="4099"/></clipPath><clipPath id="clip-path-9"><rect class="cls-2" x="33.45" y="5.45" width="7.72" height="6.76"/></clipPath><clipPath id="clip-path-11"><rect class="cls-2" x="32.41" y="4.52" width="9" height="8"/></clipPath><clipPath id="clip-path-12"><path class="cls-1" d="M40.21,5.45a18,18,0,0,0-1.88.12,5.57,5.57,0,0,0-3.1,1.08,5.14,5.14,0,0,0-1.41,2.74,15.3,15.3,0,0,0-.36,1.72,1,1,0,0,0,.82,1.09,1.13,1.13,0,0,0,.26,0,18.58,18.58,0,0,0,1.86-.36,6.63,6.63,0,0,0,3-1.34,5.31,5.31,0,0,0,1.32-2.4c.27-.8.42-1.48.42-1.48a1,1,0,0,0-.74-1.15A.68.68,0,0,0,40.21,5.45Zm-1.3,2v0a5.62,5.62,0,0,1-.8,1.59,6.9,6.9,0,0,1-2.17.89l-.28,0c0-.06,0-.06,0-.12a5.7,5.7,0,0,1,.82-1.79,5.64,5.64,0,0,1,2.08-.62c.18,0,.17,0,.33,0Z"/></clipPath><clipPath id="clip-path-13"><rect class="cls-2" x="33.41" y="4.52" width="8" height="8"/></clipPath><clipPath id="clip-path-14"><path class="cls-1" d="M28.65,7.86a1,1,0,0,0-1,.93,1,1,0,0,0,.5.88l.46.27A4.79,4.79,0,0,1,31,14.11v1a1,1,0,0,0,1,1,1,1,0,0,0,1-1v-1a6.74,6.74,0,0,0-3.39-5.85L29.11,8a.94.94,0,0,0-.46-.13Z"/></clipPath><clipPath id="clip-path-16"><path class="cls-1" d="M9.31,45a2.92,2.92,0,0,0-2.9,2.9v7.73a2.91,2.91,0,0,0,2.9,2.89h44.4a1,1,0,0,0,0-1.93H9.31a1,1,0,0,1-1-1V47.93a1,1,0,0,1,1-1h44.4a1,1,0,0,0,0-1.94Z"/></clipPath><clipPath id="clip-path-18"><path class="cls-1" d="M11.71,45.5a1,1,0,0,0-1,1v7.71a1,1,0,0,0,1,1,.94.94,0,0,0,.53-.16l2.36-1.56L17,55a1,1,0,0,0,1.34-.27,1,1,0,0,0,.16-.54V49.38a1,1,0,1,0-1.93,0v3l-1.39-.93a1,1,0,0,0-1.08,0l-1.39.93V46.48a1,1,0,0,0-.95-1Z"/></clipPath><clipPath id="clip-path-20"><path class="cls-1" d="M10.29,33.45a1,1,0,1,0,0,1.93h44.4a1,1,0,0,1,1,1v7.73a1,1,0,0,1-1,1H10.29a1,1,0,0,0,0,1.94h44.4a2.92,2.92,0,0,0,2.9-2.9V36.34a2.91,2.91,0,0,0-2.9-2.89Z"/></clipPath><clipPath id="clip-path-22"><path class="cls-1" d="M52.26,33.44a1,1,0,0,0-.95,1v5.91l-1.4-.92a1,1,0,0,0-1.07,0l-1.39.92V37.8a1,1,0,1,0-1.93,0v4.34a1,1,0,0,0,1,1,1,1,0,0,0,.54-.16l2.36-1.57,2.36,1.57a1,1,0,0,0,1.34-.27.93.93,0,0,0,.16-.54V34.42a1,1,0,0,0-1-1Z"/></clipPath><clipPath id="clip-path-24"><rect class="cls-2" x="6.41" y="5.45" width="51.17" height="53.1"/></clipPath><clipPath id="clip-path-26"><rect class="cls-2" x="10.41" y="33.52" width="43" height="25"/></clipPath><clipPath id="clip-path-27"><rect class="cls-2" x="10.76" y="34.41" width="1.93" height="11.59"/></clipPath><clipPath id="clip-path-28"><rect class="cls-2" x="6.41" y="4.52" width="52" height="55"/></clipPath><clipPath id="clip-path-29"><rect class="cls-2" x="51.31" y="46" width="1.93" height="11.59"/></clipPath><clipPath id="clip-path-31"><rect class="cls-2" x="15.59" y="37.31" width="27.03" height="1.93"/></clipPath><clipPath id="clip-path-33"><rect class="cls-2" x="15.59" y="41.17" width="27.03" height="1.93"/></clipPath><clipPath id="clip-path-35"><rect class="cls-2" x="21.38" y="48.9" width="27.03" height="1.93"/></clipPath><clipPath id="clip-path-37"><rect class="cls-2" x="21.38" y="52.76" width="27.03" height="1.93"/></clipPath><clipPath id="clip-path-39"><rect class="cls-2" x="-58" y="16" width="2" height="42.99"/></clipPath><clipPath id="clip-path-40"><path class="cls-1" d="M-51,14.49a1,1,0,0,0-1,1v26a1,1,0,0,0,1,1,1,1,0,0,0,1-1v-26a1,1,0,0,0-1-1h0"/></clipPath><clipPath id="clip-path-41"><path class="cls-1" d="M-83,10a1,1,0,0,0-1,1V54a1,1,0,0,0,.82,1l26.5,5,.18,0h5l.19,0,26.5-5A1,1,0,0,0-24,54V11a1,1,0,0,0-1-1l-.18,0-26.41,5h-4.82l-26.4-5A.68.68,0,0,0-83,10Zm1,2.21L-56.68,17a.55.55,0,0,0,.18,0h5a.62.62,0,0,0,.19,0L-26,12.21v41L-51.59,58h-4.82L-82,53.17Z"/></clipPath><clipPath id="clip-path-42"><path class="cls-1" d="M-78,6a1,1,0,0,0-1,1v4.5a1,1,0,0,0,1,1,1,1,0,0,0,1-1v-3l20.62,8.43a1,1,0,0,0,1.3-.54,1,1,0,0,0-.54-1.31l-22-9A1.07,1.07,0,0,0-78,6"/></clipPath><clipPath id="clip-path-43"><path class="cls-1" d="M-72,4a1,1,0,0,0-1,1V9a1,1,0,0,0,1,1,1,1,0,0,0,1-1V6.81l16,10a1,1,0,0,0,1.38-.28,1,1,0,0,0-.27-1.38s0,0,0,0l-17.5-11A1,1,0,0,0-72,4Z"/></clipPath><clipPath id="clip-path-44"><path class="cls-1" d="M-30,6a1,1,0,0,0-.35.07l-22,9a1,1,0,0,0-.55,1.31,1,1,0,0,0,1.31.55h0L-31,8.49v3a1,1,0,0,0,1,1,1,1,0,0,0,1-1V7a1,1,0,0,0-1-1Z"/></clipPath><clipPath id="clip-path-45"><path class="cls-1" d="M-36,4a1,1,0,0,0-.5.16l-17.5,11a1,1,0,0,0-.35,1.37,1,1,0,0,0,1.37.35l0,0,16-10V9a1,1,0,0,0,1,1,1,1,0,0,0,1-1V5a1,1,0,0,0-1-1Z"/></clipPath><clipPath id="clip-path-46"><path class="cls-1" d="M-30,19.5l-.15,0-14.36,2.71a1,1,0,0,0-.81,1v8a1,1,0,0,0,1,1l.18,0,14.36-2.71a1,1,0,0,0,.81-1v-8a1,1,0,0,0-1-1Zm-1,2.21v6L-43.35,30V24Z"/></clipPath><clipPath id="clip-path-47"><path class="cls-1" d="M-30,31.5l-.17,0-7.17,1.35A1,1,0,0,0-38.17,34a1,1,0,0,0,1.15.81h0l7.18-1.36a1,1,0,0,0,.8-1.16,1,1,0,0,0-1-.82Z"/></clipPath><clipPath id="clip-path-48"><path class="cls-1" d="M-51,47.48a1,1,0,0,0-1,1v10a1,1,0,0,0,1,1,1,1,0,0,0,1-1v-10a1,1,0,0,0-1-1Z"/></clipPath><clipPath id="clip-path-49"><path class="cls-1" d="M-50,45a1,1,0,0,1-1,1,1,1,0,0,1-1-1,1,1,0,0,1,1-1,1,1,0,0,1,1,1"/></clipPath><clipPath id="clip-path-50"><path class="cls-1" d="M128.07,128.77l5,1.13-5.65-10.43a15.32,15.32,0,0,1-3.42,3.35,14.84,14.84,0,0,1-4.33,2.14l5.15,9.38,1.68-4.73a1.45,1.45,0,0,1,.65-.71A1.23,1.23,0,0,1,128.07,128.77Zm-24.64-18a11.75,11.75,0,0,0,.95,4.67A11.89,11.89,0,0,0,107,119.3a12.83,12.83,0,0,0,3.84,2.6,11.89,11.89,0,0,0,9.36,0,12.1,12.1,0,0,0,6.41-6.43,12.07,12.07,0,0,0,0-9.34,12.27,12.27,0,0,0-2.57-3.84,12.52,12.52,0,0,0-3.84-2.6,11.89,11.89,0,0,0-9.36,0,13,13,0,0,0-3.84,2.6,11.83,11.83,0,0,0-2.59,3.84A11.68,11.68,0,0,0,103.43,110.8Zm2.77,23.5,5-9.38a15.11,15.11,0,0,1-4.26-2.1,14.56,14.56,0,0,1-3.33-3.27L98,129.9l5-1.13a1.23,1.23,0,0,1,.94.13,1.45,1.45,0,0,1,.65.71Zm30.63-3.06a1.13,1.13,0,0,1,.16.74,1.36,1.36,0,0,1-.29.73,1.33,1.33,0,0,1-.59.44,1.08,1.08,0,0,1-.75,0l-6.75-1.51-2.3,6.41a1.18,1.18,0,0,1-.44.61,1.47,1.47,0,0,1-.69.27h-.13a1.28,1.28,0,0,1-.69-.19,1.21,1.21,0,0,1-.48-.52l-7-12.78q-.33,0-.69.06c-.24,0-.47,0-.69,0s-.5,0-.75,0-.51,0-.76-.06l-6.87,12.78a1.21,1.21,0,0,1-.48.52,1.28,1.28,0,0,1-.69.19h-.09a1.5,1.5,0,0,1-.73-.27,1.18,1.18,0,0,1-.44-.61l-2.3-6.41-6.75,1.51a1.08,1.08,0,0,1-.75,0,1.22,1.22,0,0,1-.59-.48A1.19,1.19,0,0,1,94,132a1.13,1.13,0,0,1,.16-.74l7.88-14.37a14.79,14.79,0,0,1-1.3-6.07,14.49,14.49,0,0,1,1.15-5.74,14.82,14.82,0,0,1,7.86-7.86,14.9,14.9,0,0,1,11.48,0,14.66,14.66,0,0,1,4.67,3.16,15.24,15.24,0,0,1,3.16,4.7,14,14,0,0,1,1.18,5.74,13.65,13.65,0,0,1-.34,3.08,16.84,16.84,0,0,1-.92,2.87Z"/></clipPath><clipPath id="clip-path-51"><path class="cls-1" d="M51.33,130.72c.4,0,.62-.27.66-.8s.07-1,.07-1.4v-21l-19.6,15.66a1.68,1.68,0,0,1-.46.27,1.43,1.43,0,0,1-1,0,1.68,1.68,0,0,1-.46-.27l-19.6-15.66v21a2.25,2.25,0,0,0,.8,1.4,2.23,2.23,0,0,0,1.4.8ZM12.45,104.28a6,6,0,0,0-.73,0L31.5,120.12l19.83-15.84Zm42.5.37a.41.41,0,0,1,0,.18v23.69a7.08,7.08,0,0,1-.92,3.48,3,3,0,0,1-2.75,1.66H13.14A4.9,4.9,0,0,1,9.65,132,4.9,4.9,0,0,1,8,128.52V104.83a.41.41,0,0,1,.05-.18.94.94,0,0,1,0-.62,1.48,1.48,0,0,1,.32-.57,1.25,1.25,0,0,0,.09-.12.31.31,0,0,1,.14-.11,4.21,4.21,0,0,1,2-1.4,7,7,0,0,1,2.59-.49H51.33a4.07,4.07,0,0,1,2.36.62,2.93,2.93,0,0,1,1.17,1.86,1.27,1.27,0,0,1,.12.39A1.66,1.66,0,0,1,55,104.65Z"/></clipPath><clipPath id="clip-path-52"><path class="cls-1" d="M-54.48,95a12.52,12.52,0,0,1,4.6.88,15.69,15.69,0,0,1,4.05,2.29,13.07,13.07,0,0,1,2.9,3.16,6.51,6.51,0,0,1,1.12,3.52v7a20,20,0,0,1-.26,3,19.7,19.7,0,0,1-.88,3.41,16.91,16.91,0,0,1-1.63,3.34A11,11,0,0,1-47,124.34l12.27,5.85,1.38.77A2.27,2.27,0,0,1-32,133v4.27a2.7,2.7,0,0,1-.81,2,2.7,2.7,0,0,1-2,.81H-74.18a2.75,2.75,0,0,1-2-.81,2.7,2.7,0,0,1-.81-2V133a2.33,2.33,0,0,1,1.41-2l1.41-.81,12.36-5.85a10.45,10.45,0,0,1-2.51-2.86A18.74,18.74,0,0,1-66,118.07a17.42,17.42,0,0,1-.9-3.39,17.75,17.75,0,0,1-.27-2.79v-7a6.65,6.65,0,0,1,1.1-3.52,12.77,12.77,0,0,1,2.88-3.16,15.65,15.65,0,0,1,4.07-2.29A12.75,12.75,0,0,1-54.48,95Zm0,2.82A9.66,9.66,0,0,0-58,98.5a13.25,13.25,0,0,0-3.17,1.73,10.18,10.18,0,0,0-2.26,2.29,4.08,4.08,0,0,0-.86,2.33v7a18,18,0,0,0,1,5.28,10.12,10.12,0,0,0,3.24,5,2.7,2.7,0,0,1,.85,1.12,2.79,2.79,0,0,1,.2,1.43,3.32,3.32,0,0,1-.55,1.3,2.62,2.62,0,0,1-1.08.9L-73,132.74a3.32,3.32,0,0,0-.72.42,1.38,1.38,0,0,0-.46,1.21v2.86l39.36,0v-2.72c0-.76-.18-1.24-.55-1.43a4.7,4.7,0,0,0-.59-.29l-12.27-5.8a2.85,2.85,0,0,1-1.1-.91,2.77,2.77,0,0,1-.53-1.34,2.79,2.79,0,0,1,.2-1.43,2.73,2.73,0,0,1,.86-1.12,9.43,9.43,0,0,0,3.23-5,19.77,19.77,0,0,0,1-5.26v-7a4.15,4.15,0,0,0-.88-2.37,10.61,10.61,0,0,0-2.27-2.27,12.8,12.8,0,0,0-3.17-1.71A9.67,9.67,0,0,0-54.48,97.82Z"/></clipPath></defs><title>CG</title><g class="cls-9"><g class="cls-10"><rect class="cls-11" x="16.38" y="8.17" width="31.24" height="28.83"/></g></g><g class="cls-12"><g class="cls-10"><g class="cls-13"><g class="cls-14"><g class="cls-15"><g class="cls-16"><rect class="cls-11" x="28.45" y="0.45" width="17.72" height="16.76"/></g></g></g></g></g></g><g class="cls-17"><g class="cls-10"><rect class="cls-11" x="22.65" y="2.86" width="15.31" height="18.21"/></g></g><g class="cls-18"><g class="cls-10"><rect class="cls-11" x="1.41" y="40.03" width="58.26" height="23.52"/></g></g><g class="cls-19"><g class="cls-10"><rect class="cls-11" x="5.76" y="40.5" width="17.72" height="19.66"/></g></g><g class="cls-20"><g class="cls-10"><rect class="cls-11" x="4.32" y="28.45" width="58.26" height="23.52"/></g></g><g class="cls-21"><g class="cls-10"><rect class="cls-11" x="40.52" y="28.44" width="17.72" height="19.66"/></g></g><g class="cls-22"><g class="cls-10"><g class="cls-13"><g class="cls-23"><g class="cls-24"><g class="cls-25"><rect class="cls-11" x="5.76" y="29.41" width="11.93" height="21.59"/></g></g><g class="cls-26"><g class="cls-25"><rect class="cls-11" x="46.31" y="41" width="11.93" height="21.59"/></g></g><g class="cls-27"><g class="cls-25"><rect class="cls-11" x="10.59" y="32.31" width="37.03" height="11.93"/></g></g><g class="cls-28"><g class="cls-25"><rect class="cls-11" x="10.59" y="36.17" width="37.03" height="11.93"/></g></g><g class="cls-29"><g class="cls-25"><rect class="cls-11" x="16.38" y="43.9" width="37.03" height="11.93"/></g></g><g class="cls-30"><g class="cls-25"><rect class="cls-11" x="16.38" y="47.76" width="37.03" height="11.93"/></g></g></g></g></g></g></svg>