<svg id="Layer_1" data-name="Layer 1" xmlns="http://www.w3.org/2000/svg" xmlns:xlink="http://www.w3.org/1999/xlink" viewBox="0 0 64 64"><defs><style>.cls-1,.cls-2{fill:none;}.cls-1{clip-rule:evenodd;}.cls-3{clip-path:url(#clip-path);}.cls-4{clip-path:url(#clip-path-2);}.cls-5{clip-path:url(#clip-path-3);}.cls-6{clip-path:url(#clip-path-4);}.cls-7{clip-path:url(#clip-path-5);}.cls-8{clip-path:url(#clip-path-6);}.cls-9{clip-path:url(#clip-path-7);}.cls-10{clip-path:url(#clip-path-8);}.cls-11{clip-path:url(#clip-path-9);}.cls-12{clip-path:url(#clip-path-10);}.cls-13{clip-path:url(#clip-path-11);}.cls-14{clip-path:url(#clip-path-12);}.cls-15{clip-path:url(#clip-path-13);}.cls-16{clip-path:url(#clip-path-14);}.cls-17{clip-path:url(#clip-path-15);}.cls-18{clip-path:url(#clip-path-16);}.cls-19{fill:#3ddc97;}.cls-20{clip-path:url(#clip-path-17);}.cls-21{clip-path:url(#clip-path-19);}.cls-22{clip-path:url(#clip-path-21);}.cls-23{clip-path:url(#clip-path-23);}.cls-24{clip-path:url(#clip-path-25);}.cls-25{clip-path:url(#clip-path-27);}.cls-26{clip-path:url(#clip-path-29);}.cls-27{clip-path:url(#clip-path-31);}.cls-28{clip-path:url(#clip-path-33);}.cls-29{clip-path:url(#clip-path-35);}.cls-30{clip-path:url(#clip-path-37);}.cls-31{clip-path:url(#clip-path-38);}.cls-32{clip-path:url(#clip-path-39);}</style><clipPath id="clip-path"><path class="cls-1" d="M223.6,43.36a4.29,4.29,0,0,1,2.53,2.12l0,0a4.26,4.26,0,0,1-2.06,5.76L209,58a23.22,23.22,0,0,1-13.62,1.3l-16.56-3a1.17,1.17,0,0,1,.41-2.3l16.55,3a21,21,0,0,0,12.29-1.13l15.08-6.72a1.88,1.88,0,0,0,.93-2.56,1.86,1.86,0,0,0-1.12-1,2.36,2.36,0,0,0-1.36.07l-6.78,2.4a1.17,1.17,0,1,1-.77-2.2l6.8-2.41h0a4.61,4.61,0,0,1,2.72-.09Z"/></clipPath><clipPath id="clip-path-2"><path class="cls-1" d="M186.6,38a11.37,11.37,0,0,1,7,1.41L199.87,43h7.43a4.28,4.28,0,0,1,4.25,4.22l0,.82v0a4.2,4.2,0,0,1-4.18,4.24H195.61a1.15,1.15,0,0,1-1-.58,1.18,1.18,0,0,1,0-1.18,1.2,1.2,0,0,1,1-.58h11.78a1.84,1.84,0,0,0,1.86-1.88l0-.82v0a1.91,1.91,0,0,0-1.93-1.91h-7.74a1.13,1.13,0,0,1-.57-.15l-6.5-3.72a9,9,0,0,0-5.6-1.12l-7.42.93a1.16,1.16,0,0,1-1.09-.45,1.17,1.17,0,0,1-.14-1.17,1.15,1.15,0,0,1,.94-.7Z"/></clipPath><clipPath id="clip-path-3"><path class="cls-1" d="M193.27,27.14h0l-.05,0Zm7.41-19.93a14.86,14.86,0,0,1,6.92,1.3,1.13,1.13,0,0,0,.81,0c5.39-1.8,8.79-1.79,13.54.73V26.82c-4.87-2-8.85-2.31-13.91-.31a16.75,16.75,0,0,0-13.91.29V9.05a21.86,21.86,0,0,1,6.55-1.84ZM200.56,5a24.81,24.81,0,0,0-7.72,2.09,1.56,1.56,0,0,0-1.05,1.58V27.7a1.75,1.75,0,0,0,.77,1.47,1.8,1.8,0,0,0,1.65.09l.06,0c4.8-2.39,8.23-2.52,13.33-.44a1.15,1.15,0,0,0,.89,0c5.16-2.16,8.2-1.81,13.36.46a1.67,1.67,0,0,0,2.43-1.56V8.87a1.5,1.5,0,0,0-.89-1.5c-5.24-2.88-9.7-2.95-15.34-1.13A17.14,17.14,0,0,0,200.56,5Z"/></clipPath><clipPath id="clip-path-4"><path class="cls-1" d="M208,7.24a1.15,1.15,0,0,0-1.14,1.18v4.66a1.16,1.16,0,0,0,1.74,1,1.2,1.2,0,0,0,.58-1V8.42a1.18,1.18,0,0,0-.34-.84A1.13,1.13,0,0,0,208,7.24Z"/></clipPath><clipPath id="clip-path-5"><ellipse class="cls-2" cx="208.04" cy="17.17" rx="1.16" ry="1.17"/></clipPath><clipPath id="clip-path-6"><path class="cls-1" d="M208,20.07a1.16,1.16,0,0,0-1.14,1.18v5.83a1.16,1.16,0,0,0,1.74,1,1.2,1.2,0,0,0,.58-1V21.25a1.2,1.2,0,0,0-.34-.84A1.21,1.21,0,0,0,208,20.07Z"/></clipPath><clipPath id="clip-path-7"><path class="cls-1" d="M114.33,13.51a6.94,6.94,0,0,0-5,2.26c-1.47,1.7-1.66,4-1.68,5.9a11.34,11.34,0,0,0,1.6,6.3,9.72,9.72,0,0,0,5.39,4.25,5.21,5.21,0,0,0,2.56-.12,11,11,0,0,0,1.07-.29,9.79,9.79,0,0,0,1.06.29,5.25,5.25,0,0,0,2.57.12A9.79,9.79,0,0,0,127.25,28a11.51,11.51,0,0,0,1.6-6.3,1,1,0,0,0-1.93,0v0a9.76,9.76,0,0,1-1.3,5.23,8,8,0,0,1-4.27,3.44,5.78,5.78,0,0,1-1.64-.14,11.2,11.2,0,0,1-1.17-.32,1,1,0,0,0-.63,0,11.2,11.2,0,0,1-1.17.32,5.78,5.78,0,0,1-1.64.14,8,8,0,0,1-4.27-3.44,9.66,9.66,0,0,1-1.29-5.23c0-1.75.29-3.59,1.21-4.66a5.31,5.31,0,0,1,3.64-1.59,6.52,6.52,0,0,1,2,.62,14.27,14.27,0,0,1,1.33.69,1,1,0,0,0,1,0,14.84,14.84,0,0,1,1.32-.69,6.82,6.82,0,0,1,2-.62A5.31,5.31,0,0,1,125.7,17a1,1,0,0,0,1.46-1.26,6.94,6.94,0,0,0-5-2.26,6.58,6.58,0,0,0-2.88.8c-.56.26-.75.38-1,.52a10.28,10.28,0,0,0-1-.52,6.55,6.55,0,0,0-2.88-.8Z"/></clipPath><clipPath id="clip-path-8"><rect class="cls-2" x="119.68" y="5.79" width="7.72" height="6.76"/></clipPath><clipPath id="clip-path-9"><path class="cls-1" d="M114.88,8.2a1,1,0,0,0-.5,1.81l.46.26a4.82,4.82,0,0,1,2.42,4.18v1a1,1,0,0,0,.95,1,1,1,0,0,0,1-.95v-1A6.74,6.74,0,0,0,115.8,8.6l-.46-.26a1,1,0,0,0-.46-.14Z"/></clipPath><clipPath id="clip-path-10"><path class="cls-1" d="M95.54,45.37a2.92,2.92,0,0,0-2.9,2.9V56a2.92,2.92,0,0,0,2.9,2.9h44.4a1,1,0,0,0,0-1.93H95.54a1,1,0,0,1-1-1V48.27a1,1,0,0,1,1-1h44.4a1,1,0,0,0,0-1.93Z"/></clipPath><clipPath id="clip-path-11"><path class="cls-1" d="M97.94,45.84a1,1,0,0,0-1,1v7.71a1,1,0,0,0,1,1,1,1,0,0,0,.53-.16l2.37-1.56,2.36,1.56a1,1,0,0,0,1.34-.27,1,1,0,0,0,.16-.53V49.72a1,1,0,0,0-1.93,0v3l-1.4-.93a1,1,0,0,0-1.07,0l-1.39.93V46.82a1,1,0,0,0-1-1Z"/></clipPath><clipPath id="clip-path-12"><path class="cls-1" d="M96.51,33.79a1,1,0,0,0,0,1.93h44.41a1,1,0,0,1,1,1v7.73a1,1,0,0,1-1,1H96.51a1,1,0,0,0,0,1.93h44.41a2.91,2.91,0,0,0,2.89-2.89V36.68a2.91,2.91,0,0,0-2.89-2.89Z"/></clipPath><clipPath id="clip-path-13"><path class="cls-1" d="M138.49,33.78a1,1,0,0,0-1,1v5.91l-1.4-.92a1,1,0,0,0-1.07,0l-1.39.92V38.14a1,1,0,1,0-1.94,0v4.34a1,1,0,0,0,1,1,.9.9,0,0,0,.53-.16l2.37-1.57L138,43.28a1,1,0,0,0,1.34-.27,1,1,0,0,0,.16-.54V34.76a1,1,0,0,0-.95-1Z"/></clipPath><clipPath id="clip-path-14"><rect class="cls-2" x="92.64" y="5.79" width="51.17" height="53.1"/></clipPath><clipPath id="clip-path-15"><rect class="cls-2" x="28.23" y="16.34" width="2" height="42.99"/></clipPath><clipPath id="clip-path-16"><rect class="cls-2" x="-168.77" y="-1857.66" width="1440" height="4099"/></clipPath><clipPath id="clip-path-17"><path class="cls-1" d="M35.21,14.83a1,1,0,0,0-1,1v26a1,1,0,0,0,1,1,1,1,0,0,0,1-1v-26a1,1,0,0,0-1-1h0"/></clipPath><clipPath id="clip-path-19"><path class="cls-1" d="M3.21,10.34a1,1,0,0,0-1,1v43a1,1,0,0,0,.81,1l26.5,5,.19,0h5l.18,0,26.5-5a1,1,0,0,0,.82-1v-43a1,1,0,0,0-1-1l-.18,0-26.41,5H29.82l-26.41-5A.65.65,0,0,0,3.21,10.34Zm1,2.21,25.31,4.77a.58.58,0,0,0,.19,0h5a.55.55,0,0,0,.18,0l25.32-4.77v41l-25.6,4.83H29.81L4.23,53.51Z"/></clipPath><clipPath id="clip-path-21"><path class="cls-1" d="M8.21,6.34a1,1,0,0,0-1,1v4.5a1,1,0,0,0,1,1,1,1,0,0,0,1-1v-3l20.62,8.43a1,1,0,1,0,.75-1.85l-22-9a1,1,0,0,0-.39-.07"/></clipPath><clipPath id="clip-path-23"><path class="cls-1" d="M14.19,4.34a1,1,0,0,0-1,1v4a1,1,0,1,0,2,0V7.15l16,10a1,1,0,0,0,1.12-1.66l-.05,0-17.5-11A1,1,0,0,0,14.19,4.34Z"/></clipPath><clipPath id="clip-path-25"><path class="cls-1" d="M56.2,6.34a1,1,0,0,0-.35.07l-22,9a1,1,0,0,0-.55,1.31,1,1,0,0,0,1.3.54h0L55.23,8.83v3a1,1,0,1,0,2,0V7.34a1,1,0,0,0-1-1Z"/></clipPath><clipPath id="clip-path-27"><path class="cls-1" d="M50.2,4.34a1,1,0,0,0-.5.16l-17.5,11a1,1,0,0,0,1,1.72l0,0,16-10V9.34a1,1,0,1,0,2,0v-4a1,1,0,0,0-1-1Z"/></clipPath><clipPath id="clip-path-29"><path class="cls-1" d="M56.2,19.84l-.16,0-14.35,2.7a1,1,0,0,0-.82,1v8a1,1,0,0,0,1,1h.18l14.35-2.71a1,1,0,0,0,.82-1v-8a1,1,0,0,0-1-1Zm-1,2.2v6L42.87,30.34v-6Z"/></clipPath><clipPath id="clip-path-31"><path class="cls-1" d="M56.21,31.84a.5.5,0,0,0-.17,0l-7.17,1.35a1,1,0,1,0,.34,2h0l7.18-1.36a1,1,0,0,0-.2-2Z"/></clipPath><clipPath id="clip-path-33"><path class="cls-1" d="M35.21,47.82a1,1,0,0,0-1,1v10a1,1,0,0,0,1,1,1,1,0,0,0,1-1v-10a1,1,0,0,0-1-1Z"/></clipPath><clipPath id="clip-path-35"><path class="cls-1" d="M36.23,45.34a1,1,0,0,1-2,0,1,1,0,0,1,2,0"/></clipPath><clipPath id="clip-path-37"><path class="cls-1" d="M214.3,129.11l5,1.13-5.65-10.43a15.32,15.32,0,0,1-3.42,3.35,14.89,14.89,0,0,1-4.34,2.14l5.16,9.38L212.7,130a1.57,1.57,0,0,1,.65-.72A1.26,1.26,0,0,1,214.3,129.11Zm-24.64-18a11.75,11.75,0,0,0,.94,4.68,12.08,12.08,0,0,0,2.6,3.83,12.85,12.85,0,0,0,3.83,2.6,11.91,11.91,0,0,0,9.37,0,12.6,12.6,0,0,0,3.83-2.6,12.19,12.19,0,0,0,2.58-3.83,12.1,12.1,0,0,0,0-9.35,12.19,12.19,0,0,0-2.58-3.83,12.42,12.42,0,0,0-3.83-2.6,11.91,11.91,0,0,0-9.37,0,12.66,12.66,0,0,0-3.83,2.6,12.08,12.08,0,0,0-2.6,3.83A11.74,11.74,0,0,0,189.66,111.13Zm2.77,23.51,5-9.39a14.89,14.89,0,0,1-4.25-2.09,14.36,14.36,0,0,1-3.33-3.27l-5.7,10.35,5-1.13a1.23,1.23,0,0,1,.94.12,1.57,1.57,0,0,1,.65.72Zm30.62-3.06a1.11,1.11,0,0,1,.17.73,1.58,1.58,0,0,1-.29.74,1.33,1.33,0,0,1-.59.44,1.14,1.14,0,0,1-.75,0L214.84,132l-2.3,6.41a1.29,1.29,0,0,1-.44.61,1.47,1.47,0,0,1-.7.27h-.12a1.28,1.28,0,0,1-.69-.19,1.21,1.21,0,0,1-.48-.52l-7-12.78q-.33,0-.69.06c-.24,0-.47,0-.69,0s-.51,0-.76,0-.5,0-.75-.06l-6.87,12.78a1.27,1.27,0,0,1-.48.52,1.29,1.29,0,0,1-.7.19h-.08a1.5,1.5,0,0,1-.73-.27,1.22,1.22,0,0,1-.44-.61L188.61,132l-6.74,1.51a1.15,1.15,0,0,1-1.34-.51,1.21,1.21,0,0,1-.3-.69,1.17,1.17,0,0,1,.17-.73l7.88-14.37a14.84,14.84,0,0,1-1-2.91,15,15,0,0,1-.33-3.17,14.39,14.39,0,0,1,1.15-5.74A14.75,14.75,0,0,1,196,97.54a14.9,14.9,0,0,1,11.48,0,14.77,14.77,0,0,1,4.67,3.16,15.5,15.5,0,0,1,3.16,4.69,14.62,14.62,0,0,1,.84,8.82,16.29,16.29,0,0,1-.92,2.87Z"/></clipPath><clipPath id="clip-path-38"><path class="cls-1" d="M137.55,131.06c.4,0,.62-.27.67-.81s.07-1,.07-1.4v-21l-19.6,15.65a1.62,1.62,0,0,1-.46.28,1.35,1.35,0,0,1-.5.09,1.36,1.36,0,0,1-.51-.09,1.77,1.77,0,0,1-.46-.28l-19.6-15.65v21a3.14,3.14,0,0,0,2.21,2.21ZM98.68,104.62a4.6,4.6,0,0,0-.74,0l19.79,15.78,19.82-15.83Zm42.5.37a.41.41,0,0,1,0,.18v23.68a7.09,7.09,0,0,1-.92,3.49,3,3,0,0,1-2.76,1.65H99.37a5.73,5.73,0,0,1-5.14-5.14V105.17a.39.39,0,0,1,0-.18,1.09,1.09,0,0,1,0-.62,1.76,1.76,0,0,1,.32-.58l.1-.11a.3.3,0,0,1,.13-.12,4.35,4.35,0,0,1,2-1.4,7.3,7.3,0,0,1,2.6-.48h38.18a4.13,4.13,0,0,1,2.37.62,2.88,2.88,0,0,1,1.17,1.86,1,1,0,0,1,.11.39A1.33,1.33,0,0,1,141.18,105Z"/></clipPath><clipPath id="clip-path-39"><path class="cls-1" d="M31.75,95.34a12.56,12.56,0,0,1,4.6.88,15.35,15.35,0,0,1,4,2.29,12.74,12.74,0,0,1,2.91,3.16,6.6,6.6,0,0,1,1.12,3.52v7a20.12,20.12,0,0,1-1.15,6.36,17.13,17.13,0,0,1-1.62,3.34,10.85,10.85,0,0,1-2.47,2.75l12.28,5.85,1.38.77a2.28,2.28,0,0,1,1.39,2v4.27a2.8,2.8,0,0,1-2.77,2.77H12a2.69,2.69,0,0,1-2-.82,2.66,2.66,0,0,1-.81-2V133.3a2.34,2.34,0,0,1,1.4-2l1.41-.81,12.36-5.85a10.74,10.74,0,0,1-2.5-2.86,19.07,19.07,0,0,1-1.65-3.41,18.21,18.21,0,0,1-.91-3.39,18.86,18.86,0,0,1-.26-2.79v-7a6.65,6.65,0,0,1,1.1-3.52,12.23,12.23,0,0,1,2.88-3.16,15.21,15.21,0,0,1,4.07-2.29A12.67,12.67,0,0,1,31.75,95.34Zm0,2.81a9.67,9.67,0,0,0-3.56.69A13.06,13.06,0,0,0,25,100.57a10.23,10.23,0,0,0-2.27,2.29,4.13,4.13,0,0,0-.85,2.33v7a18,18,0,0,0,1,5.28,10.17,10.17,0,0,0,3.23,5A2.73,2.73,0,0,1,27,123.6a2.79,2.79,0,0,1,.2,1.43,3.32,3.32,0,0,1-.55,1.3,2.78,2.78,0,0,1-1.08.9l-12.36,5.85a3.12,3.12,0,0,0-.73.42,1.41,1.41,0,0,0-.46,1.21v2.86l39.37,0V134.8c0-.77-.18-1.24-.55-1.43a5.64,5.64,0,0,0-.59-.29L38,127.27a2.78,2.78,0,0,1-1.09-.9,2.83,2.83,0,0,1-.33-2.77,2.7,2.7,0,0,1,.85-1.12,9.38,9.38,0,0,0,3.24-5,19.69,19.69,0,0,0,.94-5.26v-7a4.08,4.08,0,0,0-.88-2.37,10.33,10.33,0,0,0-2.26-2.27,13,13,0,0,0-3.17-1.71A9.76,9.76,0,0,0,31.75,98.15Z"/></clipPath></defs><title>CG</title><g class="cls-17"><g class="cls-18"><rect class="cls-19" x="23.23" y="11.34" width="12" height="52.99"/></g></g><g class="cls-20"><g class="cls-18"><rect class="cls-19" x="29.22" y="9.83" width="12" height="38.02"/></g></g><g class="cls-21"><g class="cls-18"><rect class="cls-19" x="-2.77" y="5.34" width="70" height="60"/></g></g><g class="cls-22"><g class="cls-18"><rect class="cls-19" x="2.23" y="1.34" width="34" height="21"/></g></g><g class="cls-23"><g class="cls-18"><rect class="cls-19" x="8.23" y="-0.66" width="29.52" height="23.01"/></g></g><g class="cls-24"><g class="cls-18"><rect class="cls-19" x="28.22" y="1.34" width="34" height="21"/></g></g><g class="cls-25"><g class="cls-18"><rect class="cls-19" x="26.7" y="-0.66" width="29.52" height="23.02"/></g></g><g class="cls-26"><g class="cls-18"><rect class="cls-19" x="35.87" y="14.84" width="26.35" height="22.71"/></g></g><g class="cls-27"><g class="cls-18"><rect class="cls-19" x="43.04" y="26.84" width="19.2" height="13.36"/></g></g><g class="cls-28"><g class="cls-18"><rect class="cls-19" x="29.22" y="42.82" width="12" height="22.03"/></g></g><g class="cls-29"><g class="cls-18"><rect class="cls-19" x="29.23" y="39.34" width="12" height="12"/></g></g></svg>