<svg id="Layer_1" data-name="Layer 1" xmlns="http://www.w3.org/2000/svg" xmlns:xlink="http://www.w3.org/1999/xlink" viewBox="0 0 64 64"><defs><style>.cls-1,.cls-2{fill:none;}.cls-1{clip-rule:evenodd;}.cls-3{clip-path:url(#clip-path);}.cls-4{clip-path:url(#clip-path-2);}.cls-5{fill:#3ddc97;}.cls-6{clip-path:url(#clip-path-3);}.cls-7{clip-path:url(#clip-path-5);}.cls-8{clip-path:url(#clip-path-7);}.cls-9{clip-path:url(#clip-path-9);}.cls-10{clip-path:url(#clip-path-11);}.cls-11{clip-path:url(#clip-path-13);}.cls-12{clip-path:url(#clip-path-14);}.cls-13{clip-path:url(#clip-path-15);}.cls-14{clip-path:url(#clip-path-16);}.cls-15{clip-path:url(#clip-path-17);}.cls-16{clip-path:url(#clip-path-18);}.cls-17{clip-path:url(#clip-path-19);}.cls-18{clip-path:url(#clip-path-20);}.cls-19{clip-path:url(#clip-path-21);}.cls-20{clip-path:url(#clip-path-22);}.cls-21{clip-path:url(#clip-path-23);}.cls-22{clip-path:url(#clip-path-24);}.cls-23{clip-path:url(#clip-path-25);}.cls-24{clip-path:url(#clip-path-26);}.cls-25{clip-path:url(#clip-path-27);}.cls-26{clip-path:url(#clip-path-28);}.cls-27{clip-path:url(#clip-path-29);}.cls-28{clip-path:url(#clip-path-30);}.cls-29{clip-path:url(#clip-path-31);}.cls-30{clip-path:url(#clip-path-32);}.cls-31{clip-path:url(#clip-path-33);}.cls-32{clip-path:url(#clip-path-34);}</style><clipPath id="clip-path"><path class="cls-1" d="M53.37,43a4.27,4.27,0,0,1,2.53,2.12l0,0a4.25,4.25,0,0,1-2.06,5.76L38.78,57.66A23.26,23.26,0,0,1,25.15,59L8.6,56A1.17,1.17,0,0,1,9,53.7l16.55,3a21,21,0,0,0,12.29-1.13l15.08-6.72a1.87,1.87,0,0,0,.93-2.56,1.81,1.81,0,0,0-1.12-1,2.41,2.41,0,0,0-1.35.07l-6.78,2.4a1.16,1.16,0,0,1-1.16-.2,1.19,1.19,0,0,1-.39-1.12,1.16,1.16,0,0,1,.78-.88l6.8-2.41h0A4.62,4.62,0,0,1,53.37,43Z"/></clipPath><clipPath id="clip-path-2"><rect class="cls-2" x="-963.37" y="-1862.68" width="1440" height="4099"/></clipPath><clipPath id="clip-path-3"><path class="cls-1" d="M16.37,37.65a11.31,11.31,0,0,1,7,1.42l6.23,3.56h7.43a4.27,4.27,0,0,1,4.25,4.22l0,.82v0a4.2,4.2,0,0,1-4.18,4.24H25.38a1.17,1.17,0,0,1-1-.58,1.16,1.16,0,0,1,1-1.75H37.16A1.84,1.84,0,0,0,39,47.72l0-.82v0A1.92,1.92,0,0,0,37.07,45H29.33a1.16,1.16,0,0,1-.57-.15l-6.49-3.72A9.07,9.07,0,0,0,16.66,40l-7.42.93a1.15,1.15,0,0,1-1.08-.44A1.17,1.17,0,0,1,8,39.28a1.18,1.18,0,0,1,.94-.7Z"/></clipPath><clipPath id="clip-path-5"><path class="cls-1" d="M23,26.8h0l-.05,0ZM30.45,6.87a15,15,0,0,1,6.92,1.3,1.16,1.16,0,0,0,.82,0c5.39-1.81,8.79-1.8,13.53.72V26.48c-4.86-2-8.85-2.31-13.91-.31a16.71,16.71,0,0,0-13.91.3V8.71a21.94,21.94,0,0,1,6.55-1.84Zm-.12-2.25a24.44,24.44,0,0,0-7.71,2.1,1.53,1.53,0,0,0-1.06,1.57V27.36a1.78,1.78,0,0,0,.77,1.48,1.81,1.81,0,0,0,1.66.08l.05,0c4.81-2.38,8.24-2.52,13.33-.44a1.17,1.17,0,0,0,.9,0c5.16-2.16,8.19-1.81,13.36.46a1.67,1.67,0,0,0,2.43-1.56V8.53A1.5,1.5,0,0,0,53.17,7c-5.24-2.88-9.7-2.95-15.34-1.13a17.18,17.18,0,0,0-7.5-1.28Z"/></clipPath><clipPath id="clip-path-7"><path class="cls-1" d="M37.79,6.9a1.16,1.16,0,0,0-1.14,1.18v4.67a1.14,1.14,0,0,0,.58,1,1.17,1.17,0,0,0,1.17,0,1.15,1.15,0,0,0,.57-1V8.08a1.18,1.18,0,0,0-.34-.84A1.14,1.14,0,0,0,37.79,6.9Z"/></clipPath><clipPath id="clip-path-9"><ellipse class="cls-2" cx="37.81" cy="16.83" rx="1.16" ry="1.17"/></clipPath><clipPath id="clip-path-11"><path class="cls-1" d="M37.79,19.73a1.16,1.16,0,0,0-1.14,1.18v5.84a1.14,1.14,0,0,0,.58,1,1.17,1.17,0,0,0,1.17,0,1.15,1.15,0,0,0,.57-1V20.91a1.2,1.2,0,0,0-.34-.84A1.18,1.18,0,0,0,37.79,19.73Z"/></clipPath><clipPath id="clip-path-13"><path class="cls-1" d="M-55.89,13.17a7,7,0,0,0-5,2.26c-1.46,1.7-1.66,4-1.68,5.9a11.34,11.34,0,0,0,1.6,6.3,9.79,9.79,0,0,0,5.39,4.25,5.2,5.2,0,0,0,2.56-.12A11,11,0,0,0-52,31.47a11,11,0,0,0,1.07.29,5.21,5.21,0,0,0,2.56.12A9.79,9.79,0,0,0-43,27.63a11.43,11.43,0,0,0,1.6-6.3,1,1,0,0,0-1-1,1,1,0,0,0-1,1v0a9.66,9.66,0,0,1-1.29,5.23A8.1,8.1,0,0,1-48.87,30a5.78,5.78,0,0,1-1.64-.14,11,11,0,0,1-1.18-.32.94.94,0,0,0-.62,0,11.88,11.88,0,0,1-1.18.32,5.42,5.42,0,0,1-1.64.14,8.06,8.06,0,0,1-4.27-3.44,9.66,9.66,0,0,1-1.29-5.23c0-1.75.29-3.59,1.22-4.66a5.3,5.3,0,0,1,3.63-1.59,6.49,6.49,0,0,1,2,.62c.74.35,1.32.69,1.32.69a1,1,0,0,0,1,0s.58-.34,1.32-.69a6.94,6.94,0,0,1,2-.62,5.31,5.31,0,0,1,3.64,1.59,1,1,0,0,0,1.37.1,1,1,0,0,0,.1-1.36,7,7,0,0,0-5.06-2.26A6.5,6.5,0,0,0-51,14a10.28,10.28,0,0,0-1,.52c-.26-.14-.45-.26-1-.52a6.63,6.63,0,0,0-2.89-.8Z"/></clipPath><clipPath id="clip-path-14"><rect class="cls-2" x="-50.55" y="5.45" width="7.72" height="6.76"/></clipPath><clipPath id="clip-path-15"><path class="cls-1" d="M-55.35,7.86a1,1,0,0,0-1,.93,1,1,0,0,0,.5.88l.46.27A4.79,4.79,0,0,1-53,14.11v1a1,1,0,0,0,1,1,1,1,0,0,0,1-1v-1a6.74,6.74,0,0,0-3.39-5.85L-54.89,8a.94.94,0,0,0-.46-.13Z"/></clipPath><clipPath id="clip-path-16"><path class="cls-1" d="M-74.69,45a2.92,2.92,0,0,0-2.9,2.9v7.73a2.91,2.91,0,0,0,2.9,2.89h44.4a1,1,0,0,0,1-1,1,1,0,0,0-1-1h-44.4a1,1,0,0,1-1-1V47.93a1,1,0,0,1,1-1h44.4a1,1,0,0,0,1-1,1,1,0,0,0-1-1Z"/></clipPath><clipPath id="clip-path-17"><path class="cls-1" d="M-72.29,45.5a1,1,0,0,0-.95,1v7.71a1,1,0,0,0,1,1,.94.94,0,0,0,.53-.16l2.36-1.56L-67,55a1,1,0,0,0,1.34-.27,1,1,0,0,0,.16-.54V49.38a1,1,0,0,0-1-1,1,1,0,0,0-1,1v3l-1.39-.93a1,1,0,0,0-1.08,0l-1.39.93V46.48a1,1,0,0,0-1-1Z"/></clipPath><clipPath id="clip-path-18"><path class="cls-1" d="M-73.71,33.45a1,1,0,0,0-1,1,1,1,0,0,0,1,1h44.4a1,1,0,0,1,1,1v7.73a1,1,0,0,1-1,1h-44.4a1,1,0,0,0-1,1,1,1,0,0,0,1,1h44.4a2.92,2.92,0,0,0,2.9-2.9V36.34a2.91,2.91,0,0,0-2.9-2.89Z"/></clipPath><clipPath id="clip-path-19"><path class="cls-1" d="M-31.74,33.44a1,1,0,0,0-.95,1v5.91l-1.4-.92a1,1,0,0,0-1.07,0l-1.39.92V37.8a1,1,0,0,0-1-1,1,1,0,0,0-1,1v4.34a1,1,0,0,0,1,1,1,1,0,0,0,.54-.16l2.36-1.57,2.36,1.57a1,1,0,0,0,1.34-.27.93.93,0,0,0,.16-.54V34.42a1,1,0,0,0-.95-1Z"/></clipPath><clipPath id="clip-path-20"><rect class="cls-2" x="-77.59" y="5.45" width="51.17" height="53.1"/></clipPath><clipPath id="clip-path-21"><rect class="cls-2" x="-142" y="16" width="2" height="42.99"/></clipPath><clipPath id="clip-path-22"><path class="cls-1" d="M-135,14.49a1,1,0,0,0-1,1v26a1,1,0,0,0,1,1,1,1,0,0,0,1-1v-26a1,1,0,0,0-1-1h0"/></clipPath><clipPath id="clip-path-23"><path class="cls-1" d="M-167,10a1,1,0,0,0-1,1V54a1,1,0,0,0,.82,1l26.5,5,.18,0h5l.19,0,26.5-5a1,1,0,0,0,.81-1V11a1,1,0,0,0-1-1l-.18,0-26.41,5h-4.82l-26.4-5A.68.68,0,0,0-167,10Zm1,2.21L-140.68,17a.55.55,0,0,0,.18,0h5a.62.62,0,0,0,.19,0L-110,12.21v41L-135.59,58h-4.82L-166,53.17Z"/></clipPath><clipPath id="clip-path-24"><path class="cls-1" d="M-162,6a1,1,0,0,0-1,1v4.5a1,1,0,0,0,1,1,1,1,0,0,0,1-1v-3l20.62,8.43a1,1,0,0,0,1.3-.54,1,1,0,0,0-.54-1.31l-22-9A1.07,1.07,0,0,0-162,6"/></clipPath><clipPath id="clip-path-25"><path class="cls-1" d="M-156,4a1,1,0,0,0-1,1V9a1,1,0,0,0,1,1,1,1,0,0,0,1-1V6.81l16,10a1,1,0,0,0,1.38-.28,1,1,0,0,0-.27-1.38s0,0-.05,0l-17.5-11A1,1,0,0,0-156,4Z"/></clipPath><clipPath id="clip-path-26"><path class="cls-1" d="M-114,6a1,1,0,0,0-.35.07l-22,9a1,1,0,0,0-.55,1.31,1,1,0,0,0,1.31.55h0L-115,8.49v3a1,1,0,0,0,1,1,1,1,0,0,0,1-1V7a1,1,0,0,0-1-1Z"/></clipPath><clipPath id="clip-path-27"><path class="cls-1" d="M-120,4a1,1,0,0,0-.5.16l-17.5,11a1,1,0,0,0-.35,1.37,1,1,0,0,0,1.37.35l0,0,16-10V9a1,1,0,0,0,1,1,1,1,0,0,0,1-1V5a1,1,0,0,0-1-1Z"/></clipPath><clipPath id="clip-path-28"><path class="cls-1" d="M-114,19.5l-.15,0-14.36,2.71a1,1,0,0,0-.81,1v8a1,1,0,0,0,1,1l.18,0,14.36-2.71a1,1,0,0,0,.81-1v-8a1,1,0,0,0-1-1Zm-1,2.21v6L-127.35,30V24Z"/></clipPath><clipPath id="clip-path-29"><path class="cls-1" d="M-114,31.5l-.17,0-7.17,1.35a1,1,0,0,0-.81,1.16,1,1,0,0,0,1.15.81h0l7.18-1.36a1,1,0,0,0,.8-1.16,1,1,0,0,0-1-.82Z"/></clipPath><clipPath id="clip-path-30"><path class="cls-1" d="M-135,47.48a1,1,0,0,0-1,1v10a1,1,0,0,0,1,1,1,1,0,0,0,1-1v-10a1,1,0,0,0-1-1Z"/></clipPath><clipPath id="clip-path-31"><path class="cls-1" d="M-134,45a1,1,0,0,1-1,1,1,1,0,0,1-1-1,1,1,0,0,1,1-1,1,1,0,0,1,1,1"/></clipPath><clipPath id="clip-path-32"><path class="cls-1" d="M44.07,128.77l5,1.13L43.4,119.47A15.32,15.32,0,0,1,40,122.82,14.84,14.84,0,0,1,35.65,125l5.15,9.38,1.68-4.73a1.45,1.45,0,0,1,.65-.71A1.23,1.23,0,0,1,44.07,128.77Zm-24.64-18a11.75,11.75,0,0,0,.95,4.67A11.89,11.89,0,0,0,23,119.3a12.83,12.83,0,0,0,3.84,2.6,11.89,11.89,0,0,0,9.36,0,12.1,12.1,0,0,0,6.41-6.43,12.07,12.07,0,0,0,0-9.34A12.27,12.27,0,0,0,40,102.29a12.52,12.52,0,0,0-3.84-2.6,11.89,11.89,0,0,0-9.36,0,13,13,0,0,0-3.84,2.6,11.83,11.83,0,0,0-2.59,3.84A11.68,11.68,0,0,0,19.43,110.8Zm2.77,23.5,5-9.38a15.11,15.11,0,0,1-4.26-2.1,14.56,14.56,0,0,1-3.33-3.27L14,129.9l5-1.13a1.23,1.23,0,0,1,.94.13,1.45,1.45,0,0,1,.65.71Zm30.63-3.06A1.13,1.13,0,0,1,53,132a1.36,1.36,0,0,1-.29.73,1.33,1.33,0,0,1-.59.44,1.08,1.08,0,0,1-.75,0l-6.75-1.51-2.3,6.41a1.18,1.18,0,0,1-.44.61,1.47,1.47,0,0,1-.69.27h-.13a1.28,1.28,0,0,1-.69-.19,1.21,1.21,0,0,1-.48-.52l-7-12.78q-.33,0-.69.06c-.24,0-.47,0-.69,0s-.5,0-.75,0-.51,0-.76-.06l-6.87,12.78a1.21,1.21,0,0,1-.48.52A1.28,1.28,0,0,1,22,139h-.09a1.5,1.5,0,0,1-.73-.27,1.18,1.18,0,0,1-.44-.61l-2.3-6.41-6.75,1.51a1.08,1.08,0,0,1-.75,0,1.22,1.22,0,0,1-.59-.48A1.19,1.19,0,0,1,10,132a1.13,1.13,0,0,1,.16-.74l7.88-14.37a14.79,14.79,0,0,1-1.3-6.07,14.49,14.49,0,0,1,1.15-5.74,14.82,14.82,0,0,1,7.86-7.86,14.9,14.9,0,0,1,11.48,0,14.66,14.66,0,0,1,4.67,3.16,15.24,15.24,0,0,1,3.16,4.7,14,14,0,0,1,1.18,5.74,13.65,13.65,0,0,1-.34,3.08,16.84,16.84,0,0,1-.92,2.87Z"/></clipPath><clipPath id="clip-path-33"><path class="cls-1" d="M-32.67,130.72c.4,0,.62-.27.66-.8s.07-1,.07-1.4v-21l-19.6,15.66a1.68,1.68,0,0,1-.46.27,1.35,1.35,0,0,1-.5.09,1.35,1.35,0,0,1-.5-.09,1.68,1.68,0,0,1-.46-.27l-19.6-15.66v21a2.25,2.25,0,0,0,.8,1.4,2.23,2.23,0,0,0,1.4.8Zm-38.88-26.44a6,6,0,0,0-.73,0l19.78,15.79,19.83-15.84Zm42.5.37a.41.41,0,0,1,.05.18v23.69a7.08,7.08,0,0,1-.92,3.48,3,3,0,0,1-2.75,1.66H-70.86A4.9,4.9,0,0,1-74.35,132,4.9,4.9,0,0,1-76,128.52V104.83a.41.41,0,0,1,0-.18.94.94,0,0,1,0-.62,1.48,1.48,0,0,1,.32-.57,1.25,1.25,0,0,0,.09-.12.31.31,0,0,1,.14-.11,4.21,4.21,0,0,1,2-1.4,7,7,0,0,1,2.59-.49h38.19a4.07,4.07,0,0,1,2.36.62,2.93,2.93,0,0,1,1.17,1.86,1.27,1.27,0,0,1,.12.39A1.66,1.66,0,0,1-29,104.65Z"/></clipPath><clipPath id="clip-path-34"><path class="cls-1" d="M-138.48,95a12.52,12.52,0,0,1,4.6.88,15.69,15.69,0,0,1,4,2.29,13.07,13.07,0,0,1,2.9,3.16,6.51,6.51,0,0,1,1.12,3.52v7a20,20,0,0,1-.26,3,19.7,19.7,0,0,1-.88,3.41,16.91,16.91,0,0,1-1.63,3.34,11,11,0,0,1-2.46,2.75l12.27,5.85,1.38.77a2.27,2.27,0,0,1,1.39,2v4.27a2.7,2.7,0,0,1-.81,2,2.7,2.7,0,0,1-2,.81h-39.41a2.75,2.75,0,0,1-2-.81,2.7,2.7,0,0,1-.81-2V133a2.33,2.33,0,0,1,1.41-2l1.41-.81,12.36-5.85a10.45,10.45,0,0,1-2.51-2.86,18.74,18.74,0,0,1-1.65-3.41,17.42,17.42,0,0,1-.9-3.39,17.75,17.75,0,0,1-.27-2.79v-7a6.65,6.65,0,0,1,1.1-3.52,12.77,12.77,0,0,1,2.88-3.16,15.65,15.65,0,0,1,4.07-2.29A12.75,12.75,0,0,1-138.48,95Zm0,2.82a9.66,9.66,0,0,0-3.56.68,13.25,13.25,0,0,0-3.17,1.73,10.18,10.18,0,0,0-2.26,2.29,4.08,4.08,0,0,0-.86,2.33v7a18,18,0,0,0,1,5.28,10.12,10.12,0,0,0,3.24,5,2.7,2.7,0,0,1,.85,1.12,2.79,2.79,0,0,1,.2,1.43,3.32,3.32,0,0,1-.55,1.3,2.62,2.62,0,0,1-1.08.9L-157,132.74a3.32,3.32,0,0,0-.72.42,1.38,1.38,0,0,0-.46,1.21v2.86l39.36,0v-2.72c0-.76-.18-1.24-.55-1.43a4.7,4.7,0,0,0-.59-.29l-12.27-5.8a2.85,2.85,0,0,1-1.1-.91,2.77,2.77,0,0,1-.53-1.34,2.79,2.79,0,0,1,.2-1.43,2.73,2.73,0,0,1,.86-1.12,9.43,9.43,0,0,0,3.23-5,19.77,19.77,0,0,0,.95-5.26v-7a4.15,4.15,0,0,0-.88-2.37,10.61,10.61,0,0,0-2.27-2.27,12.8,12.8,0,0,0-3.17-1.71A9.67,9.67,0,0,0-138.48,97.82Z"/></clipPath></defs><title>CG</title><g class="cls-3"><g class="cls-4"><rect class="cls-5" x="2.64" y="37.87" width="58.72" height="26.55"/></g></g><g class="cls-6"><g class="cls-4"><rect class="cls-5" x="2.91" y="32.56" width="43.43" height="24.38"/></g></g><g class="cls-7"><g class="cls-4"><rect class="cls-5" x="16.56" y="-0.41" width="42.49" height="34.5"/></g></g><g class="cls-8"><g class="cls-4"><rect class="cls-5" x="31.65" y="1.9" width="12.32" height="17.03"/></g></g><g class="cls-9"><g class="cls-4"><rect class="cls-5" x="31.65" y="10.66" width="12.32" height="12.33"/></g></g><g class="cls-10"><g class="cls-4"><rect class="cls-5" x="31.65" y="14.73" width="12.32" height="18.2"/></g></g></svg>