<svg id="Layer_1" data-name="Layer 1" xmlns="http://www.w3.org/2000/svg" xmlns:xlink="http://www.w3.org/1999/xlink" viewBox="0 0 64 64"><defs><style>.cls-1,.cls-2{fill:none;}.cls-1{clip-rule:evenodd;}.cls-3{clip-path:url(#clip-path);}.cls-4{clip-path:url(#clip-path-2);}.cls-5{clip-path:url(#clip-path-3);}.cls-6{clip-path:url(#clip-path-4);}.cls-7{clip-path:url(#clip-path-5);}.cls-8{clip-path:url(#clip-path-6);}.cls-9{clip-path:url(#clip-path-7);}.cls-10{clip-path:url(#clip-path-8);}.cls-11{clip-path:url(#clip-path-9);}.cls-12{clip-path:url(#clip-path-10);}.cls-13{clip-path:url(#clip-path-11);}.cls-14{clip-path:url(#clip-path-12);}.cls-15{clip-path:url(#clip-path-13);}.cls-16{clip-path:url(#clip-path-14);}.cls-17{clip-path:url(#clip-path-15);}.cls-18{clip-path:url(#clip-path-16);}.cls-19{clip-path:url(#clip-path-17);}.cls-20{clip-path:url(#clip-path-18);}.cls-21{clip-path:url(#clip-path-19);}.cls-22{clip-path:url(#clip-path-20);}.cls-23{clip-path:url(#clip-path-21);}.cls-24{clip-path:url(#clip-path-22);}.cls-25{clip-path:url(#clip-path-23);}.cls-26{clip-path:url(#clip-path-24);}.cls-27{clip-path:url(#clip-path-25);}.cls-28{clip-path:url(#clip-path-26);}.cls-29{clip-path:url(#clip-path-27);}.cls-30{clip-path:url(#clip-path-28);}.cls-31{fill:#3ddc97;}.cls-32{clip-path:url(#clip-path-29);}</style><clipPath id="clip-path"><path class="cls-1" d="M137.87-42.48a4.27,4.27,0,0,1,2.53,2.12l0,0a4.25,4.25,0,0,1-2.06,5.76l-15.08,6.72a23.26,23.26,0,0,1-13.63,1.3L93.1-29.49a1.16,1.16,0,0,1-.94-1.36,1.16,1.16,0,0,1,1.34-.95l16.55,3A21,21,0,0,0,122.34-30l15.08-6.72a1.87,1.87,0,0,0,.93-2.56,1.81,1.81,0,0,0-1.12-1,2.41,2.41,0,0,0-1.35.07l-6.78,2.4a1.16,1.16,0,0,1-1.16-.2,1.19,1.19,0,0,1-.39-1.12,1.16,1.16,0,0,1,.78-.88l6.8-2.41h0a4.62,4.62,0,0,1,2.72-.09Z"/></clipPath><clipPath id="clip-path-2"><path class="cls-1" d="M100.87-47.85a11.31,11.31,0,0,1,7,1.42l6.23,3.56h7.43a4.27,4.27,0,0,1,4.25,4.22l0,.82v0a4.2,4.2,0,0,1-4.18,4.24H109.88a1.17,1.17,0,0,1-1-.58,1.18,1.18,0,0,1,0-1.18,1.18,1.18,0,0,1,1-.57h11.78a1.84,1.84,0,0,0,1.86-1.89l0-.82v0a1.92,1.92,0,0,0-1.93-1.92h-7.74a1.16,1.16,0,0,1-.57-.15l-6.49-3.72a9.07,9.07,0,0,0-5.61-1.12l-7.42.93A1.15,1.15,0,0,1,92.66-45a1.17,1.17,0,0,1-.15-1.18,1.18,1.18,0,0,1,.94-.7Z"/></clipPath><clipPath id="clip-path-3"><path class="cls-1" d="M107.54-58.7h0l-.05,0ZM115-78.63a15,15,0,0,1,6.92,1.3,1.16,1.16,0,0,0,.82,0c5.39-1.81,8.79-1.8,13.53.72V-59c-4.86-2-8.85-2.31-13.91-.31a16.71,16.71,0,0,0-13.91.3V-76.79A21.94,21.94,0,0,1,115-78.63Zm-.12-2.25a24.44,24.44,0,0,0-7.71,2.1,1.53,1.53,0,0,0-1.06,1.57v19.07a1.78,1.78,0,0,0,.77,1.48,1.81,1.81,0,0,0,1.66.08l.05,0c4.81-2.38,8.24-2.52,13.33-.44a1.17,1.17,0,0,0,.9,0c5.16-2.16,8.19-1.81,13.36.46a1.79,1.79,0,0,0,1.66-.08,1.78,1.78,0,0,0,.77-1.48V-77a1.5,1.5,0,0,0-.89-1.5c-5.24-2.88-9.7-3-15.34-1.13a17.18,17.18,0,0,0-7.5-1.28Z"/></clipPath><clipPath id="clip-path-4"><path class="cls-1" d="M122.29-78.6a1.16,1.16,0,0,0-1.14,1.18v4.67a1.14,1.14,0,0,0,.58,1,1.17,1.17,0,0,0,1.17,0,1.15,1.15,0,0,0,.57-1v-4.67a1.18,1.18,0,0,0-.34-.84A1.14,1.14,0,0,0,122.29-78.6Z"/></clipPath><clipPath id="clip-path-5"><ellipse class="cls-2" cx="122.31" cy="-68.67" rx="1.16" ry="1.17"/></clipPath><clipPath id="clip-path-6"><path class="cls-1" d="M122.29-65.77a1.16,1.16,0,0,0-1.14,1.18v5.84a1.14,1.14,0,0,0,.58,1,1.17,1.17,0,0,0,1.17,0,1.15,1.15,0,0,0,.57-1v-5.84a1.2,1.2,0,0,0-.34-.84A1.18,1.18,0,0,0,122.29-65.77Z"/></clipPath><clipPath id="clip-path-7"><path class="cls-1" d="M28.61-72.33a7,7,0,0,0-5.05,2.26c-1.46,1.7-1.66,4-1.68,5.9a11.34,11.34,0,0,0,1.6,6.3,9.79,9.79,0,0,0,5.39,4.25,5.2,5.2,0,0,0,2.56-.12A11,11,0,0,0,32.5-54a11,11,0,0,0,1.07.29,5.21,5.21,0,0,0,2.56.12,9.79,9.79,0,0,0,5.39-4.25,11.43,11.43,0,0,0,1.6-6.3,1,1,0,0,0-1-1,1,1,0,0,0-1,1v0a9.66,9.66,0,0,1-1.29,5.23,8.1,8.1,0,0,1-4.27,3.44A5.78,5.78,0,0,1,34-55.62a11,11,0,0,1-1.18-.32.94.94,0,0,0-.62,0,11.88,11.88,0,0,1-1.18.32,5.42,5.42,0,0,1-1.64.14,8.06,8.06,0,0,1-4.27-3.44,9.66,9.66,0,0,1-1.29-5.23c0-1.75.29-3.59,1.22-4.66a5.3,5.3,0,0,1,3.63-1.59,6.49,6.49,0,0,1,2,.62c.74.35,1.32.69,1.32.69a1,1,0,0,0,1,0s.58-.34,1.32-.69a6.94,6.94,0,0,1,2-.62A5.31,5.31,0,0,1,40-68.81a1,1,0,0,0,1.37.1,1,1,0,0,0,.1-1.36,7,7,0,0,0-5.06-2.26,6.5,6.5,0,0,0-2.87.8,10.28,10.28,0,0,0-1,.52c-.26-.14-.45-.26-1-.52a6.63,6.63,0,0,0-2.89-.8Z"/></clipPath><clipPath id="clip-path-8"><rect class="cls-2" x="33.95" y="-80.05" width="7.72" height="6.76"/></clipPath><clipPath id="clip-path-9"><path class="cls-1" d="M29.15-77.64a1,1,0,0,0-1,.93,1,1,0,0,0,.5.88l.46.27a4.79,4.79,0,0,1,2.42,4.17v1a1,1,0,0,0,1,1,1,1,0,0,0,1-.95v-1a6.74,6.74,0,0,0-3.39-5.85l-.46-.26a.94.94,0,0,0-.46-.13Z"/></clipPath><clipPath id="clip-path-10"><path class="cls-1" d="M9.81-40.47a2.92,2.92,0,0,0-2.9,2.9v7.73a2.91,2.91,0,0,0,2.9,2.89h44.4a1,1,0,0,0,1-1,1,1,0,0,0-1-1H9.81a1,1,0,0,1-1-1v-7.73a1,1,0,0,1,1-1h44.4a1,1,0,0,0,1-1,1,1,0,0,0-1-1Z"/></clipPath><clipPath id="clip-path-11"><path class="cls-1" d="M12.21-40a1,1,0,0,0-1,1v7.71a1,1,0,0,0,1,1,.94.94,0,0,0,.53-.16l2.36-1.56,2.36,1.57a1,1,0,0,0,1.34-.27,1,1,0,0,0,.16-.54v-4.81a1,1,0,0,0-.95-1,1,1,0,0,0-1,1v3L15.66-34a1,1,0,0,0-1.08,0l-1.39.93V-39a1,1,0,0,0-.95-1Z"/></clipPath><clipPath id="clip-path-12"><path class="cls-1" d="M10.79-52a1,1,0,0,0-1,1,1,1,0,0,0,1,1h44.4a1,1,0,0,1,1,1v7.73a1,1,0,0,1-1,1H10.79a1,1,0,0,0-1,1,1,1,0,0,0,1,1h44.4a2.92,2.92,0,0,0,2.9-2.9v-7.73A2.91,2.91,0,0,0,55.19-52Z"/></clipPath><clipPath id="clip-path-13"><path class="cls-1" d="M52.76-52.06a1,1,0,0,0-.95,1v5.91l-1.4-.92a1,1,0,0,0-1.07,0L48-45.17V-47.7a1,1,0,0,0-1-1,1,1,0,0,0-1,1v4.34a1,1,0,0,0,1,1,1,1,0,0,0,.54-.16l2.36-1.57,2.36,1.57a1,1,0,0,0,1.34-.27.93.93,0,0,0,.16-.54v-7.71a1,1,0,0,0-1-1Z"/></clipPath><clipPath id="clip-path-14"><rect class="cls-2" x="6.91" y="-80.05" width="51.17" height="53.1"/></clipPath><clipPath id="clip-path-15"><rect class="cls-2" x="-57.5" y="-69.5" width="2" height="42.99"/></clipPath><clipPath id="clip-path-16"><path class="cls-1" d="M-50.52-71a1,1,0,0,0-1,1v26a1,1,0,0,0,1,1,1,1,0,0,0,1-1V-70a1,1,0,0,0-1-1h0"/></clipPath><clipPath id="clip-path-17"><path class="cls-1" d="M-82.51-75.5a1,1,0,0,0-1,1v43a1,1,0,0,0,.82,1l26.5,5,.18,0h5l.19,0,26.5-5a1,1,0,0,0,.81-1v-43a1,1,0,0,0-1-1l-.18,0-26.41,5h-4.82l-26.4-5A.68.68,0,0,0-82.51-75.5Zm1,2.21,25.32,4.77a.55.55,0,0,0,.18,0h5a.62.62,0,0,0,.19,0l25.31-4.77v41L-51.09-27.5h-4.82L-81.5-32.33Z"/></clipPath><clipPath id="clip-path-18"><path class="cls-1" d="M-77.51-79.5a1,1,0,0,0-1,1V-74a1,1,0,0,0,1,1,1,1,0,0,0,1-1v-3l20.62,8.43a1,1,0,0,0,1.3-.54,1,1,0,0,0-.54-1.31l-22-9a1.07,1.07,0,0,0-.39-.07"/></clipPath><clipPath id="clip-path-19"><path class="cls-1" d="M-71.54-81.5a1,1,0,0,0-1,1v4a1,1,0,0,0,1,1,1,1,0,0,0,1-1v-2.22l16,10a1,1,0,0,0,1.38-.28,1,1,0,0,0-.27-1.38s0,0,0,0l-17.5-11A1,1,0,0,0-71.54-81.5Z"/></clipPath><clipPath id="clip-path-20"><path class="cls-1" d="M-29.53-79.5a1,1,0,0,0-.35.07l-22,9a1,1,0,0,0-.55,1.31,1,1,0,0,0,1.31.55h0L-30.5-77v3a1,1,0,0,0,1,1,1,1,0,0,0,1-1V-78.5a1,1,0,0,0-1-1Z"/></clipPath><clipPath id="clip-path-21"><path class="cls-1" d="M-35.53-81.5a1,1,0,0,0-.5.16l-17.5,11A1,1,0,0,0-53.88-69a1,1,0,0,0,1.37.35l0,0,16-10v2.19a1,1,0,0,0,1,1,1,1,0,0,0,1-1v-4a1,1,0,0,0-1-1Z"/></clipPath><clipPath id="clip-path-22"><path class="cls-1" d="M-29.53-66l-.15,0L-44-63.27a1,1,0,0,0-.81,1v8a1,1,0,0,0,1,1l.18,0L-29.31-56a1,1,0,0,0,.81-1v-8a1,1,0,0,0-1-1Zm-1,2.21v6L-42.85-55.5v-6Z"/></clipPath><clipPath id="clip-path-23"><path class="cls-1" d="M-29.52-54l-.17,0-7.17,1.35a1,1,0,0,0-.81,1.16,1,1,0,0,0,1.15.81h0L-29.31-52a1,1,0,0,0,.8-1.16,1,1,0,0,0-1-.82Z"/></clipPath><clipPath id="clip-path-24"><path class="cls-1" d="M-50.52-38a1,1,0,0,0-1,1v10a1,1,0,0,0,1,1,1,1,0,0,0,1-1V-37a1,1,0,0,0-1-1Z"/></clipPath><clipPath id="clip-path-25"><path class="cls-1" d="M-49.5-40.5a1,1,0,0,1-1,1,1,1,0,0,1-1-1,1,1,0,0,1,1-1,1,1,0,0,1,1,1"/></clipPath><clipPath id="clip-path-26"><path class="cls-1" d="M128.57,43.27l5,1.13L127.9,34a15.32,15.32,0,0,1-3.42,3.35,14.84,14.84,0,0,1-4.33,2.14l5.15,9.38L127,44.11a1.45,1.45,0,0,1,.65-.71A1.23,1.23,0,0,1,128.57,43.27Zm-24.64-18a11.75,11.75,0,0,0,.95,4.67,11.89,11.89,0,0,0,2.59,3.83,12.83,12.83,0,0,0,3.84,2.6,11.89,11.89,0,0,0,9.36,0A12.1,12.1,0,0,0,127.08,30a12.07,12.07,0,0,0,0-9.34,12.27,12.27,0,0,0-2.57-3.84,12.52,12.52,0,0,0-3.84-2.6,11.89,11.89,0,0,0-9.36,0,13,13,0,0,0-3.84,2.6,11.83,11.83,0,0,0-2.59,3.84A11.68,11.68,0,0,0,103.93,25.3Zm2.77,23.5,5-9.38a15.11,15.11,0,0,1-4.26-2.1,14.56,14.56,0,0,1-3.33-3.27L98.45,44.4l5-1.13a1.23,1.23,0,0,1,.94.13,1.45,1.45,0,0,1,.65.71Zm30.63-3.06a1.13,1.13,0,0,1,.16.74,1.36,1.36,0,0,1-.29.73,1.33,1.33,0,0,1-.59.44,1.08,1.08,0,0,1-.75,0l-6.75-1.51-2.3,6.41a1.18,1.18,0,0,1-.44.61,1.47,1.47,0,0,1-.69.27h-.13a1.28,1.28,0,0,1-.69-.19,1.21,1.21,0,0,1-.48-.52l-7-12.78q-.33,0-.69.06c-.24,0-.47,0-.69,0s-.5,0-.75,0-.51,0-.76-.06l-6.87,12.78a1.21,1.21,0,0,1-.48.52,1.28,1.28,0,0,1-.69.19h-.09a1.5,1.5,0,0,1-.73-.27,1.18,1.18,0,0,1-.44-.61l-2.3-6.41-6.75,1.51a1.08,1.08,0,0,1-.75,0,1.22,1.22,0,0,1-.59-.48,1.19,1.19,0,0,1-.29-.69,1.13,1.13,0,0,1,.16-.74l7.88-14.37a14.79,14.79,0,0,1-1.3-6.07,14.49,14.49,0,0,1,1.15-5.74,14.82,14.82,0,0,1,7.86-7.86,14.9,14.9,0,0,1,11.48,0,14.66,14.66,0,0,1,4.67,3.16,15.24,15.24,0,0,1,3.16,4.7,14,14,0,0,1,1.18,5.74,13.65,13.65,0,0,1-.34,3.08,16.84,16.84,0,0,1-.92,2.87Z"/></clipPath><clipPath id="clip-path-27"><path class="cls-1" d="M51.83,45.22c.4,0,.62-.27.66-.8s.07-1,.07-1.4V22L33,37.65a1.68,1.68,0,0,1-.46.27,1.43,1.43,0,0,1-1,0,1.68,1.68,0,0,1-.46-.27L11.44,22V43a2.25,2.25,0,0,0,.8,1.4,2.23,2.23,0,0,0,1.4.8ZM13,18.78a6,6,0,0,0-.73,0L32,34.62,51.83,18.78Zm42.5.37a.41.41,0,0,1,0,.18V43a7.08,7.08,0,0,1-.92,3.48,3,3,0,0,1-2.75,1.66H13.64a4.9,4.9,0,0,1-3.49-1.66A4.9,4.9,0,0,1,8.5,43V19.33a.41.41,0,0,1,.05-.18.94.94,0,0,1,0-.62A1.48,1.48,0,0,1,8.87,18L9,17.84a.31.31,0,0,1,.14-.11,4.21,4.21,0,0,1,2-1.4,7,7,0,0,1,2.59-.49H51.83a4.07,4.07,0,0,1,2.36.62,2.93,2.93,0,0,1,1.17,1.86,1.27,1.27,0,0,1,.12.39A1.66,1.66,0,0,1,55.45,19.15Z"/></clipPath><clipPath id="clip-path-28"><rect class="cls-2" x="-1628.67" y="-7114.94" width="2820" height="8027.21"/></clipPath><clipPath id="clip-path-29"><path class="cls-1" d="M-54,9.5a12.52,12.52,0,0,1,4.6.88,15.69,15.69,0,0,1,4.05,2.29,13.07,13.07,0,0,1,2.9,3.16,6.51,6.51,0,0,1,1.12,3.52v7a20,20,0,0,1-.26,2.95,19.7,19.7,0,0,1-.88,3.41,16.91,16.91,0,0,1-1.63,3.34,11,11,0,0,1-2.46,2.75l12.27,5.85,1.38.77a2.27,2.27,0,0,1,1.39,2v4.27a2.7,2.7,0,0,1-.81,2,2.7,2.7,0,0,1-2,.81H-73.68a2.75,2.75,0,0,1-2-.81,2.7,2.7,0,0,1-.81-2V47.46a2.33,2.33,0,0,1,1.41-2l1.41-.81,12.36-5.85A10.45,10.45,0,0,1-63.83,36a18.74,18.74,0,0,1-1.65-3.41,17.42,17.42,0,0,1-.9-3.39,17.75,17.75,0,0,1-.27-2.79v-7a6.65,6.65,0,0,1,1.1-3.52,12.77,12.77,0,0,1,2.88-3.16,15.65,15.65,0,0,1,4.07-2.29A12.75,12.75,0,0,1-54,9.5Zm0,2.82a9.66,9.66,0,0,0-3.56.68,13.25,13.25,0,0,0-3.17,1.73A10.18,10.18,0,0,0-63,17a4.08,4.08,0,0,0-.86,2.33v7a18,18,0,0,0,1,5.28,10.12,10.12,0,0,0,3.24,5,2.7,2.7,0,0,1,.85,1.12,2.79,2.79,0,0,1,.2,1.43,3.32,3.32,0,0,1-.55,1.3,2.62,2.62,0,0,1-1.08.9L-72.5,47.24a3.32,3.32,0,0,0-.72.42,1.38,1.38,0,0,0-.46,1.21v2.86l39.36,0V49c0-.76-.18-1.24-.55-1.43a4.7,4.7,0,0,0-.59-.29l-12.27-5.8a2.85,2.85,0,0,1-1.1-.91,2.77,2.77,0,0,1-.53-1.34,2.79,2.79,0,0,1,.2-1.43,2.73,2.73,0,0,1,.86-1.12,9.43,9.43,0,0,0,3.23-5,19.77,19.77,0,0,0,1-5.26v-7A4.15,4.15,0,0,0-45,17a10.61,10.61,0,0,0-2.27-2.27A12.8,12.8,0,0,0-50.44,13,9.67,9.67,0,0,0-54,12.32Z"/></clipPath></defs><title>CG</title><g class="cls-29"><g class="cls-30"><rect class="cls-31" x="-1.29" y="6.05" width="66.58" height="51.9"/></g></g></svg>