<svg width="445" height="185" viewBox="0 0 445 185" xmlns="http://www.w3.org/2000/svg"><title>Blue-feature-element</title><path d="M431.468 51.89h-62.702c-6.824 0-12.405-5.584-12.405-12.409v-2.255c0-6.824 5.581-12.408 12.405-12.408h24.46c6.824 0 12.406-5.585 12.406-12.409C405.632 5.584 400.05 0 393.227 0H127.715c-6.822 0-12.405 5.584-12.405 12.41 0 6.823 5.583 12.408 12.405 12.408h4.293c6.822 0 12.405 5.584 12.405 12.408v2.255c0 6.825-5.583 12.41-12.405 12.41H13.533C6.09 51.89 0 57.98 0 65.426c0 7.445 6.09 13.536 13.533 13.536H74.73c6.822 0 12.404 5.584 12.404 12.408v2.257c0 6.824-5.582 12.407-12.405 12.407H37.827c-7.444 0-13.532 6.092-13.532 13.537 0 7.445 6.088 13.537 13.532 13.537h47.831c8.324 0 15.135 5.583 15.135 12.409v2.255c0 6.824-6.811 12.409-15.135 12.409H74.982c-6.822 0-12.405 5.584-12.405 12.409 0 6.824 5.583 12.409 12.405 12.409h312.436c6.823 0 12.405-5.585 12.405-12.41 0-6.824-5.582-12.408-12.405-12.408h-12.896c-8.324 0-15.135-5.585-15.135-12.41v-2.254c0-6.826 6.811-12.41 15.135-12.41h25.876c7.44 0 13.53-6.091 13.53-13.536 0-7.445-6.09-13.537-13.53-13.537h-18.432c-6.823 0-12.405-5.583-12.405-12.407V91.37c0-6.824 5.58-12.408 12.402-12.408h49.505c7.444 0 13.532-6.091 13.532-13.536 0-7.445-6.088-13.537-13.532-13.537" fill="#0D82F2" fill-rule="evenodd"/></svg>