<svg width="445" height="185" viewBox="0 0 445 185" xmlns="http://www.w3.org/2000/svg"><title>Blue-feature-element</title><path d="M13.532 51.89h62.702c6.824 0 12.405-5.584 12.405-12.409v-2.255c0-6.824-5.581-12.408-12.405-12.408h-24.46c-6.824 0-12.406-5.585-12.406-12.409C39.368 5.584 44.95 0 51.773 0h265.512c6.822 0 12.405 5.584 12.405 12.41 0 6.823-5.583 12.408-12.405 12.408h-4.293c-6.822 0-12.405 5.584-12.405 12.408v2.255c0 6.825 5.583 12.41 12.405 12.41h118.475c7.443 0 13.533 6.09 13.533 13.536 0 7.445-6.09 13.536-13.533 13.536H370.27c-6.822 0-12.404 5.584-12.404 12.408v2.257c0 6.824 5.582 12.407 12.405 12.407h36.902c7.444 0 13.532 6.092 13.532 13.537 0 7.445-6.088 13.537-13.532 13.537h-47.831c-8.324 0-15.135 5.583-15.135 12.409v2.255c0 6.824 6.811 12.409 15.135 12.409h10.676c6.822 0 12.405 5.584 12.405 12.409 0 6.824-5.583 12.409-12.405 12.409H57.582c-6.823 0-12.405-5.585-12.405-12.41 0-6.824 5.582-12.408 12.405-12.408h12.896c8.324 0 15.135-5.585 15.135-12.41v-2.254c0-6.826-6.811-12.41-15.135-12.41H44.602c-7.44 0-13.53-6.091-13.53-13.536 0-7.445 6.09-13.537 13.53-13.537h18.432c6.823 0 12.405-5.583 12.405-12.407V91.37c0-6.824-5.58-12.408-12.402-12.408H13.532C6.088 78.963 0 72.872 0 65.427 0 57.982 6.088 51.89 13.532 51.89" fill="#0D82F2" fill-rule="evenodd"/></svg>