<svg width="24" height="17" viewBox="0 0 24 17" xmlns="http://www.w3.org/2000/svg"><title>Envelope@3x</title><path d="M23.977 1.938A.208.208 0 0 1 24 2.03v12.094c0 .625-.156 1.219-.469 1.781-.312.563-.781.844-1.406.844h-19.5c-.625 0-1.219-.281-1.781-.844C.28 15.344 0 14.75 0 14.125V2.031C0 2 .008 1.97.023 1.937a.545.545 0 0 1 0-.316.848.848 0 0 1 .165-.293.384.384 0 0 0 .046-.058.177.177 0 0 1 .07-.06C.54.899.872.66 1.302.497 1.73.332 2.17.25 2.625.25h19.5c.5 0 .902.105 1.207.316.305.211.504.528.598.95.03.062.05.129.058.199a.724.724 0 0 1-.011.222zM2.273 1.75c-.125 0-.25.008-.375.023L12 9.836 22.125 1.75H2.273zm19.852 13.5c.203 0 .316-.137.34-.41.023-.274.035-.512.035-.715V3.391l-10.008 7.992a.933.933 0 0 1-.234.14.688.688 0 0 1-.258.047.688.688 0 0 1-.258-.047.933.933 0 0 1-.234-.14L1.5 3.39v10.734c0 .203.137.441.41.715.274.273.512.41.715.41h19.5z" fill="#3DDC97" fill-rule="evenodd"/></svg>