<svg width="24" height="25" viewBox="0 0 24 25" xmlns="http://www.w3.org/2000/svg"><title>User@3x</title><path d="M12 2c-.64 0-1.273.121-1.898.363a7.025 7.025 0 0 0-1.688.926c-.5.375-.902.781-1.207 1.219-.305.437-.457.851-.457 1.242V9.5c0 .734.184 1.672.55 2.813.368 1.14.942 2.023 1.723 2.648.204.156.356.355.457.598.102.242.137.496.106.761-.047.25-.145.48-.293.692a1.43 1.43 0 0 1-.574.48L2.133 20.61a1.642 1.642 0 0 0-.387.223c-.164.117-.246.332-.246.645V23l20.977-.023v-1.454c0-.406-.098-.66-.293-.761a2.45 2.45 0 0 0-.317-.153l-6.539-3.093a1.518 1.518 0 0 1-.762-1.957c.102-.243.254-.442.457-.598.813-.625 1.387-1.512 1.723-2.66.336-1.149.504-2.082.504-2.801V5.75c0-.406-.156-.828-.469-1.266a5.521 5.521 0 0 0-1.207-1.207 6.97 6.97 0 0 0-1.687-.914A5.249 5.249 0 0 0 12 2zm0-1.5c.828 0 1.645.156 2.45.469a8.296 8.296 0 0 1 2.155 1.219 6.836 6.836 0 0 1 1.547 1.687c.399.625.598 1.25.598 1.875V9.5c0 .453-.047.977-.14 1.57-.094.594-.25 1.2-.47 1.817a8.93 8.93 0 0 1-.867 1.781 5.751 5.751 0 0 1-1.312 1.465L22.5 19.25l.738.41c.492.274.739.63.739 1.067V23c0 .406-.145.754-.434 1.043-.29.289-.637.434-1.043.434h-21a1.45 1.45 0 0 1-1.066-.434A1.422 1.422 0 0 1 0 23v-2.273c0-.407.25-.754.75-1.043l.75-.434 6.586-3.117a5.688 5.688 0 0 1-1.336-1.524c-.36-.593-.652-1.199-.879-1.816a9.68 9.68 0 0 1-.48-1.805A9.674 9.674 0 0 1 5.25 9.5V5.75c0-.625.195-1.25.586-1.875A6.635 6.635 0 0 1 7.37 2.187 8.242 8.242 0 0 1 9.54.97 6.807 6.807 0 0 1 12 .5z" fill="#3DDC97" fill-rule="evenodd"/></svg>