<svg width="804" height="868" viewBox="0 0 804 868" fill="none" xmlns="http://www.w3.org/2000/svg"><path fill-rule="evenodd" clip-rule="evenodd" d="M803.08 467.999c0 220.916-179.084 400-400 400s-400-179.084-400-400 179.084-400 400-400 400 179.084 400 400z" fill="#0D82F2"/><mask id="a" maskUnits="userSpaceOnUse" x="3" y="-4" width="801" height="872"><path fill-rule="evenodd" clip-rule="evenodd" d="M0 0v118c0 55.228 44.772 100 100 100 55.229 0 100-44.772 100-100V0H0z" transform="matrix(4 0 0 4 3.08 -4)" fill="#fff"/></mask><g mask="url(#a)"><path fill-rule="evenodd" clip-rule="evenodd" d="M396.419 343.952s7.032 143.408 0 163.096c-7.028 19.684-40.264 137.92-40.264 137.92s-38.984-114.4-38.984-118.872c0-4.476 5.752-152.744 5.752-152.744l73.496-29.4z" fill="#EAD1CA"/></g><mask id="b" maskUnits="userSpaceOnUse" x="3" y="-4" width="801" height="872"><path fill-rule="evenodd" clip-rule="evenodd" d="M0 0v118c0 55.228 44.772 100 100 100 55.229 0 100-44.772 100-100V0H0z" transform="matrix(4 0 0 4 3.08 -4)" fill="#fff"/></mask><g mask="url(#b)"><path fill-rule="evenodd" clip-rule="evenodd" d="M107.546 617.485s-3.196 358.532 0 384.1c3.196 25.564 18.536 296.54 18.536 296.54H445.63l-83.724-671.692-44.736-100.34-209.624 91.392z" fill="#238757"/></g><mask id="c" maskUnits="userSpaceOnUse" x="3" y="-4" width="801" height="872"><path fill-rule="evenodd" clip-rule="evenodd" d="M0 0v118c0 55.228 44.772 100 100 100 55.229 0 100-44.772 100-100V0H0z" transform="matrix(4 0 0 4 3.08 -4)" fill="#fff"/></mask><g mask="url(#c)"><path fill-rule="evenodd" clip-rule="evenodd" d="M342.77 74.649c-1.6 42.624-8.983 152.248-22.347 147.996-13.364-4.256-79.388-33.628-103.364-25.636-23.976 7.992-8.556-65.252-8.556-65.252L342.77 74.649z" fill="#9B611C"/></g><mask id="d" maskUnits="userSpaceOnUse" x="3" y="-4" width="801" height="872"><path fill-rule="evenodd" clip-rule="evenodd" d="M0 0v118c0 55.228 44.772 100 100 100 55.229 0 100-44.772 100-100V0H0z" transform="matrix(4 0 0 4 3.08 -4)" fill="#fff"/></mask><g mask="url(#d)"><path fill-rule="evenodd" clip-rule="evenodd" d="M205.968 201.432s24.94-28.255 27.216-35.691c4.976-16.26 14.964-2.652 17.52-3.292 2.556-.64 39.624 3.832 39.624 3.832s4.14 28.808 17.256 35.151c13.12 6.348 15.34 83.724 15.34 83.724l-82.444 19.172-42.82-40.904 8.308-61.992z" fill="#EAD1CA"/></g><mask id="e" maskUnits="userSpaceOnUse" x="3" y="-4" width="801" height="872"><path fill-rule="evenodd" clip-rule="evenodd" d="M0 0v118c0 55.228 44.772 100 100 100 55.229 0 100-44.772 100-100V0" transform="matrix(4 0 0 4 3.08 -4)" fill="#fff"/></mask><g mask="url(#e)"><path fill-rule="evenodd" clip-rule="evenodd" d="M205.969 201.432s26.872 25.984 54.324 25.984c39.348 0 44.676 0 47.292-25.984 33.232 15.336 65.828 34.512 74.136 72.22 8.308 37.704 14.7 70.3 14.7 70.3s-5.752 35.788-49.212 40.9c3.836 41.544 24.928 217.296 23.008 226.244-1.916 8.944-179.584 14.06-204.512 10.224-24.924-3.836-58.157-3.836-58.157-3.836l4.472-139.32 51.129-76.056s-74.137 1.916-83.72-17.892C69.84 364.404 105.631 280.68 115.855 267.9c10.225-12.784 28.12-51.768 90.113-66.468z" fill="#2ABF7E"/></g><g><mask id="f" maskUnits="userSpaceOnUse" x="3" y="-4" width="801" height="872"><path fill-rule="evenodd" clip-rule="evenodd" d="M0 0v118c0 55.228 44.772 100 100 100 55.229 0 100-44.772 100-100V0" transform="matrix(4 0 0 4 3.08 -4)" fill="#fff"/></mask><g mask="url(#f)"><path fill-rule="evenodd" clip-rule="evenodd" d="M225.406 125.438c-1 31.368 10.3 59.636 1.068 75.996-9.236 16.356-26.996 26.656-35.52 25.948-8.528-.712-10.604-158.172 27.048-199.02 27.084-29.384 7.404 97.076 7.404 97.076z" fill="#9B611C"/></g></g><g><mask id="g" maskUnits="userSpaceOnUse" x="3" y="-4" width="801" height="872"><path fill-rule="evenodd" clip-rule="evenodd" d="M0 0v118c0 55.228 44.772 100 100 100 55.229 0 100-44.772 100-100V0" transform="matrix(4 0 0 4 3.08 -4)" fill="#fff"/></mask><g mask="url(#g)"><path fill-rule="evenodd" clip-rule="evenodd" d="M81.935 387.661s-10.816 45.764-11.456 73.248c-.636 27.48 5.116 89.472 67.108 100.336 61.992 10.864 155.3 22.368 168.08 28.76 12.784 6.392 47.936 36.428 56.24 36.428 8.308 0 26.844-33.232 24.288-43.456-2.556-10.228-33.872-17.9-60.716-19.176-26.84-1.276-129.736-36.428-148.908-54.964-19.176-18.532-28.124-37.252-26.204-63.908 1.916-26.66 12.78-42.82 12.78-42.82s-11.74-.012-44.152-3.06c-25.364-2.388-37.06-11.388-37.06-11.388z" fill="#EAD1CA"/></g></g><g><mask id="h" maskUnits="userSpaceOnUse" x="3" y="-4" width="801" height="872"><path fill-rule="evenodd" clip-rule="evenodd" d="M0 0v118c0 55.228 44.772 100 100 100 55.229 0 100-44.772 100-100V0" transform="matrix(4 0 0 4 3.08 -4)" fill="#fff"/></mask><g mask="url(#h)"><path fill-rule="evenodd" clip-rule="evenodd" d="M281.17 179.278c14.488-2.556 32.808-12.784 41.752-31.104 8.948-18.32 19.148-82.98 16.62-92.456-3.348-12.524-15.32-60.392-84.364-41.328-43.269 11.948-55.229 53.86-50.7 96.292 3.503 32.828 25.135 53.684 35.363 60.076 10.225 6.388 41.329 8.52 41.329 8.52z" fill="#EAD1CA"/></g></g><mask id="i" maskUnits="userSpaceOnUse" x="3" y="-4" width="801" height="872"><path fill-rule="evenodd" clip-rule="evenodd" d="M0 0v118c0 55.228 44.772 100 100 100 55.229 0 100-44.772 100-100V0H0z" transform="matrix(4 0 0 4 3.08 -4)" fill="#fff"/></mask><g mask="url(#i)" fill-rule="evenodd" clip-rule="evenodd"><path d="M766.324 778.064h34.616V333.512h-34.616v444.552zM446.448 778.064h34.616V333.512h-34.616v444.552z" fill="#65676D"/><path d="M463.757 369.717l302.568 17.052v-16.316l-302.568-17.052v16.316zM463.757 437.917l302.568 17.048v-16.312l-302.568-17.052v16.316zM463.757 523.165l302.568 17.048v-16.312l-302.568-17.052v16.316z" fill="#65676D"/><path d="M608.74 390.979c-15.044-3.812-44.932-35.504-46.536-38.712-1.604-3.208-8.824-7.22-8.824-7.22l-53.96 25.676s9.828 26.408-6.416 45.196c-16.248 18.788 12.636 26.812 12.636 26.812l52.752 6.416s48.344-33.496 48.344-34.3c0-.8 2.004-23.868 2.004-23.868z" fill="#665140"/><path d="M602.404 388.925c6.74-23.584 95.192 4.26 127.872 55.412 32.68 51.148 56.852 198.004 61.748 213.12 12.076 37.296-8.172 84.004-26.64 95.372-18.472 11.364-72.816 21.132-101.232 23.976-28.416 2.84-55.412 0-55.412 0l-175.412 1.26s-2.84-218.644 0-261.268c2.844-42.624 11.368-89.512 35.52-95.196l24.156-5.68s31.256 34.096 53.988 25.572c22.736-8.524 46.888-22.732 55.412-52.568z" fill="#3DDC97"/><path d="M664.919 523.532s24.412 84.612 39.072 117.404c11.44 25.596 19.18 63.936-44.224 67.132-63.4 3.2-29.304 20.252-29.304 20.252v4.792l-48.484 15.984-17.048 5.328-63.404 2.196 9.324-47.304s80.008 3.904 96.524-3.556c16.52-7.456 51.868-29.42 54.88-85.78 2.2-41.164 2.664-96.448 2.664-96.448z" fill="#2ABF7E"/><path d="M630.464 728.319s11.012 42.088 6.04 48.484c-4.972 6.392-48.664 10.12-54.524 7.992-5.86-2.132-18.648-18.116-17.048-30.372 1.596-12.252 9.588-25.04 25.572-26.104 15.984-1.068 39.96 0 39.96 0z" fill="#665140"/><path d="M254.605 778.065h512.492a2.958 2.958 0 0 0 2.96-2.96v-19.316a2.96 2.96 0 0 0-2.96-2.964H254.605a2.96 2.96 0 0 0-2.96 2.964v19.316a2.958 2.958 0 0 0 2.96 2.96z" fill="#1B2431"/><path d="M184.084 530.116h303.324c5.768 0 11.02 3.336 13.472 8.564l100.41 214.148H265.096l-94.488-201.512c-4.628-9.868 2.576-21.2 13.476-21.2z" fill="#1B2431"/><path d="M580.027 301.543c-1.124 13.472-4.616 40.496-17.052 56.832-12.432 16.34-41.556 36.308-68.196 22.064-26.64-14.248-34.812-14.312-43.336-37.016-8.524-22.7-17.444-41.168-19.376-59.64-1.936-18.472 11.564-55.408 59.872-60.384 48.304-4.972 93.464 13.804 88.088 78.144z" fill="#665140"/><path d="M-476 1356.504h1631.08V778.016H-476v578.488z" fill="#65676D"/><path d="M205.568 60.541c2.412 8.744-3.224 16.476-4.248 24.3-1.304 9.976 1.296 19.496-1.292 24.872-4.62 9.588 11.492 44.496 11.492 44.496s3.584-61.804 9.624-79.564c6.036-17.76 15.984-30.904 29.836-30.904 6.732 0 20.412 23.188 39.604 34.988 11.7 7.192 26.872 11.372 37.632 13.62 7.184 1.504 13.992-3.64 14.324-10.972.568-12.504.676-30.992-2.608-42.38-5.328-18.467-32.88-35.9-62.668-35.747-69.324.356-71.696 57.291-71.696 57.291z" fill="#9B611C"/><path d="M539.136 306.193c0 10.964 10.656 11.5 10.656 11.5s-7.724-28.504 1.864-32.768c9.592-4.264 15.984 22.908 12.788 33.032-3.196 10.124 2.132 18.952 9.592 17.204 0 0 10.12-3.612 11.188-31.188 1.068-27.572-5.784-66.476-28.24-76.556-25.396-11.4-58.604-11.168-79.384-4.772-20.78 6.392-31.968 22.852-65.008 17.524-29.048-4.684 5.332 53.312 28.776 53.992 23.444.676 38.104-5.684 60.16-5.684 22.052 0 25.888 3.108 31.216 6.836 5.328 3.728 6.392 10.88 6.392 10.88z" fill="#2B2B2B"/><path d="M326.066 527.22l33.692 2.684 22.964 31.472-8.88 15.272-22.456-32.336-35.072-2.792M302.39 569.227l18.8 27.652 38.708 4.38 8.88-15.276-39.212-3.512-19.392-28.52" fill="#BF1616"/><path d="M306.668 520.409L207 474.865l-2.256 41.064 80.092 35.728 21.832-31.248zM153.093 502.793l-46.944 52.216 66.072 32.912 21.456-59.34-40.584-25.788zM194.549 740.409l-42.064-119.976-49.196 12.824 20.86 107.152h70.4z" fill="#C92B2B"/><path d="M74.7 783.476h173.792V733.66H74.7v49.816zM339.976 516.178l-40.136 69.516-26.48-15.284 40.136-69.52 26.48 15.288zM174.148 601.659c0 27.612-22.384 50-50 50-27.612 0-50-22.388-50-50 0-27.616 22.388-50 50-50 27.616 0 50 22.384 50 50z" fill="#2A343F"/><path d="M157.333 594.26c4.084 18.328-7.46 36.5-25.788 40.584-18.328 4.084-36.496-7.464-40.584-25.788-4.084-18.328 7.46-36.5 25.788-40.584 18.332-4.084 36.5 7.46 40.584 25.788z" fill="#C92B2B"/><path d="M219.464 488c4.084 18.328-7.46 36.5-25.788 40.584-18.328 4.084-36.5-7.464-40.584-25.792-4.084-18.323 7.46-36.495 25.788-40.58 18.328-4.087 36.5 7.46 40.584 25.789z" fill="#2A343F"/><path d="M142.148 601.659c0 9.94-8.06 18-18 18s-18-8.06-18-18 8.06-18 18-18 18 8.06 18 18z" fill="#AA1B1B"/><path d="M207.673 490.627c2.636 11.816-4.812 23.532-16.628 26.168-11.816 2.632-23.532-4.812-26.164-16.628-2.632-11.816 4.812-23.532 16.628-26.168 11.816-2.632 23.532 4.812 26.164 16.628z" fill="#C92B2B"/></g><path fill-rule="evenodd" clip-rule="evenodd" d="M622.044 268S618.24 313.656 584 325.068c41.848 19.024 95.112-19.024 95.112-19.024L622.044 268z" fill="#3DDC97"/><path fill-rule="evenodd" clip-rule="evenodd" d="M161.068 112s3.804 45.656 38.044 57.068C157.264 188.092 104 150.044 104 150.044L161.068 112z" fill="#2ABF7E"/><path fill-rule="evenodd" clip-rule="evenodd" d="M604 274c0-32.033 25.967-58 58-58h48c32.032 0 58 25.967 58 58 0 32.032-25.968 58-58 58h-48c-32.033 0-58-25.968-58-58z" fill="#3DDC97"/><path fill-rule="evenodd" clip-rule="evenodd" d="M20 118c0-32.033 25.967-58 58-58h48c32.032 0 58 25.967 58 58 0 32.032-25.968 58-58 58H78c-32.033 0-58-25.968-58-58z" fill="#2ABF7E"/><path fill-rule="evenodd" clip-rule="evenodd" d="M651.388 285.632v-4.829c0-10.988 11.122-7.725 11.122-15.617 0-4.428-3.13-6.426-7.725-6.426-5.361 0-7.626 2.863-7.626 7.991H640c0-9.357 5.794-14.751 14.518-14.751 8.058 0 15.084 4.595 15.084 13.32 0 12.187-11.321 10.888-11.321 15.55v4.762h-6.893zm-.899 14.118v-8.79h8.891v8.79h-8.89zm34.098-14.118v-4.829c0-10.988 11.122-7.725 11.122-15.617 0-4.428-3.13-6.426-7.726-6.426-5.36 0-7.625 2.863-7.625 7.991h-7.16c0-9.357 5.795-14.751 14.519-14.751 8.058 0 15.084 4.595 15.084 13.32 0 12.187-11.321 10.888-11.321 15.55v4.762h-6.893zm-.899 14.118v-8.79h8.89v8.79h-8.89zm34.098-14.118v-4.829c0-10.988 11.121-7.725 11.121-15.617 0-4.428-3.13-6.426-7.725-6.426-5.361 0-7.625 2.863-7.625 7.991h-7.16c0-9.357 5.795-14.751 14.519-14.751 8.058 0 15.084 4.595 15.084 13.32 0 12.187-11.322 10.888-11.322 15.55v4.762h-6.892zm-.9 14.118v-8.79h8.892v8.79h-8.891zM82.196 137.364L48 117.828l34.196-19.505 2.926 5.002-25.388 14.503 25.388 14.503-2.926 5.033zm4.594 12.616L110.07 92h7.14l-23.248 57.98H86.79zm35.014-12.616l-2.926-5.033 25.388-14.503-25.388-14.503 2.926-5.002L156 117.828l-34.196 19.536z" fill="#fff"/></svg>