<svg width="200" height="217" viewBox="0 0 200 217" xmlns="http://www.w3.org/2000/svg" xmlns:xlink="http://www.w3.org/1999/xlink"><title>Grow@3x</title><defs><path d="M0 .005l53 131c0 55.228 44.771 99.999 100 99.999 49.606 0 90.776-36.119 98.645-83.494.113-.686 27.999-1.926 29.355-6.506C290.243 109.788 297 .005 297 .005H0z" id="a"/></defs><g fill="none" fill-rule="evenodd"><path d="M200 116c0 55.229-44.771 100-100 100S0 171.229 0 116C0 60.77 44.771 16 100 16s100 44.77 100 100" fill="#0D82F2"/><g transform="translate(-53 -14.005)"><mask id="b" fill="#fff"><use xlink:href="#a"/></mask><path fill="#DDD" mask="url(#b)" d="M76.833 249.333h155.611v-235H76.833z"/><path fill="#F2F2F2" mask="url(#b)" d="M72.833 249.333h156V18.606h-156z"/><path d="M85.888 51.871c0-3.401 1.906-6.407 5.994-6.407 2.46 0 4.43 1.248 5.432 3.568l-2.084.826c-.465-1.634-1.748-2.267-3.365-2.267-2.63 0-3.762 1.889-3.762 4.192 0 2.47 1.133 4.359 3.797 4.359 1.599 0 2.697-.632 3.365-2.302l2.066.844c-.984 2.32-2.963 3.577-5.431 3.577-4.088 0-6.012-2.98-6.012-6.39M104.212 52.847c0-.193-.018-.378-.07-.554-.22-.905-.975-1.371-1.907-1.371-1.265 0-1.82.826-2.021 1.925h3.998zm-6.266.879c0-2.285 1.336-4.606 4.307-4.606 3.076 0 4.068 2.47 4.068 4.43 0 .36-.035.72-.078.844h-6.03c.185 1.15.817 1.925 2.198 1.925.79 0 1.494-.246 2.11-.932l1.476 1.292c-.96 1.064-2.127 1.582-3.603 1.582-3.024 0-4.448-2.171-4.448-4.535zM108.114 49.305h2.092v1.477a2.5 2.5 0 0 1 2.355-1.662c.58 0 1.188.203 1.61.633l-.977 1.758a1.713 1.713 0 0 0-.957-.3c-1.002 0-2.049.933-2.049 3.165v3.709h-2.074v-8.78zM116.034 55.66v-4.563h-1.416v-1.792h1.451v-2.18l2.11-1.529v3.71h2.197v1.791h-2.197v4.184c0 .844.412 1.09.974 1.09.45 0 .932-.176 1.223-.316v1.942c-.326.123-.959.264-1.6.264-1.715 0-2.742-1.002-2.742-2.602M122.353 58.085h2.145v-8.78h-2.145v8.78zm-.053-10.441h2.25v-1.978h-2.25v1.978zM134.474 58.085h-1.98v-6.987h-2.952v6.987h-2.144v-6.987h-1.442v-1.793h1.442v-.633c0-2.013 1.732-3.191 3.709-3.191 1.476 0 2.47.326 3.402.923l-.984 1.512c-.651-.448-1.39-.703-2.313-.703-1.15 0-1.67.615-1.67 1.494v.598h4.932v8.78zM136.24 53.708c0-2.303 1.37-4.588 4.235-4.588 1.741 0 3.13.844 3.797 2.593l-2.039.791c-.228-.844-.879-1.442-1.758-1.442-1.476 0-2.056 1.336-2.056 2.646 0 1.336.562 2.61 2.056 2.61.862 0 1.53-.571 1.758-1.397l1.951.738c-.58 1.635-1.95 2.602-3.69 2.602-2.866 0-4.255-2.224-4.255-4.553M150.9 54.464v-.07h-2.269c-.974 0-1.423.509-1.423 1.063 0 .58.466.993 1.423.993 1.32 0 2.137-.95 2.268-1.986m1.943-1.705v5.326h-1.767l-.13-1.17c-.573.906-1.74 1.346-2.743 1.346-1.803 0-3.192-1.037-3.192-2.874 0-1.907 1.53-2.54 3.498-2.54h2.383c-.045-1.301-.43-1.855-1.828-1.855-1.012 0-1.687.598-2.066 1.24l-1.643-1.187c.844-1.151 1.96-1.925 3.691-1.925 2.391 0 3.797 1.494 3.797 3.639M155.435 55.66v-4.563h-1.414v-1.792h1.449v-2.18l2.11-1.529v3.71h2.197v1.791h-2.197v4.184c0 .844.414 1.09.976 1.09.447 0 .932-.176 1.22-.316v1.942c-.323.123-.956.264-1.6.264-1.712 0-2.741-1.002-2.741-2.602M167.16 52.847c0-.193-.019-.378-.07-.554-.22-.905-.976-1.371-1.908-1.371-1.265 0-1.82.826-2.02 1.925h3.997zm-6.267.879c0-2.285 1.336-4.606 4.307-4.606 3.076 0 4.068 2.47 4.068 4.43 0 .36-.035.72-.078.844h-6.029c.184 1.15.816 1.925 2.197 1.925.791 0 1.494-.246 2.11-.932l1.476 1.292c-.959 1.064-2.127 1.582-3.603 1.582-3.024 0-4.448-2.171-4.448-4.535z" fill="#0D82F2" mask="url(#b)"/><path d="M101.655 91.271v8.953H99.3l-.258-2.332c-.89 1.56-2.696 2.567-4.899 2.567-5.449 0-8.015-3.973-8.015-8.52 0-4.535 2.52-8.543 7.992-8.543 3.258 0 5.883 1.664 7.22 4.758l-2.638 1.101c-.762-2.25-2.496-3.257-4.606-3.257-3.504 0-5.015 2.753-5.015 5.824 0 3.293 1.511 5.976 5.062 5.976 2.59 0 4.418-1.429 4.512-4.125H95.01v-2.402h6.645zM104.843 88.517h2.789v1.97a3.332 3.332 0 0 1 3.14-2.215c.774 0 1.583.268 2.145.843l-1.301 2.344a2.288 2.288 0 0 0-1.277-.398c-1.336 0-2.73 1.241-2.73 4.218v4.946h-2.766V88.518zM121.331 95.396v-.094h-3.023c-1.3 0-1.899.68-1.899 1.418 0 .774.621 1.324 1.9 1.324 1.756 0 2.846-1.265 3.022-2.648m2.59-2.273v7.101h-2.356l-.175-1.558c-.762 1.207-2.32 1.792-3.657 1.792-2.402 0-4.254-1.382-4.254-3.832 0-2.542 2.04-3.386 4.664-3.386h3.176c-.058-1.735-.574-2.473-2.437-2.473-1.348 0-2.25.797-2.754 1.652l-2.192-1.582c1.125-1.535 2.614-2.566 4.922-2.566 3.188 0 5.063 1.992 5.063 4.852M134.561 94.365c0-1.969-.867-3.504-2.835-3.504-1.97 0-2.86 1.56-2.86 3.504 0 1.97.89 3.504 2.86 3.504 1.969 0 2.835-1.512 2.835-3.504m-8.602 0c0-3.234 1.782-6.094 5.029-6.094 1.219 0 2.518.41 3.327 1.418v-6.023h2.906v16.558h-2.66l-.129-1.324c-.807 1.113-2.108 1.56-3.397 1.56-3.293 0-5.075-2.825-5.075-6.095M147.968 93.24c0-.258-.023-.504-.094-.738-.293-1.207-1.301-1.828-2.543-1.828-1.687 0-2.425 1.101-2.695 2.566h5.332zm-8.355 1.172c0-3.047 1.78-6.14 5.742-6.14 4.1 0 5.426 3.292 5.426 5.905 0 .481-.047.961-.106 1.126h-8.04c.247 1.535 1.09 2.566 2.93 2.566 1.055 0 1.993-.328 2.813-1.242l1.969 1.722c-1.277 1.418-2.836 2.11-4.805 2.11-4.031 0-5.93-2.895-5.93-6.047zM166.765 83.666v16.559h-2.93V88.518h-3.867v-2.262h2.215c1.125 0 1.769-.481 1.769-1.582v-1.008h2.813z" fill="#2ABF7E" mask="url(#b)"/><path fill="#595959" mask="url(#b)" d="M88.147 120.706h4.512v-1.593h-4.512v-2.44h5.113v-1.593h-6.849v9.659h1.736zM96.884 119.168c.725 0 1.312.362 1.482 1.066.04.137.055.28.055.43h-3.11c.157-.853.589-1.496 1.573-1.496m.123 5.708c1.148 0 2.057-.403 2.803-1.23l-1.15-1.005c-.477.533-1.024.724-1.64.724-1.073 0-1.566-.601-1.708-1.497H100c.033-.096.06-.376.06-.656 0-1.524-.771-3.445-3.163-3.445-2.311 0-3.35 1.804-3.35 3.582 0 1.839 1.107 3.527 3.459 3.527M104.19 119.168c.725 0 1.312.362 1.484 1.066.041.137.055.28.055.43h-3.11c.157-.853.587-1.496 1.571-1.496m.123 5.708c1.148 0 2.06-.403 2.803-1.23l-1.149-1.005c-.478.533-1.025.724-1.64.724-1.073 0-1.565-.601-1.709-1.497h4.69c.034-.096.062-.376.062-.656 0-1.524-.774-3.445-3.166-3.445-2.31 0-3.35 1.804-3.35 3.582 0 1.839 1.107 3.527 3.46 3.527M111.567 119.277c1.148 0 1.654.896 1.654 2.044 0 1.162-.506 2.044-1.654 2.044s-1.668-.896-1.668-2.044c0-1.135.52-2.044 1.668-2.044m-.404 5.6c.752 0 1.511-.26 1.982-.91l.076.772h1.551v-9.659h-1.695v3.513c-.47-.587-1.23-.827-1.942-.827-1.892 0-2.93 1.668-2.93 3.555 0 1.907 1.038 3.555 2.958 3.555M120.036 119.277c1.148 0 1.662.91 1.662 2.044 0 1.135-.514 2.017-1.662 2.017s-1.682-.869-1.682-2.017.534-2.044 1.682-2.044zm-1.53 4.778c.477.588 1.237.821 1.948.821 1.893 0 2.926-1.66 2.926-3.555 0-1.9-1.033-3.555-2.953-3.555-.733 0-1.444.24-1.922.827v-3.513h-1.723v9.66h1.723v-.685zM128.773 121.868v.055c-.102.806-.738 1.545-1.764 1.545-.745 0-1.108-.322-1.108-.773 0-.43.35-.827 1.108-.827h1.764zm-4.58.772c0 1.43 1.08 2.236 2.481 2.236.78 0 1.689-.342 2.133-1.046l.103.91h1.375v-4.143c0-1.668-1.095-2.83-2.953-2.83-1.348 0-2.215.601-2.871 1.497l1.276.922c.296-.499.82-.964 1.608-.964 1.085 0 1.387.431 1.422 1.443h-1.853c-1.532 0-2.722.492-2.722 1.975zM134.741 124.876c1.354 0 2.42-.752 2.871-2.023l-1.517-.575c-.178.643-.698 1.087-1.368 1.087-1.162 0-1.599-.991-1.599-2.03 0-1.02.451-2.058 1.6-2.058.683 0 1.19.465 1.367 1.12l1.585-.614c-.519-1.36-1.599-2.016-2.953-2.016-2.228 0-3.295 1.777-3.295 3.568 0 1.812 1.08 3.54 3.31 3.54M140.58 122.736l1.052-1.162 2.002 3.165h1.968l-2.835-4.184 2.556-2.645h-2.168l-2.576 2.837v-5.667h-1.668v9.66h1.668zM146.792 120.023h1.818v-1.805h-1.818zM146.792 124.74h1.818v-1.805h-1.818zM91.612 140.74h35.55v-4.298H85.166v4.297h3.95zM134.905 140.74H176.901v-4.298H134.905zM91.612 156.74H115.312v-4.298H85.166v4.297h3.95zM127.005 152.442h-3.95v4.297H149.252v-4.297H129.5zM164.894 152.442h-7.899v4.297H171.34v-4.297h-3.95zM185.528 156.74h3.951v-4.298h-10.395v4.297h3.95zM91.612 172.74h15.8v-4.298H85.166v4.297h3.95zM129.501 172.74h7.9v-4.298H115.155v4.297H127.005zM159.49 172.74h3.95v-4.298H145.144v4.297H156.995zM193.429 168.442h-22.245v4.297h26.195v-4.297zM112.816 184.442H85.167v4.297h34.094v-4.297h-3.95zM142.806 184.442H127.005v4.297h22.246v-4.297h-3.95zM168.845 184.442H156.995v4.297H175.29v-4.297h-3.95zM186.983 184.442h-3.949v4.297h10.395v-4.297h-3.95zM100.966 200.442h-15.8v4.297H107.412v-4.297h-3.95z"/><text mask="url(#b)" font-family="AppleColorEmoji, Apple Color Emoji" font-size="12" fill="#FFF"><tspan x="116" y="208.005">😀👍</tspan></text><path fill="#3DDC97" mask="url(#b)" d="M212.442 76.225l-6.097-2.53-3.433 5.638-8.435-25.865 9.53-3.108z"/><path fill="#3DDC97" mask="url(#b)" d="M181.59 76.225l6.097-2.53 3.433 5.638 8.435-25.865-9.53-3.108z"/><path d="M214.2 45.517c0-9.49-7.694-17.184-17.184-17.184-9.49 0-17.183 7.694-17.183 17.184 0 9.489 7.693 17.183 17.183 17.183S214.2 55.006 214.2 45.517" fill="#EFD90F" mask="url(#b)"/></g></g></svg>