<svg width="1296" height="667" viewBox="0 0 1296 667" xmlns="http://www.w3.org/2000/svg" xmlns:xlink="http://www.w3.org/1999/xlink"><title>Group</title><defs><path id="a" d="M.302.868h160.902v76.154H.302z"/><path id="c" d="M.384.868h170.81v190.305H.383z"/><path d="M11.039 9.82c-10.92 11.066-9.37 27.137-9.37 27.137.518-.071 2.834-12.45 4.817-15.802C17.37 2.747 29.04 25.731 29.04 25.731s33.174 19.521 45.372 18.39c.561-.733 4.128-2.161 7.682-.105C86.74 46.708 69.12.456 69.12.456L36.26.094s-.329-.022-.92-.022c-3.378 0-15.353.677-24.3 9.747M1.636 36.962l.033-.005a.308.308 0 0 0-.033.005m-.105.015l.028-.004-.028.004m-.037.004l.037-.004c-.013 0-.025.003-.037.004m-.565.08c.063-.01.367-.052.565-.08l-.565.08m-.004 0H.93.925m-.001 0h.001-.001m-.002 0h.002-.002m-.002 0h0m0 0c-.003 0-.003 0 0 0" id="e"/><path id="g" d="M.606.158h191.1v380.507H.607z"/><path id="i" d="M.496.261h156.918v172.72H.496z"/><path id="k" d="M.055.025h41.796V75.98H.055z"/><path id="m" d="M.665.026H161.19v71.046H.665z"/><path id="o" d="M.9.11h214.077v181.372H.9z"/><path id="q" d="M.64.32h129.313v11.128H.64z"/><path id="s" d="M.201.013h109.542v114.782H.201z"/><path id="u" d="M.112.58h99.605v121.39H.112z"/><path id="w" d="M.2.97h251.834v164.723H.201z"/><path id="y" d="M.03.154h234.793v10.08H.03z"/><path id="A" d="M.812.792h247.37v219.555H.811z"/><path id="C" d="M.307.29h229.261v178.763H.308z"/><path id="E" d="M.611.347h103.636v7.458H.61z"/></defs><g fill="none" fill-rule="evenodd"><g fill="#3477D5"><path d="M658.284 105.95h-76.16c-8.286 0-15.066-6.771-15.066-15.05v-2.736c0-8.276 6.78-15.048 15.067-15.048h29.712c8.286 0 15.066-6.774 15.066-15.05 0-8.28-6.78-15.052-15.066-15.052H289.339c-8.284 0-15.066 6.773-15.066 15.052 0 8.276 6.782 15.05 15.066 15.05h5.216c8.285 0 15.066 6.772 15.066 15.048v2.737c0 8.278-6.781 15.049-15.066 15.049H150.652c-9.04 0-16.438 7.389-16.438 16.419 0 9.03 7.397 16.417 16.438 16.417h74.332c8.286 0 15.065 6.773 15.065 15.05v2.737c0 8.276-6.779 15.05-15.066 15.05H180.16c-9.042 0-16.437 7.387-16.437 16.418 0 9.028 7.395 16.417 16.437 16.417h58.096c10.11 0 18.383 6.773 18.383 15.05v2.736c0 8.276-8.272 15.05-18.383 15.05H225.29c-8.286 0-15.067 6.773-15.067 15.05 0 8.277 6.78 15.051 15.067 15.051H604.78c8.287 0 15.067-6.774 15.067-15.05 0-8.278-6.78-15.05-15.067-15.05h-15.662c-10.112 0-18.385-6.775-18.385-15.051v-2.735c0-8.278 8.273-15.05 18.385-15.05h31.428c9.038 0 16.435-7.39 16.435-16.418 0-9.031-7.397-16.419-16.435-16.419h-22.388c-8.287 0-15.067-6.773-15.067-15.05v-2.737c0-8.276 6.778-15.049 15.063-15.049h60.13c9.042 0 16.436-7.388 16.436-16.417 0-9.03-7.394-16.419-16.436-16.419M1279.24 327.906h-76.16c-8.287 0-15.067-6.772-15.067-15.05v-2.736c0-8.277 6.78-15.048 15.068-15.048h29.71c8.288 0 15.068-6.774 15.068-15.05 0-8.28-6.78-15.052-15.068-15.052H910.295c-8.285 0-15.067 6.772-15.067 15.051 0 8.277 6.782 15.05 15.067 15.05h5.214c8.287 0 15.068 6.772 15.068 15.049v2.736c0 8.278-6.781 15.05-15.068 15.05H771.607c-9.04 0-16.437 7.388-16.437 16.418s7.397 16.418 16.437 16.418h74.333c8.285 0 15.065 6.772 15.065 15.049v2.737c0 8.277-6.78 15.05-15.068 15.05h-44.823c-9.04 0-16.436 7.387-16.436 16.418 0 9.029 7.396 16.418 16.436 16.418h58.098c10.11 0 18.383 6.772 18.383 15.05v2.735c0 8.277-8.273 15.05-18.383 15.05h-12.967c-8.288 0-15.07 6.774-15.07 15.051 0 8.277 6.782 15.05 15.07 15.05h379.49c8.288 0 15.068-6.773 15.068-15.05 0-8.277-6.78-15.05-15.067-15.05h-15.664c-10.11 0-18.383-6.774-18.383-15.05v-2.736c0-8.278 8.274-15.05 18.383-15.05h31.43c9.037 0 16.434-7.389 16.434-16.418 0-9.03-7.397-16.418-16.435-16.418h-22.387c-8.288 0-15.068-6.773-15.068-15.05v-2.737c0-8.277 6.778-15.05 15.064-15.05h60.13c9.04 0 16.436-7.387 16.436-16.417 0-9.03-7.396-16.418-16.436-16.418M1185.237 63.047h-76.159c-8.287 0-15.067-6.773-15.067-15.05V45.26c0-8.275 6.78-15.048 15.067-15.048h29.71c8.288 0 15.068-6.774 15.068-15.05 0-8.28-6.78-15.052-15.067-15.052H816.293c-8.285 0-15.068 6.773-15.068 15.052 0 8.276 6.783 15.05 15.068 15.05h5.214c8.286 0 15.067 6.773 15.067 15.048v2.737c0 8.277-6.78 15.05-15.067 15.05H677.605c-9.04 0-16.438 7.388-16.438 16.418s7.397 16.418 16.438 16.418h74.332c8.285 0 15.065 6.772 15.065 15.048v2.738c0 8.276-6.78 15.049-15.067 15.049h-44.822c-9.042 0-16.436 7.388-16.436 16.419 0 9.028 7.394 16.417 16.436 16.417h58.096c10.11 0 18.384 6.773 18.384 15.05v2.736c0 8.276-8.273 15.05-18.384 15.05h-12.967c-8.287 0-15.069 6.773-15.069 15.05 0 8.277 6.782 15.051 15.069 15.051h379.491c8.288 0 15.068-6.774 15.068-15.05 0-8.278-6.78-15.05-15.068-15.05h-15.664c-10.11 0-18.383-6.775-18.383-15.051v-2.735c0-8.278 8.273-15.05 18.383-15.05h31.43c9.038 0 16.435-7.39 16.435-16.418 0-9.031-7.397-16.419-16.435-16.419h-22.388c-8.287 0-15.067-6.773-15.067-15.05v-2.737c0-8.276 6.778-15.048 15.063-15.048h60.13c9.04 0 16.436-7.389 16.436-16.418 0-9.03-7.395-16.418-16.436-16.418"/><path d="M17.043 300.01h76.159c8.287 0 15.067-6.772 15.067-15.05v-2.736c0-8.277-6.78-15.048-15.067-15.048H63.49c-8.287 0-15.067-6.774-15.067-15.05 0-8.28 6.78-15.052 15.067-15.052h322.496c8.285 0 15.068 6.772 15.068 15.051 0 8.277-6.783 15.05-15.068 15.05h-5.214c-8.286 0-15.067 6.772-15.067 15.049v2.736c0 8.278 6.78 15.05 15.067 15.05h143.902c9.04 0 16.438 7.388 16.438 16.418s-7.397 16.418-16.438 16.418h-74.332c-8.285 0-15.065 6.772-15.065 15.049v2.737c0 8.277 6.78 15.05 15.067 15.05h44.823c9.04 0 16.437 7.387 16.437 16.418 0 9.029-7.396 16.418-16.437 16.418h-58.097c-10.11 0-18.384 6.772-18.384 15.05v2.735c0 8.277 8.273 15.05 18.384 15.05h12.967c8.287 0 15.068 6.773 15.068 15.051 0 8.277-6.78 15.05-15.068 15.05H70.547c-8.288 0-15.068-6.773-15.068-15.05 0-8.278 6.78-15.05 15.068-15.05H86.21c10.111 0 18.384-6.774 18.384-15.05v-2.736c0-8.278-8.273-15.05-18.384-15.05H54.781c-9.038 0-16.434-7.39-16.434-16.418 0-9.03 7.396-16.418 16.434-16.418h22.388c8.287 0 15.067-6.773 15.067-15.05v-2.737c0-8.277-6.777-15.05-15.064-15.05h-60.13c-9.04 0-16.436-7.387-16.436-16.417 0-9.03 7.396-16.418 16.437-16.418"/></g><g transform="translate(762.707 539.178)"><mask id="b" fill="#fff"><use xlink:href="#a"/></mask><path fill="#3A3A3A" mask="url(#b)" d="M.302 12.708v71.648h160.902L159.663.868z"/></g><path d="M790.227 185.35c.202 7.894-.405 7.488-1.012 8.702-.607 1.215-8.296 17.866-8.296 17.866l13.557 39.412 9.512 5.87 37.841-37.24s7.493-30.967 7.285-38.86c-.206-7.895-1.618-18.823-1.011-26.312.607-7.489.404-20.644 2.024-26.109 1.618-5.464 3.642-34.205.404-51.003-3.238-16.798-17.145-63.867-78.192-54.04-50.324 8.102-63.054 37.952-59.82 69.827.603 5.932 6.553 13.69 8.348 18.722 3.267 9.158 8.142 18.041 10.574 24.388 9.308 24.287 18.927 38.722 41.18 52.42 9.536 5.87 17.606-3.643 17.606-3.643" fill="#EAD4CA"/><path d="M789.51 196.63c1.324 4.507-5.495 14.425-2.723 19.813 2.773 5.39-4.269.126-4.269.126v-14.692l6.992-5.246z" fill="#E0CEC3"/><path d="M779.298 202.262s-39.054 15.028-46.946 24.763c-7.892 9.733-19.427 100.81-20.237 119.836-.81 19.024-3.219 99.78-3.219 99.78l15.564 49.934 58.28 89.313H899.3l4.857-211.61s21.856-148.374 19.427-156.609c-2.428-8.234-23.759-21.593-31.044-24.831-7.285-3.238-36.68-14.573-36.68-14.573l-34.874 42.706-19.295 39.223-2.762-4.006-19.631-53.926z" fill="#6D4225"/><path d="M729.62 295.858c-4.149 34.81-2.732 33.642-.304 41.311 2.429 7.668-4.856 112.713-4.856 112.713h3.642s6.678-98.659 6.678-103.977c0-2.465-3.62-4.62-5.16-25.76-1.783-24.463 0-24.287 0-24.287" fill="#663F24"/><path d="M847.96 160.094c-3.676 3.119-.869 18.526-1.324 20.348-.456 1.822-.584 6.522-6.375 10.626-22.174 15.71-26.763 22.82-26.763 22.82l8.316 2.681 33.776-22.617s.607-23.529 0-23.984c-.607-.455-7.63-9.874-7.63-9.874" fill="#E0CEC3"/><path d="M790.051 186.89c-4.452 5.264-12.977 14.854-13.787 24.569-.808 9.715-5.665 29.743-5.665 29.743l11.747-8.339s12.13 26.867 20.226 33.747c4.28-3.95 7.938-15.1 18.82-24.388 9.424-8.045 15.151-19.573 23.272-27.323 5.548-5.297 11.416-5.232 13.052-10.221 4.189-12.785 2.933-15.335 2.529-21.003-.404-5.666-1.72-16.844-12.285-23.58-.406 10.788.346 19.384 1.155 21.004.81 1.62-7.285 13.912-13.356 18.216s-22.26 14.572-22.26 14.572-8.499 34.207-10.117 36.736c-1.62 2.528-14.166-33.093-18.213-36.331-4.048-3.239 3.136-13.155 3.946-15.584.809-2.429.936-11.817.936-11.817" fill="#3477D5"/><path fill="#2E6AC1" d="M811.855 220.395l15.891 15.39 1.589-1.152 2.439 1.631-18.275-22.376z"/><path d="M900.23 274.099c-11.857 19.43-14.691 108.585-12.263 116.63 2.429 8.045-.965 92.24-.965 92.24h25.249L900.229 274.1z" fill="#663F24"/><path d="M852.255 190.005c-16.254 22.111-29.782 48.335-35.018 55.82-5.336 7.63-3.809 10.076-3.809 10.076s40.788-21.775 45.83-36.425c5.043-14.652-7.003-29.471-7.003-29.471M907.77 201.877c11.51 8.538 35.24 27.73 36.455 41.93 1.214 14.203-3.617 261.327-13.04 262.541-9.422 1.214-38.563 0-38.563 0V404.35s1.59-81.416 0-108.492c-1.771-30.157 15.148-93.981 15.148-93.981" fill="#6D4225"/><path d="M813.499 213.888L832 240.16s9.626-6.642 15.292-10.993c5.666-4.35 11.772-23.83 13.276-36.086 1.502-12.258-12.174-9.408-12.174-9.408l-4.34 16.856-30.556 13.358z" fill="#3477D5"/><path d="M850.65 150.56c-4.004 12.835-5.153-7.9-5.457-9.418-.304-1.518-4.316-18.535-4.316-18.535s6.985-3.036 6.713-9.108c-.272-6.072-1.767-34.913-13.768-31.27-12.002 3.643-6.134 15.484-6.134 15.484s-2.475 4.654-3.824 4.857c-1.352.203-4.367-2.429-5.482-4.25-1.115-1.822-6.275-15.18-8.4-17.609-2.125-2.428-9.106-5.16-10.017-6.679-.91-1.518-3.035-4.25-6.678-3.34-3.642.912-34.604 11.84-46.139 11.84h-28.533s-3.87 11.386-1.946 19.025c.863 3.428 2.558 7.048 2.558 7.048s-20.646-11.914-25.199-17.17c-4.553-5.259-8.499-11.33-8.803-16.795-.303-5.465 8.466-11.537 19.023-18.62 4.447-2.985 4.137-1.657 4.31-2.397 1.513-6.524 7.085-16.188 12.253-18.147 7.214-2.732 11.57-4.997 34.61-12.447 28.533-9.226 56.422-6.622 74.671 9.108 18.25 15.73 42.721 47.382 20.559 118.422" fill="#E3D060"/><path d="M758.828 166.369l-.376-1.155c.187-.06 18.746-6.082 32.945-12.265 5.04-2.195 6.623-4.8 7.473-6.198.39-.643.672-1.105 1.133-1.297l.465 1.122c-.108.063-.36.475-.56.805-.92 1.514-2.634 4.333-8.027 6.68-14.254 6.21-32.868 12.247-33.053 12.308" fill="#CEB7AA"/><path d="M766.313 162.84s9.79 4.326 17.354 2.505c7.563-1.822 11.914-13.293 11.914-13.293l-29.268 10.789zM761.136 149.772c-2.751 0-4.592-8.92-7.638-28.703-.888-5.758-1.654-10.734-2.308-13.352l1.177-.294c.668 2.673 1.44 7.673 2.33 13.461 1.386 8.997 4.262 27.673 6.416 27.673h.03c3.744-.287 9.067-3.797 9.12-3.832l.67 1.013c-.228.15-5.64 3.717-9.698 4.029a.904.904 0 0 1-.099.005" fill="#CEB7AA"/><path d="M782.014 103.397c1.142 3.86.564 7.432-1.292 7.98-1.856.55-4.286-2.133-5.427-5.99-1.143-3.859-.563-7.431 1.292-7.982 1.855-.55 4.285 2.134 5.427 5.992M740.887 115.573c1.024 3.462.506 6.667-1.159 7.16-1.664.493-3.844-1.915-4.869-5.376-1.024-3.463-.506-6.667 1.159-7.16 1.664-.493 3.844 1.914 4.869 5.376" fill="#2C1A0F"/><path d="M718.615 82.533c-9.94-.303-22.082-5.768-19.957 0 2.125 5.769 19.172 24.503 18.177 19.648-.994-4.854-.955-7.562-.053-12.242.947-4.912 1.833-7.406 1.833-7.406" fill="#E0CA5F"/><path d="M925.004 428.903c15.214 5.972 16.841 26.092 25.526 6.186 8.687-19.907 10.247-104.638-17.963-135.249-22.895-24.84-42.23-13.119-48.556-12.805-7.453.368-27.646-7.07-37.582 31.234-6.64 25.603 9.724 67.206 7.995 93.142-2.141 32.105 17.869 36.543 29.273 47.001 21.713 19.906 13.064-24.984 13.064-24.984l28.243-4.525z" fill="#B76629"/><path d="M958.059 434.966c-12.257-4.978-23.837-5.339-25.284-11.492-1.449-6.153-3.258-24.25-3.258-24.25l-24.103 7.788 1.809 17.01-.724 7.965-28.731 7.774-10.856 13.03-6.152 38.185 55.73 7.781 34.017-34.384 7.552-29.407z" fill="#EAD4CA"/><path d="M927.683 401.983s-4.184 7.958-6.27 10.13c-6.755 7.028-14.448 9.476-14.448 9.476l-1.442-10.246 20.912-13.316 1.248 3.956z" fill="#E0CEC3"/><path d="M934.223 374.125c-4.929 18.797-9.592 34.329-22.259 41.567-12.666 7.238-28.961 3.187-38.614-7.006-15.74-16.62-24.094-31.819-22.284-68.376 1.81-36.555 11.865-44.238 21.999-46.049 10.132-1.81 47.786 9.41 51.938 43.071a9.056 9.056 0 0 1 1.77-.454c11.77-1.754 17.252 23.261 9.62 26.513-3.037 1.296-6.53-2.596-5.428-.724 3.62 6.154 3.258 11.458 3.258 11.458" fill="#EAD4CA"/><g transform="translate(830.701 425.027)"><mask id="d" fill="#fff"><use xlink:href="#c"/></mask><path d="M152.097 33.353c-1.268 18.792-4.97 135.161-3.702 151.448 1.266 16.287 13.209 18.504 13.209 18.504l9.59 151.29L.383 353.51s9.047-123.056 17.01-155.272c7.96-32.213-2.534-100.919-1.087-122.486C17.754 54.185 32.23 25.231 41.638 15.82 51.048 6.41 76.423.868 76.423.868l-.625 6.092s-6.94 7.116-2.03 8.276c9.699 2.291 8.58 1.706 15.858 1.25 14.369-.898 15.622-2.068 15.259-14.01 9.77.341 33.088 11.287 38.629 13.255 13.381 4.757 8.583 17.622 8.583 17.622" fill="#C4C269" mask="url(#d)"/></g><path d="M982.798 447.76c12.53 23.778 15.982 72.363 11.497 103.84-4.487 31.478-15.782 49.333-26.2 53.19-11.129 4.118-25.55 6.167-32.787.92-7.238-5.248-25.497-35.572-26.78-39.993-1.282-4.424 12.757 2.759 20.9-5.158 6.986-6.794 4.703-18.234 5.88-21.265 1.175-3.03 12.304 13.03 12.304 13.03s3.611-21.222 3.242-31.66c-1.186-33.541 16.004-82.475 18.407-81.646 3.727 1.286 9.736 1.533 13.537 8.742" fill="#C4C269"/><path d="M899.123 355.72c.226 3.215 1.792 5.727 3.498 5.606 1.706-.119 2.907-2.823 2.68-6.039-.225-3.216-1.79-5.727-3.496-5.608-1.707.12-2.908 2.825-2.682 6.04M856.304 357.029c.186 2.649 1.477 4.717 2.882 4.618 1.404-.1 2.393-2.325 2.207-4.975-.186-2.649-1.474-4.715-2.88-4.617-1.405.098-2.393 2.326-2.209 4.974" fill="#4F3221"/><path d="M888.233 406.752c8.338 0 15.102-3.11 20.974-9.562l-.804-.733c-6.934 7.622-15.172 10.398-25.92 8.746l-.165 1.073c2.057.317 4.027.476 5.915.476" fill="#CEB7AA"/><path d="M925.004 337.332c-4.977 2.714 2.518 7.986-2.108 8.914-1.996.4-4.9-1.22-8.377-3.605-1.448-.994-4.619-11.546-3.648-14.668.482-1.546-3.647 9.455-5.044 8.5-2.339-1.595-4.778-3.134-7.256-4.39-11.043-5.596-22.433-6.01-32.202-4.664-1.635.226-1.107-11.117-1.718-9.676-1.093 2.577-6.076 11.14-7.502 11.503-10.252 2.602-11.028 5.05-11.073 3.368-.092-3.532 17.842-40.791 17.842-40.791l41.354 2.254 26.96 27.148-7.228 16.107zM931 362.223s-2.642 28.044-7.639 49.44c-3.694 15.817-3.068 24.019.055 32.973 2.105 6.04 1.42 18.833 18.15 15.183 16.73-3.647 6.256-22.443 10.109-28.116 3.852-5.672-17.484-66.144-17.484-66.144l-3.19-3.336z" fill="#B76629"/><path d="M875.387 384.277c-.122 0-.24-.003-.358-.01-.972-.062-1.685-.382-2.117-.954-2.016-2.658.82-8.48 3.097-13.159.879-1.808 1.878-3.859 1.83-4.383-.236-2.619.762-19.098.806-19.797l1.212.074c-.011.17-1.036 17.085-.808 19.613.074.825-.617 2.29-1.95 5.025-1.905 3.914-4.785 9.828-3.22 11.895.21.276.623.436 1.228.474 2.44.166 6.729-1.745 7.936-2.98l.868.85c-1.333 1.36-5.646 3.352-8.524 3.352" fill="#CEB7AA"/><g transform="translate(850 293)"><mask id="f" fill="#fff"><use xlink:href="#e"/></mask><path d="M81.58 46.58l-6.082-.51c.525-6.19-6.667-36.185-34.047-39.376-12.217-1.426-22.156.999-28.75 7.005-5.818 5.3-8.738 13.36-8.44 23.31l-6.1.18C-2.191 25.426 1.41 15.756 8.578 9.227 16.52 1.995 28.136-.964 42.162.67c31.697 3.694 40.124 37.584 39.417 45.91" fill="#4F3221" mask="url(#f)"/></g><g><path d="M453.498 231.457c-17.023 6.68-32.987 2.834-42.704-19.432-9.717-22.266 6.883-108.093 47.37-136.432 40.489-28.34 65.819-19.028 70.564-13.766 4.743 5.264 8.19-6.184 20.129 36.436 12.022 42.914 19.03 106.474-5.263 128.74-24.293 22.268-58.498 9.515-58.498 9.515l-31.598-5.061z" fill="#2B2B2B"/><path d="M416.516 238.239c13.712-5.567 26.668-5.972 28.287-12.855 1.62-6.882 3.644-27.124 3.644-27.124l50.61 17.408-2.025 19.028.81 8.906h8.503l12.146 14.575 6.883 42.711-62.351 8.703-38.058-38.459-8.45-32.893z" fill="#665140"/><path d="M452.453 203.118c1.044 6.844 1.036 2.652-.223 12 0 2.484-5.19 5.73-5.627 11.46 7.63-2.834 12.575-2.896 21.278.02 12.786 4.286 23.17 4.926 29.97.405 11.016-7.322-45.398-23.885-45.398-23.885" fill="#5B4839"/><path d="M443.184 170.186c-1.214 18.358 7.692 43.457 21.863 51.555 14.171 8.097 36.035 13.764 50.61-7.288 14.576-21.051 32.39-40.89 30.366-81.777-2.025-40.89-23.078-49.796-34.415-51.82-11.336-2.025-53.465 10.526-58.11 48.176-14.514-5.264-15.577 19.837-12.743 29.149.731 2.4 7.306-2.904 6.073-.81-4.048 6.882-3.644 12.815-3.644 12.815" fill="#665140"/><g transform="translate(366.867 234.536)"><mask id="h" fill="#fff"><use xlink:href="#g"/></mask><path d="M13.771 27.293c1.418 21.02 13.758 153.782 12.342 172-1.417 18.218-14.778 20.697-14.778 20.697L.606 389.214l191.1-1.215s-10.12-137.642-19.029-173.675c-8.907-36.034 2.835-112.882 1.215-137.007-1.62-24.123-17.814-56.51-28.341-67.036C135.024-.245 130.165.161 130.165.161l.81 8.905s14.98 4.859 15.79 14.575c.81 9.716-4.048 42.104-42.511 36.436C65.79 54.408 58.908 13.515 59.313.157c-7.275 2.728-21.54 7.825-27.739 10.026-14.971 5.32-17.803 17.11-17.803 17.11" fill="#66C58F" mask="url(#h)"/></g><path d="M477.194 254.938c-8.846 6.434-23.483 169.627-20.245 174.283 3.24 4.658 114.175 8.706 117.82 6.681 3.643-2.023 29.15-180.154 25.912-180.964-3.24-.81-119.033-3.238-123.487 0" fill="#262626"/><path d="M392.98 401.491c-.298 8.699-1.373 37.34-.81 47.37 4.468 79.73 7.172 179.502 44.306-16.129 1.746-9.203-5.334-49.35-5.235-87.862.068-26.362-8.629-38.913-8.629-38.913l-41.66 76.506s12.713-1 12.028 19.028" fill="#5BB280"/><path d="M456.94 410.36c11.499-12.816 15.024-25.015 22.279-30.882 6.132-4.96 15.994-7.39 19.89-8.502 8.502-2.43 28.378-14.24 27.308-26.106-1.07-11.866-15.163-8.205-15.163-8.205l-42.511 42.509-11.803 31.187z" fill="#161616"/><path d="M439.18 360.815c10.247-8.42 14.69-14.522 15.3-18.83.351-2.476.917-12.25 3.836-18.275 2.156-4.448 6.959-6.215 6.853-4.77-.172 2.34-.463 3.962-.463 3.962s-2.189 8.905 10.129 6.995c14.403-2.235 27.431-2.656 35.732-7.524 8.3-4.87 29.095 20.371 5.224 36.467-23.871 16.098-38.245 9.976-46.826 27.155-8.584 17.18-18.66 21.077-18.66 21.077l-15.868-25.129 4.744-21.128z" fill="#665140"/><path d="M468.535 386.83c.142-.278.286-.549.43-.834 1.157-2.319 2.425-4.201 3.801-5.783l-.744.023c-28.603 1.063-27.933-23.683-27.933-23.683l-.001-.001a112.207 112.207 0 0 1-4.907 4.263l-.197.877v13.08l14.514 16.243s7.736-1.943 15.037-4.185" fill="#5B4839"/><path d="M381.137 255.216c-14.02 26.596-10.18 78.273-5.162 113.483 5.019 35.21 17.657 55.179 29.314 59.493 12.45 4.608 28.583 6.9 36.68 1.03 8.098-5.87 28.526-39.787 29.962-44.734 1.435-4.948-14.272 3.086-23.382-5.769-7.817-7.599-5.264-20.394-6.58-23.785-1.315-3.39-13.765 14.574-13.765 14.574s-4.04-23.738-3.627-35.413c1.325-37.517-17.907-92.25-20.593-91.324-4.172 1.438-18.595 4.38-22.847 12.445" fill="#66C58F"/><path d="M482.453 149.599c-.251 3.598-2.003 6.405-3.914 6.271-1.908-.133-3.251-3.159-2.998-6.755.252-3.597 2.004-6.407 3.912-6.272 1.91.134 3.253 3.158 3 6.756M533.23 151.063c-.208 2.962-1.65 5.275-3.222 5.166-1.572-.11-2.679-2.603-2.47-5.564.207-2.964 1.65-5.276 3.222-5.166 1.573.111 2.678 2.602 2.47 5.564" fill="#2C1A0F"/><path d="M500.394 190.39c-.195 0-.388-.009-.582-.026l.11-1.21c1.937.178 4.049-.745 5.634-2.47 1.948-2.12 2.757-5.092 2.215-8.157-1.213-6.875 1.885-51.682 2.017-53.587l1.212.086c-.033.463-3.22 46.561-2.032 53.291.607 3.44-.31 6.788-2.518 9.19-1.684 1.832-3.91 2.883-6.056 2.883M468.312 198.69l-.859-.859c3.867-3.868 4.732-6.226 4.74-6.25l1.148.4c-.036.104-.929 2.607-5.03 6.709" fill="#56463A"/><path d="M493.34 206.68c-9.328 0-16.895-3.478-23.465-10.696l.9-.818c7.758 8.524 16.974 11.63 29 9.781l.184 1.201a43.475 43.475 0 0 1-6.618.532" fill="#56463A"/><path d="M445.41 121.745c11.135 6.073 14.79 12.753 37.66 1.416 22.87-11.335 45.553-26.411 45.658-30.363.103-3.952 1.655-22.873 1.655-22.873l-54.808 10.723-30.164 30.368v10.729z" fill="#2B2B2B"/><path d="M519.098 87.94c4.252 6.275 21.415 25.943 24.675 27.75 3.262 1.804 4.88 0 4.88 0l-7.894-32.608-21.66 4.858zM446.828 157.37s8.482 45.672 6.67 52.592c-1.811 6.92-4.054 24.394-22.771 20.312-18.719-4.08-9.013-51.446-9.013-51.446l25.114-21.457z" fill="#2B2B2B"/><path d="M589.75 268.197a4.555 4.555 0 1 0-9.11 0 4.555 4.555 0 0 0 9.11 0" fill="#3D3D3D"/><path d="M1080.017 451.831c-9.216-3.071-20.413-7.344-22.973-14.51-2.56-7.17.956-16.209 1.98-23.888 1.025-7.68 14.202-23.306 19.323-44.296 5.12-20.992 10.375-47.35-17.788-62.71-28.16-15.36-53.32-22.016-69.926-12.8-16.606 9.216-23.774 23.04-24.286 42.495-.512 19.455-6.145 24.576-9.217 27.135-3.072 2.561-10.752 10.752 0 18.432 10.753 7.679 8.266 28.147 16.97 37.363 8.704 9.216 27.227 4.169 28.542 6.73 1.316 2.56 11.812 39.936 11.812 39.936s-10.458 18.031-12.622 19.677c-2.164 1.644-14.152 23.608-14.152 23.608s23.042 11.605 24.578 11.433c1.537-.168 45.913-31.059 45.913-31.059l21.846-37.546z" fill="#665140"/><g transform="translate(982.682 442.22)"><mask id="j" fill="#fff"><use xlink:href="#i"/></mask><path d="M89.498 5.98c11.685 3.287 34.136 29.382 49.496 58.054 15.36 28.671 18.42 37.987 18.42 37.987l-6.826-.172-35.903 105.88-93.99-3.64S-29.622 22.123 28.578 12.224c5.975 17.92 8.536 20.92 16.216 15.799C51.174 23.768 75.774 8.614 78.767.678c.813-2.156 8.682 4.726 10.731 5.302" fill="#0E2440" mask="url(#j)"/></g><g transform="translate(1073.78 539.22)"><mask id="l" fill="#fff"><use xlink:href="#k"/></mask><path d="M7.716 17.398S4.502 9.186.748.652C-3.007-7.88 8.74 73.354 30.245 78.816c7.544 1.915 11.606-3.754 11.606-3.754L15.303 13.429 7.716 17.4z" fill="#09182B" mask="url(#l)"/></g><g transform="translate(986.326 544.128)"><mask id="n" fill="#fff"><use xlink:href="#m"/></mask><path d="M146.59.026c7.568 22.377 10.926 51.697 12.94 79.698 1.296 18.013 3.618 24.846-1.535 28.146-12.801 8.191-150.383 4.096-153.968 2.56-3.583-1.536-8.191-44.542 9.218-46.591 17.408-2.05 39.829 12.322 49.665 12.8 10.391.504 40.453 1.87 54.788-8.875 0-5.955-6.86-41.304-14.942-59.242C131.429.33 146.589.026 146.589.026" fill="#665140" mask="url(#n)"/></g><path d="M990.412 291.067c19.134-8.061 37.89-7.331 66.052 8.03 28.162 15.358 31.868 46.514 26.748 67.506-4.616 18.921-18.688 35.964-23.259 44.316 0 0-.057 8.768-1.763 8.426-1.707-.342-5.822-4.633-7.358-5.657-1.536-1.024-3.157-2.56-5.206-2.645-2.048-.086-2.476-2.56-2.476-2.56s-6.655-12.629.854-20.48c7.51-7.85 4.78-21.844-2.559-25.598-7.34-3.756-11.473 11.455-11.473 11.455s-2.641-.933-4.859-4.858c-1.111-1.963 1.312-9.925 1.718-13.105.405-3.178.96-6.464.448-8.853-1.025-4.777-8.631-.853-8.631-.853s-.757-4.95-.757-6.826c0-1.878-5.38 3.44-19.3-5.888-7.313-4.9-8.684-.04-13.159-2.328-3.377-1.726-5.25 2.836-9.815 2.632-1.931-.088-7.608 1.417-9.133-.688-11.82-16.316 9.029-35.748 23.928-42.026z" fill="#2B2B2B"/><path d="M988.963 353.367c-.197 3.033.948 5.58 2.557 5.684 1.612.105 3.077-2.27 3.275-5.304.198-3.035-.948-5.579-2.558-5.683-1.61-.106-3.076 2.269-3.274 5.303" fill="#2C1A0F"/><path d="M972.076 404.205c-.072 0-.136-.001-.197-.005l.057-1.212c3.638.167 19.268-3.804 20.39-7.099l1.15.392c-1.435 4.21-17.802 7.924-21.4 7.924" fill="#56463A"/><path d="M1134.431 548.65c-5.733.708-8.597.456-20.753 2.482-18.54 3.09-21.51 4.18-23.317 4.727-.137-.909-1.188-2.362-1.279-3.209 28.674-8.192 44.067-8.495 44.067-8.495.386.709.933 3.754 1.282 4.496" fill="#56463B"/><g transform="translate(789.557 433.718)"><mask id="p" fill="#fff"><use xlink:href="#o"/></mask><path fill="#2B2B2B" mask="url(#p)" d="M171.966.11l43.011 188.707H47.36L.899 24.855z"/></g><g transform="translate(999.687 603.753)"><mask id="r" fill="#fff"><use xlink:href="#q"/></mask><path fill="#3A3A3A" mask="url(#r)" d="M.64.32l129.313 5.103-4.858 17.003L4.847 18.783z"/></g><g transform="translate(483.47 500.405)"><mask id="t" fill="#fff"><use xlink:href="#s"/></mask><path d="M55.56.013C48.608 6.086-12.123 68.027 2.452 97.175c14.576 29.149 53.444 25.708 53.444 25.708l53.848-61.372L55.561.013z" fill="#5C2420" mask="url(#t)"/></g><g transform="translate(729.927 493.23)"><mask id="v" fill="#fff"><use xlink:href="#u"/></mask><path d="M42.624.58c12.146 7.272 57.694 81.965 57.087 99.576-.607 17.61-57.087 28.297-68.626 26.598C19.545 125.054.112 53.397.112 53.397L42.624.58z" fill="#5C2420" mask="url(#v)"/></g><path d="M606.754 459.181c-7.287-21.254-17.612-44.483-7.287-80.539 10.324-36.056 37.653-39.665 66.197-36.039 28.543 3.627 63.16 19.72 59.516 53.27-3.643 33.552-6.073 69.38-12.146 77.275-6.073 7.895-106.28-13.967-106.28-13.967" fill="#EAD4C7"/><path d="M652.541 457.373l-.883-.835c3.295-3.483 6.61-12.298 3.687-34.523l1.204-.159c2.396 18.223 1.048 30.173-4.008 35.517" fill="#CEB7AA"/><g transform="translate(529.627 449.507)"><mask id="x" fill="#fff"><use xlink:href="#w"/></mask><path fill="#2B2B2B" mask="url(#x)" d="M.2.97l3.644 170.236h233.614L252.034.97z"/></g><g transform="translate(533.108 604.967)"><mask id="z" fill="#fff"><use xlink:href="#y"/></mask><path fill="#3A3A3A" mask="url(#z)" d="M.03.154v18.224h233.744l1.05-12.513z"/></g><path d="M596.95 383.273c-3.14-2.024-14.272-1.841-11.236 13.047 3.037 14.887 2.213 23.389 5.358 25.818 3.145 2.43 9.184 3.523 8.003 0-1.182-3.523 3.948-22.165 3.948-22.165l-6.074-16.7z" fill="#EAD4C7"/><path d="M637.524 424.649c0 5.21-2.175 9.43-4.858 9.43s-4.859-4.22-4.859-9.43c0-5.208 2.176-9.43 4.859-9.43s4.858 4.222 4.858 9.43M690.36 424.649c0 5.21-1.994 9.43-4.453 9.43-2.459 0-4.453-4.22-4.453-9.43 0-5.208 1.994-9.43 4.453-9.43 2.46 0 4.454 4.222 4.454 9.43" fill="#2860AB"/><path d="M619.037 418.61c-.715 1.847-2.246 8.679-.27 12.158.802 1.411 2.104 2.096 3.98 2.096 7.274 0 19.448 0 20.56-2.382 1.292-2.768 2.268-9.211 1.936-12.694-1.827-1.351-14.784-.644-26.206.823m3.71 16.683c-2.638 0-4.694-1.066-5.945-3.08-.96-1.544-1.445-3.63-1.445-6.197 0-.096.43-9.337 2.779-9.736v-.002c23.73-3.118 28.05-.833 28.673-.344.609.476.789 1.031.831 1.414.434 3.912-.622 10.926-2.131 14.16-1.644 3.522-10.08 3.784-22.761 3.784M672.211 417.789c-.331 3.482.643 9.925 1.936 12.693 1.112 2.383 13.286 2.383 20.56 2.383 1.876 0 3.178-.685 3.98-2.096 1.976-3.481.445-10.313-.27-12.158-11.425-1.467-24.378-2.174-26.206-.822m22.496 17.505c-12.683 0-21.118-.264-22.762-3.785-1.51-3.234-2.565-10.249-2.131-14.16.043-.382.222-.937.83-1.414.627-.49 4.943-2.775 28.674.344v.003c2.348.398 2.78 9.638 2.78 9.734 0 2.568-.487 4.653-1.446 6.199-1.251 2.014-3.308 3.079-5.945 3.079" fill="#141414"/><path fill="#141414" d="M700.11 418.24l-1.899-1.514 22.987-28.834 1.9 1.513zM670.87 418.7c-.86 0-2.069-.235-3.694-.55-2.426-.474-5.445-1.062-8.454-1.073h-.115c-5.917 0-11.8 1.562-11.859 1.579l-.631-2.347c.252-.066 6.244-1.661 12.489-1.661h.126c3.237.012 6.515.65 8.91 1.116 1.407.276 2.704.552 3.318.505l.123 2.427a3.983 3.983 0 0 1-.212.005M618.033 418.669c-6.889-1.507-17.849-26.677-19.075-29.542l2.232-.956c4.446 10.378 13.09 27.19 17.363 28.126l-.52 2.372z"/><path d="M598.572 415.287a3.506 3.506 0 0 0 2.573 2.69c1.615.418-.611-14.043.143-17.093 2.91-11.775 8.076-28.692 8.097-30.97l.033-3.214s2.194.633 6.243 0c4.048-.633 24.495.583 34.01 3.214 9.514 2.632 28.139 13.219 38.463 13.492 10.324.272 14.373-2.157 14.373-2.157s-1.215-5.464-2.025-11.335c-.81-5.87 1.214-4.251 4.657 3.643 1.612 3.696 7.867 9.856 11.235 18.52 3.826 9.842 4.753 22.088 5.774 22.774 1.92 1.289 4.247-20.242 4.651-23.886.405-3.643 6.883-8.187 6.478-32.735-.405-24.55-6.478-43.982-27.531-32.04-13.968-19.635-46.966-38.864-58.505-39.067-11.539-.202-15.993-2.023-14.575 3.846 1.417 5.87 5.668 9.312 5.668 9.312s-18.22 5.263-28.139 5.667c-9.92.406-28.14-7.084-29.556 2.835-1.417 9.918 9.11 31.982 9.515 35.423.404 3.442-3.847 4.488-6.478 6.898-2.632 2.414-1.134 32.713 3.92 38.882 6.947 8.477 9.923 20.047 10.976 25.301" fill="#BCBCBC"/><path d="M723.662 384.488c3.138-2.025 14.272-1.842 11.235 13.046-3.036 14.888-2.213 23.39-5.357 25.819-3.145 2.429-9.185 3.523-8.003 0 1.18-3.524.612-17.004.612-17.004l.804-8.906.71-12.955z" fill="#EAD4C7"/><path d="M666.878 535.596c0-9.027-7.317-16.343-16.344-16.343-9.027 0-16.344 7.316-16.344 16.343 0 9.025 7.317 16.341 16.344 16.341 9.027 0 16.344-7.316 16.344-16.341" fill="#3D3D3D"/><g transform="translate(79 394.854)"><mask id="B" fill="#fff"><use xlink:href="#A"/></mask><path d="M199.506 24.937c14.272 10.546 38.868 22.388 47.067 78.256 8.199 55.868-17.612 123.275-17.612 123.275s-204.056-1.215-207.094-1.215c-2.061 0-2.544-4.024-1.48-9.678-9.641-.493-21.388-4.402-19.34-13.666 6.377-28.845 15.658-88.28 33.068-125.031 8.74-18.45 34.211-63.256 49.698-69.633 15.486-6.376 20.952-8.693 37.35-3.891 16.397 4.802 78.343 21.583 78.343 21.583" fill="#953B32" mask="url(#B)"/></g><path d="M193.786 480.435c-6.377 18.522-15.183 61.638-34.313 68.621 23.381 7.591 50.91 19.512 57.39 24.29 0 0-25.133-15.447-29.656-29.148-5.518-16.719 6.579-63.763 6.579-63.763" fill="#89322E"/><path d="M278.506 448.048c-4.048-6.477-4.048-11.611-4.048-11.611s6.026-10.252 10.503-12.073c4.477-1.821 16.398 13.966 42.22 4.857 25.823-9.108 62.666-38.66 69.144-61.332 6.479-22.67 0-47.771-26.316-58.298-26.318-10.525-59.112-25.91-83.81 14.17s-21.458 54.474-24.292 60.03c-2.835 5.555-20.244 14.586-24.698 14.727-4.453.14-21.053 8.641-18.624 33.336 2.43 24.695 13.765 30.364 19.03 31.983 5.262 1.62 29.15 9.716 38.462 4.453 9.312-5.262 2.43-20.242 2.43-20.242" fill="#EAD4CA"/><path d="M297.536 341.17c-3.24-2.43-14.982-4.779-19.03 6.315-4.048 11.093 6.073 15.274 6.073 15.274s-3.126 5.535-7.029 4.725c-3.902-.81-.259 7.287-2.282 14.575-2.025 7.287-.81 21.475-17.815 21.264-2.025 13.754-10.122 31.768-31.58 25.898-21.46-5.868-12.218-15.104-15.79-22.15-3.573-7.045-17.553-11.476-21.915-11.425-4.361.05-11.69-13.182-4.403-39.092 7.288-25.91 46.966-59.917 74.092-64.37 0 0-19.434-51.82 37.654-55.059 57.087-3.239 75.307 42.874 84.215 44.716 8.907 1.84 21.457-3.422 36.439 7.103 14.98 10.527 26.316 60.727-6.48 64.776 0 0 32.434 59.173-47.327 55.328 23.078-23.683 34.17-31.747 33.158-46.29-1.05-15.068-10.932 4.726-40.083 5.94-29.15 1.215-48.99-8.096-52.229-14.17-3.24-6.072-5.668-13.359-5.668-13.359" fill="#9B611C"/><path d="M311.62 430.169c-5.014-1.153-8.578-3.452-10.596-6.83-2.925-4.902-1.504-10.246-1.442-10.471l1.172.322c-.015.05-1.343 5.089 1.322 9.537 1.84 3.078 5.144 5.184 9.817 6.258l-.273 1.184zM330.229 423.693c-3.288 0-8.041-1.68-12.49-6.602l.902-.813c4.838 5.353 9.947 6.63 12.856 6.092 1.143-.21 1.973-.715 2.221-1.351.716-1.838 5.196-8.845 10.386-16.959 2.73-4.27 5.555-8.685 8.035-12.671l1.033.644c-2.485 3.99-5.312 8.408-8.045 12.682-4.94 7.723-9.606 15.019-10.277 16.745-.407 1.045-1.55 1.813-3.134 2.106a8.306 8.306 0 0 1-1.487.127" fill="#CEB7AA"/><path d="M328.46 386.03c-1.75 2.407-2.014 5.199-.59 6.234 1.424 1.034 4-.08 5.748-2.486 1.75-2.409 2.013-5.2.588-6.235-1.423-1.034-3.997.08-5.746 2.487M359.478 399.953c-1.75 2.408-2.013 5.2-.588 6.234 1.424 1.035 3.997-.079 5.747-2.486 1.749-2.407 2.012-5.2.587-6.234-1.423-1.035-3.997.079-5.746 2.486" fill="#2860AB"/><path d="M192.875 604.47c-31.277 3.036-92.425 7.809-102.749 4.382 12.411 3.378 9.6 2.879 16.359 3.132 6.981.26 67.867 4.286 71.51 2.942 3.645-1.342 24.496 0 24.496 0l-5.061-8.939-1.822-2.577-2.733 1.06z" fill="#89322E"/><g transform="translate(278.199 436.148)"><mask id="D" fill="#fff"><use xlink:href="#C"/></mask><path fill="#282828" mask="url(#D)" d="M229.568 33.861l-40.083 152.102H.307L40.694.289z"/></g><g transform="translate(177.385 607.396)"><mask id="F" fill="#fff"><use xlink:href="#E"/></mask><path fill="#444" mask="url(#F)" d="M104.247.347H5.167L.61 13.925l100.51.79z"/></g><path d="M187.258 573.347c9.11-6.68 16.549-5.87 32.137 0 15.587 5.87 44.131-4.961 47.775-1.874 3.644 3.088 12.55 27.783 12.754 30.01.202 2.227 1.011 6.26-3.847 6.26h-37.248c-2.632 0-38.26 3.02-41.5 0-3.24-3.021-1.923-5.855-9.16-8.688-7.238-2.835-7.694-9.11-5.82-15.992 1.873-6.883 4.91-9.716 4.91-9.716" fill="#EFDED5"/><path d="M186.636 598.337c.118.061.222.12.318.175-.112-.056-.211-.118-.318-.175M182.349 583.063c1.873-6.883 4.91-9.716 4.91-9.716 7.942-5.824 14.618-5.951 26.527-2-3.544-.202-19.28.762-22.885 5.543-3.483 4.621-8.965 17.999-4.983 21.034-5.053-3.178-5.225-8.78-3.569-14.86" fill="#E0CEC3"/><path d="M819.31 159.493l-.798-.919c.09-.076 8.92-7.752 11.901-10.89 2.313-2.435.67-14.005-.156-18.258l1.192-.232c.317 1.629 3.005 16-.156 19.328-3.021 3.18-11.62 10.654-11.984 10.97" fill="#CEB7AA"/><path d="M1059.276 308.098c10.957 5.085 20.314 11.46 24.548 9.495 4.235-1.964-10.495 9.712-17.06 8.062-6.565-1.649-7.488-17.557-7.488-17.557" fill="#2B2B2B"/><path d="M1078.19 339.209c4.705-7.975 7.84-16.067 11.368-16.671 3.528-.601-10.848-1.567-14.277 2.33-3.427 3.897 2.909 14.34 2.909 14.34" fill="#2B2B2B"/><path d="M1080.579 347.825c4.705-7.974 7.84-16.067 11.368-16.67 3.528-.602-10.848-1.567-14.277 2.33-3.427 3.897 2.909 14.34 2.909 14.34" fill="#2B2B2B"/></g><g><path d="M71.651 615.198h1179.656c11.673 0 21.137 9.449 21.137 21.104v8.84c0 11.656-9.464 21.105-21.137 21.105H71.65c-11.674 0-21.137-9.449-21.137-21.104v-8.84c0-11.656 9.463-21.105 21.137-21.105" fill="#65676D"/><path d="M426.944 536.68c0-7.81-6.341-14.143-14.164-14.143-7.822 0-14.165 6.332-14.165 14.143 0 7.81 6.343 14.142 14.165 14.142 7.823 0 14.164-6.332 14.164-14.142" fill="#3D3D3D"/><path d="M786.965 584.83h-6.063a1.354 1.354 0 0 1-1.355-1.353v-4.164c0-.747.607-1.353 1.355-1.353h6.063c.748 0 1.355.606 1.355 1.353v4.164c0 .746-.607 1.352-1.355 1.352" fill="#FFF"/><path d="M785.83 596.125c-13.41 0-18.056-2.895-19.564-5.404-.953-1.588-.911-3.46.117-5.272 1.508-2.657 4.771-4.66 7.592-4.66h7.385v1.213h-7.385c-2.379 0-5.249 1.776-6.534 4.045-.57 1.002-1.054 2.518-.134 4.05 1.173 1.951 5.44 5.164 20.998 4.784l.03 1.213c-.867.02-1.702.031-2.506.031M899.96 628.366c8.55 4.938 17.221 8.33 26.531 8.437 16.25.182 22.087-3.158 22.132-6.08.056-3.661-8.784-8.905-25.528-9.228-9.249-.17-18.198 3.01-23.134 6.87m55.263 17.863c-22.472.001-44.68-1.921-53.571-5.148-6.338-2.3-7.168-5.47-6.748-7.725.308-1.655 1.36-3.29 2.96-4.812-6.172-3.696-12.283-8.134-18.532-12.675-17.008-12.354-34.597-25.13-56.607-25.13v-1.211c22.405 0 40.156 12.893 57.322 25.362 6.335 4.602 12.527 9.1 18.775 12.81 5.302-4.355 15.099-7.57 24.295-7.416 12.923.248 26.813 4.319 26.72 10.46-.074 4.72-8.795 7.419-23.361 7.272-9.71-.111-18.683-3.67-27.505-8.817-1.588 1.438-2.605 2.942-2.873 4.38-.606 3.248 2.912 5.254 5.968 6.363 8.94 3.244 32.389 5.34 56.975 5.067 27.095-.287 47.04-3.161 53.352-7.687 10.893-7.813 18.544-17.92 17.055-22.533-.606-1.881-2.752-2.835-6.381-2.835v-1.213c4.215 0 6.752 1.237 7.537 3.676 1.859 5.763-7.439 16.671-17.502 23.889-7.756 5.561-32.98 7.923-57.879 7.923" fill="#FFF"/><path d="M811.737 497.132c-.857 0-1.55-.692-1.55-1.548v-10.94c0-.856.693-1.549 1.55-1.549.857 0 1.55.693 1.55 1.55v10.94c0 .855-.693 1.547-1.55 1.547M822.742 568.5l-15.146-13.77a3.094 3.094 0 0 1-.206-4.375 3.104 3.104 0 0 1 4.384-.205l13.246 12.04 30.778-1.443c1.705-.044 3.164 1.241 3.244 2.95a3.1 3.1 0 0 1-2.952 3.24l-33.348 1.563z" fill="#E2E2E2"/><path d="M868.382 579.249a15.03 15.03 0 0 1-10.593-4.329 14.986 14.986 0 0 1-4.519-10.635 14.98 14.98 0 0 1 4.336-10.71 15.034 15.034 0 0 1 10.651-4.512h.028a3.101 3.101 0 0 1 3.102 3.071 3.1 3.1 0 0 1-3.076 3.124c-2.381.02-4.61.965-6.279 2.659a8.833 8.833 0 0 0-2.556 6.314 8.831 8.831 0 0 0 2.663 6.27c1.699 1.665 3.99 2.635 6.323 2.552 1.648.013 3.116 1.36 3.131 3.07a3.103 3.103 0 0 1-3.076 3.126h-.135z" fill="#E2E2E2"/><path d="M830.555 512.557c0 2.816-1.041 5.099-2.327 5.099s-2.328-2.283-2.328-5.099c0-2.814 1.042-5.098 2.328-5.098 1.286 0 2.327 2.284 2.327 5.098" fill="#0D82F2"/><path d="M833.256 605.355h-40.825a5.827 5.827 0 0 1-5.831-5.822V547.18a5.827 5.827 0 0 1 5.83-5.822h40.826a5.827 5.827 0 0 1 5.832 5.822v52.353a5.827 5.827 0 0 1-5.832 5.822" fill="#66C58F"/><path d="M799.67 541.358h-7.24a5.827 5.827 0 0 0-5.83 5.822v52.353c0 .467.069.913.173 1.348l3.289 1.405V557.1c0-8.887 3.83-11.417 9.608-15.742" fill="#5BB280"/><path d="M818.539 544.069h-13.604c-5.097 0-9.23-4.125-9.23-9.214v-30.057c0-5.089 4.133-9.214 9.23-9.214h13.604c5.097 0 9.23 4.125 9.23 9.214v30.057c0 5.089-4.133 9.214-9.23 9.214" fill="#66C58F"/><path d="M843.146 632.777h-62.818c-7.5 0-13.58-6.07-13.58-13.559v-7.531c0-7.49 6.08-13.56 13.58-13.56h62.818c7.5 0 13.58 6.07 13.58 13.56v7.531c0 7.488-6.08 13.559-13.58 13.559" fill="#282828"/><path d="M842.988 628.618h-62.502c-5.7 0-10.32-4.614-10.32-10.304v-5.725c0-5.69 4.62-10.304 10.32-10.304h62.502c5.7 0 10.32 4.614 10.32 10.304v5.725c0 5.69-4.62 10.304-10.32 10.304" fill="#444"/><path d="M792.097 615.452c0-3.672-2.982-6.65-6.66-6.65s-6.66 2.978-6.66 6.65 2.982 6.649 6.66 6.649 6.66-2.977 6.66-6.65M818.397 615.452c0-3.672-2.982-6.65-6.66-6.65s-6.66 2.978-6.66 6.65 2.982 6.649 6.66 6.649 6.66-2.977 6.66-6.65M844.202 615.452a6.654 6.654 0 0 0-6.658-6.65c-3.679 0-6.66 2.978-6.66 6.65s2.981 6.649 6.66 6.649a6.654 6.654 0 0 0 6.658-6.65" fill="#282828"/><path d="M834.499 564.414h-20.483a3.1 3.1 0 0 1-3.104-3.098 3.1 3.1 0 0 1 3.104-3.097h17.913l21.788-21.754a3.105 3.105 0 0 1 4.386 0 3.094 3.094 0 0 1 0 4.38L834.5 564.415z" fill="#E2E2E2"/><path d="M865.33 545.61a15.098 15.098 0 0 1-11.099-4.828c-5.663-6.107-5.296-15.676.82-21.333a3.108 3.108 0 0 1 4.385.168 3.096 3.096 0 0 1-.168 4.377c-3.606 3.335-3.823 8.976-.484 12.577 3.341 3.599 8.992 3.816 12.594.481a3.105 3.105 0 0 1 4.385.168 3.095 3.095 0 0 1-.169 4.379 15.075 15.075 0 0 1-10.265 4.011" fill="#E2E2E2"/><path d="M815.033 483.483a3.294 3.294 0 0 0-3.296-3.292 3.294 3.294 0 0 0-3.297 3.292 3.294 3.294 0 0 0 3.297 3.291 3.294 3.294 0 0 0 3.296-3.29" fill="#953B32"/><path d="M821.405 561.394c0-4.476-3.634-8.105-8.118-8.105-4.481 0-8.115 3.63-8.115 8.105 0 4.474 3.634 8.103 8.115 8.103 4.484 0 8.118-3.629 8.118-8.103" fill="#5BB280"/><path d="M818.539 495.584h-.856c4.576 10.772 9.856 29.613 10.085 38.062v-28.848c0-5.089-4.132-9.214-9.23-9.214" fill="#6ECC94"/><path d="M807.734 495.584h-2.8c-5.097 0-9.227 4.125-9.227 9.214v30.057a9.178 9.178 0 0 0 2.77 6.577l1.193-.074s-1.262-9.108-1.717-14.109c-.455-5 3.794-23.183 7.22-26.668 1.622-1.651 2.295-3.502 2.561-4.997" fill="#5BB280"/><path fill="#FFF" d="M1018.39 613.468h6.904v-4.924h-6.905zM179.788 631.978c-14.889 1.646-26.674 4.104-27.225 6.18-.003.007-.158.756 3.387 1.695 18.208 4.827 20.302.103 23.471-7.051.12-.272.242-.547.367-.824m-11.812 11.049c-3.097 0-7.09-.61-12.337-2.001-2.043-.542-4.707-1.461-4.25-3.179.955-3.596 19.032-6.073 28.99-7.169 1.053-2.252 2.338-4.651 4.29-6.992 7.233-8.663 50.46-12.208 52.297-12.353l.097 1.207c-.444.035-44.553 3.647-51.46 11.923-1.674 2.004-2.847 4.078-3.807 6.062 2.325-.246 4.037-.4 4.716-.459 16.566-1.447 38.235-1.94 49.367 1.004 9.35 2.47 15.906-4.182 22.244-10.62 5.21-5.294 10.134-10.294 16.441-10.407 11.74-.211 11.747-.21 11.785.53.015.277-.11.62-.795.68l-.006-.073c-.358-.035-2.18-.084-10.962.075-5.812.103-10.565 4.934-15.599 10.044-6.58 6.686-13.388 13.595-23.418 10.943-11.71-3.097-35.319-2.433-54.382-.416-.226.498-.444.987-.656 1.467-2.396 5.412-4.31 9.734-12.555 9.734"/><path fill="#FFF" d="M233.295 613.89h7.436v-3.907h-7.436z"/><path fill="#5BB280" d="M281.684 628.128h100.569v-37.15h-100.57z"/><path fill="#282828" d="M288.667 609.307h13.37V595.96h-13.37zM348.84 623.245h19.283V595.96h-19.282zM306.726 622.901h5.488v-5.479h-5.488zM306.726 616.127h5.488v-5.479h-5.488zM313.51 616.127h5.488v-5.479h-5.488zM313.51 622.901h5.488v-5.479h-5.488zM320.144 622.901h5.49v-5.479h-5.49zM320.144 616.127h5.49v-5.479h-5.49zM326.93 616.127h5.488v-5.479h-5.488zM326.93 622.901h5.488v-5.479h-5.488zM333.913 622.901h5.488v-5.479h-5.488zM333.913 616.127h5.488v-5.479h-5.488zM340.697 616.127h5.487v-5.479h-5.487zM340.697 622.901h5.487v-5.479h-5.487zM288.667 614.496h13.37v-1.212h-13.37zM306.727 603.24h22.44v-1.212h-22.44zM288.667 618.281h13.37v-1.212h-13.37zM288.667 622.067h13.37v-1.212h-13.37zM332.418 599.148h6.684v-1.212h-6.684zM332.418 602.934h6.684v-1.213h-6.684zM332.418 606.72h6.684v-1.213h-6.684zM340.1 599.148h6.684v-1.212h-6.685zM340.1 602.934h6.684v-1.213h-6.685zM340.1 606.72h6.684v-1.213h-6.685z"/><path d="M323.853 605.82h-12.305a2.426 2.426 0 0 1-2.428-2.424v-1.526a2.427 2.427 0 0 1 2.428-2.424h12.305a2.427 2.427 0 0 1 2.428 2.424v1.526a2.426 2.426 0 0 1-2.428 2.425M372.766 621.851h1.214v-22.405h-1.214z" fill="#282828"/><path d="M376.565 604.752v12.285a2.427 2.427 0 0 1-2.429 2.425h-1.528a2.427 2.427 0 0 1-2.428-2.425v-12.285a2.427 2.427 0 0 1 2.428-2.425h1.528a2.427 2.427 0 0 1 2.429 2.425" fill="#282828"/><path fill="#161616" d="M275.587 634.984h112.911v-9.697H275.587z"/><path d="M738.07 638.515c-9.115 0-18.906-2.775-19.504-2.948l.336-1.165c.211.06 21.191 6.005 29.96.65 1.952-1.192 3.153-2.884 3.574-5.032.151-.774-.067-1.49-.67-2.19-8.003-9.32-74.31-9.265-112.228-7.763-21.797.837-44.12-12.008-44.343-12.136l.614-1.048c.22.13 22.216 12.865 43.681 11.972 10.507-.415 102.972-3.723 113.2 8.184.846.986 1.161 2.067.938 3.213-.488 2.495-1.878 4.458-4.133 5.835-2.961 1.807-7.118 2.428-11.426 2.428" fill="#FFF"/><path d="M712.258 628.618c0 16.196-47.148 16.196-47.148 0s10.555-29.326 23.575-29.326 23.573 13.13 23.573 29.326" fill="#953B32"/><path d="M688.685 599.29c-.76 0-1.51.05-2.251.138a22.643 22.643 0 0 0-.885 6.287c0 11.533 8.56 20.884 19.122 20.884 2.623 0 5.123-.578 7.4-1.624-1.443-14.476-11.36-25.684-23.386-25.684" fill="#A53F3A"/><path d="M694.755 617.139a6.065 6.065 0 0 1-6.07 6.06 6.065 6.065 0 0 1-6.07-6.06 6.066 6.066 0 0 1 6.07-6.061 6.066 6.066 0 0 1 6.07 6.06" fill="#BC4242"/><path d="M688.685 629.933a2.84 2.84 0 0 1-2.834-2.828v-4.249a2.84 2.84 0 0 1 2.834-2.828 2.839 2.839 0 0 1 2.832 2.828v4.25a2.839 2.839 0 0 1-2.832 2.827" fill="#BC4242"/><path d="M718.039 641.723H661.96c-3.61 0-6.564-2.95-6.564-6.552 0-3.604 2.954-6.553 6.564-6.553h56.078c3.61 0 6.562 2.949 6.562 6.553 0 3.602-2.953 6.552-6.562 6.552M616.181 634.1c-4.516 1.617-12.282 1.92-12.282 1.92l-6.045 5.53s21.038-.408 25.583-5.28c4.543-4.872-7.256-2.17-7.256-2.17" fill="#282828"/><path fill="#3D3D3D" d="M475.507 594.508l8.34-5.484 22.948.72-12.273 7.92zM588.173 648.786c.73-.323 12.086-7.525 12.086-7.525v-8.627l-24.68-1.616 12.594 17.768z"/><path d="M590.954 643.649H571.4c-10.493 0-22.466-6.464-28.459-6.464-5.673 0-16.71 6.464-26.77 6.464h-21.243c-10.681 0-19.42-8.726-19.42-19.39v-19.333c0-10.665 8.739-19.39 19.42-19.39h96.027c10.682 0 19.421 8.725 19.421 19.39v19.332c0 10.665-8.74 19.39-19.42 19.39" fill="#3D3D3D"/><path d="M580.838 650.234h-19.555c-10.491 0-22.465-6.463-28.458-6.463-5.673 0-16.71 6.463-26.772 6.463h-21.242c-10.681 0-19.42-8.725-19.42-19.39V611.51c0-10.665 8.739-19.39 19.42-19.39h96.027c10.682 0 19.421 8.725 19.421 19.39v19.333c0 10.665-8.74 19.39-19.42 19.39" fill="#161616"/><path d="M495.736 594.842c0 9.692 7.942 17.62 17.648 17.62h39.759c9.706 0 17.648-7.928 17.648-17.62 0-.927-.095-1.833-.235-2.723h-74.585c-.14.89-.235 1.796-.235 2.723" fill="#66C58F"/><path fill="#FFF" d="M513.095 599.053l-2.642 6.62h-.89l-2.657-6.62h1.32l1.787 4.69 1.778-4.69zM516.249 601.873c.633-.026 1.009-.356 1.009-.853 0-.546-.427-.903-1.107-.903h-.952v1.756h1.05zm-2.25-2.82h2.142c1.24 0 2.295.707 2.295 1.948 0 .836-.544 1.467-1.296 1.725l1.844 2.947h-1.365l-1.633-2.83H515.189v2.83H514v-6.62zM524.332 601.818c.815 0 1.159-.281 1.159-.807 0-.537-.353-.846-1.16-.846h-.895v1.653h.896zm-2.079-2.765h2.079c1.35 0 2.342.707 2.342 1.958 0 1.236-.991 1.916-2.342 1.916h-.896v2.746h-1.183v-6.62zM529.208 603.09l-2.488-4.037h1.442l1.65 2.896 1.666-2.896h1.45l-2.478 4.038v2.582h-1.242zM535.275 600.117h-2.078v-1.064h5.343v1.064h-2.074v5.556h-1.19zM539.487 599.053h1.19v2.765h2.905v-2.765h1.19v6.62h-1.19v-2.764h-2.904v2.764h-1.191zM551.145 602.36c0-1.246-.522-2.347-1.944-2.347-1.42 0-1.941 1.101-1.941 2.347 0 1.251.52 2.35 1.941 2.35 1.422 0 1.944-1.099 1.944-2.35m-5.142 0c0-1.803 1.008-3.406 3.198-3.406 2.193 0 3.202 1.603 3.202 3.406 0 1.804-1.01 3.407-3.202 3.407-2.19 0-3.198-1.603-3.198-3.407M558.744 599.053v6.62h-1.191l-2.778-4.653v4.653h-1.145v-6.62h1.184l2.786 4.628v-4.628z"/><path d="M603.9 611.078s22.46 11.548 21.246 22.129c-1.214 10.579-19.02-7.49-19.02-7.49l-2.227-14.64z" fill="#282828"/></g></g></svg>