<svg width="800" height="800" viewBox="0 0 800 800" fill="none" xmlns="http://www.w3.org/2000/svg"><path fill-rule="evenodd" clip-rule="evenodd" d="M800 400c0 220.916-179.084 400-400 400S0 620.916 0 400 179.084 0 400 0s400 179.084 400 400z" fill="#0D82F2"/><mask id="a" maskUnits="userSpaceOnUse" x="0" y="-72" width="800" height="872"><path fill-rule="evenodd" clip-rule="evenodd" d="M0 0v118c0 55.228 44.771 100 100 100 55.228 0 100-44.772 100-100V0" transform="matrix(4 0 0 4 0 -72)" fill="#fff"/></mask><g mask="url(#a)"><path fill-rule="evenodd" clip-rule="evenodd" d="M749.752 710.668H49.392C22.112 710.668 0 688.556 0 661.272v-467.88C0 166.112 22.112 144 49.392 144h700.36c27.28 0 49.392 22.112 49.392 49.392v467.88c0 27.284-22.112 49.396-49.392 49.396z" fill="#1E1E1E"/></g><mask id="b" maskUnits="userSpaceOnUse" x="0" y="-72" width="800" height="872"><path fill-rule="evenodd" clip-rule="evenodd" d="M0 0v118c0 55.228 44.771 100 100 100 55.228 0 100-44.772 100-100V0H0z" transform="matrix(4 0 0 4 0 -72)" fill="#fff"/></mask><g mask="url(#b)" fill-rule="evenodd" clip-rule="evenodd"><path d="M36.324 667.08H762.82V187.592H36.324V667.08z" fill="#F2F2F2"/><path d="M36.324 303.828H762.82v-116.24H36.324v116.24z" fill="#2ABF7E"/><path d="M73.785 248.897c0-13.776 11.208-24.984 24.984-24.984 6.672 0 12.944 2.6 17.664 7.32l-3.9 3.896a19.347 19.347 0 0 0-13.764-5.704c-10.736 0-19.472 8.736-19.472 19.472s8.736 19.472 19.472 19.472c2.628 0 5.152-.508 7.532-1.508v-2.808l-.012-3.848c-1.244 1.8-3.924 3.48-7.964 3.48-7.884 0-14.372-5.804-14.372-14.768 0-8.924 6.768-14.808 14.772-14.808 5.08 0 8.456 1.88 10.572 4.256l-4.528 4.532c-1.044-1.46-2.92-2.864-6.044-2.864-3.844 0-8.364 2.56-8.364 8.884 0 5.924 3.92 9.004 8.524 9.004 4.68 0 6.644-3.04 7-4.64h-8.52v-5.364h14.444v22.356l-1.476.772a25.073 25.073 0 0 1-11.564 2.836c-13.776 0-24.984-11.208-24.984-24.984zm74.836 8.56v4.748l.036.068c-.704.54-1.596.992-2.676 1.356-1.076.36-2.388.544-3.936.544-1.48 0-2.844-.252-4.096-.756a8.527 8.527 0 0 1-3.256-2.304c-.912-1.032-1.624-2.352-2.128-3.956s-.756-3.512-.756-5.716c0-2.296.284-4.248.844-5.856.564-1.604 1.324-2.916 2.288-3.936a8.65 8.65 0 0 1 3.356-2.232c1.28-.472 2.644-.704 4.1-.704.796 0 1.488.028 2.072.088.588.056 1.104.14 1.548.244.444.104.84.244 1.18.408.336.164.672.352 1.004.56h.032v5.556h-2.604v-3.76a6.295 6.295 0 0 0-1.32-.372 10.838 10.838 0 0 0-1.748-.124c-.964 0-1.912.176-2.84.528-.932.352-1.752.928-2.468 1.724-.72.796-1.296 1.84-1.728 3.132-.436 1.288-.656 2.868-.656 4.744 0 1.692.196 3.168.584 4.432.388 1.268.928 2.32 1.62 3.168a6.593 6.593 0 0 0 2.508 1.896c.972.424 2.06.632 3.264.632.608 0 1.18-.052 1.708-.156a7.543 7.543 0 0 0 1.464-.44v-3.516h2.604zm17.548-9.04c.704.82 1.224 1.796 1.564 2.92.34 1.128.512 2.332.512 3.624 0 1.404-.188 2.68-.564 3.812-.376 1.14-.928 2.108-1.652 2.904-.728.796-1.624 1.412-2.692 1.844-1.064.436-2.28.652-3.636.652-1.456 0-2.724-.24-3.8-.72-1.08-.48-1.968-1.132-2.676-1.952-.7-.82-1.224-1.792-1.564-2.92-.34-1.124-.508-2.332-.508-3.62 0-2.836.736-5.084 2.216-6.736 1.476-1.656 3.584-2.48 6.332-2.48 1.476 0 2.748.24 3.812.72 1.068.484 1.952 1.132 2.656 1.952zm-2.264 11.66c.948-1.16 1.42-2.868 1.42-5.116 0-.844-.1-1.672-.296-2.48a6.601 6.601 0 0 0-.984-2.2 5.158 5.158 0 0 0-1.752-1.58c-.712-.4-1.584-.6-2.612-.6-1.872 0-3.272.576-4.208 1.724-.936 1.152-1.4 2.86-1.4 5.136 0 .82.096 1.64.296 2.46.2.82.52 1.56.964 2.216a5.048 5.048 0 0 0 1.736 1.584c.716.396 1.584.596 2.612.596 1.868 0 3.276-.58 4.224-1.74zm22.836.656c.048.34.096.64.14.896h2.356v2.284h-4.708l-.356-2.704h-.14c-.512.888-1.28 1.632-2.296 2.232-1.02.6-2.192.896-3.528.896-2.64 0-4.588-.744-5.84-2.232-1.252-1.488-1.876-3.804-1.876-6.948 0-1.476.212-2.78.632-3.92.42-1.136 1.024-2.088 1.808-2.848.784-.76 1.724-1.34 2.824-1.74 1.1-.4 2.324-.6 3.684-.6.488 0 .928.016 1.312.036.388.024.744.06 1.072.104.324.048.636.116.928.196.292.084.616.172.964.264v-4.996h-2.952v-2.356h5.732V257.9c0 .212.012.476.036.792.02.316.052.652.084 1.004.036.352.08.696.124 1.036zm-3.024-3.18v-8.16a5.425 5.425 0 0 0-1.736-.776c-.64-.164-1.488-.244-2.54-.244-1.868 0-3.34.544-4.416 1.632-1.072 1.092-1.612 2.808-1.612 5.152 0 .964.088 1.86.264 2.692.176.832.468 1.552.876 2.164a4.333 4.333 0 0 0 1.628 1.44c.68.352 1.508.528 2.488.528 1.428 0 2.548-.368 3.364-1.108.82-.736 1.38-1.844 1.684-3.32zm21.072-9.96c.74.716 1.308 1.7 1.704 2.956.4 1.252.54 2.876.424 4.868h-13.576c0 2.112.568 3.688 1.7 4.732 1.136 1.04 2.652 1.564 4.544 1.564a7.65 7.65 0 0 0 1.876-.232c.62-.152 1.212-.332 1.772-.544a8.88 8.88 0 0 0 1.488-.704 6.319 6.319 0 0 0 1-.7l1.088 2.004c-.42.376-.92.728-1.492 1.052-.576.328-1.204.612-1.88.848-.684.232-1.392.416-2.132.544-.736.128-1.48.192-2.232.192-1.408 0-2.648-.216-3.728-.652-1.076-.432-1.98-1.052-2.708-1.864-.728-.808-1.276-1.772-1.652-2.9-.376-1.124-.564-2.392-.564-3.796 0-1.48.204-2.792.616-3.94.412-1.148 1.004-2.112 1.776-2.884.776-.772 1.712-1.364 2.812-1.776 1.104-.408 2.332-.616 3.696-.616.984 0 1.956.132 2.916.388.964.26 1.812.744 2.552 1.46zm-11.34 5.364h10.9c-.12-1.552-.612-2.748-1.488-3.608-.88-.856-2.028-1.284-3.456-1.284-.772 0-1.5.084-2.192.248a4.952 4.952 0 0 0-1.82.828c-.528.384-.96.892-1.296 1.508-.34.624-.556 1.392-.648 2.308zm28.748 1.4v-3.52h9.736v13.12h-3.452l-.38-3.416c-1.304 2.28-3.948 3.76-7.176 3.76-7.984 0-11.744-5.82-11.744-12.488 0-6.644 3.688-12.516 11.708-12.516 4.776 0 8.62 2.44 10.576 6.972l-3.86 1.616c-1.116-3.3-3.66-4.776-6.748-4.776-5.136 0-7.352 4.036-7.352 8.536 0 4.824 2.216 8.756 7.42 8.756 3.792 0 6.472-2.092 6.612-6.044h-5.34zm21.46-8.028c1.132 0 2.316.4 3.14 1.236l-1.904 3.436a3.36 3.36 0 0 0-1.872-.584c-1.956 0-4 1.82-4 6.184v7.244h-4.052v-17.152h4.084v2.884c.74-2.08 2.68-3.248 4.604-3.248zm10.328 0c4.672 0 7.42 2.92 7.42 7.112v10.404h-3.452l-.256-2.28c-1.12 1.764-3.404 2.624-5.36 2.624-3.52 0-6.232-2.028-6.232-5.616 0-3.724 2.988-4.96 6.836-4.96h4.652c-.088-2.544-.844-3.624-3.572-3.624-1.976 0-3.296 1.168-4.036 2.42l-3.212-2.316c1.648-2.252 3.832-3.764 7.212-3.764zm3.624 10.444v-.14h-4.428c-1.908 0-2.784.996-2.784 2.08 0 1.132.908 1.94 2.784 1.94 2.576 0 4.172-1.856 4.428-3.88zm17.736-8.064v-8.824h4.26v24.264h-3.9l-.188-1.94c-1.184 1.628-3.092 2.28-4.98 2.28-4.824 0-7.436-4.136-7.436-8.928 0-4.74 2.612-8.928 7.368-8.928 1.784 0 3.692.6 4.876 2.076zm-3.796 11.988c2.888 0 4.156-2.216 4.156-5.136 0-2.884-1.268-5.136-4.156-5.136-2.884 0-4.188 2.288-4.188 5.136 0 2.884 1.304 5.136 4.188 5.136zm26.088-5.712c0 .704-.068 1.408-.156 1.648h-11.78c.36 2.252 1.596 3.764 4.292 3.764 1.548 0 2.92-.484 4.124-1.824l2.884 2.524c-1.872 2.08-4.156 3.092-7.04 3.092-5.908 0-8.688-4.24-8.688-8.86 0-4.464 2.608-9 8.412-9 6.012 0 7.952 4.828 7.952 8.656zm-11.936-1.372h7.816c0-.38-.036-.74-.14-1.084-.428-1.768-1.904-2.676-3.724-2.676-2.472 0-3.556 1.612-3.952 3.76zm17.152-2.492c0 2.596 8.72 1.048 8.72 7.352 0 3.964-3.452 5.716-6.696 5.716-3.604 0-6.352-2.164-7.192-4.808l3.328-1.476c.464 1.236 1.376 2.816 3.66 2.816 1.94 0 2.78-1.132 2.78-2.044 0-2.884-8.62-.944-8.62-7.004 0-3.624 3.056-5.344 6.372-5.344 2.952 0 5.204 1.412 6.508 3.728l-3.248 1.768c-.584-1.064-1.544-2.18-3.4-2.18-1.372 0-2.212.668-2.212 1.476zM515.904 246.516v27.568h-7.252l-.796-7.18c-2.74 4.796-8.296 7.9-15.084 7.9-16.78 0-24.68-12.232-24.68-26.232 0-13.964 7.76-26.304 24.612-26.304 10.028 0 18.112 5.124 22.224 14.652l-8.116 3.388c-2.344-6.928-7.688-10.028-14.18-10.028-10.792 0-15.444 8.476-15.444 17.932 0 10.136 4.652 18.4 15.584 18.4 7.976 0 13.604-4.4 13.896-12.7h-11.224v-7.396h20.46zM525.756 238.037h8.588v6.06c1.548-4.364 5.628-6.82 9.668-6.82 2.384 0 4.872.832 6.604 2.596l-4.004 7.22c-1.192-.796-2.528-1.228-3.936-1.228-4.112 0-8.404 3.828-8.404 12.992v15.224h-8.516v-36.044zM576.543 259.217v-.288h-9.308c-4.008 0-5.848 2.092-5.848 4.364 0 2.384 1.912 4.08 5.848 4.08 5.412 0 8.768-3.9 9.308-8.156zm7.976-7v21.864h-7.256l-.54-4.796c-2.344 3.716-7.144 5.52-11.256 5.52-7.4 0-13.1-4.256-13.1-11.8 0-7.828 6.28-10.428 14.36-10.428h9.78c-.18-5.34-1.768-7.612-7.508-7.612-4.148 0-6.928 2.452-8.476 5.084l-6.748-4.868c3.464-4.728 8.044-7.904 15.156-7.904 9.812 0 15.588 6.136 15.588 14.94zM617.305 256.04c0-6.063-2.668-10.787-8.732-10.787-6.06 0-8.804 4.796-8.804 10.788 0 6.064 2.744 10.788 8.804 10.788 6.064 0 8.732-4.652 8.732-10.788zm-26.484.001c0-9.96 5.484-18.764 15.48-18.764 3.752 0 7.756 1.264 10.248 4.368v-18.548h8.948v50.984h-8.192l-.396-4.076c-2.492 3.428-6.496 4.8-10.464 4.8-10.14 0-15.624-8.696-15.624-18.764zM658.611 252.576c0-.792-.072-1.552-.288-2.272-.904-3.716-4.004-5.628-7.832-5.628-5.196 0-7.468 3.392-8.296 7.9h16.416zm-25.728 3.608c0-9.38 5.484-18.908 17.68-18.908 12.632 0 16.708 10.14 16.708 18.188 0 1.48-.144 2.96-.324 3.464h-24.752c.756 4.728 3.352 7.9 9.02 7.9 3.244 0 6.136-1.008 8.66-3.824l6.06 5.304c-3.932 4.368-8.732 6.496-14.792 6.496-12.416 0-18.26-8.912-18.26-18.62zM716.525 223.098v50.984h-9.02v-36.044h-11.908v-6.964h6.82c3.464 0 5.448-1.48 5.448-4.872v-3.104h8.66zM704.701 354.684H94.445c-6.992 0-12.716-5.72-12.716-12.712s5.724-12.716 12.716-12.716h610.256c6.992 0 12.712 5.724 12.712 12.716 0 6.992-5.72 12.712-12.712 12.712z" fill="#fff"/></g><g><mask id="c" maskUnits="userSpaceOnUse" x="81" y="329" width="114" height="26"><path fill-rule="evenodd" clip-rule="evenodd" d="M3.178 0A3.188 3.188 0 0 0 0 3.179a3.187 3.187 0 0 0 3.178 3.178h24.974V0H3.178z" transform="matrix(4 0 0 4 81.732 329.256)" fill="#fff"/></mask><g mask="url(#c)"><path fill-rule="evenodd" clip-rule="evenodd" d="M64.376 362.836h132.788v-41.732H64.376v41.732z" fill="#0D82F2"/></g></g><g><mask id="d" maskUnits="userSpaceOnUse" x="0" y="-72" width="800" height="872"><path fill-rule="evenodd" clip-rule="evenodd" d="M0 0v118c0 55.228 44.771 100 100 100 55.228 0 100-44.772 100-100V0H0z" transform="matrix(4 0 0 4 0 -72)" fill="#fff"/></mask><g mask="url(#d)" fill-rule="evenodd" clip-rule="evenodd"><path d="M108.04 622.512h116.872v-29.476H108.04v29.476zm-5.64 5.64h128.152v-40.756H102.4v40.756zM252.471 468.291l13.78 7.96 18.768-32.508-13.78-7.956-18.768 32.504zm15.844 15.664l-23.548-13.596 24.404-42.276 23.552 13.592-24.408 42.28zM140.078 464.734c-17.88 0-32.428 14.548-32.428 32.424 0 17.884 14.548 32.428 32.428 32.428 17.88 0 32.428-14.544 32.428-32.428 0-17.876-14.548-32.424-32.428-32.424zm0 70.496c-20.992 0-38.068-17.08-38.068-38.072 0-20.988 17.076-38.064 38.068-38.064 20.992 0 38.068 17.076 38.068 38.064 0 20.992-17.076 38.072-38.068 38.072z" fill="#2ABF7E"/><path d="M140.078 476.01c-1.52 0-3.06.168-4.6.508-5.516 1.232-10.22 4.532-13.248 9.3a21.011 21.011 0 0 0-2.796 15.944c2.54 11.384 13.868 18.588 25.244 16.04a21 21 0 0 0 13.248-9.296c3.032-4.772 4.024-10.432 2.792-15.948-2.192-9.836-10.952-16.548-20.64-16.548zm0 47.94c-12.272 0-23.368-8.496-26.148-20.96-1.556-6.98-.3-14.156 3.54-20.196 3.836-6.04 9.796-10.224 16.78-11.78 14.416-3.208 28.76 5.904 31.976 20.32 1.556 6.98.296 14.156-3.54 20.192-3.836 6.044-9.796 10.228-16.78 11.78a26.766 26.766 0 0 1-5.828.644zM183.918 401.098c-1.544 0-3.1.168-4.644.512-11.38 2.54-18.576 13.864-16.04 25.244a20.98 20.98 0 0 0 9.3 13.248 20.973 20.973 0 0 0 15.944 2.796c11.38-2.54 18.576-13.864 16.04-25.244a20.995 20.995 0 0 0-9.3-13.248 20.98 20.98 0 0 0-11.3-3.308zm-.096 47.951c-5.028 0-9.964-1.424-14.312-4.188-6.04-3.84-10.224-9.796-11.78-16.78-3.216-14.416 5.9-28.76 20.316-31.972 6.984-1.568 14.156-.308 20.196 3.536 6.04 3.836 10.224 9.796 11.78 16.78 3.212 14.416-5.9 28.76-20.316 31.972-1.956.44-3.928.652-5.884.652z" fill="#2ABF7E"/><path d="M140.078 487.291c-5.44 0-9.868 4.428-9.868 9.868 0 5.444 4.428 9.872 9.868 9.872s9.868-4.428 9.868-9.872c0-5.44-4.428-9.868-9.868-9.868zm0 25.38c-8.552 0-15.508-6.96-15.508-15.512 0-8.548 6.956-15.508 15.508-15.508s15.508 6.96 15.508 15.508c0 8.552-6.956 15.512-15.508 15.512zM135.965 590.281l-11.344-59.708 5.536-1.052 11.348 59.704-5.54 1.056zM185.707 590.703l-24.316-68.168 5.312-1.896 24.316 68.168-5.312 1.896zM129.486 466.162l-4.196-3.772 33.096-36.808 4.192 3.772-33.092 36.808zM176.619 488.433l-5.304-1.916 15.124-41.828 5.304 1.916-15.124 41.828zM183.875 409.619c-.908 0-1.828.096-2.748.304a12.533 12.533 0 0 0-7.916 5.556 12.56 12.56 0 0 0-1.668 9.52c1.516 6.804 8.28 11.096 15.08 9.588 6.8-1.52 11.1-8.284 9.584-15.084-1.312-5.876-6.544-9.884-12.332-9.884zm0 30.912c-8.371 0-15.94-5.804-17.831-14.304a18.135 18.135 0 0 1 2.412-13.776 18.13 18.13 0 0 1 11.444-8.032c9.828-2.192 19.616 4.024 21.812 13.856 2.192 9.836-4.024 19.62-13.86 21.812a18.327 18.327 0 0 1-3.976.444zM263.869 442.027l-61.424-30.688 2.52-5.044 61.424 30.688-2.52 5.044zM252.15 464.463l-51.24-24.148 2.404-5.1 51.24 24.148-2.404 5.1zM316.31 484.775l-17.596-25.332-17.636-1.408.448-5.62 20.296 1.616 14.064 20.252 3.108-5.348-14.34-19.652-17.672-1.404.448-5.624 20.256 1.616 18.036 24.716-9.412 16.188z" fill="#2ABF7E"/><path d="M307.783 499.891l-30.404-3.444-11.428-16.8 4.664-3.172 9.972 14.66 24.168 2.736 3.112-5.344-24.564-2.204-11.444-16.836 4.664-3.172 9.944 14.632 30.724 2.756-9.408 16.188z" fill="#2ABF7E"/><path d="M405.276 435.292h290.468v-7.264H405.276v7.264zM405.272 467.696h240.236v-7.264H405.272v7.264zM405.276 500.1h269.712v-7.264H405.276v7.264zM405.272 532.504h224.004v-7.264H405.272v7.264zM405.272 564.908h259.42v-7.264h-259.42v7.264zM405.276 597.312h167.468v-7.264H405.276v7.264z" fill="#686868"/><path d="M324 700l-36 128h216l-40-128H324z" fill="#1E1E1E"/></g></g></svg>